/* XPM */
static char *_8aa4b4488454d35f5928e2e82c153f8SuLtBzhqcCO7GI7x[] = {
/* columns rows colors chars-per-pixel */
"32 32 8 1 ",
"  c None",
". c #211F30",
"X c #CC3048",
"o c #E44A4A",
"O c #28860F",
"+ c #72A11D",
"@ c #F18B72",
"# c #A4CC42",
/* pixels */
"                                ",
"                                ",
"                                ",
"                                ",
"                                ",
"                                ",
"                                ",
"             ..                 ",
"             .#.                ",
"           ...O+.               ",
"          .#+O.O.               ",
"          ...OOO....            ",
"           .X.o.XooX.           ",
"          .oooooooooX.          ",
"          .o@@o@ooooX.          ",
"          .o@@ooooXoX.          ",
"          .XooooooooX.          ",
"           .XooooooX.           ",
"           .XXXXXXXX.           ",
"            .XXXXXX.            ",
"             ......             ",
"                                ",
"                                ",
"                                ",
"                                ",
"                                ",
"                                ",
"                                ",
"                                ",
"                                ",
"                                ",
"                                "
};
