/* XPM */
static char *result[] = {
/* columns rows colors chars-per-pixel */
"50 50 238 2 ",
"   c #2D372F",
".  c #28382E",
"X  c #2F392F",
"o  c #293D2E",
"O  c #2B2030",
"+  c #282A30",
"@  c #282E30",
"#  c #292F30",
"$  c #3C2731",
"%  c #2C3131",
"&  c #313831",
"*  c #333D30",
"=  c #402032",
"-  c #4F2133",
";  c #502133",
":  c #512133",
">  c #562234",
",  c #5C2434",
"<  c #5D3533",
"1  c #602335",
"2  c #642335",
"3  c #672336",
"4  c #602734",
"5  c #672636",
"6  c #6A2336",
"7  c #682436",
"8  c #6A2436",
"9  c #6C2437",
"0  c #6E2437",
"q  c #6F2437",
"w  c #602834",
"e  c #622835",
"r  c #632C36",
"t  c #692835",
"y  c #6C2936",
"u  c #6E2A36",
"i  c #6E2B36",
"p  c #792538",
"a  c #7A2538",
"s  c #7C2539",
"d  c #792E38",
"f  c #266E1F",
"g  c #276F1F",
"h  c #2B6F1F",
"j  c #287E16",
"k  c #27711E",
"l  c #29701E",
"z  c #2D771C",
"x  c #297B19",
"c  c #2D7B19",
"v  c #377B1A",
"b  c #30412E",
"n  c #30522B",
"m  c #37532C",
"M  c #3A5C2C",
"N  c #3A4532",
"B  c #3C4732",
"V  c #286723",
"C  c #2A6125",
"Z  c #396826",
"A  c #386328",
"S  c #3D612C",
"D  c #327021",
"F  c #347021",
"G  c #347220",
"H  c #387122",
"J  c #43741F",
"K  c #407D1E",
"L  c #455F2B",
"P  c #4A5B2A",
"I  c #495D29",
"U  c #5D562D",
"Y  c #414C32",
"T  c #415032",
"R  c #445233",
"E  c #4A5933",
"W  c #535933",
"Q  c #654D31",
"!  c #605532",
"~  c #785532",
"^  c #735D30",
"/  c #456E23",
"(  c #46622B",
")  c #47642A",
"_  c #49652B",
"`  c #49602F",
"'  c #496D28",
"]  c #5C602B",
"[  c #506A2D",
"{  c #4D7725",
"}  c #4C7A24",
"|  c #557721",
" . c #517820",
".. c #527B25",
"X. c #577E25",
"o. c #536634",
"O. c #556A33",
"+. c #546834",
"@. c #5B7332",
"#. c #617736",
"$. c #627B35",
"%. c #85273A",
"&. c #89273B",
"*. c #89293B",
"=. c #8C293B",
"-. c #8D293B",
";. c #8E2A3B",
":. c #8E293C",
">. c #90283C",
",. c #91283C",
"<. c #922A3C",
"1. c #932A3C",
"2. c #8F323D",
"3. c #9E313E",
"4. c #9F393E",
"5. c #A7323F",
"6. c #A0373E",
"7. c #814936",
"8. c #8D413A",
"9. c #99463D",
"0. c #A1473E",
"q. c #8E6533",
"w. c #936635",
"e. c #9C3D42",
"r. c #AC2E41",
"t. c #AE2E41",
"y. c #AE3041",
"u. c #A73940",
"i. c #A73B41",
"p. c #AE3840",
"a. c #A93C40",
"s. c #B13241",
"d. c #B13242",
"f. c #B53142",
"g. c #B53043",
"h. c #B53342",
"j. c #B63342",
"k. c #B43543",
"l. c #B83443",
"z. c #B03940",
"x. c #B33C40",
"c. c #B23C41",
"v. c #C23445",
"b. c #C33445",
"n. c #C53546",
"m. c #CC3B46",
"M. c #CC3A47",
"N. c #CE3B47",
"B. c #CC3D46",
"V. c #CE3C47",
"C. c #D03D47",
"Z. c #D03E47",
"A. c #D53D48",
"S. c #A84941",
"D. c #AC4C44",
"F. c #BE584A",
"G. c #CA4747",
"H. c #CD474B",
"J. c #C04F4E",
"K. c #CE4E4B",
"L. c #D04249",
"P. c #D54548",
"I. c #D94149",
"U. c #DA4049",
"Y. c #DA4149",
"T. c #DB4149",
"R. c #DD4349",
"E. c #D84448",
"W. c #D94548",
"Q. c #DB4748",
"!. c #DC4449",
"~. c #DD4549",
"^. c #DE4449",
"/. c #DE4549",
"(. c #DC4748",
"). c #DE4649",
"_. c #DE454A",
"`. c #DF454A",
"'. c #DC4848",
"]. c #DF4B4C",
"[. c #CA534E",
"{. c #C35A4B",
"}. c #D3524E",
"|. c #D95752",
" X c #D05A51",
".X c #D55A55",
"XX c #D65D54",
"oX c #DB5C53",
"OX c #E0464A",
"+X c #E1474A",
"@X c #E1484A",
"#X c #E2484A",
"$X c #E3494A",
"%X c #E34A4A",
"&X c #E44A4A",
"*X c #E44C4B",
"=X c #E34D4C",
"-X c #E24E4C",
";X c #E44D4C",
":X c #E54E4C",
">X c #E3514E",
",X c #E5514E",
"<X c #E5524E",
"1X c #E4544F",
"2X c #E65650",
"3X c #E15C56",
"4X c #DD6559",
"5X c #DF675A",
"6X c #E76257",
"7X c #E76459",
"8X c #E7665A",
"9X c #E86258",
"0X c #DF6E60",
"qX c #E67463",
"wX c #EA7363",
"eX c #EB7A67",
"rX c #EC7966",
"tX c #E97A68",
"yX c #ED7F6A",
"uX c #EE7F6A",
"iX c #288213",
"pX c #47821D",
"aX c #55881F",
"sX c #548620",
"dX c #568720",
"fX c #5F8824",
"gX c #5C8229",
"hX c #66872D",
"jX c #688E2A",
"kX c #688B2D",
"lX c #6A8337",
"zX c #698833",
"xX c #6F8A37",
"cX c #729036",
"vX c #779636",
"bX c #779934",
"nX c #EF876F",
"mX c None",
/* pixels */
"mXmXmXmXmXmXmXmXmXmXmXmXmXmXmXmXmXmXmXmXmXmXmXmXmXmXmXmXmXmXmXmXmXmXmXmXmXmXmXmXmXmXmXmXmXmXmXmXmXmX",
"mXmXmXmXmXmXmXmXmXmXmXmXmXmXmXmXmXmXmXmXmXmXmXmXmXmXmXmXmXmXmXmXmXmXmXmXmXmXmXmXmXmXmXmXmXmXmXmXmXmX",
"mXmXmXmXmXmXmXmXmXmXmXmXmXmXmXmXmXmXmXmXmXmXmXmXmXmXmXmXmXmXmXmXmXmXmXmXmXmXmXmXmXmXmXmXmXmXmXmXmXmX",
"mXmXmXmXmXmXmXmXmXmXmXmXmXmXmXmXmXmXmXmXmXmXmXmXmXmXmXmXmXmXmXmXmXmXmXmXmXmXmXmXmXmXmXmXmXmXmXmXmXmX",
"mXmXmXmXmXmXmXmXmXmXmXmXmXmXmXmXmXmXmXmXmXmXmXmXmXmXmXmXmXmXmXmXmXmXmXmXmXmXmXmXmXmXmXmXmXmXmXmXmXmX",
"mXmXmXmXmXmXmXmXmXmXmXmXmXmXmXmXmXmXmXmXmXmXmXmXmXmXmXmXmXmXmXmXmXmXmXmXmXmXmXmXmXmXmXmXmXmXmXmXmXmX",
"mXmXmXmXmXmXmXmXmXmXmXmXmXmXmXmXmXmXmXmXmXmXmXmXmXmXmXmXmXmXmXmXmXmXmXmXmXmXmXmXmXmXmXmXmXmXmXmXmXmX",
"mXmXmXmXmXmXmXmXmXmXmXmXmXmXmXmXmXmXmXmXmXmXmXmXmXmXmXmXmXmXmXmXmXmXmXmXmXmXmXmXmXmXmXmXmXmXmXmXmXmX",
"mXmXmXmXmXmXmXmXmXmXmXmXmXmXmXmXmXmXmXmXmXmXmXmXmXmXmXmXmXmXmXmXmXmXmXmXmXmXmXmXmXmXmXmXmXmXmXmXmXmX",
"mXmXmXmXmXmXmXmXmXmXmXmXmXmXmXmXmXmXmXmXmXmXmXmXmXmXmXmXmXmXmXmXmXmXmXmXmXmXmXmXmXmXmXmXmXmXmXmXmXmX",
"mXmXmXmXmXmXmXmXmXmXmXmXmXmXmXmXmXmXmXmXmXmXmXmXmXmXmXmXmXmXmXmXmXmXmXmXmXmXmXmXmXmXmXmXmXmXmXmXmXmX",
"mXmXmXmXmXmXmXmXmXmXmXmXmXmXmXmX+ & * X   mXmXmXmXmXmXmXmXmXmXmXmXmXmXmXmXmXmXmXmXmXmXmXmXmXmXmXmXmX",
"mXmXmXmXmXmXmXmXmXmXmXmXmXmXmXmXN +.@.[ _ L mXmXmXmXmXmXmXmXmXmXmXmXmXmXmXmXmXmXmXmXmXmXmXmXmXmXmXmX",
"mXmXmXmXmXmXmXmXmXmXmXmXmXmXmX+ E xXbXjXfXX.( mXmXmXmXmXmXmXmXmXmXmXmXmXmXmXmXmXmXmXmXmXmXmXmXmXmXmX",
"mXmXmXmXmXmXmXmXmXmXmXmXmXmX# @ T $.zXgXdXaX..) mXmXmXmXmXmXmXmXmXmXmXmXmXmXmXmXmXmXmXmXmXmXmXmXmXmX",
"mXmXmXmXmXmXmXmXmXmXmXmXo.O.` m n M S A H pXsX' b mXmXmXmXmXmXmXmXmXmXmXmXmXmXmXmXmXmXmXmXmXmXmXmXmX",
"mXmXmXmXmXmXmXmXmXmXmXR lXvXkX} D g k f V F K Z o mXmXmXmXmXmXmXmXmXmXmXmXmXmXmXmXmXmXmXmXmXmXmXmXmX",
"mXmXmXmXmXmXmXmXmXmXmXB #.cXhX{ G x iXj l h z C . O mXmXmXmXmXmXmXmXmXmXmXmXmXmXmXmXmXmXmXmXmXmXmXmX",
"mXmXmXmXmXmXmXmXmXmXmX% Y W ! Q U / c v  .| J P < t u i i i y 5 1 mXmXmXmXmXmXmXmXmXmXmXmXmXmXmXmXmX",
"mXmXmXmXmXmXmXmXmXmXmXmX$ r 2.i.0.~ I ] q.w.^ 7.6.p.x.x.x.x.z.5.1.0 mXmXmXmXmXmXmXmXmXmXmXmXmXmXmXmX",
"mXmXmXmXmXmXmXmXmXmXmXmXd e.J..X XD.8.9.F.{.S.c.B.E.Q.'.'.(.W.Z.l.<.q mXmXmXmXmXmXmXmXmXmXmXmXmXmXmX",
"mXmXmXmXmXmXmXmXmXmXmXw 4.[.0XtXqXXXG.K.4X5X}.P.).#X&X&X&X$X@X/.C.f.&.- mXmXmXmXmXmXmXmXmXmXmXmXmXmX",
"mXmXmXmXmXmXmXmXmXmXmXe a.oXeXnXyX8X-X>X6X7X1X%X%X&X&X&X$XOXR.`.Y.b.,.: mXmXmXmXmXmXmXmXmXmXmXmXmXmX",
"mXmXmXmXmXmXmXmXmXmXmX4 u.|.wXuXrX9X:X*X,X<X;X&X&X&X&X&X$X^.U.R.T.n.,.: mXmXmXmXmXmXmXmXmXmXmXmXmXmX",
"mXmXmXmXmXmXmXmXmXmXmX, 3.H.3X8X9X2X*X&X&X&X&X&X&X&X&X&X$X+X_.`.I.v.>.; mXmXmXmXmXmXmXmXmXmXmXmXmXmX",
"mXmXmXmXmXmXmXmXmXmXmX> =.k.L.].=X*X&X&X&X&X&X&X&X&X&X&X&X$X#X!.m.y.%.mXmXmXmXmXmXmXmXmXmXmXmXmXmXmX",
"mXmXmXmXmXmXmXmXmXmXmXmX8 ;.j.C.~.+X+X+X+X+X+X+X+X+X+X+X+X+X!.V.d.*.mXmXmXmXmXmXmXmXmXmXmXmXmXmXmXmX",
"mXmXmXmXmXmXmXmXmXmXmXmXmX9 1.h.N.A.A.A.A.A.A.A.A.A.A.A.A.A.M.s.:.3 mXmXmXmXmXmXmXmXmXmXmXmXmXmXmXmX",
"mXmXmXmXmXmXmXmXmXmXmXmXmXmX7 <.t.g.g.g.g.g.g.g.g.g.g.g.g.g.r.-.2 mXmXmXmXmXmXmXmXmXmXmXmXmXmXmXmXmX",
"mXmXmXmXmXmXmXmXmXmXmXmXmXmXmX9 a s s s s s s s s s s s s s p 6 mXmXmXmXmXmXmXmXmXmXmXmXmXmXmXmXmXmX",
"mXmXmXmXmXmXmXmXmXmXmXmXmXmXmXmXmX= = = = = = = = = = = = = mXmXmXmXmXmXmXmXmXmXmXmXmXmXmXmXmXmXmXmX",
"mXmXmXmXmXmXmXmXmXmXmXmXmXmXmXmXmXmXmXmXmXmXmXmXmXmXmXmXmXmXmXmXmXmXmXmXmXmXmXmXmXmXmXmXmXmXmXmXmXmX",
"mXmXmXmXmXmXmXmXmXmXmXmXmXmXmXmXmXmXmXmXmXmXmXmXmXmXmXmXmXmXmXmXmXmXmXmXmXmXmXmXmXmXmXmXmXmXmXmXmXmX",
"mXmXmXmXmXmXmXmXmXmXmXmXmXmXmXmXmXmXmXmXmXmXmXmXmXmXmXmXmXmXmXmXmXmXmXmXmXmXmXmXmXmXmXmXmXmXmXmXmXmX",
"mXmXmXmXmXmXmXmXmXmXmXmXmXmXmXmXmXmXmXmXmXmXmXmXmXmXmXmXmXmXmXmXmXmXmXmXmXmXmXmXmXmXmXmXmXmXmXmXmXmX",
"mXmXmXmXmXmXmXmXmXmXmXmXmXmXmXmXmXmXmXmXmXmXmXmXmXmXmXmXmXmXmXmXmXmXmXmXmXmXmXmXmXmXmXmXmXmXmXmXmXmX",
"mXmXmXmXmXmXmXmXmXmXmXmXmXmXmXmXmXmXmXmXmXmXmXmXmXmXmXmXmXmXmXmXmXmXmXmXmXmXmXmXmXmXmXmXmXmXmXmXmXmX",
"mXmXmXmXmXmXmXmXmXmXmXmXmXmXmXmXmXmXmXmXmXmXmXmXmXmXmXmXmXmXmXmXmXmXmXmXmXmXmXmXmXmXmXmXmXmXmXmXmXmX",
"mXmXmXmXmXmXmXmXmXmXmXmXmXmXmXmXmXmXmXmXmXmXmXmXmXmXmXmXmXmXmXmXmXmXmXmXmXmXmXmXmXmXmXmXmXmXmXmXmXmX",
"mXmXmXmXmXmXmXmXmXmXmXmXmXmXmXmXmXmXmXmXmXmXmXmXmXmXmXmXmXmXmXmXmXmXmXmXmXmXmXmXmXmXmXmXmXmXmXmXmXmX",
"mXmXmXmXmXmXmXmXmXmXmXmXmXmXmXmXmXmXmXmXmXmXmXmXmXmXmXmXmXmXmXmXmXmXmXmXmXmXmXmXmXmXmXmXmXmXmXmXmXmX",
"mXmXmXmXmXmXmXmXmXmXmXmXmXmXmXmXmXmXmXmXmXmXmXmXmXmXmXmXmXmXmXmXmXmXmXmXmXmXmXmXmXmXmXmXmXmXmXmXmXmX",
"mXmXmXmXmXmXmXmXmXmXmXmXmXmXmXmXmXmXmXmXmXmXmXmXmXmXmXmXmXmXmXmXmXmXmXmXmXmXmXmXmXmXmXmXmXmXmXmXmXmX",
"mXmXmXmXmXmXmXmXmXmXmXmXmXmXmXmXmXmXmXmXmXmXmXmXmXmXmXmXmXmXmXmXmXmXmXmXmXmXmXmXmXmXmXmXmXmXmXmXmXmX",
"mXmXmXmXmXmXmXmXmXmXmXmXmXmXmXmXmXmXmXmXmXmXmXmXmXmXmXmXmXmXmXmXmXmXmXmXmXmXmXmXmXmXmXmXmXmXmXmXmXmX",
"mXmXmXmXmXmXmXmXmXmXmXmXmXmXmXmXmXmXmXmXmXmXmXmXmXmXmXmXmXmXmXmXmXmXmXmXmXmXmXmXmXmXmXmXmXmXmXmXmXmX",
"mXmXmXmXmXmXmXmXmXmXmXmXmXmXmXmXmXmXmXmXmXmXmXmXmXmXmXmXmXmXmXmXmXmXmXmXmXmXmXmXmXmXmXmXmXmXmXmXmXmX",
"mXmXmXmXmXmXmXmXmXmXmXmXmXmXmXmXmXmXmXmXmXmXmXmXmXmXmXmXmXmXmXmXmXmXmXmXmXmXmXmXmXmXmXmXmXmXmXmXmXmX",
"mXmXmXmXmXmXmXmXmXmXmXmXmXmXmXmXmXmXmXmXmXmXmXmXmXmXmXmXmXmXmXmXmXmXmXmXmXmXmXmXmXmXmXmXmXmXmXmXmXmX",
"mXmXmXmXmXmXmXmXmXmXmXmXmXmXmXmXmXmXmXmXmXmXmXmXmXmXmXmXmXmXmXmXmXmXmXmXmXmXmXmXmXmXmXmXmXmXmXmXmXmX"
};
