/* XPM */
static char *result[] = {
/* columns rows colors chars-per-pixel */
"50 50 194 2 ",
"   c #232A2F",
".  c #262E2F",
"X  c #2F2B31",
"o  c #2C3131",
"O  c #2E3431",
"+  c #2F3830",
"@  c #363F31",
"#  c #492133",
"$  c #4A2133",
"%  c #4D2333",
"&  c #4E2A32",
"*  c #502133",
"=  c #512133",
"-  c #532333",
";  c #552533",
":  c #512934",
">  c #532C36",
",  c #4D3133",
"<  c #543038",
"1  c #553239",
"2  c #553439",
"3  c #602335",
"4  c #642335",
"5  c #642336",
"6  c #6B2436",
"7  c #6C2437",
"8  c #6E2437",
"9  c #612834",
"0  c #722437",
"q  c #7F2639",
"w  c #723437",
"e  c #29771B",
"r  c #2E731E",
"t  c #30731F",
"y  c #364A2F",
"u  c #295129",
"i  c #37582A",
"p  c #374031",
"a  c #276424",
"s  c #376624",
"d  c #306B22",
"f  c #326F20",
"g  c #326D23",
"h  c #326826",
"j  c #346D24",
"k  c #3E642C",
"l  c #447F1F",
"z  c #414C2C",
"x  c #405A2B",
"c  c #415E29",
"v  c #515D2A",
"b  c #575C2B",
"n  c #415032",
"m  c #455333",
"M  c #455433",
"N  c #774235",
"B  c #764734",
"V  c #506D2D",
"C  c #487C21",
"Z  c #567F26",
"A  c #537A2E",
"S  c #526430",
"D  c #506334",
"F  c #566934",
"G  c #557032",
"H  c #5E7435",
"J  c #84263A",
"K  c #84273A",
"L  c #88273B",
"P  c #89273B",
"I  c #8A273B",
"U  c #83283A",
"Y  c #832C39",
"T  c #8B293B",
"R  c #8F2A3C",
"E  c #91283C",
"W  c #92283D",
"Q  c #93283D",
"!  c #912F3C",
"~  c #952E3C",
"^  c #8E363C",
"/  c #8F3F39",
"(  c #97323C",
")  c #9C333D",
"_  c #A22A3F",
"`  c #A6323F",
"'  c #AA393F",
"]  c #804236",
"[  c #8A4038",
"{  c #A42B40",
"}  c #A72D40",
"|  c #AA2F41",
" . c #B32C43",
".. c #B32D43",
"X. c #BE2E45",
"o. c #BF2E45",
"O. c #AC3041",
"+. c #B33042",
"@. c #B83443",
"#. c #BD3244",
"$. c #BF3345",
"%. c #B53B41",
"&. c #C03345",
"*. c #C63046",
"=. c #C73346",
"-. c #C23545",
";. c #C73A45",
":. c #C93A46",
">. c #CD3847",
",. c #CF3A47",
"<. c #CB3D46",
"1. c #C93E46",
"2. c #CD3248",
"3. c #D03D47",
"4. c #D33948",
"5. c #D53B49",
"6. c #D63B49",
"7. c #D53F48",
"8. c #9A4042",
"9. c #9C4846",
"0. c #9F534C",
"q. c #B94245",
"w. c #BF4344",
"e. c #A1584F",
"r. c #A25C51",
"t. c #C44245",
"y. c #C64446",
"u. c #CF4749",
"i. c #D04047",
"p. c #D14549",
"a. c #D54448",
"s. c #D84049",
"d. c #D94049",
"f. c #DA4049",
"g. c #DA4149",
"h. c #DB4149",
"j. c #DB4249",
"k. c #DC4249",
"l. c #DB4449",
"z. c #DE4449",
"x. c #DE4649",
"c. c #DF4649",
"v. c #DE444A",
"b. c #DE454A",
"n. c #DF454A",
"m. c #DE464A",
"M. c #DE474A",
"N. c #D25550",
"B. c #E0464A",
"V. c #E1474A",
"C. c #E2484A",
"Z. c #E2494A",
"A. c #E3494A",
"S. c #E34A4A",
"D. c #E34A4B",
"F. c #E34B4B",
"G. c #E44A4A",
"H. c #E54E4C",
"J. c #E54F4D",
"K. c #E3534F",
"L. c #E4534F",
"P. c #E25550",
"I. c #E25A53",
"U. c #E65852",
"Y. c #E65A53",
"T. c #E35E55",
"R. c #E55C54",
"E. c #E75D55",
"W. c #E55F56",
"Q. c #D36056",
"!. c #E76056",
"~. c #E76057",
"^. c #E86157",
"/. c #E5675B",
"(. c #E9675A",
"). c #EA6C5E",
"_. c #EA6E5F",
"`. c #DA7160",
"'. c #DB7865",
"]. c #DD7E68",
"[. c #EB7463",
"{. c #EC7966",
"}. c #538627",
"|. c #5C8E24",
" X c #5D892E",
".X c #668036",
"XX c #698736",
"oX c #6B8637",
"OX c #6B9031",
"+X c #739437",
"@X c #729834",
"#X c #ED806B",
"$X c #EF866F",
"%X c None",
/* pixels */
"%X%X%X%X%X%X%X%X%X%X%X%X%X%X%X%X%X%X%X%X%X%X%X%X%X%X%X%X%X%X%X%X%X%X%X%X%X%X%X%X%X%X%X%X%X%X%X%X%X%X",
"%X%X%X%X%X%X%X%X%X%X%X%X%X%X%X%X%X%X%X%X%X%X%X%X%X%X%X%X%X%X%X%X%X%X%X%X%X%X%X%X%X%X%X%X%X%X%X%X%X%X",
"%X%X%X%X%X%X%X%X%X%X%X%X%X%X%X%X%X%X%X%X%X%X%X%X%X%X%X%X%X%X%X%X%X%X%X%X%X%X%X%X%X%X%X%X%X%X%X%X%X%X",
"%X%X%X%X%X%X%X%X%X%X%X%X%X%X%X%X%X%X%X%X%X%X%X%X%X%X%X%X%X%X%X%X%X%X%X%X%X%X%X%X%X%X%X%X%X%X%X%X%X%X",
"%X%X%X%X%X%X%X%X%X%X%X%X%X%X%X%X%X%X%X%X%X%X%X%X%X%X%X%X%X%X%X%X%X%X%X%X%X%X%X%X%X%X%X%X%X%X%X%X%X%X",
"%X%X%X%X%X%X%X%X%X%X%X%X%X%X%X%X%X%X%X%X%X%X%X%X%X%X%X%X%X%X%X%X%X%X%X%X%X%X%X%X%X%X%X%X%X%X%X%X%X%X",
"%X%X%X%X%X%X%X%X%X%X%X%X%X%X%X%X%X%X%X%X%X%X%X%X%X%X%X%X%X%X%X%X%X%X%X%X%X%X%X%X%X%X%X%X%X%X%X%X%X%X",
"%X%X%X%X%X%X%X%X%X%X%X%X%X%X%X%X%X%X%X%X%X%X%X%X%X%X%X%X%X%X%X%X%X%X%X%X%X%X%X%X%X%X%X%X%X%X%X%X%X%X",
"%X%X%X%X%X%X%X%X%X%X%X%X%X%X%X%X%X%X%X%X%X@ M %X%X%X%X%X%X%X%X%X%X%X%X%X%X%X%X%X%X%X%X%X%X%X%X%X%X%X",
"%X%X%X%X%X%X%X%X%X%X%X%X%X%X%X%X%X%X%X%XO D oX.X%X%X%X%X%X%X%X%X%X%X%X%X%X%X%X%X%X%X%X%X%X%X%X%X%X%X",
"%X%X%X%X%X%X%X%X%X%X%X%X%X%X%X%X%X%X%X%X+ G @XOXV %X%X%X%X%X%X%X%X%X%X%X%X%X%X%X%X%X%X%X%X%X%X%X%X%X",
"%X%X%X%X%X%X%X%X%X%X%X%X%X%X%X%X%X%X%Xn y k }.|.Z x %X%X%X%X%X%X%X%X%X%X%X%X%X%X%X%X%X%X%X%X%X%X%X%X",
"%X%X%X%X%X%X%X%X%X%X%X%X%X%X%X%X%X%XH XXA h g l C i . %X%X%X%X%X%X%X%X%X%X%X%X%X%X%X%X%X%X%X%X%X%X%X",
"%X%X%X%X%X%X%X%X%X%X%X%X%X%X%X%X%Xp H +X Xj a r t u   %X%X%X%X%X%X%X%X%X%X%X%X%X%X%X%X%X%X%X%X%X%X%X",
"%X%X%X%X%X%X%X%X%X%X%X%X%X%X%X%X%Xo m F S c d e f z & ; - %X%X%X%X%X%X%X%X%X%X%X%X%X%X%X%X%X%X%X%X%X",
"%X%X%X%X%X%X%X%X%X%X%X%X%X%X%X%X%X%XX , w B v s b ] ( ) ~ K %X%X%X%X%X%X%X%X%X%X%X%X%X%X%X%X%X%X%X%X",
"%X%X%X%X%X%X%X%X%X%X%X%X%X%X%X%X%X%X9 Y ` ' [ N / %.<.i.;.O.U %X%X%X%X%X%X%X%X%X%X%X%X%X%X%X%X%X%X%X",
"%X%X%X%X%X%X%X%X%X%X%X%X%X%X%X%X%X%X^ q.u.p.t.w.y.a.c.V.l.:.| q %X%X%X%X%X%X%X%X%X%X%X%X%X%X%X%X%X%X",
"%X%X%X%X%X%X%X%X%X%X%X%X%X%X%X%X%X> 9.Q./.W.P.I.T.K.S.G.C.s.#.L # %X%X%X%X%X%X%X%X%X%X%X%X%X%X%X%X%X",
"%X%X%X%X%X%X%X%X%X%X%X%X%X%X%X%X%X1 e.'.#X[.^.(.).Y.D.C.V.g.&.I # %X%X%X%X%X%X%X%X%X%X%X%X%X%X%X%X%X",
"%X%X%X%X%X%X%X%X%X%X%X%X%X%X%X%X%X2 r.].$X{.~.E.!.L.m.k.b.d.&.I # %X%X%X%X%X%X%X%X%X%X%X%X%X%X%X%X%X",
"%X%X%X%X%X%X%X%X%X%X%X%X%X%X%X%X%X< 0.`.{._.U.H.H.F.v.h.z.d.&.I # %X%X%X%X%X%X%X%X%X%X%X%X%X%X%X%X%X",
"%X%X%X%X%X%X%X%X%X%X%X%X%X%X%X%X%X: 8.N.R.U.J.G.G.G.C.V.V.f.&.I # %X%X%X%X%X%X%X%X%X%X%X%X%X%X%X%X%X",
"%X%X%X%X%X%X%X%X%X%X%X%X%X%X%X%X%X% ! 1.M.D.G.G.G.G.G.G.C.g.&.I # %X%X%X%X%X%X%X%X%X%X%X%X%X%X%X%X%X",
"%X%X%X%X%X%X%X%X%X%X%X%X%X%X%X%X%X$ T -.j.A.G.G.G.G.G.G.Z.g.&.I # %X%X%X%X%X%X%X%X%X%X%X%X%X%X%X%X%X",
"%X%X%X%X%X%X%X%X%X%X%X%X%X%X%X%X%X# I &.g.Z.G.G.G.G.G.G.Z.g.&.I # %X%X%X%X%X%X%X%X%X%X%X%X%X%X%X%X%X",
"%X%X%X%X%X%X%X%X%X%X%X%X%X%X%X%X%X# P $.d.C.G.G.G.G.G.G.C.d.$.P # %X%X%X%X%X%X%X%X%X%X%X%X%X%X%X%X%X",
"%X%X%X%X%X%X%X%X%X%X%X%X%X%X%X%X%X# J +.3.x.A.G.G.G.G.A.x.3.+.J # %X%X%X%X%X%X%X%X%X%X%X%X%X%X%X%X%X",
"%X%X%X%X%X%X%X%X%X%X%X%X%X%X%X%X%X%X7 R @.7.V.G.G.G.G.V.7.@.R 7 %X%X%X%X%X%X%X%X%X%X%X%X%X%X%X%X%X%X",
"%X%X%X%X%X%X%X%X%X%X%X%X%X%X%X%X%X%X%X6 } ,.n.A.G.G.A.n.,.} 6 %X%X%X%X%X%X%X%X%X%X%X%X%X%X%X%X%X%X%X",
"%X%X%X%X%X%X%X%X%X%X%X%X%X%X%X%X%X%X%X5 { >.k.B.B.B.B.k.>.{ 5 %X%X%X%X%X%X%X%X%X%X%X%X%X%X%X%X%X%X%X",
"%X%X%X%X%X%X%X%X%X%X%X%X%X%X%X%X%X%X%X4 _ =.4.5.6.6.5.4.=._ 4 %X%X%X%X%X%X%X%X%X%X%X%X%X%X%X%X%X%X%X",
"%X%X%X%X%X%X%X%X%X%X%X%X%X%X%X%X%X%X%X3 Q ..*.2.2.2.2.*...Q 3 %X%X%X%X%X%X%X%X%X%X%X%X%X%X%X%X%X%X%X",
"%X%X%X%X%X%X%X%X%X%X%X%X%X%X%X%X%X%X%X%X8 W  .X.o.o.X. .W 8 %X%X%X%X%X%X%X%X%X%X%X%X%X%X%X%X%X%X%X%X",
"%X%X%X%X%X%X%X%X%X%X%X%X%X%X%X%X%X%X%X%X%X0 I E E E E I 0 %X%X%X%X%X%X%X%X%X%X%X%X%X%X%X%X%X%X%X%X%X",
"%X%X%X%X%X%X%X%X%X%X%X%X%X%X%X%X%X%X%X%X%X%X* = = = = * %X%X%X%X%X%X%X%X%X%X%X%X%X%X%X%X%X%X%X%X%X%X",
"%X%X%X%X%X%X%X%X%X%X%X%X%X%X%X%X%X%X%X%X%X%X%X%X%X%X%X%X%X%X%X%X%X%X%X%X%X%X%X%X%X%X%X%X%X%X%X%X%X%X",
"%X%X%X%X%X%X%X%X%X%X%X%X%X%X%X%X%X%X%X%X%X%X%X%X%X%X%X%X%X%X%X%X%X%X%X%X%X%X%X%X%X%X%X%X%X%X%X%X%X%X",
"%X%X%X%X%X%X%X%X%X%X%X%X%X%X%X%X%X%X%X%X%X%X%X%X%X%X%X%X%X%X%X%X%X%X%X%X%X%X%X%X%X%X%X%X%X%X%X%X%X%X",
"%X%X%X%X%X%X%X%X%X%X%X%X%X%X%X%X%X%X%X%X%X%X%X%X%X%X%X%X%X%X%X%X%X%X%X%X%X%X%X%X%X%X%X%X%X%X%X%X%X%X",
"%X%X%X%X%X%X%X%X%X%X%X%X%X%X%X%X%X%X%X%X%X%X%X%X%X%X%X%X%X%X%X%X%X%X%X%X%X%X%X%X%X%X%X%X%X%X%X%X%X%X",
"%X%X%X%X%X%X%X%X%X%X%X%X%X%X%X%X%X%X%X%X%X%X%X%X%X%X%X%X%X%X%X%X%X%X%X%X%X%X%X%X%X%X%X%X%X%X%X%X%X%X",
"%X%X%X%X%X%X%X%X%X%X%X%X%X%X%X%X%X%X%X%X%X%X%X%X%X%X%X%X%X%X%X%X%X%X%X%X%X%X%X%X%X%X%X%X%X%X%X%X%X%X",
"%X%X%X%X%X%X%X%X%X%X%X%X%X%X%X%X%X%X%X%X%X%X%X%X%X%X%X%X%X%X%X%X%X%X%X%X%X%X%X%X%X%X%X%X%X%X%X%X%X%X",
"%X%X%X%X%X%X%X%X%X%X%X%X%X%X%X%X%X%X%X%X%X%X%X%X%X%X%X%X%X%X%X%X%X%X%X%X%X%X%X%X%X%X%X%X%X%X%X%X%X%X",
"%X%X%X%X%X%X%X%X%X%X%X%X%X%X%X%X%X%X%X%X%X%X%X%X%X%X%X%X%X%X%X%X%X%X%X%X%X%X%X%X%X%X%X%X%X%X%X%X%X%X",
"%X%X%X%X%X%X%X%X%X%X%X%X%X%X%X%X%X%X%X%X%X%X%X%X%X%X%X%X%X%X%X%X%X%X%X%X%X%X%X%X%X%X%X%X%X%X%X%X%X%X",
"%X%X%X%X%X%X%X%X%X%X%X%X%X%X%X%X%X%X%X%X%X%X%X%X%X%X%X%X%X%X%X%X%X%X%X%X%X%X%X%X%X%X%X%X%X%X%X%X%X%X",
"%X%X%X%X%X%X%X%X%X%X%X%X%X%X%X%X%X%X%X%X%X%X%X%X%X%X%X%X%X%X%X%X%X%X%X%X%X%X%X%X%X%X%X%X%X%X%X%X%X%X",
"%X%X%X%X%X%X%X%X%X%X%X%X%X%X%X%X%X%X%X%X%X%X%X%X%X%X%X%X%X%X%X%X%X%X%X%X%X%X%X%X%X%X%X%X%X%X%X%X%X%X"
};
