/* XPM */
static char *result[] = {
/* columns rows colors chars-per-pixel */
"50 50 200 2 ",
"   c #222B2F",
".  c #262E2F",
"X  c #292A30",
"o  c #2E3331",
"O  c #2F3830",
"+  c #3C3432",
"@  c #333A31",
"#  c #492133",
"$  c #4A2133",
"%  c #4A2233",
"&  c #4E2333",
"*  c #4E2433",
"=  c #452A31",
"-  c #502533",
";  c #642335",
":  c #642336",
">  c #652336",
",  c #662336",
"<  c #6B2436",
"1  c #6C2436",
"2  c #6C2437",
"3  c #6E2437",
"4  c #6F2737",
"5  c #6B2936",
"6  c #722537",
"7  c #712B36",
"8  c #762B37",
"9  c #782D37",
"0  c #792D37",
"q  c #7C2539",
"w  c #603835",
"e  c #2D731E",
"r  c #30731F",
"t  c #32741F",
"y  c #3E741F",
"u  c #387A1B",
"i  c #39781C",
"p  c #2D402E",
"a  c #33412F",
"s  c #3B4D2B",
"d  c #2A5229",
"f  c #39592A",
"g  c #3C4732",
"h  c #3C4A31",
"j  c #286723",
"k  c #2D6525",
"l  c #3C6727",
"z  c #337020",
"x  c #357023",
"c  c #405A2C",
"v  c #404D32",
"b  c #4E5F33",
"n  c #4E5F34",
"m  c #635B2D",
"M  c #744335",
"N  c #784435",
"B  c #41652C",
"V  c #4F692E",
"C  c #5D602B",
"Z  c #437720",
"A  c #4B7D21",
"S  c #567D27",
"D  c #57702C",
"F  c #54742C",
"G  c #576A34",
"H  c #567033",
"J  c #656B28",
"K  c #6F6D29",
"L  c #7F6F2C",
"P  c #617533",
"I  c #647C36",
"U  c #88273B",
"Y  c #89273B",
"T  c #88293A",
"R  c #91293C",
"E  c #922A3C",
"W  c #952A3D",
"Q  c #962A3D",
"!  c #962B3D",
"~  c #912D3C",
"^  c #8E313B",
"/  c #93303C",
"(  c #97333C",
")  c #98343C",
"_  c #A4383E",
"`  c #924439",
"'  c #98403B",
"]  c #9A4C39",
"[  c #A54F3B",
"{  c #B6533E",
"}  c #A32A40",
"|  c #A72C40",
" . c #A82D40",
".. c #AB2D41",
"X. c #B82D44",
"o. c #BB2D44",
"O. c #BA2F44",
"+. c #BD2E45",
"@. c #A93540",
"#. c #AD3541",
"$. c #B53342",
"%. c #B63543",
"&. c #B93443",
"*. c #B03B40",
"=. c #C33545",
"-. c #CA3147",
";. c #C23F45",
":. c #C73C45",
">. c #CC3947",
",. c #CE3A47",
"<. c #CA3E46",
"1. c #CC3148",
"2. c #CE3648",
"3. c #D23E47",
"4. c #D33949",
"5. c #D13B48",
"6. c #D43A49",
"7. c #D33F48",
"8. c #D83F49",
"9. c #BA4043",
"0. c #B94044",
"q. c #BE4445",
"w. c #BE4545",
"e. c #C54345",
"r. c #C84447",
"t. c #C84646",
"y. c #CD4646",
"u. c #CF4348",
"i. c #D04346",
"p. c #D54847",
"a. c #D24149",
"s. c #D24248",
"d. c #DB4149",
"f. c #DC4249",
"g. c #DD4349",
"h. c #DC4449",
"j. c #DD4449",
"k. c #DD4549",
"l. c #DE4449",
"z. c #DE4549",
"x. c #DF4549",
"c. c #DF4649",
"v. c #DF454A",
"b. c #D2494D",
"n. c #DF484B",
"m. c #DD534F",
"M. c #DF5E56",
"N. c #E0464A",
"B. c #E1474A",
"V. c #E1484A",
"C. c #E2484A",
"Z. c #E2494A",
"A. c #E3494A",
"S. c #E34A4A",
"D. c #E34B4B",
"F. c #E44A4A",
"G. c #E44B4B",
"H. c #E44C4B",
"J. c #E2514E",
"K. c #E5504D",
"L. c #E3544F",
"P. c #E65550",
"I. c #E35852",
"U. c #E25B53",
"Y. c #E65A53",
"T. c #E15A54",
"R. c #E35C54",
"E. c #E65F56",
"W. c #E75F56",
"Q. c #E36257",
"!. c #E46056",
"~. c #E76056",
"^. c #E86157",
"/. c #E46358",
"(. c #E4675A",
"). c #E86258",
"_. c #E9665A",
"`. c #EA6B5D",
"'. c #EB7060",
"]. c #EB7262",
"[. c #EB7664",
"{. c #EC7966",
"}. c #ED7966",
"|. c #ED7C68",
" X c #EE7E69",
".X c #46811E",
"XX c #48811F",
"oX c #5F8F26",
"OX c #588A29",
"+X c #638D28",
"@X c #668333",
"#X c #678036",
"$X c #688137",
"%X c #6C8F32",
"&X c #728E38",
"*X c #749835",
"=X c #789B34",
"-X c #EE816B",
";X c #F0876F",
":X c None",
/* pixels */
":X:X:X:X:X:X:X:X:X:X:X:X:X:X:X:X:X:X:X:X:X:X:X:X:X:X:X:X:X:X:X:X:X:X:X:X:X:X:X:X:X:X:X:X:X:X:X:X:X:X",
":X:X:X:X:X:X:X:X:X:X:X:X:X:X:X:X:X:X:X:X:X:X:X:X:X:X:X:X:X:X:X:X:X:X:X:X:X:X:X:X:X:X:X:X:X:X:X:X:X:X",
":X:X:X:X:X:X:X:X:X:X:X:X:X:X:X:X:X:X:X:X:X:X:X:X:X:X:X:X:X:X:X:X:X:X:X:X:X:X:X:X:X:X:X:X:X:X:X:X:X:X",
":X:X:X:X:X:X:X:X:X:X:X:X:X:X:X:X:X:X:X:X:X:X:X:X:X:X:X:X:X:X:X:X:X:X:X:X:X:X:X:X:X:X:X:X:X:X:X:X:X:X",
":X:X:X:X:X:X:X:X:X:X:X:X:X:X:X:X:X:X:X:X:X:X:X:X:X:X:X:X:X:X:X:X:X:X:X:X:X:X:X:X:X:X:X:X:X:X:X:X:X:X",
":X:X:X:X:X:X:X:X:X:X:X:X:X:X:X:X:X:X:X:X:X:X:X:X:X:X:X:X:X:X:X:X:X:X:X:X:X:X:X:X:X:X:X:X:X:X:X:X:X:X",
":X:X:X:X:X:X:X:X:X:X:X:X:X:X:X:X:X:X:X:X:X:X:X:X:X:X:X:X:X:X:X:X:X:X:X:X:X:X:X:X:X:X:X:X:X:X:X:X:X:X",
":X:X:X:X:X:X:X:X:X:X:X:X:X:X:X:X:X:X:X:X:X:X:X:X:X:X:X:X:X:X:X:X:X:X:X:X:X:X:X:X:X:X:X:X:X:X:X:X:X:X",
":X:X:X:X:X:X:X:X:X:X:X:X:X:X:X:X:X:X:X:X:X:X:X:X:X:X:X:X:X:X:X:X:X:X:X:X:X:X:X:X:X:X:X:X:X:X:X:X:X:X",
":X:X:X:X:X:X:X:X:X:X:X:X:X:X:X:X:X:X:X:X:X:X:X:X:X:X:X:X:X:X:X:X:X:X:X:X:X:X:X:X:X:X:X:X:X:X:X:X:X:X",
":X:X:X:X:X:X:X:X:X:X:X:X:X:X:X:X:X:X:X:X:X:X:X:X:X:X:X:X:X:X:X:X:X:X:X:X:X:X:X:X:X:X:X:X:X:X:X:X:X:X",
":X:X:X:X:X:X:X:X:X:X:X:X:X:X:X:X:X:X:X:X:X@ v :X:X:X:X:X:X:X:X:X:X:X:X:X:X:X:X:X:X:X:X:X:X:X:X:X:X:X",
":X:X:X:X:X:X:X:X:X:X:X:X:X:X:X:X:X:X:X:Xo b $XI :X:X:X:X:X:X:X:X:X:X:X:X:X:X:X:X:X:X:X:X:X:X:X:X:X:X",
":X:X:X:X:X:X:X:X:X:X:X:X:X:X:X:X:X:X:X:XO H *X%XV :X:X:X:X:X:X:X:X:X:X:X:X:X:X:X:X:X:X:X:X:X:X:X:X:X",
":X:X:X:X:X:X:X:X:X:X:X:X:X:X:X:X:X:Xh a p B OXoXS c :X:X:X:X:X:X:X:X:X:X:X:X:X:X:X:X:X:X:X:X:X:X:X:X",
":X:X:X:X:X:X:X:X:X:X:X:X:X:X:X:X:X#X@XF l k x XXA f . :X:X:X:X:X:X:X:X:X:X:X:X:X:X:X:X:X:X:X:X:X:X:X",
":X:X:X:X:X:X:X:X:X:X:X:X:X:X:X:Xn &X=X+X.Xe j r t d   :X:X:X:X:X:X:X:X:X:X:X:X:X:X:X:X:X:X:X:X:X:X:X",
":X:X:X:X:X:X:X:X:X:X:X:X:X:X:X:Xg G P D Z u y i z s = * - & % :X:X:X:X:X:X:X:X:X:X:X:X:X:X:X:X:X:X:X",
":X:X:X:X:X:X:X:X:X:X:X:X:X:X:X:XX + w M m J L K C N ^ ( ) / T 6 :X:X:X:X:X:X:X:X:X:X:X:X:X:X:X:X:X:X",
":X:X:X:X:X:X:X:X:X:X:X:X:X:X:X:X:X5 ~ @.' ] { [ ` *.:.i.i.<.&.! 3 :X:X:X:X:X:X:X:X:X:X:X:X:X:X:X:X:X",
":X:X:X:X:X:X:X:X:X:X:X:X:X:X:X:X7 _ ;.u.r.t.p.y.e.s.k.Z.Z.c.7.&.Q , :X:X:X:X:X:X:X:X:X:X:X:X:X:X:X:X",
":X:X:X:X:X:X:X:X:X:X:X:X:X:X:X:X9 9.m.!./.R.L.I.U.J.S.F.F.A.z.,. .1 :X:X:X:X:X:X:X:X:X:X:X:X:X:X:X:X",
":X:X:X:X:X:X:X:X:X:X:X:X:X:X:X:X0 q.Q.{. X].~._.`.Y.H.A.C.C.N.5...2 :X:X:X:X:X:X:X:X:X:X:X:X:X:X:X:X",
":X:X:X:X:X:X:X:X:X:X:X:X:X:X:X:X9 w.(.-X;X}.^.W.).P.G.V.g.j.l.5...2 :X:X:X:X:X:X:X:X:X:X:X:X:X:X:X:X",
":X:X:X:X:X:X:X:X:X:X:X:X:X:X:X:X8 0.M.[.|.'.Y.K.K.H.F.B.d.f.l.5...2 :X:X:X:X:X:X:X:X:X:X:X:X:X:X:X:X",
":X:X:X:X:X:X:X:X:X:X:X:X:X:X:X:X4 #.b.T.E.Y.K.F.F.F.F.A.N.N.h.>.| < :X:X:X:X:X:X:X:X:X:X:X:X:X:X:X:X",
":X:X:X:X:X:X:X:X:X:X:X:X:X:X:X:X> E %.a.n.D.F.F.F.F.F.F.A.x.3.$.R : :X:X:X:X:X:X:X:X:X:X:X:X:X:X:X:X",
":X:X:X:X:X:X:X:X:X:X:X:X:X:X:X:X:X; W =.8.l.v.v.v.v.v.v.l.8.=.W ; :X:X:X:X:X:X:X:X:X:X:X:X:X:X:X:X:X",
":X:X:X:X:X:X:X:X:X:X:X:X:X:X:X:X:X$ U O.2.4.6.6.6.6.6.6.4.2.O.U $ :X:X:X:X:X:X:X:X:X:X:X:X:X:X:X:X:X",
":X:X:X:X:X:X:X:X:X:X:X:X:X:X:X:X:X:Xq } +.-.1.1.1.1.1.1.-.+.} q :X:X:X:X:X:X:X:X:X:X:X:X:X:X:X:X:X:X",
":X:X:X:X:X:X:X:X:X:X:X:X:X:X:X:X:X:X:Xq } X.o.o.o.o.o.o.X.} q :X:X:X:X:X:X:X:X:X:X:X:X:X:X:X:X:X:X:X",
":X:X:X:X:X:X:X:X:X:X:X:X:X:X:X:X:X:X:X:Xq U Y Y Y Y Y Y U q :X:X:X:X:X:X:X:X:X:X:X:X:X:X:X:X:X:X:X:X",
":X:X:X:X:X:X:X:X:X:X:X:X:X:X:X:X:X:X:X:X:X# # # # # # # # :X:X:X:X:X:X:X:X:X:X:X:X:X:X:X:X:X:X:X:X:X",
":X:X:X:X:X:X:X:X:X:X:X:X:X:X:X:X:X:X:X:X:X:X:X:X:X:X:X:X:X:X:X:X:X:X:X:X:X:X:X:X:X:X:X:X:X:X:X:X:X:X",
":X:X:X:X:X:X:X:X:X:X:X:X:X:X:X:X:X:X:X:X:X:X:X:X:X:X:X:X:X:X:X:X:X:X:X:X:X:X:X:X:X:X:X:X:X:X:X:X:X:X",
":X:X:X:X:X:X:X:X:X:X:X:X:X:X:X:X:X:X:X:X:X:X:X:X:X:X:X:X:X:X:X:X:X:X:X:X:X:X:X:X:X:X:X:X:X:X:X:X:X:X",
":X:X:X:X:X:X:X:X:X:X:X:X:X:X:X:X:X:X:X:X:X:X:X:X:X:X:X:X:X:X:X:X:X:X:X:X:X:X:X:X:X:X:X:X:X:X:X:X:X:X",
":X:X:X:X:X:X:X:X:X:X:X:X:X:X:X:X:X:X:X:X:X:X:X:X:X:X:X:X:X:X:X:X:X:X:X:X:X:X:X:X:X:X:X:X:X:X:X:X:X:X",
":X:X:X:X:X:X:X:X:X:X:X:X:X:X:X:X:X:X:X:X:X:X:X:X:X:X:X:X:X:X:X:X:X:X:X:X:X:X:X:X:X:X:X:X:X:X:X:X:X:X",
":X:X:X:X:X:X:X:X:X:X:X:X:X:X:X:X:X:X:X:X:X:X:X:X:X:X:X:X:X:X:X:X:X:X:X:X:X:X:X:X:X:X:X:X:X:X:X:X:X:X",
":X:X:X:X:X:X:X:X:X:X:X:X:X:X:X:X:X:X:X:X:X:X:X:X:X:X:X:X:X:X:X:X:X:X:X:X:X:X:X:X:X:X:X:X:X:X:X:X:X:X",
":X:X:X:X:X:X:X:X:X:X:X:X:X:X:X:X:X:X:X:X:X:X:X:X:X:X:X:X:X:X:X:X:X:X:X:X:X:X:X:X:X:X:X:X:X:X:X:X:X:X",
":X:X:X:X:X:X:X:X:X:X:X:X:X:X:X:X:X:X:X:X:X:X:X:X:X:X:X:X:X:X:X:X:X:X:X:X:X:X:X:X:X:X:X:X:X:X:X:X:X:X",
":X:X:X:X:X:X:X:X:X:X:X:X:X:X:X:X:X:X:X:X:X:X:X:X:X:X:X:X:X:X:X:X:X:X:X:X:X:X:X:X:X:X:X:X:X:X:X:X:X:X",
":X:X:X:X:X:X:X:X:X:X:X:X:X:X:X:X:X:X:X:X:X:X:X:X:X:X:X:X:X:X:X:X:X:X:X:X:X:X:X:X:X:X:X:X:X:X:X:X:X:X",
":X:X:X:X:X:X:X:X:X:X:X:X:X:X:X:X:X:X:X:X:X:X:X:X:X:X:X:X:X:X:X:X:X:X:X:X:X:X:X:X:X:X:X:X:X:X:X:X:X:X",
":X:X:X:X:X:X:X:X:X:X:X:X:X:X:X:X:X:X:X:X:X:X:X:X:X:X:X:X:X:X:X:X:X:X:X:X:X:X:X:X:X:X:X:X:X:X:X:X:X:X",
":X:X:X:X:X:X:X:X:X:X:X:X:X:X:X:X:X:X:X:X:X:X:X:X:X:X:X:X:X:X:X:X:X:X:X:X:X:X:X:X:X:X:X:X:X:X:X:X:X:X",
":X:X:X:X:X:X:X:X:X:X:X:X:X:X:X:X:X:X:X:X:X:X:X:X:X:X:X:X:X:X:X:X:X:X:X:X:X:X:X:X:X:X:X:X:X:X:X:X:X:X",
":X:X:X:X:X:X:X:X:X:X:X:X:X:X:X:X:X:X:X:X:X:X:X:X:X:X:X:X:X:X:X:X:X:X:X:X:X:X:X:X:X:X:X:X:X:X:X:X:X:X"
};
