/* XPM */
static char *_67656df05b644ca99710bd9cd50558fBBkIZFAmeOvmgQaf[] = {
/* columns rows colors chars-per-pixel */
"32 32 8 1 ",
"  c None",
". c #211F30",
"X c #CC3048",
"o c #E44A4A",
"O c #28860F",
"+ c #72A11D",
"@ c #F18B72",
"# c #A4CC42",
/* pixels */
"                                ",
"                                ",
"                                ",
"                                ",
"                                ",
"             ..                 ",
"             .#.                ",
"            ..O+.               ",
"           .#O.O.               ",
"           ...OO...             ",
"            .X..XoX.            ",
"           .oooooooX.           ",
"           .@@o@oooX.           ",
"           .@@oooXoX.           ",
"           .oooooooX.           ",
"           .XooooooX.           ",
"           .XooooooX.           ",
"           .XooooooX.           ",
"            .XooooX.            ",
"            .XooooX.            ",
"            .XXXXXX.            ",
"             .XXXX.             ",
"              ....              ",
"                                ",
"                                ",
"                                ",
"                                ",
"                                ",
"                                ",
"                                ",
"                                ",
"                                "
};
