/* XPM */
static char *_9f0f6c641c2498ffaca3b7886ba354fAzJadasqeKfkLxpa[] = {
/* columns rows colors chars-per-pixel */
"32 32 11 1 ",
"  c None",
". c #211F30",
"X c #D2612F",
"o c #28860F",
"O c #72A11D",
"+ c #E1CA33",
"@ c #E68D41",
"# c #A4CC42",
"$ c #F7EC8A",
"% c #FBDFB1",
"& c #FAF7CD",
/* pixels */
"                                ",
"                                ",
"                                ",
"                                ",
"                                ",
"                                ",
"                                ",
"                                ",
"                                ",
"              ....              ",
"            ..+++%..            ",
"           .$$+$$+%X. ..        ",
"          .$$&&&$+%XX.O#.       ",
"          .++&&&++%@X.oO#.      ",
"         .+$$&&&$%@X@X.o.       ",
"         .+$$$+$$%@@@X..        ",
"         .+$$$++%@@@XX.         ",
"         .%+++%%@@@@@X.         ",
"          .%%%X@X@X@@.          ",
"          .XXXX@@@@@X.          ",
"           .XXXX@@XX.           ",
"            ..XXXX..            ",
"              ....              ",
"                                ",
"                                ",
"                                ",
"                                ",
"                                ",
"                                ",
"                                ",
"                                ",
"                                "
};
