/* XPM */
static char *_26f3e1406314552b47ebb9fdf6e488aNcAEzjgZZH1kZAjq[] = {
/* columns rows colors chars-per-pixel */
"64 64 94 2 ",
"   c #302C2E",
".  c #322D34",
"X  c #342E3C",
"o  c #35333C",
"O  c #362F42",
"+  c #373045",
"@  c #383245",
"#  c #393843",
"$  c #39324B",
"%  c #3D394D",
"&  c #3D3750",
"*  c #3E3A52",
"=  c #403751",
"-  c #403D53",
";  c #423F58",
":  c #493F5A",
">  c #424155",
",  c #4E4455",
"<  c #44435B",
"1  c #4C455C",
"2  c #47495F",
"3  c #484B5F",
"4  c #4A4D62",
"5  c #514662",
"6  c #554C67",
"7  c #584D69",
"8  c #4D5067",
"9  c #4F546B",
"0  c #51546B",
"q  c #5C516D",
"w  c #5A5A6C",
"e  c #565770",
"r  c #5D5572",
"t  c #5E5C76",
"y  c #655776",
"u  c #635D79",
"i  c #6E5F7F",
"p  c #626375",
"a  c #64617C",
"s  c #69617E",
"d  c #6E5F80",
"f  c #6F6584",
"g  c #6B6A81",
"h  c #756584",
"j  c #756788",
"k  c #766B8B",
"l  c #786A8C",
"z  c #737687",
"x  c #747788",
"c  c #7E6D90",
"v  c #806F92",
"b  c #827094",
"n  c #857498",
"m  c #87789C",
"M  c #8A7EA2",
"N  c #8782A3",
"B  c #8D81A5",
"V  c #8E8CAD",
"C  c #9287AB",
"Z  c #989FAF",
"A  c #968DB1",
"S  c #9596B2",
"D  c #9693B5",
"F  c #9996B9",
"G  c #9E99BA",
"H  c #9E98BD",
"J  c #9F9ABF",
"K  c #A4AABE",
"L  c #9F9BC0",
"P  c #A29DC2",
"I  c #A4A0C4",
"U  c #A6A9C4",
"Y  c #A6A2C8",
"T  c #A7A3C9",
"R  c #A7A5CB",
"E  c #A8A6CC",
"W  c #A9A7CD",
"Q  c #AAA8CE",
"!  c #ABAACF",
"~  c #A9B1C2",
"^  c #AAB2C2",
"/  c #B4BCCF",
"(  c #B5BECE",
")  c #B2B3D1",
"_  c #B1B2D2",
"`  c #B3B5D5",
"'  c #B9BDD9",
"]  c #B7C1D1",
"[  c #C3CBE0",
"{  c #C5CEE3",
"}  c #C9D2E5",
"|  c #CAD5E6",
" . c #CCD7E8",
".. c #CDD8E9",
/* pixels */
"                                                                                                                        O O $ + ",
"                                                                                                                        O = $ $ ",
"                                                                                                                        + $ $ $ ",
"                                                                                                                        + $ $ $ ",
"                                                                                                                      . + $ $ $ ",
"                                                                                                                      X + $ $ $ ",
"                                                                                                                      . + $ $ $ ",
". . . . . . . . . . . . . . . .                                                                                     . . + $ $ + ",
"O O O O O O X + O O O O + O O X .                                                                                     . O $ $ $ ",
"$ $ $ $ $ $ $ $ $ $ $ @ $ $ $ + X                                                                                   . . + $ $ $ ",
"$ $ $ $ $ $ $ $ $ @ $ $ $ $ $ + .                                                                                     . O $ $ $ ",
": : : 1 6 6 0 q u p p w : $ $ + .                                                                                     . O $ $ $ ",
"d d d l N V V S K ^ ^ Z p $ $ @ X                                                                                     . O $ $ $ ",
"c c c M L T Q _ [ | } / z $ $ @ .                                                                                     . $ $ $ $ ",
"b b b M P Q Q ` { .. .] x & $ + .                                                                                     X O $ $ $ ",
"c c c M H T Y _ [ } } / z $ $ + .                                                                                     . O $ $ $ ",
"f u f k N V A H _ ' ' U s % $ @ .                                                                                     . + $ $ $ ",
"9 e e u l n n B I ! ! G a $ $ @ .                                                                                     . + $ $ $ ",
"9 9 9 t l b b B P Q E F a $ $ @ .                     .                                                               . O $ $ $ ",
"9 9 9 t l b b B L Y Y D a $ $ @ X .   . .   .         . .   .                                                           O $ $ $ ",
"9 9 9 t l b b m C A A N q O X o X O X O X X O O O O O X X O X X                                                       . O $ $ $ ",
"9 9 0 t l b b b n n n k , . . . @ $ $ $ $ $ $ $ $ $ $ $ $ $ $ $ .                                                     X + $ $ $ ",
"9 9 9 t l b b b b b b h ,     . O $ $ $ $ $ $ $ $ $ $ $ $ $ $ O .                                                     X O $ $ $ ",
"9 9 9 t l b b b b b b h ,     o $ $ $ & = = = = = = = = $ $ $ O .                                                     X O $ $ $ ",
"9 9 0 t l b b b b b b k ,     o - < < 5 r y y y y y y 7 : $ $ O . .                                                   X O + $ $ ",
"9 9 9 t l b b b b b b j , .   # 4 9 9 t k c c c c c c h 5 $ $ O .                                                     . O $ $ $ ",
"9 9 0 t l c b b b b b h ,     # 4 9 9 t l b b c b v v j 5 $ $ O . .                                                   . O $ $ $ ",
"9 9 0 t l b b b b b b h ,     # 3 9 9 t l c b c v v v h 5 $ $ + . .   .   .         . .   .                           . O + $ $ ",
"9 9 0 t c c b b b b b h ,     # < 4 4 w i f f f h f d u : O O X O O X O X X O X O X X O O O X O .                   . . $ $ $ $ ",
"9 9 0 t l b b b b b b h , .   o - < < 4 9 e e e e e e 9 # . . . O O $ $ O $ $ O $ $ O $ O $ O O .                     . O $ $ $ ",
"9 9 0 t l b b b b b b h ,     o - < < < 8 9 9 9 9 9 9 4 #     X O $ $ $ $ $ $ $ $ $ $ $ $ $ $ O .                     . O $ $ $ ",
"9 9 9 t l b b b b b b h ,   . o - < < 4 8 9 9 9 9 9 9 4 # .   . O $ $ $ $ $ $ $ $ $ $ $ $ $ $ O .                   . X O $ $ $ ",
"9 9 0 u l b b b b b n x , . . o * < < < 4 9 9 9 9 9 9 4 #     . $ $ ; ; ; ; ; < < < < * * $ $ + X                     . + $ $ $ ",
"9 9 0 w l b b b b b b i , .   o * < < 2 9 9 9 9 9 9 9 4 #     o = = < < 8 8 < d 4 9 8 4 * $ $ + .                     . + $ $ $ ",
"9 9 0 u l b b b b b n d ,     o * 2 < 2 4 9 9 9 9 9 9 3 #     o = : : < 8 9 8 9 9 9 9 4 * $ $ + .                     . O $ $ $ ",
"9 9 0 p l b b b b b n d , .   o * < < 2 9 9 9 9 9 9 9 4 #     o = : < < 8 9 9 9 9 9 9 4 * $ $ + . .                 . X O $ $ $ ",
"9 9 0 t h b b b b b b i ,     o < < < 4 9 9 9 9 9 9 9 4 #     o & ; ; < < 8 8 8 4 4 4 2 % + O o X X X X X X X X X X X O $ $ $ $ ",
"9 9 0 t v b b b b b n h , .   o * < < < 4 9 9 9 9 9 9 4 #     o $ $ $ & < < < < 2 2 2 < O . . X + + $ + + O + + + + + + $ $ $ + ",
"9 9 0 t h b b b b b b h ,     o * < < 2 9 9 9 9 9 9 9 3 #     o $ $ $ & ; < < < < < < - O     . + $ $ $ $ $ $ $ $ $ $ $ $ $ $ $ ",
"9 9 9 t v b b b b b b h , .   o * < < 2 9 9 9 9 9 9 9 4 #     . $ $ $ & ; < < < < < < * o     . + $ $ $ $ $ $ $ $ $ $ $ $ + $ $ ",
"9 9 0 t k b b b b b b h ,     o - 2 < 2 4 9 9 9 9 9 9 3 # .   . + $ $ $ ; < ; < < < < * o     X $ * & & & & & & $ $ & & $ $ $ $ ",
"9 9 0 t k b b b b b v h ,     o * < < 2 9 9 9 9 9 9 9 4 #   . . + $ $ $ ; < < < < < < ; o     o * ; ; ; ; ; ; ; ; * ; ; $ $ $ $ ",
"9 9 0 t l b b b b b v h , .   o * < < 2 9 9 9 9 9 9 9 4 #     . $ $ $ $ ; < < < < < ; ; o     o ; < < < < < < < ; < < ; $ $ $ $ ",
"9 9 0 t k b b b b b b h ,     o - 2 < 2 4 9 9 9 9 9 9 4 # .   . + $ $ & ; < < < < < < * o     X * < < < < < < < ; < < ; & $ $ $ ",
"9 9 0 t l b b b b b b h < .   o * < < 2 9 9 9 9 9 9 9 4 #     . + $ $ & ; < < < < < < ; O     X * ; ; ; ; < < < < < < ; & $ $ $ ",
"9 9 0 t l b b b b b b h < .   o * < < 2 4 9 9 9 9 9 9 4 #     . + $ $ $ ; < < < < < < * o     X $ & & * ; < < < < < < ; $ $ $ $ ",
"9 9 0 t l b b b c n n g 4     o - < < 2 9 9 9 9 9 9 9 4 #     X + $ $ $ ; < < < < < < ; o .   X $ $ $ & ; < < < < < < ; $ $ $ $ ",
"9 9 0 t l b b b v n c g -   . o * < < 2 4 9 9 9 9 9 9 4 #     . + $ $ $ ; < < < < < < * o     . + $ $ $ ; < < < < < < ; $ $ $ $ ",
"9 9 0 t l c n b b b b h ,     o * 2 < 2 4 9 9 9 9 9 9 4 #     . O $ $ * ; < < < < < 2 * o     X + $ $ $ ; < < < < < < ; $ $ $ $ ",
"9 9 0 t l b b b b b b h , .   o * < < 2 4 9 9 9 9 9 9 4 #     X O $ $ $ ; < < < < < < * o     . + $ $ $ ; < < < < < < ; & $ $ $ ",
"9 9 0 t l b b b b b b h ,     o * 2 < 2 9 9 9 9 9 9 9 4 #     . $ $ $ * ; < < < < < < * o     . + $ $ & ; < < ; < < < ; $ $ $ $ ",
"9 9 0 t l b b b b b b h , .   o * < < 2 9 9 9 9 9 9 9 4 #     . O $ $ * * < < < < < < * o     X + $ $ & ; < < < < < < ; $ $ $ $ ",
"9 9 0 t l b b b b b b h ,     o * 2 2 2 9 9 9 9 9 9 9 4 # .   X O $ $ $ < < < < < < < * o     . + $ $ & ; < < < < < < ; $ $ $ $ ",
"9 9 0 t l b b b b b b h , .   o * < < 2 9 9 9 9 9 9 9 4 #     . O $ $ * * < < < < < 2 * o     . + $ $ $ ; < < < < < < ; * $ $ $ ",
"9 9 0 t l b b b b b b h ,     o * < < 2 4 9 9 9 9 9 9 4 #     . $ $ $ $ < 2 < < < < < * o     . + $ $ & ; < < < < < < ; $ $ $ $ ",
"9 9 9 t l b b b b b b h , .   o * < < < 9 9 9 9 9 9 9 4 #     X O $ $ * * < < < < < 2 * o     . + $ $ $ ; < < < < < < ; $ $ $ $ ",
"9 9 9 t l b b b b b b h ,     o * 2 < < 9 9 9 9 9 9 9 4 +     . O $ $ $ ; < < < < < < * + .   X $ $ $ & ; < < < < < < ; $ $ $ $ ",
"9 9 9 t l b b b b b b h ,     o * < < 2 4 9 9 9 9 9 9 4 +     X + $ $ * ; < < < < < < * o .   . + $ $ & ; < < < < < < ; & $ $ $ ",
"9 9 9 t l b b b b b b h ,     o * 2 < 2 9 9 9 9 9 9 9 4 #     . + $ $ $ ; < < < < < < ; o     . + $ $ & ; < < < < < < ; $ $ $ $ ",
"9 9 6 y l b b v b b b h , .   o * < < 2 4 9 9 9 9 9 9 4 #     . + $ $ $ ; < < < < < < * o     X + $ $ & ; < < ; < < < ; $ $ $ $ ",
"8 8 8 t h l l v l v l d , . . o * ; ; 2 4 9 9 4 4 4 9 2 + X . X + $ $ & ; ; ; ; ; ; < * O . . X + $ $ $ ; ; ; ; < ; < * & $ $ $ ",
"; ; * 5 7 q q q q q q 7 > o @ @ * * * * ; * < < < < < * + O O O $ $ $ $ & * * * $ $ * & O O O O $ $ $ $ & & * * & * & $ $ $ $ $ ",
"$ $ $ & $ = = = = = $ $ $ $ $ $ $ $ $ $ $ $ $ $ $ $ $ $ $ $ + $ $ $ $ $ $ $ $ $ + $ $ $ $ $ $ $ $ $ $ $ $ $ $ $ $ $ $ $ $ $ $ $ ",
"$ $ $ $ $ $ $ $ + + $ + $ $ $ $ $ $ $ $ $ $ $ $ $ $ $ $ $ $ $ $ $ $ $ $ $ $ $ $ $ $ $ $ $ $ $ $ $ $ $ $ $ $ $ $ $ $ $ $ $ $ $ $ "
};
