/* XPM */
static char *result[] = {
/* columns rows colors chars-per-pixel */
"64 64 4 1 ",
"  c #656C17",
". c #72751B",
"X c #787B21",
"o c #7F8226",
/* pixels */
"........................ X..   .........................Xoo...o.",
"......................... .XX............................oXX.oo.",
"...........................o ............................ XX.XX.",
"........................... .............................. X X .",
"........................................................... . ..",
"................................................................",
"................................................................",
"................................................................",
"................................................................",
"................................................................",
"................................................................",
"................................................................",
"................................................................",
"................................................................",
"................................................................",
"................................................................",
"................................................................",
"................................................................",
"................................................................",
"................................................................",
"................................................................",
"................................................................",
"................................................................",
"................................................................",
"................................................................",
"................................................................",
".............................................o..................",
"........................................ooX..XX.................",
".........................................oXX. X..o..............",
"......................................... XXX .XX ..............",
"........................................oX XX..XX ..............",
"X....................................... XX X..  ...............",
"X..o..................................... X  ...................",
".XX ............................................................",
".XX ............................................................",
".  .............................................................",
"................................................................",
"................................................................",
"................................................................",
"................................................................",
"................................................................",
"................................................................",
"................................................................",
".........................oo.....................................",
"..........................oXX...oo..............................",
".......................... XX..Xo...............................",
"...........................  .XXX...............................",
"..............................XX ...............................",
"..............................  ................................",
"................................................................",
"................................................................",
"................................................................",
"................................................................",
".................................Xo.............................",
"..................................oo............................",
"..................................XXX...........................",
".................................. XX XXoo......................",
"...................................  XXX........................",
".....................................XX ........................",
".......Xo....XX......................X .........................",
"........oo..XX..................................................",
"........ XX.XX..................................................",
"........ XX.  ..................................................",
".........  ....................................o................"
};
