/* XPM */
static char *result[] = {
/* columns rows colors chars-per-pixel */
"64 64 132 2 ",
"   c gray7",
".  c #393939",
"X  c #3C3C3C",
"o  c gray25",
"O  c #444444",
"+  c gray28",
"@  c #484848",
"#  c #494949",
"$  c #4C4C4C",
"%  c #4E4E4E",
"&  c gray31",
"*  c #505050",
"=  c #515151",
"-  c #535353",
";  c gray33",
":  c #585858",
">  c gray35",
",  c #5A5A5A",
"<  c gray37",
"1  c #626262",
"2  c gray39",
"3  c #6A6A6A",
"4  c #6C6C6C",
"5  c #6D6D6D",
"6  c gray44",
"7  c gray45",
"8  c gray46",
"9  c #777777",
"0  c #797979",
"q  c gray48",
"w  c #7B7B7B",
"e  c #7E7E7E",
"r  c gray50",
"t  c #818181",
"y  c gray52",
"u  c #868686",
"i  c #888888",
"p  c gray54",
"a  c #8B8B8B",
"s  c #8D8D8D",
"d  c #8E8E8E",
"f  c gray56",
"g  c #909090",
"h  c gray57",
"j  c #929292",
"k  c #939393",
"l  c gray58",
"z  c #959595",
"x  c #979797",
"c  c #989898",
"v  c #9A9A9A",
"b  c #9B9B9B",
"n  c gray61",
"m  c #9D9D9D",
"M  c gray62",
"N  c gray63",
"B  c #A5A5A5",
"V  c gray65",
"C  c #A7A7A7",
"Z  c #AAAAAA",
"A  c gray67",
"S  c #ACACAC",
"D  c gray68",
"F  c gray69",
"G  c #B1B1B1",
"H  c #B2B2B2",
"J  c gray70",
"K  c gray71",
"L  c #B6B6B6",
"P  c #B7B7B7",
"I  c gray72",
"U  c #B9B9B9",
"Y  c gray73",
"T  c #BBBBBB",
"R  c gray74",
"E  c gray",
"W  c gray75",
"Q  c #C0C0C0",
"!  c gray76",
"~  c #C3C3C3",
"^  c gray77",
"/  c #C5C5C5",
"(  c #C6C6C6",
")  c gray78",
"_  c #C8C8C8",
"`  c gray79",
"'  c #CACACA",
"]  c #CBCBCB",
"[  c #CDCDCD",
"{  c #CECECE",
"}  c gray81",
"|  c #D0D0D0",
" . c gray82",
".. c #D2D2D2",
"X. c LightGray",
"o. c gray83",
"O. c #D5D5D5",
"+. c gray84",
"@. c #D7D7D7",
"#. c #D8D8D8",
"$. c gray85",
"%. c #DADADA",
"&. c gray86",
"*. c gainsboro",
"=. c #DDDDDD",
"-. c gray87",
";. c #DFDFDF",
":. c gray88",
">. c #E1E1E1",
",. c #E2E2E2",
"<. c gray89",
"1. c #E4E4E4",
"2. c gray90",
"3. c #E6E6E6",
"4. c #E7E7E7",
"5. c gray91",
"6. c #EAEAEA",
"7. c gray92",
"8. c #ECECEC",
"9. c gray93",
"0. c #EEEEEE",
"q. c #EFEFEF",
"w. c gray94",
"e. c #F1F1F1",
"r. c gray95",
"t. c #F3F3F3",
"y. c #F4F4F4",
"u. c #F6F6F6",
"i. c gray97",
"p. c #F9F9F9",
"a. c gray98",
"s. c None",
/* pixels */
"s.s.s.s.s.s.s.s.s.s.s.s.s.s.s.s.s.s.s.s.s.s.s.s.s.s.s.s.s.s.s.s.s.s.s.s.s.s.s.s.s.s.s.s.s.s.s.s.s.s.s.s.s.s.s.s.s.s.s.s.s.s.s.s.",
"s.s.s.s.s.s.s.s.s.s.s.s.s.s.s.s.s.s.s.s.s.s.s.s.s.s.s.s.s.s.s.s.s.s.s.s.s.s.s.s.s.s.s.s.s.s.s.s.s.s.s.s.s.s.s.s.s.s.s.s.s.s.s.s.",
"s.s.s.s.s.s.s.s.s.s.s.s.s.s.s.s.s.s.s.s.s.s.s.s.s.s.s.s.s.s.s.s.s.s.s.s.s.s.s.s.s.s.s.s.s.s.s.s.s.s.s.s.s.s.s.s.s.s.s.s.s.s.s.s.",
"s.s.s.s.s.s.s.s.s.s.s.s.s.s.s.s.s.s.s.s.s.s.s.s.s.s.s.s.s.s.s.s.s.s.s.s.s.s.s.s.s.s.s.s.s.s.s.s.s.s.s.s.s.s.s.s.s.s.s.s.s.s.s.s.",
"s.s.s.s.s.s.s.s.s.s.s.s.s.s.s.s.s.s.s.s.s.s.s.s.s.s.s.s.s.s.s.s.s.s.s.s.s.s.s.s.s.s.s.s.s.s.s.s.s.s.s.s.s.s.s.s.s.s.s.s.s.s.s.s.",
"s.s.s.s.s.s.s.s.s.s.s.s.s.s.s.s.s.s.s.s.s.s.s.s.s.s.s.s.s.s.s.s.s.s.s.s.s.s.s.s.s.s.s.s.s.s.s.s.s.s.s.s.s.s.s.s.s.s.s.s.s.s.s.s.",
"s.s.s.s.s.s.s.s.s.s.s.s.s.s.s.s.s.s.s.s.s.s.s.s.s.s.s.: > > > > > > > > : s.s.s.s.s.s.s.s.s.s.s.s.s.s.s.s.s.s.s.s.s.s.s.s.s.s.s.",
"s.s.s.s.s.s.s.s.s.s.s.s.s.s.s.s.s.s.s.s.s.s.s.s.s.s.j v b b b b b b b b v j s.s.s.s.s.s.s.s.s.s.s.s.s.s.s.s.s.s.s.s.s.s.s.s.s.s.",
"s.s.s.s.s.s.s.s.s.s.s.s.s.s.s.s.s.s.s.s.s.s.s.s.6 n W | o.o.o.o.o.o.X.X.} E b 6 s.s.s.s.s.s.s.s.s.s.s.s.s.s.s.s.s.s.s.s.s.s.s.s.",
"s.s.s.s.s.s.s.s.s.s.s.s.s.s.s.s.s.s.s.s.s.s.s.s.x T *.0.t.t.t.t.t.r.w.q.6.#.U x s.s.s.s.s.s.s.s.s.s.s.s.s.s.s.s.s.s.s.s.s.s.s.s.",
"s.s.s.s.s.s.s.s.s.s.s.s.s.s.s.s.s.s.s.s.s.s.5 z T @.8.i.a.a.a.a.p.i.y.r.q.3.o.Y z 5 s.s.s.s.s.s.s.s.s.s.s.s.s.s.s.s.s.s.s.s.s.s.",
"s.s.s.s.s.s.s.s.s.s.s.s.s.s.s.s.s.s.s.s.s.s.z K X.5.r.u.i.i.i.i.u.y.r.q.0.8.2.X.K z s.s.s.s.s.s.s.s.s.s.s.s.s.s.s.s.s.s.s.s.s.s.",
"s.s.s.s.s.s.s.s.s.s.s.s.s.s.s.s.s.s.s.s.s.p L ..<.9.e.r.r.r.r.r.r.e.q.0.0.0.7.<...L p s.s.s.s.s.s.s.s.s.s.s.s.s.s.s.s.s.s.s.s.s.",
"s.s.s.s.s.s.s.s.s.s.s.s.s.s.s.s.s.s.s.s.- h / ,.7.0.q.q.q.q.q.q.q.q.0.0.0.0.9.7.,./ h - s.s.s.s.s.s.s.s.s.s.s.s.s.s.s.s.s.s.s.s.",
"s.s.s.s.s.s.s.s.s.s.s.s.s.s.s.s.s.s.s.s.; k ` 3.0.0.0.0.0.0.0.0.0.0.0.0.0.0.0.0.3.` k ; s.s.s.s.s.s.s.s.s.s.s.s.s.s.s.s.s.s.s.s.",
"s.s.s.s.s.s.s.s.s.s.s.s.s.s.s.s.s.s.s.s.; k ` 3.0.0.0.0.0.0.0.0.0.0.0.0.0.0.0.0.3.` k ; s.s.s.s.s.s.s.s.s.s.s.s.s.s.s.s.s.s.s.s.",
"s.s.s.s.s.s.s.s.s.s.s.s.s.s.s.s.s.s.s.s.; k ` 3.0.0.0.0.0.0.0.0.0.0.0.0.0.0.0.0.3.` k ; s.s.s.s.s.s.s.s.s.s.s.s.s.s.s.s.s.s.s.s.",
"s.s.s.s.s.s.s.s.s.s.s.s.s.s.s.s.s.s.s.s.; k ` 3.0.0.0.0.0.0.0.0.0.0.0.0.0.0.0.0.3.` k ; s.s.s.s.s.s.s.s.s.s.s.s.s.s.s.s.s.s.s.s.",
"s.s.s.s.s.s.s.s.s.s.s.s.s.s.s.s.s.s.s.s.; k ` 3.0.0.0.0.0.0.0.0.0.0.0.0.0.0.0.0.3.` k ; s.s.s.s.s.s.s.s.s.s.s.s.s.s.s.s.s.s.s.s.",
"s.s.s.s.s.s.s.s.s.s.s.s.s.s.s.s.s.s.s.s.; k ` 3.0.0.0.0.0.0.0.0.0.0.0.0.0.0.0.0.3.` k ; s.s.s.s.s.s.s.s.s.s.s.s.s.s.s.s.s.s.s.s.",
"s.s.s.s.s.s.s.s.s.s.s.s.s.s.s.s.s.s.s.s.- j _ 2.9.0.0.0.0.0.0.0.0.0.0.0.0.0.0.9.2._ j - s.s.s.s.s.s.s.s.s.s.s.s.s.s.s.s.s.s.s.s.",
"s.s.s.s.s.s.s.s.s.s.s.s.s.s.s.s.s.s.s.s.* s ! >.7.9.0.0.0.0.0.0.0.0.0.0.0.0.9.7.>.! s * s.s.s.s.s.s.s.s.s.s.s.s.s.s.s.s.s.s.s.s.",
"s.s.s.s.s.s.s.s.s.s.s.s.s.s.s.s.s.s.s.s.$ u U $.3.7.9.0.0.0.0.0.0.0.0.0.0.9.7.3.$.U u $ s.s.s.s.s.s.s.s.s.s.s.s.s.s.s.s.s.s.s.s.",
"s.s.s.s.s.s.s.s.s.s.s.s.s.s.s.s.s.s.s.s.# t H  .;.3.7.9.0.0.0.0.0.0.0.0.9.7.3.;. .H t # s.s.s.s.s.s.s.s.s.s.s.s.s.s.s.s.s.s.s.s.",
"s.s.s.s.s.s.s.s.s.s.s.s.s.s.s.s.s.s.s.s.+ e S _ O.-.3.7.8.9.9.0.0.9.9.8.7.3.-.O._ S e + s.s.s.s.s.s.s.s.s.s.s.s.s.s.s.s.s.s.s.s.",
"s.s.s.s.s.s.s.s.s.s.s.s.s.s.s.s.s.s.s.s.s.9 M P ` +.;.<.2.5.7.9.9.7.5.2.<.;.+.` P M 9 s.s.s.s.s.s.s.s.s.s.s.s.s.s.s.s.s.s.s.s.s.",
"s.s.s.s.s.s.s.s.s.s.s.s.s.s.s.s.s.s.s.s.s.s.t m I ' o.$.*.,.5.9.9.5.,.*.$.o.' I m t s.s.s.s.s.s.s.s.s.s.s.s.s.s.s.s.s.s.s.s.s.s.",
"s.s.s.s.s.s.s.s.s.s.s.s.s.s.s.s.s.s.s.s.s.s.< t N I _ X.%.>.5.9.9.5.>.%.X._ I N t < s.s.s.s.s.s.s.s.s.s.s.s.s.s.s.s.s.s.s.s.s.s.",
"s.s.s.s.s.s.s.s.s.s.s.s.s.s.s.s.s.s.s.s.s.s.s.4 p B Q o.;.4.7.9.9.7.4.;.o.Q B p 4 s.s.s.s.s.s.s.s.s.s.s.s.s.s.s.s.s.s.s.s.s.s.s.",
"s.s.s.s.s.s.s.s.s.s.s.s.s.s.s.s.s.s.s.s.s.s.s.9 z F ` *.3.7.9.0.0.9.7.3.*.` F z 9 s.s.s.s.s.s.s.s.s.s.s.s.s.s.s.s.s.s.s.s.s.s.s.",
"s.s.s.s.s.s.s.s.s.s.s.s.s.s.s.s.s.s.s.s.s.s.5 z I } =.3.7.9.0.0.0.0.9.7.3.=.} I z 5 s.s.s.s.s.s.s.s.s.s.s.s.s.s.s.s.s.s.s.s.s.s.",
"s.s.s.s.s.s.s.s.s.s.s.s.s.s.s.s.s.s.s.s.s.s.z K ..1.6.8.9.0.0.0.0.0.0.9.8.6.1...K z s.s.s.s.s.s.s.s.s.s.s.s.s.s.s.s.s.s.s.s.s.s.",
"s.s.s.s.s.s.s.s.s.s.s.s.s.s.s.s.s.s.s.s.s.p K  .,.6.9.0.0.0.0.0.0.0.0.0.0.9.6.,. .K p s.s.s.s.s.s.s.s.s.s.s.s.s.s.s.s.s.s.s.s.s.",
"s.s.s.s.s.s.s.s.s.s.s.s.s.s.s.s.s.s.s.s.- h ^ ;.3.5.7.9.0.0.0.0.0.0.0.0.9.7.5.3.;.^ h - s.s.s.s.s.s.s.s.s.s.s.s.s.s.s.s.s.s.s.s.",
"s.s.s.s.s.s.s.s.s.s.s.s.s.s.s.s.s.s.s.s.- j ( -.>.,.5.9.0.0.0.0.0.0.0.0.9.5.,.>.-.( j - s.s.s.s.s.s.s.s.s.s.s.s.s.s.s.s.s.s.s.s.",
"s.s.s.s.s.s.s.s.s.s.s.s.s.s.s.s.s.s.s.s.= s Q @.$.*.2.8.0.0.0.0.0.0.0.0.8.2.*.$.@.Q s = s.s.s.s.s.s.s.s.s.s.s.s.s.s.s.s.s.s.s.s.",
"s.s.s.s.s.s.s.s.s.s.s.s.s.s.s.s.s.s.s.s.1 f U {  .@.<.8.0.0.0.0.0.0.0.0.8.<.@. .{ U f 1 s.s.s.s.s.s.s.s.s.s.s.s.s.s.s.s.s.s.s.s.",
"s.s.s.s.s.s.s.s.s.s.s.s.s.s.s.s.s.s.s.7 d C R ~ W _ *.6.0.0.0.0.0.0.0.0.6.*._ W ~ R C d 7 s.s.s.s.s.s.s.s.s.s.s.s.s.s.s.s.s.s.s.",
"s.s.s.s.s.s.s.s.s.s.s.s.s.s.s.s.s.s.s.i F / _ U V F ..5.0.0.0.0.0.0.0.0.5...F V U _ / F i s.s.s.s.s.s.s.s.s.s.s.s.s.s.s.s.s.s.s.",
"s.s.s.s.s.s.s.s.s.s.s.s.s.s.s.s.s.s.* a T  .[ H h M ] 4.0.0.0.0.0.0.0.0.4.] M h H [  .T a * s.s.s.s.s.s.s.s.s.s.s.s.s.s.s.s.s.s.",
"s.s.s.s.s.s.s.s.s.s.s.s.s.s.s.s.s.s.$ y J ` / Z i c ` 3.0.0.0.0.0.0.0.0.3.` c i Z / ` J y $ s.s.s.s.s.s.s.s.s.s.s.s.s.s.s.s.s.s.",
"s.s.s.s.s.s.s.s.s.s.s.s.s.s.s.s.s.s.s.0 m S Z l q z ` 3.0.0.0.0.0.0.0.0.3.` z q l Z S m 0 s.s.s.s.s.s.s.s.s.s.s.s.s.s.s.s.s.s.s.",
"s.s.s.s.s.s.s.s.s.s.s.s.s.s.s.s.s.s.s.s.9 e w 3 2 j ` 3.0.9.9.8.8.9.9.0.3.` j 2 3 w e 9 s.s.s.s.s.s.s.s.s.s.s.s.s.s.s.s.s.s.s.s.",
"s.s.s.s.s.s.s.s.s.s.s.s.s.s.s.s.s.s.s.s.s.+ O . = g ` 3.9.7.5.2.2.5.7.9.3.` g = . O + s.s.s.s.s.s.s.s.s.s.s.s.s.s.s.s.s.s.s.s.s.",
"s.s.s.s.s.s.s.s.s.s.s.s.s.s.s.s.s.s.s.s.s.s.s.  % g _ 2.7.3.*.O.O.*.3.7.2._ g %   s.s.s.s.s.s.s.s.s.s.s.s.s.s.s.s.s.s.s.s.s.s.s.",
"s.s.s.s.s.s.s.s.s.s.s.s.s.s.s.s.s.s.s.s.s.s.s.s.& s ! :.4.*.) P P ) *.4.:.! s & s.s.s.s.s.s.s.s.s.s.s.s.s.s.s.s.s.s.s.s.s.s.s.s.",
"s.s.s.s.s.s.s.s.s.s.s.s.s.s.s.s.s.s.s.s.s.s.s.s.$ u Y $.,. .A i i A  .,.$.Y u $ s.s.s.s.s.s.s.s.s.s.s.s.s.s.s.s.s.s.s.s.s.s.s.s.",
"s.s.s.s.s.s.s.s.s.s.s.s.s.s.s.s.s.s.s.s.s.s.s.s.# t J o.-.` z , , z ` -.o.J t # s.s.s.s.s.s.s.s.s.s.s.s.s.s.s.s.s.s.s.s.s.s.s.s.",
"s.s.s.s.s.s.s.s.s.s.s.s.s.s.s.s.s.s.s.s.s.s.s.s.@ r G ..&./ s + + s / &...G r @ s.s.s.s.s.s.s.s.s.s.s.s.s.s.s.s.s.s.s.s.s.s.s.s.",
"s.s.s.s.s.s.s.s.s.s.s.s.s.s.s.s.s.s.s.s.s.s.s.s.@ r G } +.W i O O i W +.} G r @ s.s.s.s.s.s.s.s.s.s.s.s.s.s.s.s.s.s.s.s.s.s.s.s.",
"s.s.s.s.s.s.s.s.s.s.s.s.s.s.s.s.s.s.s.s.s.s.s.s.+ e S ( ` J t o o t J ` ( S e + s.s.s.s.s.s.s.s.s.s.s.s.s.s.s.s.s.s.s.s.s.s.s.s.",
"s.s.s.s.s.s.s.s.s.s.s.s.s.s.s.s.s.s.s.s.s.s.s.s.s.9 b S D n 8 X X 8 n D S b 9 s.s.s.s.s.s.s.s.s.s.s.s.s.s.s.s.s.s.s.s.s.s.s.s.s.",
"s.s.s.s.s.s.s.s.s.s.s.s.s.s.s.s.s.s.s.s.s.s.s.s.s.s.9 e e 9 1 s.s.1 9 e e 9 s.s.s.s.s.s.s.s.s.s.s.s.s.s.s.s.s.s.s.s.s.s.s.s.s.s.",
"s.s.s.s.s.s.s.s.s.s.s.s.s.s.s.s.s.s.s.s.s.s.s.s.s.s.s.+ + s.s.s.s.s.s.+ + s.s.s.s.s.s.s.s.s.s.s.s.s.s.s.s.s.s.s.s.s.s.s.s.s.s.s.",
"s.s.s.s.s.s.s.s.s.s.s.s.s.s.s.s.s.s.s.s.s.s.s.s.s.s.s.s.s.s.s.s.s.s.s.s.s.s.s.s.s.s.s.s.s.s.s.s.s.s.s.s.s.s.s.s.s.s.s.s.s.s.s.s.",
"s.s.s.s.s.s.s.s.s.s.s.s.s.s.s.s.s.s.s.s.s.s.s.s.s.s.s.s.s.s.s.s.s.s.s.s.s.s.s.s.s.s.s.s.s.s.s.s.s.s.s.s.s.s.s.s.s.s.s.s.s.s.s.s.",
"s.s.s.s.s.s.s.s.s.s.s.s.s.s.s.s.s.s.s.s.s.s.s.s.s.s.s.s.s.s.s.s.s.s.s.s.s.s.s.s.s.s.s.s.s.s.s.s.s.s.s.s.s.s.s.s.s.s.s.s.s.s.s.s.",
"s.s.s.s.s.s.s.s.s.s.s.s.s.s.s.s.s.s.s.s.s.s.s.s.s.s.s.s.s.s.s.s.s.s.s.s.s.s.s.s.s.s.s.s.s.s.s.s.s.s.s.s.s.s.s.s.s.s.s.s.s.s.s.s.",
"s.s.s.s.s.s.s.s.s.s.s.s.s.s.s.s.s.s.s.s.s.s.s.s.s.s.s.s.s.s.s.s.s.s.s.s.s.s.s.s.s.s.s.s.s.s.s.s.s.s.s.s.s.s.s.s.s.s.s.s.s.s.s.s.",
"s.s.s.s.s.s.s.s.s.s.s.s.s.s.s.s.s.s.s.s.s.s.s.s.s.s.s.s.s.s.s.s.s.s.s.s.s.s.s.s.s.s.s.s.s.s.s.s.s.s.s.s.s.s.s.s.s.s.s.s.s.s.s.s.",
"s.s.s.s.s.s.s.s.s.s.s.s.s.s.s.s.s.s.s.s.s.s.s.s.s.s.s.s.s.s.s.s.s.s.s.s.s.s.s.s.s.s.s.s.s.s.s.s.s.s.s.s.s.s.s.s.s.s.s.s.s.s.s.s.",
"s.s.s.s.s.s.s.s.s.s.s.s.s.s.s.s.s.s.s.s.s.s.s.s.s.s.s.s.s.s.s.s.s.s.s.s.s.s.s.s.s.s.s.s.s.s.s.s.s.s.s.s.s.s.s.s.s.s.s.s.s.s.s.s.",
"s.s.s.s.s.s.s.s.s.s.s.s.s.s.s.s.s.s.s.s.s.s.s.s.s.s.s.s.s.s.s.s.s.s.s.s.s.s.s.s.s.s.s.s.s.s.s.s.s.s.s.s.s.s.s.s.s.s.s.s.s.s.s.s.",
"s.s.s.s.s.s.s.s.s.s.s.s.s.s.s.s.s.s.s.s.s.s.s.s.s.s.s.s.s.s.s.s.s.s.s.s.s.s.s.s.s.s.s.s.s.s.s.s.s.s.s.s.s.s.s.s.s.s.s.s.s.s.s.s."
};
