/* XPM */
static char *result[] = {
/* columns rows colors chars-per-pixel */
"64 64 167 2 ",
"   c #353535",
".  c #373737",
"X  c #3A3A3A",
"o  c gray23",
"O  c #3C3C3C",
"+  c gray24",
"@  c #3E3E3E",
"#  c #3F3F3F",
"$  c gray26",
"%  c #464646",
"&  c #494949",
"*  c gray29",
"=  c #4B4B4B",
"-  c #515151",
";  c gray33",
":  c gray35",
">  c gray36",
",  c #5D5D5D",
"<  c gray37",
"1  c #5F5F5F",
"2  c #606060",
"3  c gray38",
"4  c #626262",
"5  c gray39",
"6  c #646464",
"7  c #656565",
"8  c gray40",
"9  c #676767",
"0  c #686868",
"q  c DimGray",
"w  c #6A6A6A",
"e  c gray42",
"r  c #6D6D6D",
"t  c gray43",
"y  c #6F6F6F",
"u  c #717171",
"i  c gray45",
"p  c #747474",
"a  c gray46",
"s  c #767676",
"d  c #777777",
"f  c gray47",
"g  c #797979",
"h  c #7B7B7B",
"j  c #7C7C7C",
"k  c gray49",
"l  c #7E7E7E",
"z  c gray50",
"x  c #818181",
"c  c gray51",
"v  c #848484",
"b  c gray52",
"n  c #868686",
"m  c gray53",
"M  c #888888",
"N  c #898989",
"B  c gray54",
"V  c gray55",
"C  c #8D8D8D",
"Z  c #8E8E8E",
"A  c gray56",
"S  c #909090",
"D  c gray57",
"F  c #929292",
"G  c #939393",
"H  c gray58",
"J  c #959595",
"K  c gray59",
"L  c #979797",
"P  c #989898",
"I  c gray60",
"U  c #9A9A9A",
"Y  c #9B9B9B",
"T  c gray61",
"R  c #9D9D9D",
"E  c gray62",
"W  c #9F9F9F",
"Q  c #A0A0A0",
"!  c gray63",
"~  c #A2A2A2",
"^  c gray64",
"/  c #A4A4A4",
"(  c #A5A5A5",
")  c gray65",
"_  c #A7A7A7",
"`  c gray66",
"'  c #AAAAAA",
"]  c gray67",
"[  c #ACACAC",
"{  c gray68",
"}  c #AEAEAE",
"|  c #AFAFAF",
" . c gray69",
".. c #B1B1B1",
"X. c #B2B2B2",
"o. c gray70",
"O. c #B4B4B4",
"+. c gray71",
"@. c #B7B7B7",
"#. c gray72",
"$. c #B9B9B9",
"%. c gray73",
"&. c #BBBBBB",
"*. c #BCBCBC",
"=. c gray74",
"-. c gray",
";. c gray75",
":. c #C0C0C0",
">. c #C1C1C1",
",. c gray76",
"<. c #C3C3C3",
"1. c #C5C5C5",
"2. c #C6C6C6",
"3. c gray78",
"4. c #C8C8C8",
"5. c gray79",
"6. c #CACACA",
"7. c #CBCBCB",
"8. c gray80",
"9. c #CDCDCD",
"0. c #CECECE",
"q. c gray81",
"w. c #D0D0D0",
"e. c gray82",
"r. c #D2D2D2",
"t. c LightGray",
"y. c gray83",
"u. c #D5D5D5",
"i. c gray84",
"p. c #D7D7D7",
"a. c #D8D8D8",
"s. c gray85",
"d. c #DADADA",
"f. c gray86",
"g. c gainsboro",
"h. c #DDDDDD",
"j. c gray87",
"k. c #DFDFDF",
"l. c gray88",
"z. c #E1E1E1",
"x. c #E2E2E2",
"c. c gray89",
"v. c #E4E4E4",
"b. c gray90",
"n. c #E6E6E6",
"m. c #E7E7E7",
"M. c gray91",
"N. c #E9E9E9",
"B. c #EAEAEA",
"V. c gray92",
"C. c #ECECEC",
"Z. c gray93",
"A. c #EEEEEE",
"S. c #EFEFEF",
"D. c gray94",
"F. c #F1F1F1",
"G. c gray95",
"H. c #F3F3F3",
"J. c #F4F4F4",
"K. c gray96",
"L. c #F6F6F6",
"P. c gray97",
"I. c #F8F8F8",
"U. c #F9F9F9",
"Y. c gray98",
"T. c #FBFBFB",
"R. c None",
/* pixels */
"R.R.R.R.R.R.R.R.R.R.R.R.R.R.R.R.R.R.R.R.R.R.R.R.R.R.R.R.R.R.R.R.R.R.R.R.R.R.R.R.R.R.R.R.R.R.R.R.R.R.R.R.R.R.R.R.R.R.R.R.R.R.R.R.",
"R.R.R.R.R.R.R.R.R.R.R.R.R.R.R.R.R.R.R.R.R.R.R.R.R.R.R.R.R.R.R.R.R.R.R.R.R.R.R.R.R.R.R.R.R.R.R.R.R.R.R.R.R.R.R.R.R.R.R.R.R.R.R.R.",
"R.R.R.R.R.R.R.R.R.R.R.R.R.R.R.R.R.R.R.R.R.R.R.R.R.R.R.R.R.R.R.R.R.R.R.R.R.R.R.R.R.R.R.R.R.R.R.R.R.R.R.R.R.R.R.R.R.R.R.R.R.R.R.R.",
"R.R.R.R.R.R.R.R.R.R.R.R.R.R.R.R.R.R.R.R.R.R.R.R.R.R.R.R.R.R.R.R.R.R.R.R.R.R.R.R.R.R.R.R.R.R.R.R.R.R.R.R.R.R.R.R.R.R.R.R.R.R.R.R.",
"R.R.R.R.R.R.R.R.R.R.R.R.R.R.R.R.R.R.R.R.2 3 4 4 4 4 4 4 4 4 3 2 < > R.R.R.R.R.R.R.R.R.R.R.R.R.R.R.R.R.R.R.R.R.R.R.R.R.R.R.R.R.R.",
"R.R.R.R.R.R.R.R.R.R.R.R.R.R.R.R.R.R.R.C R / ) ) ) ) ) ) ) ) ( ^ W P N R.R.R.R.R.R.R.R.R.R.R.R.R.R.R.R.R.R.R.R.R.R.R.R.R.R.R.R.R.",
"R.R.R.R.R.R.R.R.R.R.R.R.R.R.R.R.R.R.S X.7.a.h.h.h.h.h.h.h.h.g.s.r.1.{ C y R.R.R.R.R.R.R.R.R.R.R.R.R.R.R.R.R.R.R.R.R.R.R.R.R.R.R.",
"R.R.R.R.R.R.R.R.R.R.R.R.R.R.R.R.x E #.e.n.G.L.L.L.L.L.L.L.L.K.G.V.j.6.X.U z R.R.R.R.R.R.R.R.R.R.R.R.R.R.R.R.R.R.R.R.R.R.R.R.R.R.",
"R.R.R.R.R.R.R.R.R.R.R.R.R.R.R.k Q >.d.B.J.U.T.T.T.T.T.T.T.Y.U.L.F.B.l.r.*.E z R.R.R.R.R.R.R.R.R.R.R.R.R.R.R.R.R.R.R.R.R.R.R.R.R.",
"R.R.R.R.R.R.R.R.R.R.R.R.R.R.M ( >.d.Z.P.Y.T.T.T.T.T.T.T.Y.I.L.H.F.A.V.v.u.;._ C R.R.R.R.R.R.R.R.R.R.R.R.R.R.R.R.R.R.R.R.R.R.R.R.",
"R.R.R.R.R.R.R.R.R.R.R.R.R.t R ,.f.V.K.U.Y.Y.Y.Y.U.U.U.U.I.K.G.D.S.A.A.V.b.d.1.^ s R.R.R.R.R.R.R.R.R.R.R.R.R.R.R.R.R.R.R.R.R.R.R.",
"R.R.R.R.R.R.R.R.R.R.R.R.# u ^ 8.b.D.K.P.U.U.P.L.K.K.K.K.J.G.D.S.A.A.A.A.C.b.w.' g % R.R.R.R.R.R.R.R.R.R.R.R.R.R.R.R.R.R.R.R.R.R.",
"R.R.R.R.R.R.R.R.R.R.R.R.# u / 9.n.S.G.J.L.L.J.G.F.F.F.D.D.S.S.A.A.A.A.A.Z.m.r.] g % R.R.R.R.R.R.R.R.R.R.R.R.R.R.R.R.R.R.R.R.R.R.",
"R.R.R.R.R.R.R.R.R.R.R.R.# u / 9.b.Z.S.F.H.G.F.S.S.A.A.A.A.A.A.A.A.A.A.A.Z.m.r.] g % R.R.R.R.R.R.R.R.R.R.R.R.R.R.R.R.R.R.R.R.R.R.",
"R.R.R.R.R.R.R.R.R.R.R.R.# u / 9.b.Z.A.S.D.S.S.A.A.A.A.A.A.A.A.A.A.A.A.A.Z.m.r.] g % R.R.R.R.R.R.R.R.R.R.R.R.R.R.R.R.R.R.R.R.R.R.",
"R.R.R.R.R.R.R.R.R.R.R.R.# u / 9.b.Z.A.A.A.A.A.A.A.A.A.A.A.A.A.Z.Z.Z.Z.A.Z.m.r.] g % R.R.R.R.R.R.R.R.R.R.R.R.R.R.R.R.R.R.R.R.R.R.",
"R.R.R.R.R.R.R.R.R.R.R.R.+ t ! 5.x.V.Z.A.A.A.A.A.A.A.A.A.A.A.C.M.c.x.b.B.C.m.r.] g % R.R.R.R.R.R.R.R.R.R.R.R.R.R.R.R.R.R.R.R.R.R.",
"R.R.R.R.R.R.R.R.R.R.R.R.X q U >.f.n.V.Z.A.A.A.A.A.A.A.A.A.Z.m.d.6.2.r.x.V.m.r.] g % R.R.R.R.R.R.R.R.R.R.R.R.R.R.R.R.R.R.R.R.R.R.",
"R.R.R.R.R.R.R.R.R.R.R.R.. 6 F $.r.l.n.B.Z.A.A.A.A.A.A.A.A.C.c.8.} ( -.d.N.m.r.] g % R.R.R.R.R.R.R.R.R.R.R.R.R.R.R.R.R.R.R.R.R.R.",
"R.R.R.R.R.R.R.R.R.R.R.R.  3 Z o.7.p.j.b.B.Z.A.A.A.A.A.A.A.C.x.3./ I @.a.M.m.r.] g % R.R.R.R.R.R.R.R.R.R.R.R.R.R.R.R.R.R.R.R.R.R.",
"R.R.R.R.R.R.R.R.R.R.R.R.R.1 M ` =.6.u.k.m.C.A.A.A.A.A.A.A.C.v.0.o.] >.g.N.m.r.] g % R.R.R.R.R.R.R.R.R.R.R.R.R.R.R.R.R.R.R.R.R.R.",
"R.R.R.R.R.R.R.R.R.R.R.R.R.R.s Z / #.7.d.b.V.Z.A.A.A.A.A.A.Z.N.h.e.9.p.v.V.m.r.] g % R.R.R.R.R.R.R.R.R.R.R.R.R.R.R.R.R.R.R.R.R.R.",
"R.R.R.R.R.R.R.R.R.R.R.R.R.R.R.w n ~ %.0.h.m.V.Z.A.A.A.A.A.A.C.B.n.b.M.V.Z.m.r.] g % R.R.R.R.R.R.R.R.R.R.R.R.R.R.R.R.R.R.R.R.R.R.",
"R.R.R.R.R.R.R.R.R.R.R.R.R.R.R.R.w v T +.7.f.b.B.Z.A.A.A.A.A.A.A.Z.Z.Z.Z.V.v.w.' f % R.R.R.R.R.R.R.R.R.R.R.R.R.R.R.R.R.R.R.R.R.R.",
"R.R.R.R.R.R.R.R.R.R.R.R.R.R.R.R.R.R.g L ..3.p.c.N.C.A.A.A.A.A.A.A.C.B.n.l.u.,.! a R.R.R.R.R.R.R.R.R.R.R.R.R.R.R.R.R.R.R.R.R.R.R.",
"R.R.R.R.R.R.R.R.R.R.R.R.R.R.R.R.R.R.R.s Z ` <.a.v.B.Z.Z.Z.Z.A.A.Z.N.x.p.3.O.Q N R.R.R.R.R.R.R.R.R.R.R.R.R.R.R.R.R.R.R.R.R.R.R.R.",
"R.R.R.R.R.R.R.R.R.R.R.R.R.R.R.R.R.R.R.R.q D #.y.c.B.V.B.N.B.C.Z.V.c.y.:.` Z i R.R.R.R.R.R.R.R.R.R.R.R.R.R.R.R.R.R.R.R.R.R.R.R.R.",
"R.R.R.R.R.R.R.R.R.R.R.R.R.R.R.R.R.R.R.R.< D -.h.B.C.M.c.x.b.B.Z.N.g.,.~ b e R.R.R.R.R.R.R.R.R.R.R.R.R.R.R.R.R.R.R.R.R.R.R.R.R.R.",
"R.R.R.R.R.R.R.R.R.R.R.R.R.R.R.R.R.R.R.R.3 L 2.b.D.A.n.j.g.z.M.C.M.i.o.m < R.R.R.R.R.R.R.R.R.R.R.R.R.R.R.R.R.R.R.R.R.R.R.R.R.R.R.",
"R.R.R.R.R.R.R.R.R.R.R.R.R.R.R.R.R.R.R.R.4 I 4.m.F.A.v.d.p.h.n.C.M.y.| l = R.R.R.R.R.R.R.R.R.R.R.R.R.R.R.R.R.R.R.R.R.R.R.R.R.R.R.",
"R.R.R.R.R.R.R.R.R.R.R.R.R.R.R.R.R.R.R.R.3 L 2.b.S.V.h.9.4.t.x.V.M.y.| k * R.R.R.R.R.R.R.R.R.R.R.R.R.R.R.R.R.R.R.R.R.R.R.R.R.R.R.",
"R.R.R.R.R.R.R.R.R.R.R.R.R.R.R.R.R.R.R.R.1 H ,.z.C.n.r.#.} >.f.N.m.y.| k * R.R.R.R.R.R.R.R.R.R.R.R.R.R.R.R.R.R.R.R.R.R.R.R.R.R.R.",
"R.R.R.R.R.R.R.R.R.R.R.R.R.R.R.R.R.R.R.R.< F :.k.B.c.6._ I O.i.M.m.y.| k * R.R.R.R.R.R.R.R.R.R.R.R.R.R.R.R.R.R.R.R.R.R.R.R.R.R.R.",
"R.R.R.R.R.R.R.R.R.R.R.R.R.R.R.R.R.R.R.R., D ;.j.M.z.2.! F ..y.m.m.y.| k * R.R.R.R.R.R.R.R.R.R.R.R.R.R.R.R.R.R.R.R.R.R.R.R.R.R.R.",
"R.R.R.R.R.R.R.R.R.R.R.R.R.R.R.R.R.R.R.R., D -.g.b.g.:.T S  .y.m.m.y.| k * R.R.R.R.R.R.R.R.R.R.R.R.R.R.R.R.R.R.R.R.R.R.R.R.R.R.R.",
"R.R.R.R.R.R.R.R.R.R.R.R.R.R.R.R.R.R.R.R.> A *.a.j.t.@.J C  .y.m.m.y.| k * R.R.R.R.R.R.R.R.R.R.R.R.R.R.R.R.R.R.R.R.R.R.R.R.R.R.R.",
"R.R.R.R.R.R.R.R.R.R.R.R.R.R.R.R.R.R.R.R.: B +.w.i.7...D V  .u.m.m.y.| k * R.R.R.R.R.R.R.R.R.R.R.R.R.R.R.R.R.R.R.R.R.R.R.R.R.R.R.",
"R.R.R.R.R.R.R.R.R.R.R.R.R.R.R.R.R.R.R.R.; x ` :.3.:.] F G +.i.M.m.y.| k * R.R.R.R.R.R.R.R.R.R.R.R.R.R.R.R.R.R.R.R.R.R.R.R.R.R.R.",
"R.R.R.R.R.R.R.R.R.R.R.R.R.R.R.R.R.R.R.R.R.p S Q ) / E Y ` <.g.N.m.y.| k * R.R.R.R.R.R.R.R.R.R.R.R.R.R.R.R.R.R.R.R.R.R.R.R.R.R.R.",
"R.R.R.R.R.R.R.R.R.R.R.R.R.R.R.R.R.R.R.R.R.R.9 y d v K [ >.u.c.B.n.r.[ h & R.R.R.R.R.R.R.R.R.R.R.R.R.R.R.R.R.R.R.R.R.R.R.R.R.R.R.",
"R.R.R.R.R.R.R.R.R.R.R.R.R.R.R.R.R.R.R.R.R.R.X - r V ' <.i.x.M.M.l.7.) s % R.R.R.R.R.R.R.R.R.R.R.R.R.R.R.R.R.R.R.R.R.R.R.R.R.R.R.",
"R.R.R.R.R.R.R.R.R.R.R.R.R.R.R.R.R.R.R.R.R.R.  , n ' 1.a.v.N.N.x.y.=.U y $ R.R.R.R.R.R.R.R.R.R.R.R.R.R.R.R.R.R.R.R.R.R.R.R.R.R.R.",
"R.R.R.R.R.R.R.R.R.R.R.R.R.R.R.R.R.R.R.R.R.R.o 9 G #.r.z.N.V.n.p.:./ m 7 R.R.R.R.R.R.R.R.R.R.R.R.R.R.R.R.R.R.R.R.R.R.R.R.R.R.R.R.",
"R.R.R.R.R.R.R.R.R.R.R.R.R.R.R.R.R.R.R.R.R.R.O 0 J %.t.l.M.B.x.7.` c 7 R.R.R.R.R.R.R.R.R.R.R.R.R.R.R.R.R.R.R.R.R.R.R.R.R.R.R.R.R.",
"R.R.R.R.R.R.R.R.R.R.R.R.R.R.R.R.R.R.R.R.R.R.O 0 J $.q.d.z.b.j.1.Y w @ R.R.R.R.R.R.R.R.R.R.R.R.R.R.R.R.R.R.R.R.R.R.R.R.R.R.R.R.R.",
"R.R.R.R.R.R.R.R.R.R.R.R.R.R.R.R.R.R.R.R.R.R.O 0 J @.7.y.s.h.a.:.K 5 R.R.R.R.R.R.R.R.R.R.R.R.R.R.R.R.R.R.R.R.R.R.R.R.R.R.R.R.R.R.",
"R.R.R.R.R.R.R.R.R.R.R.R.R.R.R.R.R.R.R.R.R.R.O 0 H +.4.0.r.y.q.@.A 1 R.R.R.R.R.R.R.R.R.R.R.R.R.R.R.R.R.R.R.R.R.R.R.R.R.R.R.R.R.R.",
"R.R.R.R.R.R.R.R.R.R.R.R.R.R.R.R.R.R.R.R.R.R.O 8 A [ %.;.>.>.&._ v : R.R.R.R.R.R.R.R.R.R.R.R.R.R.R.R.R.R.R.R.R.R.R.R.R.R.R.R.R.R.",
"R.R.R.R.R.R.R.R.R.R.R.R.R.R.R.R.R.R.R.R.R.R.R.1 j Z K P P P J N i R.R.R.R.R.R.R.R.R.R.R.R.R.R.R.R.R.R.R.R.R.R.R.R.R.R.R.R.R.R.R.",
"R.R.R.R.R.R.R.R.R.R.R.R.R.R.R.R.R.R.R.R.R.R.R.R.R.< 2 2 2 2 1 > R.R.R.R.R.R.R.R.R.R.R.R.R.R.R.R.R.R.R.R.R.R.R.R.R.R.R.R.R.R.R.R.",
"R.R.R.R.R.R.R.R.R.R.R.R.R.R.R.R.R.R.R.R.R.R.R.R.R.R.R.R.R.R.R.R.R.R.R.R.R.R.R.R.R.R.R.R.R.R.R.R.R.R.R.R.R.R.R.R.R.R.R.R.R.R.R.R.",
"R.R.R.R.R.R.R.R.R.R.R.R.R.R.R.R.R.R.R.R.R.R.R.R.R.R.R.R.R.R.R.R.R.R.R.R.R.R.R.R.R.R.R.R.R.R.R.R.R.R.R.R.R.R.R.R.R.R.R.R.R.R.R.R.",
"R.R.R.R.R.R.R.R.R.R.R.R.R.R.R.R.R.R.R.R.R.R.R.R.R.R.R.R.R.R.R.R.R.R.R.R.R.R.R.R.R.R.R.R.R.R.R.R.R.R.R.R.R.R.R.R.R.R.R.R.R.R.R.R.",
"R.R.R.R.R.R.R.R.R.R.R.R.R.R.R.R.R.R.R.R.R.R.R.R.R.R.R.R.R.R.R.R.R.R.R.R.R.R.R.R.R.R.R.R.R.R.R.R.R.R.R.R.R.R.R.R.R.R.R.R.R.R.R.R.",
"R.R.R.R.R.R.R.R.R.R.R.R.R.R.R.R.R.R.R.R.R.R.R.R.R.R.R.R.R.R.R.R.R.R.R.R.R.R.R.R.R.R.R.R.R.R.R.R.R.R.R.R.R.R.R.R.R.R.R.R.R.R.R.R.",
"R.R.R.R.R.R.R.R.R.R.R.R.R.R.R.R.R.R.R.R.R.R.R.R.R.R.R.R.R.R.R.R.R.R.R.R.R.R.R.R.R.R.R.R.R.R.R.R.R.R.R.R.R.R.R.R.R.R.R.R.R.R.R.R.",
"R.R.R.R.R.R.R.R.R.R.R.R.R.R.R.R.R.R.R.R.R.R.R.R.R.R.R.R.R.R.R.R.R.R.R.R.R.R.R.R.R.R.R.R.R.R.R.R.R.R.R.R.R.R.R.R.R.R.R.R.R.R.R.R.",
"R.R.R.R.R.R.R.R.R.R.R.R.R.R.R.R.R.R.R.R.R.R.R.R.R.R.R.R.R.R.R.R.R.R.R.R.R.R.R.R.R.R.R.R.R.R.R.R.R.R.R.R.R.R.R.R.R.R.R.R.R.R.R.R.",
"R.R.R.R.R.R.R.R.R.R.R.R.R.R.R.R.R.R.R.R.R.R.R.R.R.R.R.R.R.R.R.R.R.R.R.R.R.R.R.R.R.R.R.R.R.R.R.R.R.R.R.R.R.R.R.R.R.R.R.R.R.R.R.R.",
"R.R.R.R.R.R.R.R.R.R.R.R.R.R.R.R.R.R.R.R.R.R.R.R.R.R.R.R.R.R.R.R.R.R.R.R.R.R.R.R.R.R.R.R.R.R.R.R.R.R.R.R.R.R.R.R.R.R.R.R.R.R.R.R.",
"R.R.R.R.R.R.R.R.R.R.R.R.R.R.R.R.R.R.R.R.R.R.R.R.R.R.R.R.R.R.R.R.R.R.R.R.R.R.R.R.R.R.R.R.R.R.R.R.R.R.R.R.R.R.R.R.R.R.R.R.R.R.R.R.",
"R.R.R.R.R.R.R.R.R.R.R.R.R.R.R.R.R.R.R.R.R.R.R.R.R.R.R.R.R.R.R.R.R.R.R.R.R.R.R.R.R.R.R.R.R.R.R.R.R.R.R.R.R.R.R.R.R.R.R.R.R.R.R.R.",
"R.R.R.R.R.R.R.R.R.R.R.R.R.R.R.R.R.R.R.R.R.R.R.R.R.R.R.R.R.R.R.R.R.R.R.R.R.R.R.R.R.R.R.R.R.R.R.R.R.R.R.R.R.R.R.R.R.R.R.R.R.R.R.R.",
"R.R.R.R.R.R.R.R.R.R.R.R.R.R.R.R.R.R.R.R.R.R.R.R.R.R.R.R.R.R.R.R.R.R.R.R.R.R.R.R.R.R.R.R.R.R.R.R.R.R.R.R.R.R.R.R.R.R.R.R.R.R.R.R."
};
