/* XPM */
static char *result[] = {
/* columns rows colors chars-per-pixel */
"64 64 151 2 ",
"   c #111111",
".  c #151515",
"X  c gray22",
"o  c #414141",
"O  c gray27",
"+  c gray28",
"@  c #484848",
"#  c #494949",
"$  c #4B4B4B",
"%  c #4C4C4C",
"&  c #4E4E4E",
"*  c #505050",
"=  c #515151",
"-  c gray32",
";  c #535353",
":  c gray33",
">  c #555555",
",  c gray34",
"<  c #585858",
"1  c gray35",
"2  c #5D5D5D",
"3  c gray39",
"4  c #646464",
"5  c #676767",
"6  c gray42",
"7  c #6C6C6C",
"8  c #6D6D6D",
"9  c gray44",
"0  c #717171",
"q  c gray45",
"w  c #767676",
"e  c #797979",
"r  c gray48",
"t  c gray49",
"y  c #7E7E7E",
"u  c gray50",
"i  c #808080",
"p  c #818181",
"a  c #848484",
"s  c gray52",
"d  c #868686",
"f  c gray53",
"g  c gray54",
"h  c #8B8B8B",
"j  c #8D8D8D",
"k  c #8E8E8E",
"l  c #909090",
"z  c gray57",
"x  c #929292",
"c  c #939393",
"v  c gray58",
"b  c #959595",
"n  c gray59",
"m  c #979797",
"M  c #989898",
"N  c gray60",
"B  c #9A9A9A",
"V  c #9B9B9B",
"C  c gray61",
"Z  c #9D9D9D",
"A  c gray62",
"S  c #9F9F9F",
"D  c #A0A0A0",
"F  c gray63",
"G  c #A2A2A2",
"H  c gray64",
"J  c #A4A4A4",
"K  c #A5A5A5",
"L  c #A7A7A7",
"P  c gray66",
"I  c #A9A9A9",
"U  c #AAAAAA",
"Y  c gray67",
"T  c #ACACAC",
"R  c gray68",
"E  c #AEAEAE",
"W  c #AFAFAF",
"Q  c gray69",
"!  c #B1B1B1",
"~  c #B2B2B2",
"^  c #B4B4B4",
"/  c gray71",
"(  c #B6B6B6",
")  c #B7B7B7",
"_  c gray72",
"`  c #B9B9B9",
"'  c gray73",
"]  c #BBBBBB",
"[  c #BCBCBC",
"{  c gray74",
"}  c gray",
"|  c gray75",
" . c #C0C0C0",
".. c #C1C1C1",
"X. c gray76",
"o. c #C3C3C3",
"O. c gray77",
"+. c #C5C5C5",
"@. c #C6C6C6",
"#. c gray78",
"$. c #C8C8C8",
"%. c gray79",
"&. c #CACACA",
"*. c #CBCBCB",
"=. c gray80",
"-. c #CDCDCD",
";. c #CECECE",
":. c gray81",
">. c #D0D0D0",
",. c gray82",
"<. c #D2D2D2",
"1. c LightGray",
"2. c gray83",
"3. c #D5D5D5",
"4. c gray84",
"5. c #D7D7D7",
"6. c #D8D8D8",
"7. c #DADADA",
"8. c gray86",
"9. c gainsboro",
"0. c #DDDDDD",
"q. c gray87",
"w. c #DFDFDF",
"e. c gray88",
"r. c #E1E1E1",
"t. c #E2E2E2",
"y. c gray89",
"u. c #E4E4E4",
"i. c gray90",
"p. c #E6E6E6",
"a. c #E7E7E7",
"s. c gray91",
"d. c #E9E9E9",
"f. c #EAEAEA",
"g. c gray92",
"h. c #ECECEC",
"j. c gray93",
"k. c #EEEEEE",
"l. c #EFEFEF",
"z. c gray94",
"x. c #F1F1F1",
"c. c gray95",
"v. c #F3F3F3",
"b. c #F4F4F4",
"n. c gray96",
"m. c #F6F6F6",
"M. c gray97",
"N. c #F8F8F8",
"B. c gray98",
"V. c #FBFBFB",
"C. c None",
/* pixels */
"C.C.C.C.C.C.C.C.C.C.C.C.C.C.C.C.C.C.C.C.C.C.C.C.C.C.C.C.C.C.C.C.C.C.C.C.C.C.C.C.C.C.C.C.C.C.C.C.C.C.C.C.C.C.C.C.C.C.C.C.C.C.C.C.",
"C.C.C.C.C.C.C.C.C.C.C.C.C.C.C.C.C.C.C.C.C.C.C.C.C.C.C.C.C.C.C.C.C.C.C.C.C.C.C.C.C.C.C.C.C.C.C.C.C.C.C.C.C.C.C.C.C.C.C.C.C.C.C.C.",
"C.C.C.C.C.C.C.C.C.C.C.C.C.C.C.C.C.C.C.C.C.C.C.C.C.C.C.C.C.C.C.C.C.C.C.C.C.C.C.C.C.C.C.C.C.C.C.C.C.C.C.C.C.C.C.C.C.C.C.C.C.C.C.C.",
"C.C.C.C.C.C.C.C.C.C.C.C.C.C.C.C.C.C.C.C.C.C.C.C.C.C.C.C.C.C.C.C.C.C.C.C.C.C.C.C.C.C.C.C.C.C.C.C.C.C.C.C.C.C.C.C.C.C.C.C.C.C.C.C.",
"C.C.C.C.C.C.C.C.C.C.C.C.C.C.C.C.C.C.C.C.C.C.C.C.C.C.C.C.C.C.C.C.C.C.C.C.C.C.C.C.C.C.C.C.C.C.C.C.C.C.C.C.C.C.C.C.C.C.C.C.C.C.C.C.",
"C.C.C.C.C.C.C.C.C.C.C.C.C.C.C.C.C.C.C.C.C.C.C.C.C.C.C.C.C.C.C.C.C.C.C.C.C.C.C.C.C.C.C.C.C.C.C.C.C.C.C.C.C.C.C.C.C.C.C.C.C.C.C.C.",
"C.C.C.C.C.C.C.C.C.C.C.C.C.C.C.C.C.C.C.C.C.C.C.C.C.C.C.C.C.C.C.C.C.C.C.C.C.C.C.C.C.C.C.C.C.C.C.C.C.C.C.C.C.C.C.C.C.C.C.C.C.C.C.C.",
"C.C.C.C.C.C.C.C.C.C.C.C.C.C.C.C.C.C.C.C.C.C.C.C.C.C.C.C.C.C.C.C.C.C.C.C.C.C.C.C.C.C.C.C.C.C.C.C.C.C.C.C.C.C.C.C.C.C.C.C.C.C.C.C.",
"C.C.C.C.C.C.C.C.C.C.C.C.C.C.C.C.C.C.C.C.C.C.C.C.C.C.C.C.C.C.C.C.C.C.C.C.C.C.C.C.C.C.C.C.C.C.C.C.C.C.C.C.C.C.C.C.C.C.C.C.C.C.C.C.",
"C.C.C.C.C.C.C.C.C.C.C.C.C.C.C.C.C.C.C.C.C.C.C.C.C.C.C.C.C.C.C.C.C.C.C.C.C.C.C.C.C.C.C.C.C.C.C.C.C.C.C.C.C.C.C.C.C.C.C.C.C.C.C.C.",
"C.C.C.C.C.C.C.C.C.C.C.C.C.C.C.C.C.C.C.C.C.C.C.C.C.C.C.< 1 1 1 1 1 1 1 1 < C.C.C.C.C.C.C.C.C.C.C.C.C.C.C.C.C.C.C.C.C.C.C.C.C.C.C.",
"C.C.C.C.C.C.C.C.C.C.C.C.C.C.C.C.C.C.C.C.C.C.C.C.C.C.x B V V V V V V V V B x C.C.C.C.C.C.C.C.C.C.C.C.C.C.C.C.C.C.C.C.C.C.C.C.C.C.",
"C.C.C.C.C.C.C.C.C.C.C.C.C.C.C.C.C.C.C.C.C.C.C.C.q Z  .>.2.2.2.2.2.2.2.2.>.| C 9 C.C.C.C.C.C.C.C.C.C.C.C.C.C.C.C.C.C.C.C.C.C.C.C.",
"C.C.C.C.C.C.C.C.C.C.C.C.C.C.C.C.C.C.C.C.C.C.C.C.A | 0.l.v.v.v.v.v.v.v.v.k.9.] m C.C.C.C.C.C.C.C.C.C.C.C.C.C.C.C.C.C.C.C.C.C.C.C.",
"C.C.C.C.C.C.C.C.C.C.C.C.C.C.C.C.C.C.C.C.C.C.9 C X.0.l.N.V.V.V.V.V.B.B.B.M.h.5.] b 8 C.C.C.C.C.C.C.C.C.C.C.C.C.C.C.C.C.C.C.C.C.C.",
"C.C.C.C.C.C.C.C.C.C.C.C.C.C.C.C.C.C.C.C.C.C.n ` 7.k.M.B.V.V.V.V.V.B.N.M.m.c.s.1./ b C.C.C.C.C.C.C.C.C.C.C.C.C.C.C.C.C.C.C.C.C.C.",
"C.C.C.C.C.C.C.C.C.C.C.C.C.C.C.C.C.C.C.C.C.g ( 1.a.c.M.B.B.B.B.B.B.N.n.v.c.x.j.y.<.( g C.C.C.C.C.C.C.C.C.C.C.C.C.C.C.C.C.C.C.C.C.",
"C.C.C.C.C.C.C.C.C.C.C.C.C.C.C.C.C.C.C.C.; z +.y.j.x.b.m.M.M.M.M.m.b.c.z.l.l.k.g.t.+.z ; C.C.C.C.C.C.C.C.C.C.C.C.C.C.C.C.C.C.C.C.",
"C.C.C.C.C.C.C.C.C.C.C.C.C.C.C.C.C.C.C.C.: c %.p.k.l.x.c.c.c.c.c.c.x.l.k.k.k.k.k.p.%.c : C.C.C.C.C.C.C.C.C.C.C.C.C.C.C.C.C.C.C.C.",
"C.C.C.C.C.C.C.C.C.C.C.C.C.C.C.C.C.C.C.C.: c %.p.k.k.l.l.l.l.l.l.l.l.k.k.k.k.k.k.p.%.c : C.C.C.C.C.C.C.C.C.C.C.C.C.C.C.C.C.C.C.C.",
"C.C.C.C.C.C.C.C.C.C.C.C.C.C.C.C.C.C.C.C.: c %.p.k.k.k.k.k.k.k.k.k.k.k.k.k.k.k.k.p.%.c : C.C.C.C.C.C.C.C.C.C.C.C.C.C.C.C.C.C.C.C.",
"C.C.C.C.C.C.C.C.C.C.C.C.C.C.C.C.C.C.C.C.: c %.p.k.k.k.k.k.k.k.k.k.k.k.k.k.k.k.k.p.%.c : C.C.C.C.C.C.C.C.C.C.C.C.C.C.C.C.C.C.C.C.",
"C.C.C.C.C.C.C.C.C.C.C.C.C.C.C.C.C.C.C.C.: c %.p.j.h.d.d.h.j.k.k.k.k.j.h.d.d.h.j.p.%.c : C.C.C.C.C.C.C.C.C.C.C.C.C.C.C.C.C.C.C.C.",
"C.C.C.C.C.C.C.C.C.C.C.C.C.C.C.C.C.C.C.C.: c %.p.g.y.6.6.y.h.k.k.k.k.h.y.6.6.y.g.p.%.c : C.C.C.C.C.C.C.C.C.C.C.C.C.C.C.C.C.C.C.C.",
"C.C.C.C.C.C.C.C.C.C.C.C.C.C.C.C.C.C.C.C.: c %.p.d.4.] ] 4.d.k.k.k.k.d.4.] ] 4.d.p.%.c : C.C.C.C.C.C.C.C.C.C.C.C.C.C.C.C.C.C.C.C.",
"C.C.C.C.C.C.C.C.C.C.C.C.C.C.C.C.C.C.C.C.: c %.p.a.=.J J =.a.k.k.k.k.a.=.J J =.a.p.%.c : C.C.C.C.C.C.C.C.C.C.C.C.C.C.C.C.C.C.C.C.",
"C.C.C.C.C.C.C.C.C.C.C.C.C.C.C.C.C.C.C.C.; x $.i.p.=.J J =.a.k.k.k.k.a.=.J J =.p.i.$.x ; C.C.C.C.C.C.C.C.C.C.C.C.C.C.C.C.C.C.C.C.",
"C.C.C.C.C.C.C.C.C.C.C.C.C.C.C.C.C.C.C.C.* j X.e.p.3.] ] 4.d.k.k.k.k.d.4.] ] 3.p.e.X.j * C.C.C.C.C.C.C.C.C.C.C.C.C.C.C.C.C.C.C.C.",
"C.C.C.C.C.C.C.C.C.C.C.C.C.C.C.C.C.C.C.C.% s ( 4.t.e.6.6.y.h.k.k.k.k.h.y.6.6.e.t.4.( s % C.C.C.C.C.C.C.C.C.C.C.C.C.C.C.C.C.C.C.C.",
"C.C.C.C.C.C.C.C.C.C.C.C.C.C.C.C.C.C.C.C.C.e G  .4.t.p.d.h.j.k.k.k.k.j.h.d.p.t.4...H e C.C.C.C.C.C.C.C.C.C.C.C.C.C.C.C.C.C.C.C.C.",
"C.C.C.C.C.C.C.C.C.C.C.C.C.C.C.C.C.C.C.C.C.3 i S | 5.u.g.j.k.k.k.k.k.k.k.j.s.0.$.U h 7 C.C.C.C.C.C.C.C.C.C.C.C.C.C.C.C.C.C.C.C.C.",
"C.C.C.C.C.C.C.C.C.C.C.C.C.C.C.C.C.C.C.C.C.C.- w A | 5.i.g.j.k.k.k.k.k.k.j.s.q.*.! b w C.C.C.C.C.C.C.C.C.C.C.C.C.C.C.C.C.C.C.C.C.",
"C.C.C.C.C.C.C.C.C.C.C.C.C.C.C.C.C.C.C.C.C.C.; 5 a L #.9.s.j.k.k.k.k.k.j.h.d.u.9.;.^ g C.C.C.C.C.C.C.C.C.C.C.C.C.C.C.C.C.C.C.C.C.",
"C.C.C.C.C.C.C.C.C.C.C.C.C.C.C.C.C.C.C.C.C.e j n Z R O.6.i.h.k.k.k.k.j.g.s.i.y.u.q.O.z ; C.C.C.C.C.C.C.C.C.C.C.C.C.C.C.C.C.C.C.C.",
"C.C.C.C.C.C.C.C.C.C.C.C.C.C.C.C.C.C.C.C.C.z ] =.=.&.*.3.t.f.j.k.k.k.j.s.r.8.6.9.0.+.x ; C.C.C.C.C.C.C.C.C.C.C.C.C.C.C.C.C.C.C.C.",
"C.C.C.C.C.C.C.C.C.C.C.C.C.C.C.C.C.C.C.C.< B ;.s.a.6.#.@.4.u.g.j.k.k.j.s.w.,.O.@.;.{ j * C.C.C.C.C.C.C.C.C.C.C.C.C.C.C.C.C.C.C.C.",
"C.C.C.C.C.C.C.C.C.C.C.C.C.C.C.C.C.C.C.C.< V <.k.j.5.` Q o.6.p.h.k.k.j.g.t.=.R I ' ! d % C.C.C.C.C.C.C.C.C.C.C.C.C.C.C.C.C.C.C.C.",
"C.C.C.C.C.C.C.C.C.C.C.C.C.C.C.C.C.C.C.C., N >.j.l.0. .R ~ @.0.f.k.k.k.j.p.&.Z x Y I i # C.C.C.C.C.C.C.C.C.C.C.C.C.C.C.C.C.C.C.C.",
"C.C.C.C.C.C.C.C.C.C.C.C.C.C.C.C.C.C.C.C.> v &.s.x.g.8. .P ! <.s.k.k.k.k.p.%.M f G H t + C.C.C.C.C.C.C.C.C.C.C.C.C.C.C.C.C.C.C.C.",
"C.C.C.C.C.C.C.C.C.C.C.C.C.C.C.C.C.C.C.C.C.h _ 5.g.v.g.-.G G *.a.k.k.k.k.p.%.b r k c w C.C.C.C.C.C.C.C.C.C.C.C.C.C.C.C.C.C.C.C.C.",
"C.C.C.C.C.C.C.C.C.C.C.C.C.C.C.C.C.C.C.C.C.C.m ] 8.g.p.%.D F *.a.k.k.k.j.i.#.z 3 5 0 C.C.C.C.C.C.C.C.C.C.C.C.C.C.C.C.C.C.C.C.C.C.",
"C.C.C.C.C.C.C.C.C.C.C.C.C.C.C.C.C.C.C.C.C.C.9 C } -.%.) J Q <.s.k.k.j.g.r.X.h & X o C.C.C.C.C.C.C.C.C.C.C.C.C.C.C.C.C.C.C.C.C.C.",
"C.C.C.C.C.C.C.C.C.C.C.C.C.C.C.C.C.C.C.C.C.C.C.C.l b b V Y o.8.s.h.j.h.s.8.] d @   C.C.C.C.C.C.C.C.C.C.C.C.C.C.C.C.C.C.C.C.C.C.C.",
"C.C.C.C.C.C.C.C.C.C.C.C.C.C.C.C.C.C.C.C.C.C.C.C.: - 2 a W =.9.y.i.s.f.s.8.] f $ C.C.C.C.C.C.C.C.C.C.C.C.C.C.C.C.C.C.C.C.C.C.C.C.",
"C.C.C.C.C.C.C.C.C.C.C.C.C.C.C.C.C.C.C.C.C.C.C.C.C.. O y W &.<.4.7.r.s.f.r.X.j * C.C.C.C.C.C.C.C.C.C.C.C.C.C.C.C.C.C.C.C.C.C.C.C.",
"C.C.C.C.C.C.C.C.C.C.C.C.C.C.C.C.C.C.C.C.C.C.C.C.C.C.+ u T | } X.,.w.s.h.i.#.x ; C.C.C.C.C.C.C.C.C.C.C.C.C.C.C.C.C.C.C.C.C.C.C.C.",
"C.C.C.C.C.C.C.C.C.C.C.C.C.C.C.C.C.C.C.C.C.C.C.C.C.C.+ t K E G T =.y.g.g.t.+.z ; C.C.C.C.C.C.C.C.C.C.C.C.C.C.C.C.C.C.C.C.C.C.C.C.",
"C.C.C.C.C.C.C.C.C.C.C.C.C.C.C.C.C.C.C.C.C.C.C.C.C.C.C.w v z p B &.a.j.p.1.( g C.C.C.C.C.C.C.C.C.C.C.C.C.C.C.C.C.C.C.C.C.C.C.C.C.",
"C.C.C.C.C.C.C.C.C.C.C.C.C.C.C.C.C.C.C.C.C.C.C.C.C.C.C.C.0 5 4 c *.f.l.9.` v q C.C.C.C.C.C.C.C.C.C.C.C.C.C.C.C.C.C.C.C.C.C.C.C.C.",
"C.C.C.C.C.C.C.C.C.C.C.C.C.C.C.C.C.C.C.C.C.C.C.C.C.C.C.C.o X - c -.j.z.3.H 6 C.C.C.C.C.C.C.C.C.C.C.C.C.C.C.C.C.C.C.C.C.C.C.C.C.C.",
"C.C.C.C.C.C.C.C.C.C.C.C.C.C.C.C.C.C.C.C.C.C.C.C.C.C.C.C.C.C.= b =.d.f.:.B 1 C.C.C.C.C.C.C.C.C.C.C.C.C.C.C.C.C.C.C.C.C.C.C.C.C.C.",
"C.C.C.C.C.C.C.C.C.C.C.C.C.C.C.C.C.C.C.C.C.C.C.C.C.C.C.C.C.C.: l ] :.:.[ z C.C.C.C.C.C.C.C.C.C.C.C.C.C.C.C.C.C.C.C.C.C.C.C.C.C.C.",
"C.C.C.C.C.C.C.C.C.C.C.C.C.C.C.C.C.C.C.C.C.C.C.C.C.C.C.C.C.C.C.C.z B B z C.C.C.C.C.C.C.C.C.C.C.C.C.C.C.C.C.C.C.C.C.C.C.C.C.C.C.C.",
"C.C.C.C.C.C.C.C.C.C.C.C.C.C.C.C.C.C.C.C.C.C.C.C.C.C.C.C.C.C.C.C.C.< < C.C.C.C.C.C.C.C.C.C.C.C.C.C.C.C.C.C.C.C.C.C.C.C.C.C.C.C.C.",
"C.C.C.C.C.C.C.C.C.C.C.C.C.C.C.C.C.C.C.C.C.C.C.C.C.C.C.C.C.C.C.C.C.C.C.C.C.C.C.C.C.C.C.C.C.C.C.C.C.C.C.C.C.C.C.C.C.C.C.C.C.C.C.C.",
"C.C.C.C.C.C.C.C.C.C.C.C.C.C.C.C.C.C.C.C.C.C.C.C.C.C.C.C.C.C.C.C.C.C.C.C.C.C.C.C.C.C.C.C.C.C.C.C.C.C.C.C.C.C.C.C.C.C.C.C.C.C.C.C.",
"C.C.C.C.C.C.C.C.C.C.C.C.C.C.C.C.C.C.C.C.C.C.C.C.C.C.C.C.C.C.C.C.C.C.C.C.C.C.C.C.C.C.C.C.C.C.C.C.C.C.C.C.C.C.C.C.C.C.C.C.C.C.C.C.",
"C.C.C.C.C.C.C.C.C.C.C.C.C.C.C.C.C.C.C.C.C.C.C.C.C.C.C.C.C.C.C.C.C.C.C.C.C.C.C.C.C.C.C.C.C.C.C.C.C.C.C.C.C.C.C.C.C.C.C.C.C.C.C.C.",
"C.C.C.C.C.C.C.C.C.C.C.C.C.C.C.C.C.C.C.C.C.C.C.C.C.C.C.C.C.C.C.C.C.C.C.C.C.C.C.C.C.C.C.C.C.C.C.C.C.C.C.C.C.C.C.C.C.C.C.C.C.C.C.C.",
"C.C.C.C.C.C.C.C.C.C.C.C.C.C.C.C.C.C.C.C.C.C.C.C.C.C.C.C.C.C.C.C.C.C.C.C.C.C.C.C.C.C.C.C.C.C.C.C.C.C.C.C.C.C.C.C.C.C.C.C.C.C.C.C.",
"C.C.C.C.C.C.C.C.C.C.C.C.C.C.C.C.C.C.C.C.C.C.C.C.C.C.C.C.C.C.C.C.C.C.C.C.C.C.C.C.C.C.C.C.C.C.C.C.C.C.C.C.C.C.C.C.C.C.C.C.C.C.C.C.",
"C.C.C.C.C.C.C.C.C.C.C.C.C.C.C.C.C.C.C.C.C.C.C.C.C.C.C.C.C.C.C.C.C.C.C.C.C.C.C.C.C.C.C.C.C.C.C.C.C.C.C.C.C.C.C.C.C.C.C.C.C.C.C.C.",
"C.C.C.C.C.C.C.C.C.C.C.C.C.C.C.C.C.C.C.C.C.C.C.C.C.C.C.C.C.C.C.C.C.C.C.C.C.C.C.C.C.C.C.C.C.C.C.C.C.C.C.C.C.C.C.C.C.C.C.C.C.C.C.C.",
"C.C.C.C.C.C.C.C.C.C.C.C.C.C.C.C.C.C.C.C.C.C.C.C.C.C.C.C.C.C.C.C.C.C.C.C.C.C.C.C.C.C.C.C.C.C.C.C.C.C.C.C.C.C.C.C.C.C.C.C.C.C.C.C."
};
