/* XPM */
static char *result[] = {
/* columns rows colors chars-per-pixel */
"64 64 168 2 ",
"   c #353535",
".  c #373737",
"X  c #393939",
"o  c gray28",
"O  c #484848",
"+  c #494949",
"@  c gray29",
"#  c #4C4C4C",
"$  c gray30",
"%  c gray31",
"&  c #535353",
"*  c #565656",
"=  c gray34",
"-  c #585858",
";  c gray35",
":  c #5A5A5A",
">  c #5B5B5B",
",  c gray36",
"<  c gray37",
"1  c #5F5F5F",
"2  c #606060",
"3  c #626262",
"4  c gray39",
"5  c #646464",
"6  c gray40",
"7  c #676767",
"8  c #686868",
"9  c gray42",
"0  c #6C6C6C",
"q  c #6D6D6D",
"w  c gray43",
"e  c gray44",
"r  c #717171",
"t  c #727272",
"y  c gray46",
"u  c #767676",
"i  c #777777",
"p  c gray47",
"a  c #797979",
"s  c gray48",
"d  c #7B7B7B",
"f  c #7C7C7C",
"g  c gray49",
"h  c #7E7E7E",
"j  c gray50",
"k  c #808080",
"l  c #818181",
"z  c gray51",
"x  c #838383",
"c  c #848484",
"v  c gray52",
"b  c #868686",
"n  c gray53",
"m  c #888888",
"M  c #898989",
"N  c gray54",
"B  c #8B8B8B",
"V  c #8D8D8D",
"C  c #8E8E8E",
"Z  c gray56",
"A  c #909090",
"S  c gray57",
"D  c #929292",
"F  c #939393",
"G  c gray58",
"H  c #959595",
"J  c gray59",
"K  c #979797",
"L  c #989898",
"P  c gray60",
"I  c #9A9A9A",
"U  c #9B9B9B",
"Y  c gray61",
"T  c #9D9D9D",
"R  c gray62",
"E  c #9F9F9F",
"W  c #A0A0A0",
"Q  c gray63",
"!  c gray64",
"~  c #A4A4A4",
"^  c #A5A5A5",
"/  c gray65",
"(  c #A7A7A7",
")  c gray66",
"_  c #A9A9A9",
"`  c #AAAAAA",
"'  c gray67",
"]  c #ACACAC",
"[  c gray68",
"{  c #AEAEAE",
"}  c #AFAFAF",
"|  c gray69",
" . c #B1B1B1",
".. c #B2B2B2",
"X. c gray70",
"o. c #B4B4B4",
"O. c gray71",
"+. c #B6B6B6",
"@. c #B7B7B7",
"#. c gray72",
"$. c #B9B9B9",
"%. c gray73",
"&. c #BBBBBB",
"*. c #BCBCBC",
"=. c gray74",
"-. c gray",
";. c gray75",
":. c #C0C0C0",
">. c #C1C1C1",
",. c gray76",
"<. c #C3C3C3",
"1. c gray77",
"2. c #C5C5C5",
"3. c #C6C6C6",
"4. c gray78",
"5. c #C8C8C8",
"6. c gray79",
"7. c #CACACA",
"8. c #CBCBCB",
"9. c gray80",
"0. c #CDCDCD",
"q. c #CECECE",
"w. c gray81",
"e. c #D0D0D0",
"r. c gray82",
"t. c #D2D2D2",
"y. c LightGray",
"u. c gray83",
"i. c #D5D5D5",
"p. c gray84",
"a. c #D7D7D7",
"s. c #D8D8D8",
"d. c gray85",
"f. c #DADADA",
"g. c gray86",
"h. c gainsboro",
"j. c #DDDDDD",
"k. c gray87",
"l. c #DFDFDF",
"z. c gray88",
"x. c #E1E1E1",
"c. c #E2E2E2",
"v. c gray89",
"b. c #E4E4E4",
"n. c gray90",
"m. c #E6E6E6",
"M. c #E7E7E7",
"N. c gray91",
"B. c #E9E9E9",
"V. c #EAEAEA",
"C. c gray92",
"Z. c #ECECEC",
"A. c gray93",
"S. c #EEEEEE",
"D. c #EFEFEF",
"F. c gray94",
"G. c #F1F1F1",
"H. c gray95",
"J. c #F3F3F3",
"K. c #F4F4F4",
"L. c gray96",
"P. c #F6F6F6",
"I. c gray97",
"U. c #F8F8F8",
"Y. c #F9F9F9",
"T. c gray98",
"R. c #FBFBFB",
"E. c None",
/* pixels */
"E.E.E.E.E.E.E.E.E.E.E.E.E.E.E.E.E.E.E.E.E.E.E.E.E.E.E.E.E.E.E.E.E.E.E.E.E.E.E.E.E.E.E.E.E.E.E.E.E.E.E.E.E.E.E.E.E.E.E.E.E.E.E.E.",
"E.E.E.E.E.E.E.E.E.E.E.E.E.E.E.E.E.E.E.E.E.E.E.E.E.E.E.E.E.E.E.E.E.E.E.E.E.E.E.E.E.E.E.E.E.E.E.E.E.E.E.E.E.E.E.E.E.E.E.E.E.E.E.E.",
"E.E.E.E.E.E.E.E.E.E.E.E.E.E.E.E.E.E.E.E.E.E.E.E.E.E.E.E.E.E.E.E.E.E.E.E.E.E.E.E.E.E.E.E.E.E.E.E.E.E.E.E.E.E.E.E.E.E.E.E.E.E.E.E.",
"E.E.E.E.E.E.E.E.E.E.E.E.E.E.E.E.E.E.E.E.E.E.E.E.E.E.E.E.E.E.E.E.E.E.E.E.E.E.E.E.E.E.E.E.E.E.E.E.E.E.E.E.E.E.E.E.E.E.E.E.E.E.E.E.",
"E.E.E.E.E.E.E.E.E.E.E.E.E.E.E.E.E.E.E.E.E.E.E.E.E.E.E.E.E.E.E.E.E.E.E.E.E.E.E.E.E.E.E.E.E.E.E.E.E.E.E.E.E.E.E.E.E.E.E.E.E.E.E.E.",
"E.E.E.E.E.E.E.E.E.E.E.E.E.E.E.E.E.E.E.E.E.E.E.E.E.E.E.E.E.E.E.E.E.E.E.E.E.E.E.E.E.E.E.E.E.E.E.E.E.E.E.E.E.E.E.E.E.E.E.E.E.E.E.E.",
"E.E.E.E.E.E.E.E.E.E.E.E.E.E.E.E.E.E.E.E.E.E.E.E.E.E.E.= ; ; ; ; ; ; ; ; = * & E.E.E.E.E.E.E.E.E.E.E.E.E.E.E.E.E.E.E.E.E.E.E.E.E.",
"E.E.E.E.E.E.E.E.E.E.E.E.E.E.E.E.E.E.E.E.E.E.E.E.E.E.l F I U U U U U U U P H V f E.E.E.E.E.E.E.E.E.E.E.E.E.E.E.E.E.E.E.E.E.E.E.E.",
"E.E.E.E.E.E.E.E.E.E.E.E.E.E.E.E.E.E.E.E.E.E.E.E.E.d ~ <.r.u.u.u.u.u.u.u.r.8.*.R i E.E.E.E.E.E.E.E.E.E.E.E.E.E.E.E.E.E.E.E.E.E.E.",
"E.E.E.E.E.E.E.E.E.E.E.E.E.E.E.E.E.E.E.E.E.E.E.E.v ~ 2.x.D.J.J.J.J.J.J.H.F.N.s.*.T k E.E.E.E.E.E.E.E.E.E.E.E.E.E.E.E.E.E.E.E.E.E.",
"E.E.E.E.E.E.E.E.E.E.E.E.E.E.E.E.E.E.E.E.E.E.E.d / 7.c.G.Y.R.R.R.R.R.T.Y.I.G.M.a.>.Q a E.E.E.E.E.E.E.E.E.E.E.E.E.E.E.E.E.E.E.E.E.",
"E.E.E.E.E.E.E.E.E.E.E.E.E.E.E.E.E.E.E.E.E.E.k W <.c.J.Y.R.R.R.R.R.R.T.U.L.G.A.M.d.-.E l E.E.E.E.E.E.E.E.E.E.E.E.E.E.E.E.E.E.E.E.",
"E.E.E.E.E.E.E.E.E.E.E.E.E.E.E.E.E.E.E.E.E.5 P >.h.D.U.R.R.T.T.T.T.T.U.L.H.F.S.Z.m.s.:.U 8 E.E.E.E.E.E.E.E.E.E.E.E.E.E.E.E.E.E.E.",
"E.E.E.E.E.E.E.E.E.E.E.E.E.E.E.E.E.E.E.E.E.7 ! r.B.J.U.T.Y.U.I.I.I.P.L.H.D.S.S.S.Z.m.t./ 9 E.E.E.E.E.E.E.E.E.E.E.E.E.E.E.E.E.E.E.",
"E.E.E.E.E.E.E.E.E.E.E.E.E.E.E.E.E.E.E.E.E.8 ^ u.C.H.L.I.I.L.J.H.H.H.G.F.S.S.S.S.S.V.p._ 0 E.E.E.E.E.E.E.E.E.E.E.E.E.E.E.E.E.E.E.",
"E.E.E.E.E.E.E.E.E.E.E.E.E.E.E.E.E.E.E.E.E.8 ^ u.V.D.H.K.K.G.D.D.D.D.D.S.S.S.S.S.S.V.p._ 0 E.E.E.E.E.E.E.E.E.E.E.E.E.E.E.E.E.E.E.",
"E.E.E.E.E.E.E.E.E.E.E.E.E.E.E.E.E.E.E.E.E.8 ^ u.V.S.F.G.G.D.S.S.S.S.S.S.S.S.S.S.S.V.p._ 0 E.E.E.E.E.E.E.E.E.E.E.E.E.E.E.E.E.E.E.",
"E.E.E.E.E.E.E.E.E.E.E.E.E.E.E.E.E.E.E.E.E.8 ^ u.B.S.S.D.D.S.S.S.S.S.S.S.S.S.S.S.S.V.p._ 0 E.E.E.E.E.E.E.E.E.E.E.E.E.E.E.E.E.E.E.",
"E.E.E.E.E.E.E.E.E.E.E.E.E.E.E.E.E.E.E.E.E.7 ~ t.N.A.S.S.S.S.S.S.S.S.S.S.Z.V.B.C.A.V.p._ 0 E.E.E.E.E.E.E.E.E.E.E.E.E.E.E.E.E.E.E.",
"E.E.E.E.E.E.E.E.E.E.E.E.E.E.E.E.E.E.E.E.E.5 E 0.b.Z.S.S.S.S.S.S.S.S.S.Z.n.f.a.z.V.V.p._ 0 E.E.E.E.E.E.E.E.E.E.E.E.E.E.E.E.E.E.E.",
"E.E.E.E.E.E.E.E.E.E.E.E.E.E.E.E.E.E.E.E.E.< K 1.j.N.Z.A.S.S.S.S.S.S.S.V.f.;.#.w.m.B.p._ 0 E.E.E.E.E.E.E.E.E.E.E.E.E.E.E.E.E.E.E.",
"E.E.E.E.E.E.E.E.E.E.E.E.E.E.E.E.E.E.E.E.E.> S =.p.x.M.Z.A.S.S.S.S.S.S.N.t.` R <.c.B.p._ 0 E.E.E.E.E.E.E.E.E.E.E.E.E.E.E.E.E.E.E.",
"E.E.E.E.E.E.E.E.E.E.E.E.E.E.E.E.E.E.E.E.E.; V +.9.s.x.B.A.S.S.S.S.S.S.N.t.` R <.c.B.p._ 0 E.E.E.E.E.E.E.E.E.E.E.E.E.E.E.E.E.E.E.",
"E.E.E.E.E.E.E.E.E.E.E.E.E.E.E.E.E.E.E.E.E.* c / *.0.g.M.Z.S.S.S.S.S.S.V.f.;.#.w.m.B.p._ 0 E.E.E.E.E.E.E.E.E.E.E.E.E.E.E.E.E.E.E.",
"E.E.E.E.E.E.E.E.E.E.E.E.E.E.E.E.E.E.E.E.E.E.w m ~ ;.i.v.C.A.S.S.S.S.S.Z.n.f.a.z.V.V.p._ 0 E.E.E.E.E.E.E.E.E.E.E.E.E.E.E.E.E.E.E.",
"E.E.E.E.E.E.E.E.E.E.E.E.E.E.E.E.E.E.E.E.E.E.E.7 N _ 1.d.n.C.A.S.S.S.S.S.Z.V.B.C.A.V.p._ 0 E.E.E.E.E.E.E.E.E.E.E.E.E.E.E.E.E.E.E.",
"E.E.E.E.E.E.E.E.E.E.E.E.E.E.E.E.E.E.E.E.E.E.E.E.q M ) 2.d.n.C.A.S.S.S.S.S.S.A.Z.C.n.r./ 9 E.E.E.E.E.E.E.E.E.E.E.E.E.E.E.E.E.E.E.",
"E.E.E.E.E.E.E.E.E.E.E.E.E.E.E.E.E.E.E.E.E.E.E.E.E.6 M ` 1.s.n.C.A.S.S.S.S.S.Z.M.z.y.;.U 8 E.E.E.E.E.E.E.E.E.E.E.E.E.E.E.E.E.E.E.",
"E.E.E.E.E.E.E.E.E.E.E.E.E.E.E.E.E.E.E.E.E.E.E.E.E.E.9 n / 1.d.M.A.S.S.S.S.A.N.j.8.o.I k E.E.E.E.E.E.E.E.E.E.E.E.E.E.E.E.E.E.E.E.",
"E.E.E.E.E.E.E.E.E.E.E.E.E.E.E.E.E.E.E.E.E.E.E.E.E.E.E.4 n ` 5.z.A.D.S.S.S.C.x.8.| S e E.E.E.E.E.E.E.E.E.E.E.E.E.E.E.E.E.E.E.E.E.",
"E.E.E.E.E.E.E.E.E.E.E.E.E.E.E.E.E.E.E.E.E.E.E.E.E.E.E.E.w C X.p.B.D.D.S.Z.m.i.O.A e E.E.E.E.E.E.E.E.E.E.E.E.E.E.E.E.E.E.E.E.E.E.",
"E.E.E.E.E.E.E.E.E.E.E.E.E.E.E.E.E.E.E.E.E.E.E.E.E.E.E.E.0 M ^ ,.d.N.D.S.n.p.-.Y r E.E.E.E.E.E.E.E.E.E.E.E.E.E.E.E.E.E.E.E.E.E.E.",
"E.E.E.E.E.E.E.E.E.E.E.E.E.E.E.E.E.E.E.E.E.E.E.E.E.E.E.$ d I ~ ( =.h.S.A.f.&.P d E.E.E.E.E.E.E.E.E.E.E.E.E.E.E.E.E.E.E.E.E.E.E.E.",
"E.E.E.E.E.E.E.E.E.E.E.E.E.E.E.E.E.E.E.E.E.E.E.E.E.E.E.% x ^ ^ D ~ r.C.C.t.^ t E.E.E.E.E.E.E.E.E.E.E.E.E.E.E.E.E.E.E.E.E.E.E.E.E.",
"E.E.E.E.E.E.E.E.E.E.E.E.E.E.E.E.E.E.E.E.E.E.E.E.E.E.E.% c ) ^ B I 7.N.B.t.^ t E.E.E.E.E.E.E.E.E.E.E.E.E.E.E.E.E.E.E.E.E.E.E.E.E.",
"E.E.E.E.E.E.E.E.E.E.E.E.E.E.E.E.E.E.E.E.E.E.E.E.E.E.E.% c ) ^ B L 5.m.V.f.&.P d E.E.E.E.E.E.E.E.E.E.E.E.E.E.E.E.E.E.E.E.E.E.E.E.",
"E.E.E.E.E.E.E.E.E.E.E.E.E.E.E.E.E.E.E.E.E.E.E.E.E.E.E.% x ^ ! V P 1.x.B.v.u.&.G 2 E.E.E.E.E.E.E.E.E.E.E.E.E.E.E.E.E.E.E.E.E.E.E.",
"E.E.E.E.E.E.E.E.E.E.E.E.E.E.E.E.E.E.E.E.E.E.E.E.E.E.E.$ d L Y G T @.e.z.m.l.3.L 1 E.E.E.E.E.E.E.E.E.E.E.E.E.E.E.E.E.E.E.E.E.E.E.",
"E.E.E.E.E.E.E.E.E.E.E.E.E.E.E.E.E.E.E.E.E.E.E.E.E.E.E.E.6 d Z E ^ / O.q.g.p.*.Z - E.E.E.E.E.E.E.E.E.E.E.E.E.E.E.E.E.E.E.E.E.E.E.",
"E.E.E.E.E.E.E.E.E.E.E.E.E.E.E.E.E.E.E.E.E.E.E.E.E.E.E.E.E.: v )  .( / O.-.@.E p + E.E.E.E.E.E.E.E.E.E.E.E.E.E.E.E.E.E.E.E.E.E.E.",
"E.E.E.E.E.E.E.E.E.E.E.E.E.E.E.E.E.E.E.E.E.E.E.E.E.E.E.E.E.$ z [ -.$.] W J B p :   E.E.E.E.E.E.E.E.E.E.E.E.E.E.E.E.E.E.E.E.E.E.E.",
"E.E.E.E.E.E.E.E.E.E.E.E.E.E.E.E.E.E.E.E.E.E.E.E.E.E.E.E.E.$ z } 3.4.%.~ S b i : . E.E.E.E.E.E.E.E.E.E.E.E.E.E.E.E.E.E.E.E.E.E.E.",
"E.E.E.E.E.E.E.E.E.E.E.E.E.E.E.E.E.E.E.E.E.E.E.E.E.E.E.E.E.4 V O.8.w.5.*...] T j < E.E.E.E.E.E.E.E.E.E.E.E.E.E.E.E.E.E.E.E.E.E.E.",
"E.E.E.E.E.E.E.E.E.E.E.E.E.E.E.E.E.E.E.E.E.E.E.E.E.E.E.E.u S ] 3.i.s.u.q.7.3.*._ D d E.E.E.E.E.E.E.E.E.E.E.E.E.E.E.E.E.E.E.E.E.E.",
"E.E.E.E.E.E.E.E.E.E.E.E.E.E.E.E.E.E.E.E.E.E.E.E.E.E.E.: Z @.w.h.z.k.s.e.9.9.9.4.#.J 4 E.E.E.E.E.E.E.E.E.E.E.E.E.E.E.E.E.E.E.E.E.",
"E.E.E.E.E.E.E.E.E.E.E.E.E.E.E.E.E.E.E.E.E.E.E.E.E.E.E., L 5.c.N.x.y.<.%.%.1.e.y.1.U 4 E.E.E.E.E.E.E.E.E.E.E.E.E.E.E.E.E.E.E.E.E.",
"E.E.E.E.E.E.E.E.E.E.E.E.E.E.E.E.E.E.E.E.E.E.E.E.E.E.E., I 9.M.N.p.O.G M P +.8.e.:.J < E.E.E.E.E.E.E.E.E.E.E.E.E.E.E.E.E.E.E.E.E.",
"E.E.E.E.E.E.E.E.E.E.E.E.E.E.E.E.E.E.E.E.E.E.E.E.E.E.E., I 9.M.m.9.I 3 & f ' 3.8.%.S > E.E.E.E.E.E.E.E.E.E.E.E.E.E.E.E.E.E.E.E.E.",
"E.E.E.E.E.E.E.E.E.E.E.E.E.E.E.E.E.E.E.E.E.E.E.E.E.E.E., I 9.b.c.3.A # X t ~ :.1.o.V ; E.E.E.E.E.E.E.E.E.E.E.E.E.E.E.E.E.E.E.E.E.",
"E.E.E.E.E.E.E.E.E.E.E.E.E.E.E.E.E.E.E.E.E.E.E.E.E.E.E., P 6.g.r.+.M @ . 0 H _ ] W x * E.E.E.E.E.E.E.E.E.E.E.E.E.E.E.E.E.E.E.E.E.",
"E.E.E.E.E.E.E.E.E.E.E.E.E.E.E.E.E.E.E.E.E.E.E.E.E.E.E., K >.6.o.H y E.E.E.y g h s 0 E.E.E.E.E.E.E.E.E.E.E.E.E.E.E.E.E.E.E.E.E.E.",
"E.E.E.E.E.E.E.E.E.E.E.E.E.E.E.E.E.E.E.E.E.E.E.E.E.E.E.: C { } G q E.E.E.E.E.o O o E.E.E.E.E.E.E.E.E.E.E.E.E.E.E.E.E.E.E.E.E.E.E.",
"E.E.E.E.E.E.E.E.E.E.E.E.E.E.E.E.E.E.E.E.E.E.E.E.E.E.E.E.i n b E.E.E.E.E.E.E.E.E.E.E.E.E.E.E.E.E.E.E.E.E.E.E.E.E.E.E.E.E.E.E.E.E.",
"E.E.E.E.E.E.E.E.E.E.E.E.E.E.E.E.E.E.E.E.E.E.E.E.E.E.E.E.E.E.E.E.E.E.E.E.E.E.E.E.E.E.E.E.E.E.E.E.E.E.E.E.E.E.E.E.E.E.E.E.E.E.E.E.",
"E.E.E.E.E.E.E.E.E.E.E.E.E.E.E.E.E.E.E.E.E.E.E.E.E.E.E.E.E.E.E.E.E.E.E.E.E.E.E.E.E.E.E.E.E.E.E.E.E.E.E.E.E.E.E.E.E.E.E.E.E.E.E.E.",
"E.E.E.E.E.E.E.E.E.E.E.E.E.E.E.E.E.E.E.E.E.E.E.E.E.E.E.E.E.E.E.E.E.E.E.E.E.E.E.E.E.E.E.E.E.E.E.E.E.E.E.E.E.E.E.E.E.E.E.E.E.E.E.E.",
"E.E.E.E.E.E.E.E.E.E.E.E.E.E.E.E.E.E.E.E.E.E.E.E.E.E.E.E.E.E.E.E.E.E.E.E.E.E.E.E.E.E.E.E.E.E.E.E.E.E.E.E.E.E.E.E.E.E.E.E.E.E.E.E.",
"E.E.E.E.E.E.E.E.E.E.E.E.E.E.E.E.E.E.E.E.E.E.E.E.E.E.E.E.E.E.E.E.E.E.E.E.E.E.E.E.E.E.E.E.E.E.E.E.E.E.E.E.E.E.E.E.E.E.E.E.E.E.E.E.",
"E.E.E.E.E.E.E.E.E.E.E.E.E.E.E.E.E.E.E.E.E.E.E.E.E.E.E.E.E.E.E.E.E.E.E.E.E.E.E.E.E.E.E.E.E.E.E.E.E.E.E.E.E.E.E.E.E.E.E.E.E.E.E.E.",
"E.E.E.E.E.E.E.E.E.E.E.E.E.E.E.E.E.E.E.E.E.E.E.E.E.E.E.E.E.E.E.E.E.E.E.E.E.E.E.E.E.E.E.E.E.E.E.E.E.E.E.E.E.E.E.E.E.E.E.E.E.E.E.E.",
"E.E.E.E.E.E.E.E.E.E.E.E.E.E.E.E.E.E.E.E.E.E.E.E.E.E.E.E.E.E.E.E.E.E.E.E.E.E.E.E.E.E.E.E.E.E.E.E.E.E.E.E.E.E.E.E.E.E.E.E.E.E.E.E.",
"E.E.E.E.E.E.E.E.E.E.E.E.E.E.E.E.E.E.E.E.E.E.E.E.E.E.E.E.E.E.E.E.E.E.E.E.E.E.E.E.E.E.E.E.E.E.E.E.E.E.E.E.E.E.E.E.E.E.E.E.E.E.E.E.",
"E.E.E.E.E.E.E.E.E.E.E.E.E.E.E.E.E.E.E.E.E.E.E.E.E.E.E.E.E.E.E.E.E.E.E.E.E.E.E.E.E.E.E.E.E.E.E.E.E.E.E.E.E.E.E.E.E.E.E.E.E.E.E.E.",
"E.E.E.E.E.E.E.E.E.E.E.E.E.E.E.E.E.E.E.E.E.E.E.E.E.E.E.E.E.E.E.E.E.E.E.E.E.E.E.E.E.E.E.E.E.E.E.E.E.E.E.E.E.E.E.E.E.E.E.E.E.E.E.E."
};
