/* XPM */
static char *result[] = {
/* columns rows colors chars-per-pixel */
"64 64 173 2 ",
"   c #0C0C0C",
".  c #2A2A2A",
"X  c #2D2D2D",
"o  c gray19",
"O  c #323232",
"+  c gray20",
"@  c #373737",
"#  c #393939",
"$  c gray24",
"%  c #3F3F3F",
"&  c gray25",
"*  c #414141",
"=  c #434343",
"-  c #444444",
";  c gray27",
":  c gray28",
">  c gray30",
",  c #4E4E4E",
"<  c gray31",
"1  c #505050",
"2  c #515151",
"3  c gray32",
"4  c #535353",
"5  c gray33",
"6  c #555555",
"7  c gray35",
"8  c gray36",
"9  c #5F5F5F",
"0  c #606060",
"q  c gray38",
"w  c #626262",
"e  c gray39",
"r  c #646464",
"t  c #656565",
"y  c gray40",
"u  c #676767",
"i  c #686868",
"p  c DimGray",
"a  c #6A6A6A",
"s  c gray42",
"d  c #6C6C6C",
"f  c #6D6D6D",
"g  c gray43",
"h  c #6F6F6F",
"j  c #727272",
"k  c gray45",
"l  c #747474",
"z  c gray46",
"x  c #767676",
"c  c #777777",
"v  c gray47",
"b  c #797979",
"n  c gray48",
"m  c #7C7C7C",
"M  c #7E7E7E",
"N  c gray50",
"B  c #808080",
"V  c #818181",
"C  c gray51",
"Z  c #838383",
"A  c #848484",
"S  c gray52",
"D  c #868686",
"F  c gray53",
"G  c #888888",
"H  c #898989",
"J  c gray54",
"K  c #8B8B8B",
"L  c #8D8D8D",
"P  c #8E8E8E",
"I  c gray56",
"U  c #909090",
"Y  c gray57",
"T  c #929292",
"R  c #939393",
"E  c gray58",
"W  c #959595",
"Q  c gray59",
"!  c #979797",
"~  c #9A9A9A",
"^  c #9B9B9B",
"/  c gray61",
"(  c #9D9D9D",
")  c gray62",
"_  c #9F9F9F",
"`  c gray63",
"'  c #A2A2A2",
"]  c gray64",
"[  c #A4A4A4",
"{  c #A5A5A5",
"}  c gray65",
"|  c #A7A7A7",
" . c gray66",
".. c #A9A9A9",
"X. c #AAAAAA",
"o. c gray67",
"O. c #ACACAC",
"+. c gray68",
"@. c #AEAEAE",
"#. c gray69",
"$. c #B1B1B1",
"%. c gray70",
"&. c #B4B4B4",
"*. c gray71",
"=. c #B7B7B7",
"-. c gray72",
";. c #B9B9B9",
":. c gray73",
">. c #BCBCBC",
",. c gray74",
"<. c gray",
"1. c gray75",
"2. c #C0C0C0",
"3. c #C1C1C1",
"4. c gray76",
"5. c #C3C3C3",
"6. c gray77",
"7. c #C5C5C5",
"8. c #C6C6C6",
"9. c gray78",
"0. c #C8C8C8",
"q. c gray79",
"w. c #CACACA",
"e. c #CBCBCB",
"r. c gray80",
"t. c #CDCDCD",
"y. c #CECECE",
"u. c gray81",
"i. c #D0D0D0",
"p. c gray82",
"a. c #D2D2D2",
"s. c LightGray",
"d. c gray83",
"f. c #D5D5D5",
"g. c gray84",
"h. c #D7D7D7",
"j. c #D8D8D8",
"k. c gray85",
"l. c #DADADA",
"z. c gray86",
"x. c gainsboro",
"c. c #DDDDDD",
"v. c gray87",
"b. c #DFDFDF",
"n. c gray88",
"m. c #E1E1E1",
"M. c #E2E2E2",
"N. c gray89",
"B. c #E4E4E4",
"V. c gray90",
"C. c #E6E6E6",
"Z. c #E7E7E7",
"A. c gray91",
"S. c #E9E9E9",
"D. c #EAEAEA",
"F. c gray92",
"G. c #ECECEC",
"H. c gray93",
"J. c #EEEEEE",
"K. c #EFEFEF",
"L. c gray94",
"P. c #F1F1F1",
"I. c gray95",
"U. c #F3F3F3",
"Y. c #F4F4F4",
"T. c gray96",
"R. c #F6F6F6",
"E. c gray97",
"W. c #F8F8F8",
"Q. c #F9F9F9",
"!. c gray98",
"~. c #FBFBFB",
"^. c None",
/* pixels */
"^.^.^.^.^.^.^.^.^.^.^.^.^.^.^.^.^.^.^.^.^.^.^.^.^.^.^.^.^.^.^.^.^.^.^.^.^.^.^.^.^.^.^.^.^.^.^.^.^.^.^.^.^.^.^.^.^.^.^.^.^.^.^.^.",
"^.^.^.^.^.^.^.^.^.^.^.^.^.^.^.^.^.^.^.^.^.^.^.^.^.^.^.^.^.^.^.^.^.^.^.^.^.^.^.^.^.^.^.^.^.^.^.^.^.^.^.^.^.^.^.^.^.^.^.^.^.^.^.^.",
"^.^.^.^.^.^.^.^.^.^.^.^.^.^.^.^.^.^.^.^.^.^.^.^.^.^.^.^.^.^.^.^.^.^.^.^.^.^.^.^.^.^.^.^.^.^.^.^.^.^.^.^.^.^.^.^.^.^.^.^.^.^.^.^.",
"^.^.^.^.^.^.^.^.^.^.^.^.^.^.^.^.^.^.^.^.^.^.^.^.^.^.^.^.^.^.^.^.^.^.^.^.^.^.^.^.^.^.^.^.^.^.^.^.^.^.^.^.^.^.^.^.^.^.^.^.^.^.^.^.",
"^.^.^.^.^.^.^.^.^.^.^.^.^.^.^.^.^.^.^.^.^.^.^.^.^.^.^.^.^.^.^.^.^.^.^.^.^.^.^.^.^.^.^.^.^.^.^.^.^.^.^.^.^.^.^.^.^.^.^.^.^.^.^.^.",
"^.^.^.^.^.^.^.^.^.^.^.^.^.^.^.^.^.^.^.^.^.^.^.^.^.^.^.^.; ; ; ; ; ; - = ^.^.^.^.^.^.^.^.^.^.^.^.^.^.^.^.^.^.^.^.^.^.^.^.^.^.^.^.",
"^.^.^.^.^.^.^.^.^.^.^.^.^.^.^.^.^.^.^.^.^.^.^.^.^.^.m K I I I I I I P K S x ^.^.^.^.^.^.^.^.^.^.^.^.^.^.^.^.^.^.^.^.^.^.^.^.^.^.",
"^.^.^.^.^.^.^.^.^.^.^.^.^.^.^.^.^.^.^.^.^.^.^.^.^.v  .9.i.p.p.p.p.p.i.e.<._ j ^.^.^.^.^.^.^.^.^.^.^.^.^.^.^.^.^.^.^.^.^.^.^.^.^.",
"^.^.^.^.^.^.^.^.^.^.^.^.^.^.^.^.^.^.^.^.^.^.^.^.V } e.A.U.Y.Y.Y.Y.Y.I.H.v.3.( n ^.^.^.^.^.^.^.^.^.^.^.^.^.^.^.^.^.^.^.^.^.^.^.^.",
"^.^.^.^.^.^.^.^.^.^.^.^.^.^.^.^.^.^.^.^.^.^.^.z { u.A.R.!.~.~.~.~.!.Q.Y.F.x.6.( j ^.^.^.^.^.^.^.^.^.^.^.^.^.^.^.^.^.^.^.^.^.^.^.",
"^.^.^.^.^.^.^.^.^.^.^.^.^.^.^.^.^.^.^.^.^.^.x ` 8.Z.E.!.~.~.~.~.!.Q.R.I.J.D.x.2._ x ^.^.^.^.^.^.^.^.^.^.^.^.^.^.^.^.^.^.^.^.^.^.",
"^.^.^.^.^.^.^.^.^.^.^.^.^.^.^.^.^.^.^.^.^.^.Z ,.n.I.Q.!.!.Q.Q.Q.W.R.I.L.J.H.S.x.>.Z ^.^.^.^.^.^.^.^.^.^.^.^.^.^.^.^.^.^.^.^.^.^.",
"^.^.^.^.^.^.^.^.^.^.^.^.^.^.^.^.^.^.^.^.^.* F 8.S.U.E.Q.E.T.Y.Y.Y.I.L.J.J.J.H.C.7.F * ^.^.^.^.^.^.^.^.^.^.^.^.^.^.^.^.^.^.^.^.^.",
"^.^.^.^.^.^.^.^.^.^.^.^.^.^.^.^.^.^.^.^.^.* F 8.A.L.U.T.Y.P.L.L.L.K.J.J.J.J.J.Z.8.F * ^.^.^.^.^.^.^.^.^.^.^.^.^.^.^.^.^.^.^.^.^.",
"^.^.^.^.^.^.^.^.^.^.^.^.^.^.^.^.^.^.^.^.^.* F 8.Z.K.L.P.L.K.J.J.J.J.J.J.J.J.J.Z.8.F * ^.^.^.^.^.^.^.^.^.^.^.^.^.^.^.^.^.^.^.^.^.",
"^.^.^.^.^.^.^.^.^.^.^.^.^.^.^.^.^.^.^.^.^.* F 8.Z.J.J.K.J.J.J.J.J.J.J.J.J.J.J.Z.8.F * ^.^.^.^.^.^.^.^.^.^.^.^.^.^.^.^.^.^.^.^.^.",
"^.^.^.^.^.^.^.^.^.^.^.^.^.^.^.^.^.^.^.^.^.& D 7.C.H.J.J.J.J.J.J.J.J.H.D.A.D.H.Z.8.F * ^.^.^.^.^.^.^.^.^.^.^.^.^.^.^.^.^.^.^.^.^.",
"^.^.^.^.^.^.^.^.^.^.^.^.^.^.^.^.^.^.^.^.^.$ V <.n.F.J.J.J.J.J.J.J.J.S.l.p.x.D.Z.8.F * ^.^.^.^.^.^.^.^.^.^.^.^.^.^.^.^.^.^.^.^.^.",
"^.^.^.^.^.^.^.^.^.^.^.^.^.^.^.^.^.^.^.^.^.# b &.j.C.F.H.J.J.J.J.J.H.B.5.o.0.C.Z.8.F * ^.^.^.^.^.^.^.^.^.^.^.^.^.^.^.^.^.^.^.^.^.",
"^.^.^.^.^.^.^.^.^.^.^.^.^.^.^.^.^.^.^.^.^.@ z @.u.c.C.G.J.J.J.J.J.H.m.-.! <.B.Z.8.F * ^.^.^.^.^.^.^.^.^.^.^.^.^.^.^.^.^.^.^.^.^.",
"^.^.^.^.^.^.^.^.^.^.^.^.^.^.^.^.^.^.^.^.^.^.j [ 3.p.b.D.J.J.J.J.J.H.N.3. .8.V.Z.8.F * ^.^.^.^.^.^.^.^.^.^.^.^.^.^.^.^.^.^.^.^.^.",
"^.^.^.^.^.^.^.^.^.^.^.^.^.^.^.^.^.^.^.^.^.^.t J | 5.l.A.H.J.J.J.J.J.A.j.t.l.S.Z.8.F * ^.^.^.^.^.^.^.^.^.^.^.^.^.^.^.^.^.^.^.^.^.",
"^.^.^.^.^.^.^.^.^.^.^.^.^.^.^.^.^.^.^.^.^.^.^.w G @.e.n.D.H.J.J.J.J.H.S.Z.D.H.Z.8.F * ^.^.^.^.^.^.^.^.^.^.^.^.^.^.^.^.^.^.^.^.^.",
"^.^.^.^.^.^.^.^.^.^.^.^.^.^.^.^.^.^.^.^.^.^.^.^.a K @.y.m.D.H.J.J.J.J.J.H.H.F.N.5.D * ^.^.^.^.^.^.^.^.^.^.^.^.^.^.^.^.^.^.^.^.^.",
"^.^.^.^.^.^.^.^.^.^.^.^.^.^.^.^.^.^.^.^.^.^.^.^.^.e L #.t.n.D.H.J.J.J.J.G.Z.v.y.$.N ^.^.^.^.^.^.^.^.^.^.^.^.^.^.^.^.^.^.^.^.^.^.",
"^.^.^.^.^.^.^.^.^.^.^.^.^.^.^.^.^.^.^.^.^.^.^.^.^.^.t A o.y.M.G.J.J.J.J.S.z.7.} G ^.^.^.^.^.^.^.^.^.^.^.^.^.^.^.^.^.^.^.^.^.^.^.",
"^.^.^.^.^.^.^.^.^.^.^.^.^.^.^.^.^.^.^.^.^.^.^.^.^.^.^.6 C #.f.S.J.J.J.H.N.9.] M ^.^.^.^.^.^.^.^.^.^.^.^.^.^.^.^.^.^.^.^.^.^.^.^.",
"^.^.^.^.^.^.^.^.^.^.^.^.^.^.^.^.^.^.^.^.^.^.^.^.^.^.2 0 v ' i.S.J.J.J.G.c.$.b , ^.^.^.^.^.^.^.^.^.^.^.^.^.^.^.^.^.^.^.^.^.^.^.^.",
"^.^.^.^.^.^.^.^.^.^.^.^.^.^.^.^.^.^.^.^.^.^.^.^.^.5 B ~ o.4.v.J.L.J.J.F.j.} q O ^.^.^.^.^.^.^.^.^.^.^.^.^.^.^.^.^.^.^.^.^.^.^.^.",
"^.^.^.^.^.^.^.^.^.^.^.^.^.^.^.^.^.^.^.^.^.^.^.p l F  .7.g.N.J.I.P.J.F.M.e.] n s u ^.^.^.^.^.^.^.^.^.^.^.^.^.^.^.^.^.^.^.^.^.^.^.",
"^.^.^.^.^.^.^.^.^.^.^.^.^.^.^.^.^.^.^.^.^.^.d Q +.>.r.l.N.S.J.L.K.J.C.r.+.] } [ E d ^.^.^.^.^.^.^.^.^.^.^.^.^.^.^.^.^.^.^.^.^.^.",
"^.^.^.^.^.^.^.^.^.^.^.^.^.^.^.^.^.^.^.^.^.@ l X.w.f.d.t.e.a.c.Z.G.H.M.:.U ] 1.4. .k @ ^.^.^.^.^.^.^.^.^.^.^.^.^.^.^.^.^.^.^.^.^.",
"^.^.^.^.^.^.^.^.^.^.^.^.^.^.^.^.^.^.^.^.^.@ k ..8.q.=./ E | 7.c.A.G.b.%.A ( <.4. .k @ ^.^.^.^.^.^.^.^.^.^.^.^.^.^.^.^.^.^.^.^.^.",
"^.^.^.^.^.^.^.^.^.^.^.^.^.^.^.^.^.^.^.^.^.^.d E [ ` G a c _ 7.v.A.A.k.O.v Z _ [ E d ^.^.^.^.^.^.^.^.^.^.^.^.^.^.^.^.^.^.^.^.^.^.",
"^.^.^.^.^.^.^.^.^.^.^.^.^.^.^.^.^.^.^.^.^.^.^.u a y 0 d W ,.h.C.F.C.s.{ u 6 i f i ^.^.^.^.^.^.^.^.^.^.^.^.^.^.^.^.^.^.^.^.^.^.^.",
"^.^.^.^.^.^.^.^.^.^.^.^.^.^.^.^.^.^.^.^.^.^.^.^.. % p R *.u.m.F.H.A.g.X.u O X o ^.^.^.^.^.^.^.^.^.^.^.^.^.^.^.^.^.^.^.^.^.^.^.^.",
"^.^.^.^.^.^.^.^.^.^.^.^.^.^.^.^.^.^.^.^.^.^.^.^.  : S %.e.k.V.G.J.G.n.,.K w ^.^.^.^.^.^.^.^.^.^.^.^.^.^.^.^.^.^.^.^.^.^.^.^.^.^.",
"^.^.^.^.^.^.^.^.^.^.^.^.^.^.^.^.^.^.^.^.^.^.^.^.+ 6 Y 2.h.n.C.D.F.F.Z.g.:.T ^.^.^.^.^.^.^.^.^.^.^.^.^.^.^.^.^.^.^.^.^.^.^.^.^.^.",
"^.^.^.^.^.^.^.^.^.^.^.^.^.^.^.^.^.^.^.^.^.^.^.f j N ' 8.k.c.j.a.s.c.Z.Z.s.] 9 ^.^.^.^.^.^.^.^.^.^.^.^.^.^.^.^.^.^.^.^.^.^.^.^.^.",
"^.^.^.^.^.^.^.^.^.^.^.^.^.^.^.^.^.^.^.^.^.^.g ! ..#.>.w.i.q.%./ ) ,.v.D.z.o.h ^.^.^.^.^.^.^.^.^.^.^.^.^.^.^.^.^.^.^.^.^.^.^.^.^.",
"^.^.^.^.^.^.^.^.^.^.^.^.^.^.^.^.^.^.^.^.^.@ l ..6.q.e.q.<.X.G 8 t ] h.D.m.3.^ c ^.^.^.^.^.^.^.^.^.^.^.^.^.^.^.^.^.^.^.^.^.^.^.^.",
"^.^.^.^.^.^.^.^.^.^.^.^.^.^.^.^.^.^.^.^.^.@ k | 2.7.7.,.[ Z q ^.4 ^ u.C.Z.x.3.I < ^.^.^.^.^.^.^.^.^.^.^.^.^.^.^.^.^.^.^.^.^.^.^.",
"^.^.^.^.^.^.^.^.^.^.^.^.^.^.^.^.^.^.^.^.^.^.s U _ ' ` ^ D 9 ^.^.^.L =.d.C.A.u.Q 1 ^.^.^.^.^.^.^.^.^.^.^.^.^.^.^.^.^.^.^.^.^.^.^.",
"^.^.^.^.^.^.^.^.^.^.^.^.^.^.^.^.^.^.^.^.^.^.^.w y u y t ^.^.^.^.^.^.H -.c.Z.i.! 1 ^.^.^.^.^.^.^.^.^.^.^.^.^.^.^.^.^.^.^.^.^.^.^.",
"^.^.^.^.^.^.^.^.^.^.^.^.^.^.^.^.^.^.^.^.^.^.^.^.^.^.^.^.^.^.^.^.^.^.r ] p.n.t.Q 1 ^.^.^.^.^.^.^.^.^.^.^.^.^.^.^.^.^.^.^.^.^.^.^.",
"^.^.^.^.^.^.^.^.^.^.^.^.^.^.^.^.^.^.^.^.^.^.^.^.^.^.^.^.^.^.^.^.^.^.7 T ;.0.,.U < ^.^.^.^.^.^.^.^.^.^.^.^.^.^.^.^.^.^.^.^.^.^.^.",
"^.^.^.^.^.^.^.^.^.^.^.^.^.^.^.^.^.^.^.^.^.^.^.^.^.^.^.^.^.^.^.^.^.^.^.x J W R m ^.^.^.^.^.^.^.^.^.^.^.^.^.^.^.^.^.^.^.^.^.^.^.^.",
"^.^.^.^.^.^.^.^.^.^.^.^.^.^.^.^.^.^.^.^.^.^.^.^.^.^.^.^.^.^.^.^.^.^.^.^.> 3 5 ^.^.^.^.^.^.^.^.^.^.^.^.^.^.^.^.^.^.^.^.^.^.^.^.^.",
"^.^.^.^.^.^.^.^.^.^.^.^.^.^.^.^.^.^.^.^.^.^.^.^.^.^.^.^.^.^.^.^.^.^.^.^.^.^.^.^.^.^.^.^.^.^.^.^.^.^.^.^.^.^.^.^.^.^.^.^.^.^.^.^.",
"^.^.^.^.^.^.^.^.^.^.^.^.^.^.^.^.^.^.^.^.^.^.^.^.^.^.^.^.^.^.^.^.^.^.^.^.^.^.^.^.^.^.^.^.^.^.^.^.^.^.^.^.^.^.^.^.^.^.^.^.^.^.^.^.",
"^.^.^.^.^.^.^.^.^.^.^.^.^.^.^.^.^.^.^.^.^.^.^.^.^.^.^.^.^.^.^.^.^.^.^.^.^.^.^.^.^.^.^.^.^.^.^.^.^.^.^.^.^.^.^.^.^.^.^.^.^.^.^.^.",
"^.^.^.^.^.^.^.^.^.^.^.^.^.^.^.^.^.^.^.^.^.^.^.^.^.^.^.^.^.^.^.^.^.^.^.^.^.^.^.^.^.^.^.^.^.^.^.^.^.^.^.^.^.^.^.^.^.^.^.^.^.^.^.^.",
"^.^.^.^.^.^.^.^.^.^.^.^.^.^.^.^.^.^.^.^.^.^.^.^.^.^.^.^.^.^.^.^.^.^.^.^.^.^.^.^.^.^.^.^.^.^.^.^.^.^.^.^.^.^.^.^.^.^.^.^.^.^.^.^.",
"^.^.^.^.^.^.^.^.^.^.^.^.^.^.^.^.^.^.^.^.^.^.^.^.^.^.^.^.^.^.^.^.^.^.^.^.^.^.^.^.^.^.^.^.^.^.^.^.^.^.^.^.^.^.^.^.^.^.^.^.^.^.^.^.",
"^.^.^.^.^.^.^.^.^.^.^.^.^.^.^.^.^.^.^.^.^.^.^.^.^.^.^.^.^.^.^.^.^.^.^.^.^.^.^.^.^.^.^.^.^.^.^.^.^.^.^.^.^.^.^.^.^.^.^.^.^.^.^.^.",
"^.^.^.^.^.^.^.^.^.^.^.^.^.^.^.^.^.^.^.^.^.^.^.^.^.^.^.^.^.^.^.^.^.^.^.^.^.^.^.^.^.^.^.^.^.^.^.^.^.^.^.^.^.^.^.^.^.^.^.^.^.^.^.^.",
"^.^.^.^.^.^.^.^.^.^.^.^.^.^.^.^.^.^.^.^.^.^.^.^.^.^.^.^.^.^.^.^.^.^.^.^.^.^.^.^.^.^.^.^.^.^.^.^.^.^.^.^.^.^.^.^.^.^.^.^.^.^.^.^.",
"^.^.^.^.^.^.^.^.^.^.^.^.^.^.^.^.^.^.^.^.^.^.^.^.^.^.^.^.^.^.^.^.^.^.^.^.^.^.^.^.^.^.^.^.^.^.^.^.^.^.^.^.^.^.^.^.^.^.^.^.^.^.^.^.",
"^.^.^.^.^.^.^.^.^.^.^.^.^.^.^.^.^.^.^.^.^.^.^.^.^.^.^.^.^.^.^.^.^.^.^.^.^.^.^.^.^.^.^.^.^.^.^.^.^.^.^.^.^.^.^.^.^.^.^.^.^.^.^.^.",
"^.^.^.^.^.^.^.^.^.^.^.^.^.^.^.^.^.^.^.^.^.^.^.^.^.^.^.^.^.^.^.^.^.^.^.^.^.^.^.^.^.^.^.^.^.^.^.^.^.^.^.^.^.^.^.^.^.^.^.^.^.^.^.^.",
"^.^.^.^.^.^.^.^.^.^.^.^.^.^.^.^.^.^.^.^.^.^.^.^.^.^.^.^.^.^.^.^.^.^.^.^.^.^.^.^.^.^.^.^.^.^.^.^.^.^.^.^.^.^.^.^.^.^.^.^.^.^.^.^.",
"^.^.^.^.^.^.^.^.^.^.^.^.^.^.^.^.^.^.^.^.^.^.^.^.^.^.^.^.^.^.^.^.^.^.^.^.^.^.^.^.^.^.^.^.^.^.^.^.^.^.^.^.^.^.^.^.^.^.^.^.^.^.^.^.",
"^.^.^.^.^.^.^.^.^.^.^.^.^.^.^.^.^.^.^.^.^.^.^.^.^.^.^.^.^.^.^.^.^.^.^.^.^.^.^.^.^.^.^.^.^.^.^.^.^.^.^.^.^.^.^.^.^.^.^.^.^.^.^.^.",
"^.^.^.^.^.^.^.^.^.^.^.^.^.^.^.^.^.^.^.^.^.^.^.^.^.^.^.^.^.^.^.^.^.^.^.^.^.^.^.^.^.^.^.^.^.^.^.^.^.^.^.^.^.^.^.^.^.^.^.^.^.^.^.^."
};
