/* XPM */
static char *_60fe6d8c3ed49508b7155d027004d5aJf1G1i56hnLzj8N4[] = {
/* columns rows colors chars-per-pixel */
"64 64 48 1 ",
"  c #44435B",
". c #45445C",
"X c #46455D",
"o c #47455E",
"O c #47485F",
"+ c #484860",
"@ c #484961",
"# c #4B4E66",
"$ c #4D5067",
"% c #4E5269",
"& c #4F546B",
"* c #50546B",
"= c #51556D",
"- c #58506C",
"; c #58516C",
": c #59516D",
"> c #59536F",
", c #5D5974",
"< c #5E5B76",
"1 c #5E5C76",
"2 c #5F5C77",
"3 c #68617E",
"4 c #686783",
"5 c #6A6985",
"6 c #6C6885",
"7 c #6C6D89",
"8 c #6E6F8B",
"9 c #776789",
"0 c #75698A",
"q c #706E8B",
"w c #766B8C",
"e c #786A8B",
"r c #786A8C",
"t c #7B6C8E",
"y c #6E708C",
"u c #816F93",
"i c #827094",
"p c #7F809E",
"a c #8E8CAE",
"s c #8F8EAF",
"d c #9997BA",
"f c #9998BB",
"g c #9A99BC",
"h c #9B99BD",
"j c #9E9DC1",
"k c #A7A5CA",
"l c #A9A7CD",
"z c #AAA8CE",
/* pixels */
"  X4flzzzzzzzzzzzzzzzzzzzzlh8=&$XXX4fzkzzzzzzzzzzzzzzzzzzzzh8**%",
"  X4flzzzzzzzzzzzzzzzzzzzzlh8=&$X X4fzzzzzzzzzzzzzzzzzzzzzzg8=&=",
" XX4dlkkzzzzzzzzzzzzzzzzzzlf8=%$@XX4dzzzzzzzzzzzzzzzzzzzzzlgy&&*",
":::6aggdkzzzzzzzzzzzzzzkjhha8222:::5aggjkzzzzzzzzzzzzzzkjhga8222",
"99e0q8yajzzzzzzzzzzzzzzja4yqweree9e0888ajzzzzzzzzzzzzzzjayyq0err",
"uuur<==yglzzzzzzzzzzzzzh8**2eiiiuuir2=*4gzzzzzzzzzzzzzzg4==2riii",
"iiir2==8gllzzzzzzzzzzzzfy&&2eiiiuii02=&8gzlzzzzzzzzzzllg8&=2riii",
"iiit32<qaggjkzzzzzzkjhfa8223tiiiiiit32<8aggjkzzzzzzkjhga8223tiii",
"iiiutrrwqyyadlzzzzzja4y8wetttiiiiiiuterwqyyajzzzzzzjayyq00etiiii",
"iiiiiiir2==8dkzzzzlg8&=2riiiiiiiiiiiiii02=&4glzzzzzg4==2eiiiiiii",
"iiiiiiie2==8flllzzzf8=&2riiiiiiiiiiiiiie2*&8fzzzzzzf8%=2eiiiiiii",
"iiiiiiit322yadffggfa8<23tiiiiiiiiiiiiiit32<8adfffffay223tiiiiiii",
"iiiiiiiut0e064458888we0tiiiiiiiiiiiiiiiutre064458yy8wt0ttiiiiiii",
"iiiiiiiiiuie:XX@%&=<riiiiiiiiiiiiiiiiiiiiiu0:XX@%&=<0iiiiiiiiiii",
"iiiiiiiiiii0:XXO$&%<riiiiiiiiiiiiiiiiiiiiii9:X @$**<eiiiiiiiiiii",
"iiiiiiiiiii0:@X@#$%2eiiiiiiiiiiiiiiiiiiiiiie:@X@#$$,tiiiiiiiiiii",
"iiiiiiiiiiie2$##@O@>euiiiiiiiiiiiiiiiiiiiiie<$%#@OO:9uiiiiiiiiii",
"iiiiiiiiiiir2%*#O  :euiiiiiiiiiiiiiiiiiiiiir<=%#O X:euiiiiiiiiii",
"iiiiiiiiiiie2==%@XX:0uiiiiiiiiiiiiiiiiiiiiir<==%@XX:euiiiiiiiiii",
"iiiiiiiutrew888854460eetiiiiiiiiiiiiiiiitrr0q88854460eetuiiiiiii",
"iiiiiiit3228affffffaq223tiiiiiiiiiiiiiit3228sgggffgaq<23tiiiiiii",
"iiiiiii02**yfzzzllzfq=*2eiiiiiiiiiiiiiir2==8glllzzzgy=&2eiiiiiii",
"iiiiiiie2**4hzzzzzkfy==2eiiiiiiiiiiiiii02%=yhlzzzzzhy=%<eiiiiiii",
"iiiitrrwyy8ajzzzzzkdayyq0eetuiiiiiittrr0884ajzzzzzzga4yywe0tuiii",
"iiit3228afhjkzzzzzzkjhfaq223tiiiiiit322qsghjkzzzzzzkjhgsq223tiii",
"iii02=&yfzzzzzzzzzzzzlzfq==2euiiiii02==ygllzzzzzzzzzzllgy=&2eiii",
"iiie2=%5hzzzzzzzzzzzzzzfy==2eiiiiiit2%=yhlzzzzzzzzzzzzlhy&&<euii",
"rrrw8y7ajzzzzzzzzzzzzzzjayyq0ee0te0wy84ajzzzzzzzzzzzzzzja488099e",
"2228affjkzzzzzzzzzzzzzzkffga6::>,<2qafgjkzzzzzzzzzzzzzzkjgga6::-",
"*&*8fzzzzzzzzzzzzzzzzzzzlkkf4X @$&=yfzzzzzzzzzzzzzzzzzzzzlld4XX ",
"*&=8fzzzzzzzzzzzzzzzzzzzzzlf4X @$*&yfzzzzzzzzzzzzzzzzzzzzzld4X  ",
"$$%8gzzzzzzzzzzzzzzzzzzzzzlf5@X@#$%8fzzzzzzzzzzzzzzzzzzzzzld5@@X",
"OX@5flzzzzzzzzzzzzzzzzzzzzzg8%$#@O@5fzzzzzzzzzzzzzzzzzzzzzzg8%%#",
"X X4flzzzzzzzzzzzzzzzzzzzzlg8**$O X4fzzzzzzzzzzzzzzzzzzzzzzg8%&=",
" XX4fkklzzzzzzzzzzzzzzzzzlzf8=*$O X5gzzzzzzzzzzzzzzzzzzzzzlgy&**",
";;:6agffkzzzzzzzzzzzzzzkjgga8<<<:::6agggkzzzzzzzzzzzzzzkjhga8222",
"e9e0qyyajzzzzzzzzzzzzzzja888wrre9ee0qyyajzzzzzzzzzzzzzzjayyq0err",
"uuue2==yfzzzzzzzzzzzzzlh4&=<eiiiuuue<==4gzzzzzzzzzzzzzzg4==2euii",
"iuue2==qfzlzzzzzzzzzzzzgy=&20iiiiiie2&%ygzlzzzzzzzzzzllg8%=2riii",
"iuut322qafhjkzzzzzzkjhfa8223tiiiiiit32<yaggjkzzzzzzkjhga8223tiii",
"iiiutrrrq8yadkzzzzzja8y8wrrtiiiiiiiuteewqyyajzzzzzzjayy80ertiiii",
"iiiiiiir2==yfkzzzzzh4*&2eiiiiiiiiiiiiiie2=&4glzzzzzf4==20iiiiiii",
"iiiiiiir2*=8hllllzlhy&=20iiiiiiiiiiiiii02&&8fzzzzzzf8%=2riiiiiii",
"iiiiiiit322qaffffgfa8223tiiiiiiiiiiiiiit32<8adfffffay223tiiiiiii",
"iiiiiiiitee064458yyq0rrtuiiiiiiiiiiiiiiutee06445yy88weetiiiiiiii",
"iiiiiiiiiiu0:XX@%=*2eiiiiiiiiiiiiiiiiiiiiiu0:XX@%**2eiiiiiiiiiii",
"iiiiiiiiiii0:  O#*%2riiiiiiiiiiiiiiiiiiiiii9:X @$**2eiiiiiiiiiii",
"iiiiiiiiiiie:@O@#$$2eiiiiiiiiiiiiiiiiiiiiiie:@X@#$$,0iiiiiiiiiii",
"iiiiiiiiiiie<%$#@X@:0iiiiiiiiiiiiiiiiiiiiiur<%%#@O@:9uiiiiiiiiii",
"iiiiiiiiiiir<%&$OXX:0iiiiiiiiiiiiiiiiiiiiiir<=%#O X:euiiiiiiiiii",
"iiiiiiiiiiir<=*%@XX:eiuiiiiiiiiiiiiiiiiiiiur<==%@XX:euiiiiiiiiii",
"iiiiiiiit0ew888854460e0tuiiiiiiiiiiiiiiitre0q88854450retuiiiiiii",
"iiiiiiit32<8afggffday223tiiiiiiiiiiiiiit322qsgggffdaq223tiiiiiii",
"iiiiiiir2&=8gzlzlllf8==2eiiiiiiiiiiiiiir2==yglllllzf8=*2eiiiiiii",
"iiiiiiir2=&8glzzzzkd8==2riiiiiiiiiiiiii02%=yhlzzzzlgy*&<riiiiiii",
"iiitttrw8y4ajzzzzzldayyqwrrtuiiiiiittrr0884ajzzzzzzja488we0tuiii",
"iiit3228aghjkzzzzzzkjggaq223tiiiiiit322qsghjkzzzzzzkjhgsq223tiii",
"iiir2&&yfzlzzzzzzzzzzllg8=*2eiiiiii02==ygllzzzzzzzzzzllgy=&2eiii",
"iiie2**8hzzzzzzzzzzzzzlg8==2ruuiiiit2%=yhlzzzzzzzzzzzzlgy&&<euii",
"rrewqy4ajzzzzzzzzzzzzzzjay8q0ee0te0wy84ajzzzzzzzzzzzzzzja488099e",
"2228ahhjkzzzzzzzzzzzzzzkdgga6:::,22qafgjkzzzzzzzzzzzzzzkjgga6::-",
"&**yflzzzzzzzzzzzzzzzzzzkkld4X @$*=yfzzzzzzzzzzzzzzzzzzzllld4XX ",
"&*=yhlzzzzzzzzzzzzzzzzzzzzlf4XXX$**yfzzzzzzzzzzzzzzzzzzzzzlf4X  ",
"&**8hlzzzzzzzzzzzzzzzzzzzzlf4X O$&*ygzzzzzzzzzzzzzzzzzzzzzld4X  "
};
