/* XPM */
static char *_f17765a055d49dcbfce8fc2a3a2c7f03SyKiRIx5jBySGOt[] = {
/* columns rows colors chars-per-pixel */
"64 64 122 2 ",
"   c #3A334D",
".  c #3D3650",
"X  c #3E3A52",
"o  c #433D56",
"O  c #453E58",
"+  c #483F5A",
"@  c #434057",
"#  c #44435B",
"$  c #49445E",
"%  c #4A485F",
"&  c #4A4760",
"*  c #4D4B63",
"=  c #504D67",
"-  c #534F69",
";  c #584F6B",
":  c #505166",
">  c #55546C",
",  c #5A526E",
"<  c #57586D",
"1  c #58586C",
"2  c #575670",
"3  c #5F5C77",
"4  c #5F5E78",
"5  c #645977",
"6  c #6B5E7D",
"7  c #64637E",
"8  c #696C7E",
"9  c #676580",
"0  c #6E6181",
"q  c #6A6A83",
"w  c #6E6C88",
"e  c #736586",
"r  c #746989",
"t  c #7C6C8F",
"y  c #6E7184",
"u  c #74788A",
"i  c #7F6D91",
"p  c #767592",
"a  c #797594",
"s  c #7A7897",
"d  c #7B7A98",
"f  c #806F92",
"g  c #827094",
"h  c #857699",
"j  c #87789C",
"k  c #897B9E",
"l  c #847FA0",
"z  c #8B7EA2",
"x  c #7D8293",
"c  c #81829C",
"v  c #85889F",
"b  c #8583A3",
"n  c #8B83A5",
"m  c #878AA0",
"M  c #8A8FA2",
"N  c #8C8AAB",
"B  c #9186AA",
"V  c #938AAE",
"C  c #8E94A5",
"Z  c #8F93A9",
"A  c #9097A7",
"S  c #9197A8",
"D  c #9198A8",
"F  c #958EB2",
"G  c #988FB4",
"H  c #9493B5",
"J  c #9A92B6",
"K  c #9B94B9",
"L  c #9D99BD",
"P  c #98A0B0",
"I  c #9F9DC1",
"U  c #A19EC3",
"Y  c #A3A1C5",
"T  c #A6ACC0",
"R  c #A8AEC4",
"E  c #A6A4C9",
"W  c #A9A6CC",
"Q  c #A9AACA",
"!  c #AAA8CE",
"~  c #AAA9CE",
"^  c #ABA9CF",
"/  c #ACABCF",
"(  c #ADACCF",
")  c #ABB4C4",
"_  c #AEB7C8",
"`  c #AFB8C9",
"'  c #B3BCCD",
"]  c #ACABD0",
"[  c #ADACD0",
"{  c #ADADD0",
"}  c #AEAED1",
"|  c #AFAFD2",
" . c #B2B3D4",
".. c #B3B5D4",
"X. c #B4B9D3",
"o. c #B5BAD4",
"O. c #B6B8D7",
"+. c #BABEDA",
"@. c #BBBFDB",
"#. c #BAC4D4",
"$. c #BCC6D6",
"%. c #BBC2D8",
"&. c #BCC2DC",
"*. c #BEC4DC",
"=. c #BEC4DD",
"-. c #BFC6DE",
";. c #C0C6DF",
":. c #C1CBDD",
">. c #C1CCDC",
",. c #C3CDDE",
"<. c #C3CEDF",
"1. c #C3CAE1",
"2. c #C5CFE0",
"3. c #C4CCE2",
"4. c #C5CDE2",
"5. c #C9D3E6",
"6. c #C9D4E6",
"7. c #CBD6E7",
"8. c #CBD6E8",
"9. c #CCD6E8",
"0. c #CCD7E8",
"q. c #CDD8E9",
/* pixels */
"        @ # # # @ # # # X       . # # # # O # # # # # # # # # # # X       X # # # # # # # O         o # O # # # # # # # # # # # ",
"        % : : : : : : : % @ @ @ # * * * * * * * * * * * * * * * * X       # & : : - : : : * # O o O * * * * * * * * * * * * * * ",
"X X X > x C D D C D D D v s u p d d d h d d d d d d p d d d d d p 4 o X # y C D D S S S S M s a a p s s d s s d d d d d s s s s ",
"@ @ # 8 ) -.3.3.-.2.2.-.X.Y Y Y U U U U Y Y Y Y Y Y Y Y Y Y U I I p * # < D #.<.3.3.3.3.<.&.Q Y Y Y U Y Y Y Y Y Y Y Y Y Y Y Y Y ",
"# # # y _ 7.9.q.7.q.9.8.&.[ ~ ~ ! ! ! ! ! ^ W ^ ~ W ! ! ! ! W ! E x = # < P 2.8.9.9.9.9.8.1. .! W ~ ! ! ! ! ! ! ! ! ! ! ~ ~ ~ ~ ",
"# # # y _ 7.8.8.q.8.q.5.&.[ ~ ~ ! ! ! ! ! W ] W W ] ! ! W ] W ] I d * # < P 2.8.8.8.9.9.8.1. .! W ~ ! ! ! ! ! ! ! ! ! ! ~ ~ ~ E ",
"# # # q T &.-.1.1.1.1.&.O./ ~ ~ ! ! ! ! ! ! W ] ] ] W ! W I K K H p * # 2 Z #.;.;.;.;.;.1.+.| ! ~ ] W ! ! ! ! ! ! ! ! ! ] W Y I ",
"# # # 7 H _ [ [ [ ~ [ [ ] ~ ~ ~ ! ! ! ! ! ! ^ W W W ! ! Y F l h g 9 & # - x ~ ] | | ] | | ! ! ! ~ W ] W ! ! ! ! ! ! W ] W E K l ",
"# # # 4 H W ! ! ~ ~ W ~ W ] W ! W W W W ] W W ] W ! ] ] U V g f i 5 # O = d W W ] ! ! ! W W ] ! W ^ W ^ ^ W ^ W ! ! ! ! ! E K h ",
"# # # 9 H W ! ! W ~ W W W W W W W W W W W W W W W W W W Y V g g i 9 & # > l E ] W ! W W W W W W W W W W W W W W W W W W W E K j ",
"# # # 4 N ! ! W U K K K K K K K K K K K K K K K K K K K G z g g i 5 & # > d E W W I I I I G I G K K K K K K K K K K K K K K B f ",
"# # # 5 H W ! E F z k h j h z h j j j k k k h k h h j j j g g g t 5 & # > d I ~ W I z i h h h h h j h z h h z j j j j j j j j f ",
"# # # 4 H W ! W F h g f f f f f f f g g f f f f f h f f g g g g t 0 & # = d E ~ W I l i i f f f f f g g f f f f g g i i f f f g ",
"# # # 4 N E W I V g f f f f f f f f f f f f f f f f f f f f f f t 4 & # > d I W E K z i f f f f f f f f f f f f a i g i f f f f ",
"X X X > s N N n f e 0 0 6 6 0 6 6 6 e 6 e 6 6 e e 6 e 0 0 0 0 9 0 ; o X & w b N N l r 0 0 0 0 0 6 0 e 0 0 0 0 0 0 0 0 0 0 0 0 0 ",
".   . X * 2 2 ; ; * * * + O O + $ & * & = = * & = & = * * * * * O o .   . & > 2 2 - * * * & + + + + & * * * * * = = * * * * - * ",
"        X # # # # # # # X         # # # # # # # # # # # # # # # # .       . # # # # # # # X         o o # # # # # # # # # # # # ",
"X X # X & = * * = = & & # .     X = : : : : : : = * * * * * * * & $ o X X & & * * * * * * & .   o o $ & : : : : : : : * * * * * ",
"d a a a d d d d d d a a 9 # . # q M D D D D D D A c d d s d d d d s d s s s d d d d d d d w * X o , j A D D D D C C v d d d p d ",
"I E I E I Y E I U U U I d = # = M #.:.:.<.<.3.:.&.] U U U U E U I I I E I I E I Y Y Y Y U N 9 X @ y ) :.<.3.3.2.2.<.X.Y Y Y Y Y ",
"! ! ! ! ] ! ! ! W W W E x > # : A <.8.8.q.q.q.q.3.O.] ^ ! W W ! ] ! ! ! ! ! ! ! ] ~ W ~ W H 9 & % u ' 7.7.9.9.9.8.5.&.] ~ ~ ~ W ",
"! ! ! ! W ! ! ! W E W E b > # : C 3.8.0.8.8.8.8.3.O.^ ^ ! ] ! ] ] ! ! ! ! ! ! ! ~ ~ W E E H 9 # # u ' 7.9.9.8.8.8.7.&.] ~ ~ ~ ~ ",
"! ! ! ! ! ! ! W I I G I d - # - C X.-.;.;.;.-.;.@.| ] W W ] ! W ! ! ! ! ! ! W ! W E I H J n 3 O % y R &.1.;.;.2.-.&.O.] W ] W ] ",
"! ! ! ! ! ! ! E F z h d 0 * # * s U | [ | | [ | ] ^ ! ! ! W ! W ! ! ! ! ! ! ! ] W I z d h i > * # 7 L _ [ [ [ [ [ [ ] ! ! W ~ W ",
"! ! ! ! W ] W W z h f g 0 & X * d Y Q ~ W ] W ] W ! ! ! ] ! W ] ! ! W W ! ! ! ! W K z f f e - + # 9 K W ] ! W W [ ] ~ ~ W ] W ! ",
"W W W W W W W U G h g g 0 & & & d Y ~ ~ ~ W W W W W W W W W W W W W E E W W W W W K h f f e = & & 9 G W W ] W W W W ~ E W W W W ",
"K H K K I J K G z g g f 5 & # * d U ~ ~ U U K K K G K K K K K K I K I I G I I G H V z g f e ; + # 9 G W ! W U K K K K K K K K K ",
"l h l l h h h h g g g f 0 * # * d I W W I B j j j z h j h z h h l h f h h z h h z h i g g e ; * # 9 K ] ! U V k j j j j j h j j ",
"i g f f g g g g g g g f 6 + + * s U ~ W I z g g f f f f g g f g f f f f f g g g f f g f i e : & & 9 H E W E V h f f g i i f f g ",
"f f f f f f g g g g g f 0 & + & p I E E K l g i f f f f f f f f f f f f i f f f i i f f i e ; # # 7 H E W U B a f f a i f f f f ",
"0 0 6 6 0 0 0 0 0 0 0 0 ; o o O 9 b N N l r 0 0 0 0 0 0 e 0 0 0 0 0 0 6 0 0 0 0 0 0 0 0 0 4 & X X 2 d N B n f e e 0 0 0 0 0 0 0 ",
"o o o + + * * * & * * & + o     & > 2 2 , * * * * * * * * * * * + + + O O & & & * * * * * & X     # & 2 2 ; = * * = * * * * * - ",
"      . o # # @ # # # # .       X # # # # # # # # # # # # o # $ + o       . & # # # # # # o         @ # # # # # # # # # # # # # ",
"      X * : : : : : : : & O O O # * * * * * * * * & * * * * * * & +       # * = : : : : : * @ o O O $ = * * * * * * * * * * * * ",
"  X X : x C D D A D S A l a f a p s s s d s d d d d d d d d h d i 3 o . & y C Z S D G D D M d a p p d s d d d s a d d d d d d a ",
"@ # # 8 ) -.<.3.<.<.<.;.O.E U U Y Y Y Y Y Y Y Y Y U Y Y U Y U U I a * O > S %.:.1.3.2.3.<.&.Q Y Y Y Y Y Y Y U E U Y Y Y Y Y Y Y ",
"# @ # y _ 7.0.0.8.q.q.7.+.^ ^ ^ ~ ~ ~ ~ ! ! ! ! ] W ! ! ! ! ! ! E x - # < P <.9.5.9.9.q.9.1.| ! Q W ! ! ! ! ! ! ! ! ! ! ~ ~ ~ ~ ",
"# # # y _ 7.8.0.8.8.7.7.1.] ^ ^ ~ ~ ~ ~ ! ! ! ! W ] ! ! ! ! ! W I s * # < P 2.8.5.5.9.9.9.1. .! W / ! W ! ! ! ! ! ! ! ! ~ ~ E ~ ",
"# # # 8 T -.;.3.;.1.:.&.O.^ W ^ W ~ ~ W ! ! ! ! ! ! ! ! W U K L H p * # 2 S #.-.1.1.1.1.1.+.| ! ~ W W ] ! ! ! ! ! ! ] W ] W Y I ",
"# # # 7 H [ [ [ [ [ [ [ ^ ^ ^ W W W ~ ~ ! ! ! ! ! ! ! ! U V k h i 9 & # - x ~ [ | ] ] ^ | ] ! ! W ] ] W ! ! ! ! ! ! W ~ W W K l ",
"# # % 4 H ~ ~ ~ ^ ^ ^ ^ ^ ^ ^ ^ ] W W W ! W ] W ] W ! W U V h g i 5 $ # > d W ] W ! ! ! W ! ! ! ! ^ ^ ^ ^ ^ W ^ ! ! W ] W W J j ",
"# # # 4 H E ~ ~ ^ U W W U W ^ U W W W W W W W W W W W W U V g g i 9 $ # 2 d W W ! ! W W W W W W U W W W ^ ^ U ^ W W W W W E J h ",
"# # # 4 H ~ ~ E U K K J U K G K K K J J K G K K K K K K G z f g e 5 & # - d W W W U I I L G U G K K K K K K K K K K K K K H B h ",
"# # # 4 H E ~ E G z h z h z h z l l l h h l h z h j h z h h g g i 9 & # * d E ~ W I z i h h h h j z h z h h h j l h h j j z h f ",
"# # # 4 N E ~ E V h f f g f f f g g g i g g g g g f g g g f g g i 0 & # = d E W W I l i i g f f f g g g f g g g f f h f f f f f ",
"# # # 4 H E E Y V f f f f f f f a i g i i f f f i i f f f a i i e 5 & O > d I W U I z i a i f f f f f f f f f f f f f f f f f f ",
"X X X 2 s N N b f 0 0 0 e 6 0 6 0 0 0 0 0 0 0 0 0 0 0 0 0 0 9 0 0 ; O X & w b N n d r 0 0 0 0 0 6 0 0 0 0 0 0 0 e 0 0 0 0 0 e 0 ",
"  . . X * 2 2 2 = ; $ * + + + + + + - * * * * * * * * * * - * * # o .   . & 2 2 2 > = = * & + + + + & * * * * * * & * * * * * * ",
"  .     X & # # # # # # X       o @ # # # # # # # # # # # # # # # . .     . X & # # # # # X     o   o o # @ # # # # # # # # # # ",
"X X X # & - & * * * * & #       @ : : : : : : : : * * * * * * * * & X X X & * = * * * * * & .     o + & : : : : : : : * * * * * ",
"p s s s d d d d d d d a 4 # X # 8 v A D C D D D Z x s s d d d d a d p p d a d d d d d d d w * . o 1 j S D D D S D Z v d s s s s ",
"I E I I I I E I U Y Y I x = # * M #.<.3.<.<.<.<.-.) Y Y Y Y U U I I E I W I U I Y Y Y Y Y N 4 # # w ) :.<.<.3.2.2.-.X.E Y Y Y Y ",
"~ ] ! ! ! ! ! ! W ] W W b 2 # > A <.8.q.9.9.8.8.2.O.] W ] W ! ! ] W W ] ! ! ! ! ] ~ E W W H 9 & # u ' 7.7.0.q.7.9.5.&.] ~ ~ ~ ~ ",
"W ~ ! ! ! ! ! ! W W W I x 2 # = Z 1.8.8.9.9.9.8.1.O.] W ] W ! ! ] ] ! W ! ! ! ! ~ ~ W W W J 9 # $ u ' 7.q.7.7.7.9.5.+.[ ~ ~ ~ Q ",
"~ ] W ! ! ! ! ! I I G G s = # = m O.=.1.3.1.3.=.+.[ [ ~ W ! ! ! ! ! ! ! ! ! ! ! W U I H J b 3 # # y ) ;.-.-.-.<.1.&...] W ~ U L ",
"~ W ] W ! ! ! E F z z d 9 * # = d E ] ] | ] ] ] ] ] ~ ~ ! ! ! ! ! ! ! ! ! ! ! W ] I z l h i 2 # % 7 K ( [  .[ [ [ [ ] ~ ~ ~ K l ",
"! ! W W ! ! W W V f g f 0 $ O * d I ] ! ! ! W W ! W W W ! ! ! ! ! ! ! ! ! ! ! ! W K k f f e ; # # 7 H ! ! W ] W ~ ~ ~ W ] W G h ",
"W W W E W W W U F h f f 0 & # * d I ] ! ! ! W W W W W W W W W ! W W E W W W W W W K k i g e ; $ $ 7 K ! ! ] W ~ ~ ~ W W W W G h ",
"I G I K K K K G z f f f 0 & # * s I ! ! E I I J J K U J K K K K I J J K K K K K J V z f g e ; + # 9 H ! ! W U K K K K K K K V h ",
"h h h h h z z h h f g f 9 & # * s I ! ! I z l h h h h z h h h h l h l h h z h h k h i f f e ; $ # 9 H W ] U F j j h k h h k h i ",
"g g g g g g g g f i i i 0 & O * s I ! ! U z g g h g g g f f g f f f f f f f g g f f f h i e , # & 9 H W ~ Y V h g g f f f f f g ",
"i i i g i i i f i i i i 5 & # * s I E E J z g g g f f f f f f f f f f f i a f f f i f f i e - # # 7 H E E Y B g f f f f f f f f ",
"6 0 0 0 0 0 0 0 0 0 0 0 ; # X # 9 n B B z e 0 0 0 0 0 0 0 0 0 0 0 0 0 6 0 0 0 0 0 0 0 0 0 5 & X o 2 d N N n i 0 0 0 0 0 0 0 e 0 ",
"o o O # & & = & = - = & O .   . O 2 2 , ; = & & ; & = & ; & & ; + + + o + & & * * * * * * & X   . X : > 2 , - * * - * * * * * * "
};
