/* XPM */
static char *result[] = {
/* columns rows colors chars-per-pixel */
"50 50 247 2 ",
"   c #25392E",
".  c #2C3F2E",
"X  c #282B30",
"o  c #2A2B30",
"O  c #3D2231",
"+  c #323A31",
"@  c #4D2133",
"#  c #4F2133",
"$  c #4D2233",
"%  c #4E2433",
"&  c #512433",
"*  c #542533",
"=  c #542633",
"-  c #542234",
";  c #5E2235",
":  c #5F2235",
">  c #403532",
",  c #443630",
"<  c #622335",
"1  c #632335",
"2  c #652336",
"3  c #672336",
"4  c #682336",
"5  c #6B2436",
"6  c #6C2437",
"7  c #6D2437",
"8  c #6F2437",
"9  c #6F2537",
"0  c #6E2936",
"q  c #702537",
"w  c #722537",
"e  c #772D37",
"r  c #752538",
"t  c #792938",
"y  c #663735",
"u  c #26771B",
"i  c #2B771C",
"p  c #35771C",
"a  c #3D771D",
"s  c #3F761E",
"d  c #36781B",
"f  c #31781D",
"g  c #2E422E",
"h  c #31412E",
"j  c #35462E",
"k  c #385E27",
"l  c #3E512E",
"z  c #3F562F",
"x  c #3B4632",
"c  c #3F4B32",
"v  c #2D6325",
"b  c #2B6524",
"n  c #2B6624",
"m  c #266B21",
"M  c #2D6923",
"N  c #2B6C21",
"B  c #3B6926",
"V  c #3C7720",
"C  c #41592C",
"Z  c #425B2C",
"A  c #4E5E2B",
"S  c #415131",
"D  c #465532",
"F  c #475B30",
"G  c #4A5B32",
"H  c #6B5131",
"J  c #7C5233",
"K  c #406924",
"L  c #406B26",
"P  c #4A6C29",
"I  c #59652E",
"U  c #5F6829",
"Y  c #4E7227",
"T  c #427921",
"R  c #4F712F",
"E  c #54772A",
"W  c #56772A",
"Q  c #526534",
"!  c #546734",
"~  c #566A34",
"^  c #586B34",
"/  c #596E35",
"(  c #5F7132",
")  c #616729",
"_  c #786E2B",
"`  c #7C6F2B",
"'  c #82263A",
"]  c #88273B",
"[  c #8A273B",
"{  c #8B273B",
"}  c #8D273C",
"|  c #8F273C",
" . c #802D38",
".. c #812F38",
"X. c #822F39",
"o. c #89293B",
"O. c #91283C",
"+. c #92283C",
"@. c #94293D",
"#. c #952B3D",
"$. c #972E3D",
"%. c #992A3D",
"&. c #9E293F",
"*. c #9F293F",
"=. c #9C2C3E",
"-. c #9F2E3F",
";. c #853739",
":. c #883639",
">. c #8F3E39",
",. c #94303C",
"<. c #95323C",
"1. c #99343C",
"2. c #9A353C",
"3. c #A02A3F",
"4. c #A22D3F",
"5. c #A7383F",
"6. c #A03E3D",
"7. c #934938",
"8. c #954A39",
"9. c #B2453F",
"0. c #AC513C",
"q. c #B1523D",
"w. c #AD2B42",
"e. c #A82C40",
"r. c #A92D40",
"t. c #AB2D41",
"y. c #AD2C41",
"u. c #B12C42",
"i. c #B12D42",
"p. c #B83443",
"a. c #BA3643",
"s. c #BD3044",
"d. c #BC3544",
"f. c #B73A44",
"g. c #BE3A44",
"h. c #C12E46",
"j. c #C22F46",
"k. c #C52F46",
"l. c #C13145",
"z. c #C33046",
"x. c #C53146",
"c. c #C63746",
"v. c #C13B46",
"b. c #C43F45",
"n. c #C63F45",
"m. c #CA3846",
"M. c #CD3A47",
"N. c #CE3A47",
"B. c #C93F45",
"V. c #CA3E45",
"C. c #CD3348",
"Z. c #CE3348",
"A. c #D23F47",
"S. c #D13848",
"D. c #D33948",
"F. c #D13B48",
"G. c #D73D49",
"H. c #D83E49",
"J. c #C04244",
"K. c #C34244",
"L. c #C44344",
"P. c #C14547",
"I. c #C54747",
"U. c #CC4046",
"Y. c #C54948",
"T. c #D04346",
"R. c #D14446",
"E. c #D04747",
"W. c #D24747",
"Q. c #D24847",
"!. c #D54048",
"~. c #D7454A",
"^. c #DA4149",
"/. c #DB4149",
"(. c #D94348",
"). c #DB4249",
"_. c #D8474B",
"`. c #DD4449",
"'. c #DE4449",
"]. c #DE4549",
"[. c #DF4649",
"{. c #DE454A",
"}. c #DF454A",
"|. c #DF4949",
" X c #DD494B",
".X c #DF4F4C",
"XX c #DE534F",
"oX c #D85150",
"OX c #E0464A",
"+X c #E0474A",
"@X c #E1474A",
"#X c #E2484A",
"$X c #E2494A",
"%X c #E3494A",
"&X c #E34A4A",
"*X c #E44A4A",
"=X c #E44B4A",
"-X c #E44B4B",
";X c #E24C4C",
":X c #E44D4C",
">X c #E0524E",
",X c #E5504D",
"<X c #E5524E",
"1X c #E65550",
"2X c #E65751",
"3X c #E35851",
"4X c #E35952",
"5X c #E35A52",
"6X c #E65952",
"7X c #E75D55",
"8X c #E75E55",
"9X c #E55F56",
"0X c #E76056",
"qX c #E76157",
"wX c #E56258",
"eX c #E3655A",
"rX c #E56459",
"tX c #E86258",
"yX c #E86459",
"uX c #E8665A",
"iX c #E9675B",
"pX c #E66B5D",
"aX c #E9695C",
"sX c #EA6E5F",
"dX c #EB7060",
"fX c #EC7664",
"gX c #EC7866",
"hX c #EC7B67",
"jX c #ED7B68",
"kX c #EE7E6A",
"lX c #49821E",
"zX c #4F871E",
"xX c #4E8026",
"cX c #568521",
"vX c #5B8924",
"bX c #5F8828",
"nX c #6F992C",
"mX c #688632",
"MX c #6B8637",
"NX c #6A8C30",
"BX c #708D36",
"VX c #749536",
"CX c #769933",
"ZX c #749138",
"AX c #EF826C",
"SX c #F0866F",
"DX c None",
/* pixels */
"DXDXDXDXDXDXDXDXDXDXDXDXDXDXDXDXDXDXDXDXDXDXDXDXDXDXDXDXDXDXDXDXDXDXDXDXDXDXDXDXDXDXDXDXDXDXDXDXDXDX",
"DXDXDXDXDXDXDXDXDXDXDXDXDXDXDXDXDXDXDXDXDXDXDXDXDXDXDXDXDXDXDXDXDXDXDXDXDXDXDXDXDXDXDXDXDXDXDXDXDXDX",
"DXDXDXDXDXDXDXDXDXDXDXDXDXDXDXDXDXDXDXDXDXDXDXDXDXDXDXDXDXDXDXDXDXDXDXDXDXDXDXDXDXDXDXDXDXDXDXDXDXDX",
"DXDXDXDXDXDXDXDXDXDXDXDXDXDXDXDXDXDXDXDXDXDXDXDXDXDXDXDXDXDXDXDXDXDXDXDXDXDXDXDXDXDXDXDXDXDXDXDXDXDX",
"DXDXDXDXDXDXDXDXDXDXDXDXDXDXDXDXDXDXDXDXDXDXDXDXDXDXDXDXDXDXDXDXDXDXDXDXDXDXDXDXDXDXDXDXDXDXDXDXDXDX",
"DXDXDXDXDXDXDXDXDXDXDXDXDXDXDXDXDXDXDXDXDXDXDXDXDXDXDXDXDXDXDXDXDXDXDXDXDXDXDXDXDXDXDXDXDXDXDXDXDXDX",
"DXDXDXDXDXDXDXDXDXDXDXDXDXDXDXDXDXDXDXDXDXDXDXDXDXDXDXDXDXDXDXDXDXDXDXDXDXDXDXDXDXDXDXDXDXDXDXDXDXDX",
"DXDXDXDXDXDXDXDXDXDXDXDXDXDXDXDXDXDXDXDXDXDXDXDXDXDXDXDXDXDXDXDXDXDXDXDXDXDXDXDXDXDXDXDXDXDXDXDXDXDX",
"DXDXDXDXDXDXDXDXDXDXDXDXDXDXDXDXDXDXDXDXDXDXDXDXDXDXDXDXDXDXDXDXDXDXDXDXDXDXDXDXDXDXDXDXDXDXDXDXDXDX",
"DXDXDXDXDXDXDXDXDXDXDXDXDXDXDXDXDXDXDXDXDXDXDXDXDXDXDXDXDXDXDXDXDXDXDXDXDXDXDXDXDXDXDXDXDXDXDXDXDXDX",
"DXDXDXDXDXDXDXDXDXDXDXDXDXDXDXDXDXX x G F l DXDXDXDXDXDXDXDXDXDXDXDXDXDXDXDXDXDXDXDXDXDXDXDXDXDXDXDX",
"DXDXDXDXDXDXDXDXDXDXDXDXDXDXDXDXDX+ ~ BXNXW C DXDXDXDXDXDXDXDXDXDXDXDXDXDXDXDXDXDXDXDXDXDXDXDXDXDXDX",
"DXDXDXDXDXDXDXDXDXDXDXDXDXDXDXDXDX+ / VXnXvXY Z DXDXDXDXDXDXDXDXDXDXDXDXDXDXDXDXDXDXDXDXDXDXDXDXDXDX",
"DXDXDXDXDXDXDXDXDXDXDXDXDXDXD S j g z R xXzXcXP h DXDXDXDXDXDXDXDXDXDXDXDXDXDXDXDXDXDXDXDXDXDXDXDXDX",
"DXDXDXDXDXDXDXDXDXDXDXDXDX! MXmXE B b n M V lXL . DXDXDXDXDXDXDXDXDXDXDXDXDXDXDXDXDXDXDXDXDXDXDXDXDX",
"DXDXDXDXDXDXDXDXDXDXDXDXDXQ ZXCXbXT i u m N f v   DXDXDXDXDXDXDXDXDXDXDXDXDXDXDXDXDXDXDXDXDXDXDXDXDX",
"DXDXDXDXDXDXDXDXDXDXDXDXDXc ^ ( I A K d a s p k , % * = * & $ DXDXDXDXDXDXDXDXDXDXDXDXDXDXDXDXDXDXDX",
"DXDXDXDXDXDXDXDXDXDXDXDXDXo > y ;.>.J ) _ ` U H :.<.2.2.1.,.o.w DXDXDXDXDXDXDXDXDXDXDXDXDXDXDXDXDXDX",
"DXDXDXDXDXDXDXDXDXDXDXDXDXDX0 $.a.n.9.8.0.q.7.6.g.U.R.R.T.V.p.#.7 DXDXDXDXDXDXDXDXDXDXDXDXDXDXDXDXDX",
"DXDXDXDXDXDXDXDXDXDXDXDXDXe 5.b.~. XW.L.E.Q.K.B.(.+X%X&X$X[.A.p.@.2 DXDXDXDXDXDXDXDXDXDXDXDXDXDXDXDX",
"DXDXDXDXDXDXDXDXDXDXDXDXDX..J.XX9XqX5X>X3X4X.X|.$X&X*X*X*X%X].M.e.5 DXDXDXDXDXDXDXDXDXDXDXDXDXDXDXDX",
"DXDXDXDXDXDXDXDXDXDXDXDXDXX.I.rXgXjXsX8XiXaX2X-X*X*X*X*X%X%XOXF.t.6 DXDXDXDXDXDXDXDXDXDXDXDXDXDXDXDX",
"DXDXDXDXDXDXDXDXDXDXDXDXO X.Y.pXAXSXfX0XtXyX1X=X*X*X*X#X'.'.{.F.t.6 DXDXDXDXDXDXDXDXDXDXDXDXDXDXDXDX",
"DXDXDXDXDXDXDXDXDXDXDXDXDX .P.eXhXkXdX6X<X<X:X*X*X*X*X@X/.).'.F.t.6 DXDXDXDXDXDXDXDXDXDXDXDXDXDXDXDX",
"DXDXDXDXDXDXDXDXDXDXDXDXDXt f.oXwXuX7X,X=X*X*X*X*X*X*X#X}.}.`.N.r.6 DXDXDXDXDXDXDXDXDXDXDXDXDXDXDXDX",
"DXDXDXDXDXDXDXDXDXDXDXDXDX9 -.v._.;X:X-X*X*X*X*X*X*X*X*X%XOX!.d.%.3 DXDXDXDXDXDXDXDXDXDXDXDXDXDXDXDX",
"DXDXDXDXDXDXDXDXDXDXDXDXDXDXr 4.m.).OX@X@X@X@X@X@X@X@X@XOX^.c.=.q DXDXDXDXDXDXDXDXDXDXDXDXDXDXDXDXDX",
"DXDXDXDXDXDXDXDXDXDXDXDXDXDX- +.l.D.G.H.H.H.H.H.H.H.H.H.G.S.s.[ @ DXDXDXDXDXDXDXDXDXDXDXDXDXDXDXDXDX",
"DXDXDXDXDXDXDXDXDXDXDXDXDXDX# ] i.x.C.Z.Z.Z.Z.Z.Z.Z.Z.Z.C.z.y.' DXDXDXDXDXDXDXDXDXDXDXDXDXDXDXDXDXDX",
"DXDXDXDXDXDXDXDXDXDXDXDXDXDXDX8 | u.j.k.k.k.k.k.k.k.k.k.h.w.{ 5 DXDXDXDXDXDXDXDXDXDXDXDXDXDXDXDXDXDX",
"DXDXDXDXDXDXDXDXDXDXDXDXDXDXDXDX7 O.*.3.3.3.3.3.3.3.3.3.&.} 4 DXDXDXDXDXDXDXDXDXDXDXDXDXDXDXDXDXDXDX",
"DXDXDXDXDXDXDXDXDXDXDXDXDXDXDXDXDX: 1 1 1 1 1 1 1 1 1 1 < ; DXDXDXDXDXDXDXDXDXDXDXDXDXDXDXDXDXDXDXDX",
"DXDXDXDXDXDXDXDXDXDXDXDXDXDXDXDXDXDXDXDXDXDXDXDXDXDXDXDXDXDXDXDXDXDXDXDXDXDXDXDXDXDXDXDXDXDXDXDXDXDX",
"DXDXDXDXDXDXDXDXDXDXDXDXDXDXDXDXDXDXDXDXDXDXDXDXDXDXDXDXDXDXDXDXDXDXDXDXDXDXDXDXDXDXDXDXDXDXDXDXDXDX",
"DXDXDXDXDXDXDXDXDXDXDXDXDXDXDXDXDXDXDXDXDXDXDXDXDXDXDXDXDXDXDXDXDXDXDXDXDXDXDXDXDXDXDXDXDXDXDXDXDXDX",
"DXDXDXDXDXDXDXDXDXDXDXDXDXDXDXDXDXDXDXDXDXDXDXDXDXDXDXDXDXDXDXDXDXDXDXDXDXDXDXDXDXDXDXDXDXDXDXDXDXDX",
"DXDXDXDXDXDXDXDXDXDXDXDXDXDXDXDXDXDXDXDXDXDXDXDXDXDXDXDXDXDXDXDXDXDXDXDXDXDXDXDXDXDXDXDXDXDXDXDXDXDX",
"DXDXDXDXDXDXDXDXDXDXDXDXDXDXDXDXDXDXDXDXDXDXDXDXDXDXDXDXDXDXDXDXDXDXDXDXDXDXDXDXDXDXDXDXDXDXDXDXDXDX",
"DXDXDXDXDXDXDXDXDXDXDXDXDXDXDXDXDXDXDXDXDXDXDXDXDXDXDXDXDXDXDXDXDXDXDXDXDXDXDXDXDXDXDXDXDXDXDXDXDXDX",
"DXDXDXDXDXDXDXDXDXDXDXDXDXDXDXDXDXDXDXDXDXDXDXDXDXDXDXDXDXDXDXDXDXDXDXDXDXDXDXDXDXDXDXDXDXDXDXDXDXDX",
"DXDXDXDXDXDXDXDXDXDXDXDXDXDXDXDXDXDXDXDXDXDXDXDXDXDXDXDXDXDXDXDXDXDXDXDXDXDXDXDXDXDXDXDXDXDXDXDXDXDX",
"DXDXDXDXDXDXDXDXDXDXDXDXDXDXDXDXDXDXDXDXDXDXDXDXDXDXDXDXDXDXDXDXDXDXDXDXDXDXDXDXDXDXDXDXDXDXDXDXDXDX",
"DXDXDXDXDXDXDXDXDXDXDXDXDXDXDXDXDXDXDXDXDXDXDXDXDXDXDXDXDXDXDXDXDXDXDXDXDXDXDXDXDXDXDXDXDXDXDXDXDXDX",
"DXDXDXDXDXDXDXDXDXDXDXDXDXDXDXDXDXDXDXDXDXDXDXDXDXDXDXDXDXDXDXDXDXDXDXDXDXDXDXDXDXDXDXDXDXDXDXDXDXDX",
"DXDXDXDXDXDXDXDXDXDXDXDXDXDXDXDXDXDXDXDXDXDXDXDXDXDXDXDXDXDXDXDXDXDXDXDXDXDXDXDXDXDXDXDXDXDXDXDXDXDX",
"DXDXDXDXDXDXDXDXDXDXDXDXDXDXDXDXDXDXDXDXDXDXDXDXDXDXDXDXDXDXDXDXDXDXDXDXDXDXDXDXDXDXDXDXDXDXDXDXDXDX",
"DXDXDXDXDXDXDXDXDXDXDXDXDXDXDXDXDXDXDXDXDXDXDXDXDXDXDXDXDXDXDXDXDXDXDXDXDXDXDXDXDXDXDXDXDXDXDXDXDXDX",
"DXDXDXDXDXDXDXDXDXDXDXDXDXDXDXDXDXDXDXDXDXDXDXDXDXDXDXDXDXDXDXDXDXDXDXDXDXDXDXDXDXDXDXDXDXDXDXDXDXDX",
"DXDXDXDXDXDXDXDXDXDXDXDXDXDXDXDXDXDXDXDXDXDXDXDXDXDXDXDXDXDXDXDXDXDXDXDXDXDXDXDXDXDXDXDXDXDXDXDXDXDX",
"DXDXDXDXDXDXDXDXDXDXDXDXDXDXDXDXDXDXDXDXDXDXDXDXDXDXDXDXDXDXDXDXDXDXDXDXDXDXDXDXDXDXDXDXDXDXDXDXDXDX"
};
