/* XPM */
static char *result[] = {
/* columns rows colors chars-per-pixel */
"50 50 241 2 ",
"   c #29342F",
".  c #273B2D",
"X  c #30372E",
"o  c #282A30",
"O  c #292D30",
"+  c #362131",
"@  c #3B2231",
"#  c #303A30",
"$  c #353D31",
"%  c #373F31",
"&  c #432432",
"*  c #492133",
"=  c #4B2133",
"-  c #4C2133",
";  c #502133",
":  c #512133",
">  c #522233",
",  c #552434",
"<  c #5F2235",
"1  c #582634",
"2  c #592634",
"3  c #592734",
"4  c #642335",
"5  c #652336",
"6  c #682336",
"7  c #6B2436",
"8  c #6C2437",
"9  c #6E2437",
"0  c #6F2537",
"q  c #682836",
"w  c #722437",
"e  c #732537",
"r  c #752837",
"t  c #762538",
"y  c #7B2539",
"u  c #7A2638",
"i  c #792C38",
"p  c #7C2C38",
"a  c #7E2E38",
"s  c #6D3535",
"d  c #2D771B",
"f  c #2F731E",
"g  c #30721E",
"h  c #35751F",
"j  c #367D1A",
"k  c #3A7B1D",
"l  c #2F402E",
"z  c #39522F",
"x  c #305D28",
"c  c #364031",
"v  c #374031",
"b  c #3B4632",
"n  c #3E4A32",
"m  c #2D6125",
"M  c #286822",
"N  c #346625",
"B  c #306D22",
"V  c #356D25",
"C  c #56582C",
"Z  c #5C5C2D",
"A  c #4D4B33",
"S  c #455632",
"D  c #614D33",
"F  c #7C5333",
"G  c #7F5533",
"H  c #466D27",
"J  c #40602A",
"K  c #4A682A",
"L  c #546E2F",
"P  c #4D7122",
"I  c #4C7023",
"U  c #4D7D23",
"Y  c #576A34",
"T  c #596D35",
"R  c #596E35",
"E  c #5B7731",
"W  c #5F7734",
"Q  c #607523",
"!  c #637524",
"~  c #647D36",
"^  c #677F37",
"/  c #84263A",
"(  c #85263A",
")  c #86263A",
"_  c #86273A",
"`  c #89273B",
"'  c #8A273B",
"]  c #8E273C",
"[  c #802F38",
"{  c #8F2F3B",
"}  c #8E283C",
"|  c #91283C",
" . c #92283C",
".. c #92283D",
"X. c #93283D",
"o. c #942B3D",
"O. c #962B3D",
"+. c #992B3D",
"@. c #9C2C3E",
"#. c #9B323D",
"$. c #9C363D",
"%. c #A02A3F",
"&. c #A02D3F",
"*. c #A2353E",
"=. c #A1383E",
"-. c #A2383E",
";. c #A2393E",
":. c #8E4139",
">. c #8C4438",
",. c #9A5D36",
"<. c #9F5E37",
"1. c #A62B40",
"2. c #AA2E41",
"3. c #AE2C42",
"4. c #AF2C42",
"5. c #B12C42",
"6. c #B02F42",
"7. c #BA2D44",
"8. c #BB2D44",
"9. c #AD3840",
"0. c #B53143",
"q. c #B13441",
"w. c #B83143",
"e. c #BA3543",
"r. c #BD3344",
"t. c #BF3345",
"y. c #BB3B42",
"u. c #BD3A43",
"i. c #BB3D43",
"p. c #BC3C42",
"a. c #BC3C43",
"s. c #BF3F43",
"d. c #C32F46",
"f. c #C03345",
"g. c #C53046",
"h. c #C43246",
"j. c #C73246",
"k. c #C03644",
"l. c #C43546",
"z. c #C53546",
"x. c #C33845",
"c. c #C83B47",
"v. c #CE3847",
"b. c #CB3148",
"n. c #CC3148",
"m. c #D13D47",
"M. c #D13F47",
"N. c #D03748",
"B. c #D13748",
"V. c #D33949",
"C. c #D13A48",
"Z. c #D33F48",
"A. c #D43E48",
"S. c #B14040",
"D. c #B24140",
"F. c #C44743",
"G. c #CA4546",
"H. c #C74844",
"J. c #D64048",
"K. c #D94049",
"L. c #D84149",
"P. c #DA4049",
"I. c #DA4149",
"U. c #DB4149",
"Y. c #DA4249",
"T. c #DB4249",
"R. c #DC4349",
"E. c #DD4449",
"W. c #DC4549",
"Q. c #DE4449",
"!. c #DD4649",
"~. c #DF4649",
"^. c #DF454A",
"/. c #D04A4C",
"(. c #DF4849",
"). c #DA4D4C",
"_. c #DB4F4D",
"`. c #DD4E4C",
"'. c #DE4E4C",
"]. c #DE4C4E",
"[. c #D7514D",
"{. c #D9504D",
"}. c #D9524E",
"|. c #D75650",
" X c #DC5350",
".X c #D85750",
"XX c #E0464A",
"oX c #E0474A",
"OX c #E1474A",
"+X c #E0484A",
"@X c #E2484A",
"#X c #E2494A",
"$X c #E3494A",
"%X c #E34A4A",
"&X c #E44A4A",
"*X c #E44B4A",
"=X c #E44B4B",
"-X c #E44C4B",
";X c #E54E4C",
":X c #E44F4D",
">X c #E54F4D",
",X c #E5504D",
"<X c #E55550",
"1X c #E65550",
"2X c #E65751",
"3X c #E65A53",
"4X c #E65C54",
"5X c #E75D55",
"6X c #E75F56",
"7X c #E76056",
"8X c #E86157",
"9X c #E5645A",
"0X c #E86258",
"qX c #E8675A",
"wX c #E8685B",
"eX c #E9695C",
"rX c #E96A5D",
"tX c #E96B5D",
"yX c #EA6E5F",
"uX c #EA6F60",
"iX c #EA7161",
"pX c #EA7262",
"aX c #EB7564",
"sX c #EB7664",
"dX c #EE7F6A",
"fX c #478121",
"gX c #528223",
"hX c #528620",
"jX c #5C8528",
"kX c #58822D",
"lX c #64822F",
"zX c #65942B",
"xX c #6E922E",
"cX c #6B8635",
"vX c #6C8B36",
"bX c #759736",
"nX c #7A9A37",
"mX c #EE806A",
"MX c #EF846D",
"NX c #EF856E",
"BX c None",
/* pixels */
"BXBXBXBXBXBXBXBXBXBXBXBXBXBXBXBXBXBXBXBXBXBXBXBXBXBXBXBXBXBXBXBXBXBXBXBXBXBXBXBXBXBXBXBXBXBXBXBXBXBX",
"BXBXBXBXBXBXBXBXBXBXBXBXBXBXBXBXBXBXBXBXBXBXBXBXBXBXBXBXBXBXBXBXBXBXBXBXBXBXBXBXBXBXBXBXBXBXBXBXBXBX",
"BXBXBXBXBXBXBXBXBXBXBXBXBXBXBXBXBXBXBXBXBXBXBXBXBXBXBXBXBXBXBXBXBXBXBXBXBXBXBXBXBXBXBXBXBXBXBXBXBXBX",
"BXBXBXBXBXBXBXBXBXBXBXBXBXBXBXBXBXBXBXBXBXBXBXBXBXBXBXBXBXBXBXBXBXBXBXBXBXBXBXBXBXBXBXBXBXBXBXBXBXBX",
"BXBXBXBXBXBXBXBXBXBXBXBXBXBXBXBXBXBXBXBXBXBXBXBXBXBXBXBXBXBXBXBXBXBXBXBXBXBXBXBXBXBXBXBXBXBXBXBXBXBX",
"BXBXBXBXBXBXBXBXBXBXBXBXBXBXBXBXBXBXBXBXBXBXBXBXBXBXBXBXBXBXBXBXBXBXBXBXBXBXBXBXBXBXBXBXBXBXBXBXBXBX",
"BXBXBXBXBXBXBXBXBXBXBXBXBXBXBXBXBXBXBXBXBXBXBXBXBXBXBXBXBXBXBXBXBXBXBXBXBXBXBXBXBXBXBXBXBXBXBXBXBXBX",
"BXBXBXBXBXBXBXBXBXBXBXBXBXBXBXBXBXBXBXBXBXBXBXBXBXBXBXBXBXBXBXBXBXBXBXBXBXBXBXBXBXBXBXBXBXBXBXBXBXBX",
"BXBXBXBXBXBXBXBXBXBXBXBXBXBXBXBXBXBXBXO v BXBXBXBXBXBXBXBXBXBXBXBXBXBXBXBXBXBXBXBXBXBXBXBXBXBXBXBXBX",
"BXBXBXBXBXBXBXBXBXBXBXBXBXBXBXBXBXBXBXb R ~ BXBXBXBXBXBXBXBXBXBXBXBXBXBXBXBXBXBXBXBXBXBXBXBXBXBXBXBX",
"BXBXBXBXBXBXBXBXBXBXBXBXBXBXBXBXBXBXBXS vXbXE BXBXBXBXBXBXBXBXBXBXBXBXBXBXBXBXBXBXBXBXBXBXBXBXBXBXBX",
"BXBXBXBXBXBXBXBXBXBXBXBXBXBXBXBXc #   z kXzXjXK BXBXBXBXBXBXBXBXBXBXBXBXBXBXBXBXBXBXBXBXBXBXBXBXBXBX",
"BXBXBXBXBXBXBXBXBXBXBXBXBXBXBXT W L J x V fXhXH l BXBXBXBXBXBXBXBXBXBXBXBXBXBXBXBXBXBXBXBXBXBXBXBXBX",
"BXBXBXBXBXBXBXBXBXBXBXBXBXBXn ^ nXxXgXh M B k N . BXBXBXBXBXBXBXBXBXBXBXBXBXBXBXBXBXBXBXBXBXBXBXBXBX",
"BXBXBXBXBXBXBXBXBXBXBXBXBXBX$ Y cXlXU j f g d m X + @ BXBXBXBXBXBXBXBXBXBXBXBXBXBXBXBXBXBXBXBXBXBXBX",
"BXBXBXBXBXBXBXBXBXBXBXBXBXBXo % A D Z I Q ! P C s i a p r 7 BXBXBXBXBXBXBXBXBXBXBXBXBXBXBXBXBXBXBXBX",
"BXBXBXBXBXBXBXBXBXBXBXBXBXBXBX& q { :.F ,.<.G >.9.y.s.p.q.+.0 BXBXBXBXBXBXBXBXBXBXBXBXBXBXBXBXBXBXBX",
"BXBXBXBXBXBXBXBXBXBXBXBXBXBXBX[ *.u.a.S.F.H.D.i.M.W.(.!.Z.e.O.w BXBXBXBXBXBXBXBXBXBXBXBXBXBXBXBXBXBX",
"BXBXBXBXBXBXBXBXBXBXBXBXBXBX1 $.G._. X}.`.'.{.).+X$X&X$X~.m.0.( * BXBXBXBXBXBXBXBXBXBXBXBXBXBXBXBXBX",
"BXBXBXBXBXBXBXBXBXBXBXBXBXBX3 -.[.wXpXuX7X4XqX6X:X&X&X$X@XK.t.` * BXBXBXBXBXBXBXBXBXBXBXBXBXBXBXBXBX",
"BXBXBXBXBXBXBXBXBXBXBXBXBXBX3 ;..XsXNXmXrX8XtX0X,X%XOXXXoXP.f.' * BXBXBXBXBXBXBXBXBXBXBXBXBXBXBXBXBX",
"BXBXBXBXBXBXBXBXBXBXBXBXBXBX2 =.|.aXMXdXeX2X3X1X-X$XE.I.Q.K.f.' * BXBXBXBXBXBXBXBXBXBXBXBXBXBXBXBXBX",
"BXBXBXBXBXBXBXBXBXBXBXBXBXBX, #./.9XiXyX5X;X-X=X&X$X^.R.^.K.f.' * BXBXBXBXBXBXBXBXBXBXBXBXBXBXBXBXBX",
"BXBXBXBXBXBXBXBXBXBXBXBXBXBX> o.c.].<X1X>X*X&X&X&X&X$X@X@XI.f.' * BXBXBXBXBXBXBXBXBXBXBXBXBXBXBXBXBX",
"BXBXBXBXBXBXBXBXBXBXBXBXBXBX:  .z.R.$X&X&X&X&X&X&X&X&X&X#XI.f.' * BXBXBXBXBXBXBXBXBXBXBXBXBXBXBXBXBX",
"BXBXBXBXBXBXBXBXBXBXBXBXBXBX: | l.T.$X&X&X&X&X&X&X&X&X&X#XI.f.` * BXBXBXBXBXBXBXBXBXBXBXBXBXBXBXBXBX",
"BXBXBXBXBXBXBXBXBXBXBXBXBXBX; } r.J.OX%X&X&X&X&X&X&X&X$XoXA.w._ * BXBXBXBXBXBXBXBXBXBXBXBXBXBXBXBXBX",
"BXBXBXBXBXBXBXBXBXBXBXBXBXBXBXy &.x.Y.OX$X$X$X$X$X$X$XOXL.k.@.t BXBXBXBXBXBXBXBXBXBXBXBXBXBXBXBXBXBX",
"BXBXBXBXBXBXBXBXBXBXBXBXBXBXBXBXu 6.C.T.Q.Q.Q.Q.Q.Q.Q.U.v.2.e BXBXBXBXBXBXBXBXBXBXBXBXBXBXBXBXBXBXBX",
"BXBXBXBXBXBXBXBXBXBXBXBXBXBXBXBX8 1.j.B.V.V.V.V.V.V.V.N.h.%.4 BXBXBXBXBXBXBXBXBXBXBXBXBXBXBXBXBXBXBX",
"BXBXBXBXBXBXBXBXBXBXBXBXBXBXBXBX5 X.5.g.n.n.n.n.n.n.b.d.3.] < BXBXBXBXBXBXBXBXBXBXBXBXBXBXBXBXBXBXBX",
"BXBXBXBXBXBXBXBXBXBXBXBXBXBXBXBXBX8 ..5.7.8.8.8.8.8.7.4.] 6 BXBXBXBXBXBXBXBXBXBXBXBXBXBXBXBXBXBXBXBX",
"BXBXBXBXBXBXBXBXBXBXBXBXBXBXBXBXBXBXw ) ' ' ' ' ' ' ' / 9 BXBXBXBXBXBXBXBXBXBXBXBXBXBXBXBXBXBXBXBXBX",
"BXBXBXBXBXBXBXBXBXBXBXBXBXBXBXBXBXBXBX= - - - - - - - = BXBXBXBXBXBXBXBXBXBXBXBXBXBXBXBXBXBXBXBXBXBX",
"BXBXBXBXBXBXBXBXBXBXBXBXBXBXBXBXBXBXBXBXBXBXBXBXBXBXBXBXBXBXBXBXBXBXBXBXBXBXBXBXBXBXBXBXBXBXBXBXBXBX",
"BXBXBXBXBXBXBXBXBXBXBXBXBXBXBXBXBXBXBXBXBXBXBXBXBXBXBXBXBXBXBXBXBXBXBXBXBXBXBXBXBXBXBXBXBXBXBXBXBXBX",
"BXBXBXBXBXBXBXBXBXBXBXBXBXBXBXBXBXBXBXBXBXBXBXBXBXBXBXBXBXBXBXBXBXBXBXBXBXBXBXBXBXBXBXBXBXBXBXBXBXBX",
"BXBXBXBXBXBXBXBXBXBXBXBXBXBXBXBXBXBXBXBXBXBXBXBXBXBXBXBXBXBXBXBXBXBXBXBXBXBXBXBXBXBXBXBXBXBXBXBXBXBX",
"BXBXBXBXBXBXBXBXBXBXBXBXBXBXBXBXBXBXBXBXBXBXBXBXBXBXBXBXBXBXBXBXBXBXBXBXBXBXBXBXBXBXBXBXBXBXBXBXBXBX",
"BXBXBXBXBXBXBXBXBXBXBXBXBXBXBXBXBXBXBXBXBXBXBXBXBXBXBXBXBXBXBXBXBXBXBXBXBXBXBXBXBXBXBXBXBXBXBXBXBXBX",
"BXBXBXBXBXBXBXBXBXBXBXBXBXBXBXBXBXBXBXBXBXBXBXBXBXBXBXBXBXBXBXBXBXBXBXBXBXBXBXBXBXBXBXBXBXBXBXBXBXBX",
"BXBXBXBXBXBXBXBXBXBXBXBXBXBXBXBXBXBXBXBXBXBXBXBXBXBXBXBXBXBXBXBXBXBXBXBXBXBXBXBXBXBXBXBXBXBXBXBXBXBX",
"BXBXBXBXBXBXBXBXBXBXBXBXBXBXBXBXBXBXBXBXBXBXBXBXBXBXBXBXBXBXBXBXBXBXBXBXBXBXBXBXBXBXBXBXBXBXBXBXBXBX",
"BXBXBXBXBXBXBXBXBXBXBXBXBXBXBXBXBXBXBXBXBXBXBXBXBXBXBXBXBXBXBXBXBXBXBXBXBXBXBXBXBXBXBXBXBXBXBXBXBXBX",
"BXBXBXBXBXBXBXBXBXBXBXBXBXBXBXBXBXBXBXBXBXBXBXBXBXBXBXBXBXBXBXBXBXBXBXBXBXBXBXBXBXBXBXBXBXBXBXBXBXBX",
"BXBXBXBXBXBXBXBXBXBXBXBXBXBXBXBXBXBXBXBXBXBXBXBXBXBXBXBXBXBXBXBXBXBXBXBXBXBXBXBXBXBXBXBXBXBXBXBXBXBX",
"BXBXBXBXBXBXBXBXBXBXBXBXBXBXBXBXBXBXBXBXBXBXBXBXBXBXBXBXBXBXBXBXBXBXBXBXBXBXBXBXBXBXBXBXBXBXBXBXBXBX",
"BXBXBXBXBXBXBXBXBXBXBXBXBXBXBXBXBXBXBXBXBXBXBXBXBXBXBXBXBXBXBXBXBXBXBXBXBXBXBXBXBXBXBXBXBXBXBXBXBXBX",
"BXBXBXBXBXBXBXBXBXBXBXBXBXBXBXBXBXBXBXBXBXBXBXBXBXBXBXBXBXBXBXBXBXBXBXBXBXBXBXBXBXBXBXBXBXBXBXBXBXBX",
"BXBXBXBXBXBXBXBXBXBXBXBXBXBXBXBXBXBXBXBXBXBXBXBXBXBXBXBXBXBXBXBXBXBXBXBXBXBXBXBXBXBXBXBXBXBXBXBXBXBX"
};
