/* XPM */
static char *result[] = {
/* columns rows colors chars-per-pixel */
"50 50 195 2 ",
"   c #242D2F",
".  c #2D2930",
"X  c #292C30",
"o  c #2A2D30",
"O  c #282E30",
"+  c #332131",
"@  c #2F3531",
"#  c #2C3830",
"$  c #303831",
"%  c #492133",
"&  c #4F2633",
"*  c #542234",
"=  c #662336",
"-  c #692336",
";  c #6A2336",
":  c #6C2436",
">  c #6D2536",
",  c #6C2437",
"<  c #6D2437",
"1  c #6D2537",
"2  c #6D2D36",
"3  c #712437",
"4  c #722837",
"5  c #742A37",
"6  c #762C37",
"7  c #772C37",
"8  c #762D37",
"9  c #782C37",
"0  c #792D37",
"q  c #7F2739",
"w  c #7A2A38",
"e  c #2C721E",
"r  c #2D751D",
"t  c #2F791B",
"y  c #39771F",
"u  c #2B4F2A",
"i  c #30552A",
"p  c #34552B",
"a  c #3F562C",
"s  c #3E5A2B",
"d  c #2B6723",
"f  c #2C6D21",
"g  c #2D6E20",
"h  c #326228",
"j  c #3D7820",
"k  c #437F1E",
"l  c #455E2D",
"z  c #424A32",
"x  c #5C4930",
"c  c #425032",
"v  c #455433",
"b  c #4A5F30",
"n  c #575033",
"m  c #605530",
"M  c #7A5033",
"N  c #486A24",
"B  c #506927",
"V  c #4F7521",
"C  c #447A21",
"Z  c #427B24",
"A  c #557621",
"S  c #54762A",
"D  c #4D6B30",
"F  c #516334",
"G  c #546B32",
"H  c #576C34",
"J  c #576D34",
"K  c #586C35",
"L  c #617623",
"P  c #667F36",
"I  c #85263A",
"U  c #86273A",
"Y  c #86283A",
"T  c #8D283C",
"R  c #93283D",
"E  c #94283D",
"W  c #8F323B",
"Q  c #93363B",
"!  c #9A3D3C",
"~  c #A12B3F",
"^  c #A32C3F",
"/  c #804A35",
"(  c #835A32",
")  c #8F5D34",
"_  c #A16037",
"`  c #A62A40",
"'  c #A62F40",
"]  c #A92B41",
"[  c #AA2D41",
"{  c #AB2D41",
"}  c #B22C43",
"|  c #B32D43",
" . c #AB3040",
".. c #AD3041",
"X. c #AF3741",
"o. c #BF3245",
"O. c #B23841",
"+. c #B63842",
"@. c #B43A43",
"#. c #B13E40",
"$. c #B43D41",
"%. c #BB3D42",
"&. c #BC3E42",
"*. c #C52F46",
"=. c #C73247",
"-. c #C53745",
";. c #C83047",
":. c #C03B44",
">. c #C53D45",
",. c #C83846",
"<. c #CB3A46",
"1. c #CA3B46",
"2. c #CF3548",
"3. c #D03548",
"4. c #D13B48",
"5. c #D23B48",
"6. c #D43B48",
"7. c #B64341",
"8. c #BD4542",
"9. c #BD4344",
"0. c #BC4345",
"q. c #BE4545",
"w. c #CA4944",
"e. c #D3414A",
"r. c #D74248",
"t. c #DA4049",
"y. c #DB4149",
"u. c #D94348",
"i. c #D94249",
"p. c #DB4349",
"a. c #DC4249",
"s. c #DC4349",
"d. c #DE4449",
"f. c #DE4749",
"g. c #DE454A",
"h. c #DF454A",
"j. c #D54B4A",
"k. c #DE4849",
"l. c #DD4B4B",
"z. c #DC4F4C",
"x. c #DF4E4C",
"c. c #D9504D",
"v. c #DA514D",
"b. c #DD524F",
"n. c #DA5450",
"m. c #DB5452",
"M. c #E0464A",
"N. c #E1474A",
"B. c #E2484A",
"V. c #E2494A",
"C. c #E3494A",
"Z. c #E44A4A",
"A. c #E44B4B",
"S. c #E44C4B",
"D. c #E14E4E",
"F. c #E5504D",
"G. c #E5524E",
"H. c #E5544F",
"J. c #E65650",
"K. c #E65751",
"L. c #E65952",
"P. c #E65B54",
"I. c #E25C54",
"U. c #E75D55",
"Y. c #E86257",
"T. c #E76258",
"R. c #E26459",
"E. c #E4665A",
"W. c #E86459",
"Q. c #E86559",
"!. c #E8675A",
"~. c #E7685C",
"^. c #E9695C",
"/. c #E96A5C",
"(. c #EA6D5E",
"). c #EA6F60",
"_. c #EB7463",
"`. c #EC7664",
"'. c #EC7865",
"]. c #ED7D69",
"[. c #EE7F6A",
"{. c #528023",
"}. c #528920",
"|. c #5C8229",
" X c #618829",
".X c #66912C",
"XX c #68932F",
"oX c #6E8C33",
"OX c #6B8935",
"+X c #728E38",
"@X c #749337",
"#X c #769734",
"$X c #EF836D",
"%X c #F0856E",
"&X c None",
/* pixels */
"&X&X&X&X&X&X&X&X&X&X&X&X&X&X&X&X&X&X&X&X&X&X&X&X&X&X&X&X&X&X&X&X&X&X&X&X&X&X&X&X&X&X&X&X&X&X&X&X&X&X",
"&X&X&X&X&X&X&X&X&X&X&X&X&X&X&X&X&X&X&X&X&X&X&X&X&X&X&X&X&X&X&X&X&X&X&X&X&X&X&X&X&X&X&X&X&X&X&X&X&X&X",
"&X&X&X&X&X&X&X&X&X&X&X&X&X&X&X&X&X&X&X&X&X&X&X&X&X&X&X&X&X&X&X&X&X&X&X&X&X&X&X&X&X&X&X&X&X&X&X&X&X&X",
"&X&X&X&X&X&X&X&X&X&X&X&X&X&X&X&X&X&X&X&X&X&X&X&X&X&X&X&X&X&X&X&X&X&X&X&X&X&X&X&X&X&X&X&X&X&X&X&X&X&X",
"&X&X&X&X&X&X&X&X&X&X&X&X&X&X&X&X&X&X&X&X&X&X&X&X&X&X&X&X&X&X&X&X&X&X&X&X&X&X&X&X&X&X&X&X&X&X&X&X&X&X",
"&X&X&X&X&X&X&X&X&X&X&X&X&X&X&X&X&X&X&X&X&X&X&X&X&X&X&X&X&X&X&X&X&X&X&X&X&X&X&X&X&X&X&X&X&X&X&X&X&X&X",
"&X&X&X&X&X&X&X&X&X&X&X&X&X&X&X&X&X&X&X&X&X&X&X&X&X&X&X&X&X&X&X&X&X&X&X&X&X&X&X&X&X&X&X&X&X&X&X&X&X&X",
"&X&X&X&X&X&X&X&X&X&X&X&X&X&X&X&X&X&X&X&X&X&X&X&X&X&X&X&X&X&X&X&X&X&X&X&X&X&X&X&X&X&X&X&X&X&X&X&X&X&X",
"&X&X&X&X&X&X&X&X&X&X&X&X&X&X&X&X&X&X&X&X&X&X&X&X&X&X&X&X&X&X&X&X&X&X&X&X&X&X&X&X&X&X&X&X&X&X&X&X&X&X",
"&X&X&X&X&X&X&X&X&X&X&X&X&X&X&X&X&X&X&X&X&XX &X&X&X&X&X&X&X&X&X&X&X&X&X&X&X&X&X&X&X&X&X&X&X&X&X&X&X&X",
"&X&X&X&X&X&X&X&X&X&X&X&X&X&X&X&X&X&X&X&Xo c K K &X&X&X&X&X&X&X&X&X&X&X&X&X&X&X&X&X&X&X&X&X&X&X&X&X&X",
"&X&X&X&X&X&X&X&X&X&X&X&X&X&X&X&X&X&X&X&X$ J @XOXb &X&X&X&X&X&X&X&X&X&X&X&X&X&X&X&X&X&X&X&X&X&X&X&X&X",
"&X&X&X&X&X&X&X&X&X&X&X&X&X&X&X&X&X&X&XO # D XX.XS a &X&X&X&X&X&X&X&X&X&X&X&X&X&X&X&X&X&X&X&X&X&X&X&X",
"&X&X&X&X&X&X&X&X&X&X&X&X&X&X&X&X&XH G l p h Z }.{.s &X&X&X&X&X&X&X&X&X&X&X&X&X&X&X&X&X&X&X&X&X&X&X&X",
"&X&X&X&X&X&X&X&X&X&X&X&X&X&X&X&XF +X#X XC f d y j i   &X&X&X&X&X&X&X&X&X&X&X&X&X&X&X&X&X&X&X&X&X&X&X",
"&X&X&X&X&X&X&X&X&X&X&X&X&X&X&X&Xv P oX|.k t g r e u . + &X&X&X&X&X&X&X&X&X&X&X&X&X&X&X&X&X&X&X&X&X&X",
"&X&X&X&X&X&X&X&X&X&X&X&X&X&X&X&X@ z n m B V L A N x 2 6 9 5 > &X&X&X&X&X&X&X&X&X&X&X&X&X&X&X&X&X&X&X",
"&X&X&X&X&X&X&X&X&X&X&X&X&X&X&X&X&X& w Q / ( _ ) M ! O.%.&.+.' Y &X&X&X&X&X&X&X&X&X&X&X&X&X&X&X&X&X&X",
"&X&X&X&X&X&X&X&X&X&X&X&X&X&X&X&X&XW X.:.$.7.w.8.#.>.r.f.k.u.1. .U &X&X&X&X&X&X&X&X&X&X&X&X&X&X&X&X&X",
"&X&X&X&X&X&X&X&X&X&X&X&X&X&X&X&X8 $.j.b.n.v.x.z.c.l.B.Z.Z.B.p.,.^ ; &X&X&X&X&X&X&X&X&X&X&X&X&X&X&X&X",
"&X&X&X&X&X&X&X&X&X&X&X&X&X&X&X&X0 9.I.)._./.P.T.!.K.A.Z.C.C.M.4.{ , &X&X&X&X&X&X&X&X&X&X&X&X&X&X&X&X",
"&X&X&X&X&X&X&X&X&X&X&X&X&X&X&X&X0 q.E.[.%X'.Y.Q.^.L.A.B.M.M.h.4.{ , &X&X&X&X&X&X&X&X&X&X&X&X&X&X&X&X",
"&X&X&X&X&X&X&X&X&X&X&X&X&X&X&X&X7 0.R.].$X`.U.J.K.F.Z.N.y.a.d.4.{ , &X&X&X&X&X&X&X&X&X&X&X&X&X&X&X&X",
"&X&X&X&X&X&X&X&X&X&X&X&X&X&X&X&X4 @.m.~.(.W.H.S.A.Z.Z.B.d.d.g.4.{ , &X&X&X&X&X&X&X&X&X&X&X&X&X&X&X&X",
"&X&X&X&X&X&X&X&X&X&X&X&X&X&X&X&X1 ..e.D.G.F.S.Z.Z.Z.Z.Z.C.C.M.5.{ , &X&X&X&X&X&X&X&X&X&X&X&X&X&X&X&X",
"&X&X&X&X&X&X&X&X&X&X&X&X&X&X&X&X, { 5.M.Z.Z.Z.Z.Z.Z.Z.Z.Z.Z.M.5.{ , &X&X&X&X&X&X&X&X&X&X&X&X&X&X&X&X",
"&X&X&X&X&X&X&X&X&X&X&X&X&X&X&X&X, [ 4.M.Z.Z.Z.Z.Z.Z.Z.Z.Z.Z.M.4.[ , &X&X&X&X&X&X&X&X&X&X&X&X&X&X&X&X",
"&X&X&X&X&X&X&X&X&X&X&X&X&X&X&X&X- ~ -.i.B.Z.Z.Z.Z.Z.Z.Z.Z.B.i.-.~ - &X&X&X&X&X&X&X&X&X&X&X&X&X&X&X&X",
"&X&X&X&X&X&X&X&X&X&X&X&X&X&X&X&X&Xq ' <.s.B.V.V.V.V.V.V.B.s.<.' q &X&X&X&X&X&X&X&X&X&X&X&X&X&X&X&X&X",
"&X&X&X&X&X&X&X&X&X&X&X&X&X&X&X&X&X* T o.6.t.y.y.y.y.y.y.t.6.o.T * &X&X&X&X&X&X&X&X&X&X&X&X&X&X&X&X&X",
"&X&X&X&X&X&X&X&X&X&X&X&X&X&X&X&X&X% I | =.2.3.3.3.3.3.3.2.=.| I % &X&X&X&X&X&X&X&X&X&X&X&X&X&X&X&X&X",
"&X&X&X&X&X&X&X&X&X&X&X&X&X&X&X&X&X&X3 R } *.;.;.;.;.;.;.*.} R 3 &X&X&X&X&X&X&X&X&X&X&X&X&X&X&X&X&X&X",
"&X&X&X&X&X&X&X&X&X&X&X&X&X&X&X&X&X&X&X< E ` ] ] ] ] ] ] ` E < &X&X&X&X&X&X&X&X&X&X&X&X&X&X&X&X&X&X&X",
"&X&X&X&X&X&X&X&X&X&X&X&X&X&X&X&X&X&X&X&X= : , , , , , , : = &X&X&X&X&X&X&X&X&X&X&X&X&X&X&X&X&X&X&X&X",
"&X&X&X&X&X&X&X&X&X&X&X&X&X&X&X&X&X&X&X&X&X&X&X&X&X&X&X&X&X&X&X&X&X&X&X&X&X&X&X&X&X&X&X&X&X&X&X&X&X&X",
"&X&X&X&X&X&X&X&X&X&X&X&X&X&X&X&X&X&X&X&X&X&X&X&X&X&X&X&X&X&X&X&X&X&X&X&X&X&X&X&X&X&X&X&X&X&X&X&X&X&X",
"&X&X&X&X&X&X&X&X&X&X&X&X&X&X&X&X&X&X&X&X&X&X&X&X&X&X&X&X&X&X&X&X&X&X&X&X&X&X&X&X&X&X&X&X&X&X&X&X&X&X",
"&X&X&X&X&X&X&X&X&X&X&X&X&X&X&X&X&X&X&X&X&X&X&X&X&X&X&X&X&X&X&X&X&X&X&X&X&X&X&X&X&X&X&X&X&X&X&X&X&X&X",
"&X&X&X&X&X&X&X&X&X&X&X&X&X&X&X&X&X&X&X&X&X&X&X&X&X&X&X&X&X&X&X&X&X&X&X&X&X&X&X&X&X&X&X&X&X&X&X&X&X&X",
"&X&X&X&X&X&X&X&X&X&X&X&X&X&X&X&X&X&X&X&X&X&X&X&X&X&X&X&X&X&X&X&X&X&X&X&X&X&X&X&X&X&X&X&X&X&X&X&X&X&X",
"&X&X&X&X&X&X&X&X&X&X&X&X&X&X&X&X&X&X&X&X&X&X&X&X&X&X&X&X&X&X&X&X&X&X&X&X&X&X&X&X&X&X&X&X&X&X&X&X&X&X",
"&X&X&X&X&X&X&X&X&X&X&X&X&X&X&X&X&X&X&X&X&X&X&X&X&X&X&X&X&X&X&X&X&X&X&X&X&X&X&X&X&X&X&X&X&X&X&X&X&X&X",
"&X&X&X&X&X&X&X&X&X&X&X&X&X&X&X&X&X&X&X&X&X&X&X&X&X&X&X&X&X&X&X&X&X&X&X&X&X&X&X&X&X&X&X&X&X&X&X&X&X&X",
"&X&X&X&X&X&X&X&X&X&X&X&X&X&X&X&X&X&X&X&X&X&X&X&X&X&X&X&X&X&X&X&X&X&X&X&X&X&X&X&X&X&X&X&X&X&X&X&X&X&X",
"&X&X&X&X&X&X&X&X&X&X&X&X&X&X&X&X&X&X&X&X&X&X&X&X&X&X&X&X&X&X&X&X&X&X&X&X&X&X&X&X&X&X&X&X&X&X&X&X&X&X",
"&X&X&X&X&X&X&X&X&X&X&X&X&X&X&X&X&X&X&X&X&X&X&X&X&X&X&X&X&X&X&X&X&X&X&X&X&X&X&X&X&X&X&X&X&X&X&X&X&X&X",
"&X&X&X&X&X&X&X&X&X&X&X&X&X&X&X&X&X&X&X&X&X&X&X&X&X&X&X&X&X&X&X&X&X&X&X&X&X&X&X&X&X&X&X&X&X&X&X&X&X&X",
"&X&X&X&X&X&X&X&X&X&X&X&X&X&X&X&X&X&X&X&X&X&X&X&X&X&X&X&X&X&X&X&X&X&X&X&X&X&X&X&X&X&X&X&X&X&X&X&X&X&X",
"&X&X&X&X&X&X&X&X&X&X&X&X&X&X&X&X&X&X&X&X&X&X&X&X&X&X&X&X&X&X&X&X&X&X&X&X&X&X&X&X&X&X&X&X&X&X&X&X&X&X",
"&X&X&X&X&X&X&X&X&X&X&X&X&X&X&X&X&X&X&X&X&X&X&X&X&X&X&X&X&X&X&X&X&X&X&X&X&X&X&X&X&X&X&X&X&X&X&X&X&X&X"
};
