/* XPM */
static char *result[] = {
/* columns rows colors chars-per-pixel */
"64 64 65 1 ",
"  c #502B16",
". c #522E19",
"X c #55331C",
"o c #58381F",
"O c #563522",
"+ c #583722",
"@ c #563825",
"# c #5C3D24",
"$ c #5B3D2A",
"% c #603F25",
"& c #5F4126",
"* c #5D412C",
"= c #5E4432",
"- c #604127",
"; c #63452A",
": c #68472C",
"> c #66492E",
", c #694B2F",
"< c #634633",
"1 c #654A33",
"2 c #6B4D31",
"3 c #644D3A",
"4 c #694C38",
"5 c #6D5234",
"6 c #67503D",
"7 c #6B533C",
"8 c #715436",
"9 c #725837",
"0 c #725639",
"q c #755A3B",
"w c #795D3E",
"e c #7D613F",
"r c #6A5542",
"t c #6D5945",
"y c #6E5949",
"u c #745B44",
"i c #7A5F41",
"p c #725D4A",
"a c #7E6243",
"s c #75614D",
"d c #7B644C",
"f c #746250",
"g c #7C6653",
"h c #7E6955",
"j c #7D6D5C",
"k c #7F705E",
"l c #816545",
"z c #836847",
"x c #816748",
"c c #856B4A",
"v c #886E4C",
"b c #87704F",
"n c #8A714E",
"m c #806A55",
"M c #826E5B",
"N c #8D7552",
"B c #8F7855",
"V c #84715D",
"C c #907754",
"Z c #947C58",
"A c #857563",
"S c #897663",
"D c #877866",
"F c #877A6A",
"G c #8A7C6C",
/* pixels */
"#%344444%%%<::,:%%8%%%%%8%%8%8%%%0%%8%%8%22%22%2:%:::%%:<4424<%%",
"-4shmgpur800iqii0llllxulllll0lllllulllulwwl00lqul0qi084ruugmgsy<",
"<uMASMmdiulxccxcvzvlvvvvvvxvvvvvvvvvvvlccvccccccccxcliiugmmVSMp4",
"<yMMmgiuiilalxxxzlvvvvvvvvvvvCvvvvvvvvvvvvvvcccxxxxlxliiiupMMmu4",
"%ruxdiqq8880880ql8llllllllllllllllllllllllwlwlul008088800iiixur%",
"%8uxxxlq2:22588884%:%::8u%88w%888888822:8w%2%8%%88822,<2quxliu8%",
":8lccxlq828uiiii888:%:%:%%8%%%8:%8%88%2%%%%%288liiww08,2qllcll0%",
"4wxnvcxu828iiaaiwll88848l0wwllwwwwwwww0l88028lllliaii8:80lxccl04",
":wznvvlw222wllllllllu0088lwllllllleleeewwwwwllxxzllew8:2qlzvvl0:",
"2eznvvle2::28qqillxxll0l0w8l8llllwlwwwwwwlllxvvllwwq8::8qlzvclq:",
"2wzNvvze8::,2880llvllllll8888lllwwwwwwwellvvxxll88822228ilxvvlq:",
":wvvCvze025888800lllvvxxllll08%lwwwwellzvvvvlllu88888820llvvvlq2",
"2wzNCvzew:88wwww8lllvvvvcvvcllll8wwllvvvvvccll%lw88wq880acvnNzq2",
"2wcNCvvew88wellell8llmvvvvvvvxl%wwwlzvCvCCll0lllllllwq80acnNvzq2",
",wcNvvvlw8wwllzzllllllvvCvCCvvvxlllllvvvvclllllllllllw9qacnNNcq2",
",wcNCvvl88welzvvvllllllxvCCCCCvCvvzllzvvllllllllccllleqwanNNNcw2",
"2wcNNnvl88welzvzvvvvlleellvlvCCvNvvmlllllllzccccccccll8wllvCCvl%",
"2wcNNNvew8welvvvzvvvvleewwllcvvCCNNnxlllllzlcccxccvzlwwwlvvCCvl4",
"5wvNNNnlw8welvzvzzzzlllelllllvvCCNCnvvllllllzcllvxzllw8wlvCCCvl%",
",wcNCNvle:8eeeleleeeeelllvzvllxxlvvNCvvcllwlllllllllll88lvCCCvl4",
"29vNNNvl8:88wwwwwwweellvvvvvllwwullcmvvvllll0l8llll8l%8llvMCCvl%",
"2wvNCNvlw8888qqq8eellvvvCvvvlwwwwwllllCvlllllll4l8ll0l88lvCCCvl4",
"2ecNCCnl8::8888welzvvvvCCvllwwweww8ullvvvclllll08l8l8w88lvNCCvl%",
",9cNNNvlw:::88qellvvCCCvvlwwwwelllwwlllxvvvxlllu888%4%%llvNCCml4",
",wznNCcl8::22willzvvvvvvlwwllllllllwl8wlllllllllww028%:8lcnSCcu4",
",wzBCCvl8:20wilzvvvlewwwwwlllllllllllll0w00wlllllwl00828lcNCCci%",
">9znCNvlq28willlleeww88wwllllllllllllllwq8880llllwlww22wlxvCncq%",
";5ebnnvl8::80wwiww8::8888wwwwwwwwwwl8lw8q8222888w28882:8llvnclr%",
"%4uaccciq2248888w88:8888w8w8wwwwwwww8l88888822888:224::2lxxmxy%%",
"<7fhmgdulwiilllllllllllvllvllllvlllclcclcxczllllllll0lluusxmmfy$",
"<pjDAAMhlxxvvnCCCCCCCCZCZCZCCZCZCZCZZCCCCCCCCCCCCnvvcxuxmmAAFMy$",
"<pjFGGDMpixvnCCNCCCCZCCZZZZZZZZZZZZZZZZZZZZZCCCCCCCCmxlgMAGGFVf$",
"*6skkkhsu8wlzvccvcbnvnnvnnnnnnnnCvvvCvCvnnnnnnnnnnbczeqtfkkkkf6*",
"$=rysyt779qweelllllllllllzllzzzlllvzzzzlzzzzzzzaazzleeq97tsspt=@",
"@&3767455qqweeleeeeaeellelellllllllllllleellaeaaaaeeeee9977766*@",
"X#*111288999qqqqqeqwqewqwwwwwwwwwwwwewwweeeeeeeee9eee999q7531=$X",
".X$>2998>>;::>,,,,,,>>>>,,,,2,228828:88%,,,,222,>,,>>,>59995>&@.",
"X+;29q08;%%-;;:;>>>>-%%%--;;;;;:%%%%%%%%-%%-:>>;;;--%#%>5qq95*oX",
"o#28qw98;%%->,,22255>----;;,2>2>82222:8%--->,55,>>>>%#o:5qqq9,&o",
"o-2qqq9,;o#->,,285998,:--;>,22254828222%->,59552>>--%o#-5qewq5-X",
"X-,qqw92;###;-;>258q087>;*;>,2522822>;;;>559952>;-&####;59eq95&o",
"o-50wqq2;--;;---;2298qq8521>>>,5228%>1>2559552>;-##&&&#;5q9e9,&X",
"X;29qwq2;-;>>>;-;;>588q9qq9951,1:424755955552>&&-->>>-&;299q95&X",
"X%29qw92;->>22>>;-;>5589qqqqq52>::488989555,>-&&;>,2>;&;29q951&X",
"X&,8qq92;&>15,5>>&>&;>1259qqeq758848755,,>;---;>>>,,,;&;,5995>&X",
"X&29qq9,;&>225,>>>>;&&-;>59q9qeequ0882,>-&&&->&>>>22>;&-,5955>&X",
"X&,9999,;&;55,>,>>>;;&&;>>5579qqwiqiq75;-&&&>>>>>>22>>&&>5595>#X",
"X&,8999,&&>>22>>>>>;&&;>1525259900qiiq75>;;;->>;>>2>>>&;>2955>#X",
"X&,5995>&&;,55>>>&>&>>155555,,,,>559qqq95311>;;>>>221;#->5595>#X",
"X&,5995>&&;>>>>>>&=>59999755,>*&;>1597q99q961>&;>>>22;%->559,>#X",
"X#>5599>&&&>>>;&&>155999552>>&>*;;;>25999e9951>;*>>2>;&->5555>#X",
"X#>9995>&&&>>>>&=,555953,>>*;>>,1>>&>=,,69999911>&>>>;#&>2952>oX",
"X#;9995>&o#&&&&>,55555>&&&&->>,2,>>>&&&&=55999551>;;&###>5552;#X",
"Xo;5295>&oo&&>>1555,,>&&&&;>>,,2,2>>>&&&&&>25995551;$#@&;,55,>oX",
"Xo;,29,>&&&&>>1522,>*&&&&;>>,,,,2>>2>=&&&&&>>55575521;#&>,555;oX",
"Xo;,22,>&&>>>5>5>>>&&&&&*>;>>>,,:>>>>>&&###&&>>155455>&&>,55,;oX",
".o&>>5>>&o&&>1=>;&&o&o&&&*&&&>;;;;;;;&&#o&ooo&&>>>>1>&&&;,5>>&oX",
".X&&>>>>&&&&&&&&&&&o&&&&&&&&&&&&%;*&&&&$&&@&&o&&&&&&&&&&>,>>>&o.",
"X&=11>>>>>11>1225111162355659696775557556551135555961111,>>13=@X",
"O*366313155999999999999q9eww9999q9qqqqqq99999999999999955>56r3*@",
"O*3rtr3=>1>55559555999997995999999995959999999599995951136rtt3=@",
".*36rr63>&>>1>>>>>>>;>>>>1,1>>>>>1>21>,>>>>>>>>>11>>>>>>36tt63*X",
".@===3==*oo&&&&&&&&&&&&&&&&&&&&&&&&&&&&&&&&&&&&&&&&&@@@*=33==*@.",
" ..@OO&@X..XXXXXXXXXXXXXXXXXXXXXXXXXXXXXXXXXXXXXXXooX...@@@@@X  "
};
