/* XPM */
static char *_c346415f5d94474d71aeb4c30fded80YFkoY3inhpfLv3DC[] = {
/* columns rows colors chars-per-pixel */
"64 64 215 2 ",
"   c None",
".  c #3F5277",
"X  c #46576D",
"o  c #455A79",
"O  c #5A707E",
"+  c #566975",
"@  c #647A7E",
"#  c #3F5682",
"$  c #425B8C",
"%  c #425A86",
"&  c #435E93",
"*  c #4B6387",
"=  c #536B86",
"-  c #5B7587",
";  c #456197",
":  c #45639B",
">  c #4C6898",
",  c #5A7698",
"<  c #4F7398",
"1  c #657B87",
"2  c #617C98",
"3  c #4766A2",
"4  c #4969A5",
"5  c #4A6CAB",
"6  c #4768A4",
"7  c #4D76A8",
"8  c #5878A9",
"9  c #4B6FB1",
"0  c #4D72B5",
"q  c #4E74BB",
"w  c #4E79B9",
"e  c #567AB5",
"r  c #5B7DB4",
"t  c #5076BC",
"y  c #5479BC",
"u  c #5579B6",
"i  c #617DA1",
"p  c #4F77C0",
"a  c #527AC4",
"s  c #547ECC",
"d  c #5077C0",
"f  c #59848A",
"g  c #598993",
"h  c #558E99",
"j  c #678587",
"k  c #738C8D",
"l  c #608F96",
"z  c #658599",
"x  c #748E96",
"c  c #69949A",
"v  c #759594",
"b  c #789393",
"n  c #759897",
"m  c #75919C",
"M  c #79949D",
"N  c #7B9A9A",
"B  c #7E9A95",
"V  c #7EA19E",
"C  c #5689A9",
"Z  c #4F92A7",
"A  c #5496A4",
"S  c #5899A9",
"D  c #5C82BD",
"F  c #5688B3",
"G  c #5598B7",
"H  c #4F83BA",
"J  c #6A88A7",
"K  c #659AA9",
"L  c #7A99A8",
"P  c #6C8DB6",
"I  c #6487B8",
"U  c #6E95B8",
"Y  c #7B9CB5",
"T  c #7799BA",
"R  c #728FA4",
"E  c #53A6B9",
"W  c #57A5B6",
"Q  c #6DA4AC",
"!  c #62A0AB",
"~  c #75A6AC",
"^  c #7BAAAD",
"/  c #78A4A9",
"(  c #6DA6B1",
")  c #63A9B6",
"_  c #67A7B6",
"`  c #78A8B3",
"'  c #5681CD",
"]  c #5B83CD",
"[  c #5B86C4",
"{  c #5582D3",
"}  c #5785D9",
"|  c #5987DA",
" . c #5A8ADD",
".. c #5A87D6",
"X. c #5B98DA",
"o. c #5499C8",
"O. c #658CC4",
"+. c #658BC7",
"@. c #6499C8",
"#. c #618CD9",
"$. c #6693CD",
"%. c #59A9C6",
"&. c #5EB2C3",
"*. c #57B7CC",
"=. c #5BB7CC",
"-. c #5DB9CD",
";. c #5BA8D4",
":. c #5CBFD4",
">. c #5CB9DB",
",. c #60B2C5",
"<. c #5B8CE3",
"1. c #5C8FEA",
"2. c #5E91ED",
"3. c #5D97E7",
"4. c #5F94F2",
"5. c #628EE3",
"6. c #6C93E3",
"7. c #6895EB",
"8. c #7197E4",
"9. c #6196F5",
"0. c #639AFA",
"q. c #6B9EFC",
"w. c #6698F5",
"e. c #719EF6",
"r. c #5FA8E7",
"t. c #5EB6E8",
"y. c #62BCEE",
"u. c #6DA1FD",
"i. c #64A7F7",
"p. c #74A7FD",
"a. c #7CAAFE",
"s. c #7AA5F7",
"d. c #63B4F3",
"f. c #6DBAF3",
"g. c #79B4F8",
"h. c #5CC4DA",
"j. c #5DC9DF",
"k. c #5BC1D7",
"l. c #5FCCE4",
"z. c #5FC5E4",
"x. c #62CDE5",
"c. c #6ACEE6",
"v. c #62C3EA",
"b. c #6BC9EA",
"n. c #76CCEA",
"m. c #78D1E7",
"M. c #7FC4F1",
"N. c #87A39D",
"B. c #8DACA6",
"V. c #88A6AB",
"C. c #84ACAC",
"Z. c #8DACA9",
"A. c #87A5A5",
"S. c #90AEA8",
"D. c #8CB2AE",
"F. c #92B2AC",
"G. c #99B8AF",
"H. c #8AAAB4",
"J. c #87A9B5",
"K. c #87B1B0",
"L. c #8AB4B3",
"P. c #94B5B4",
"I. c #95B9B3",
"U. c #99BAB3",
"Y. c #96BBB9",
"T. c #9ABCBB",
"R. c #95B6BA",
"E. c #9EC2BB",
"W. c #A3C5BC",
"Q. c #A7C9BE",
"!. c #A0C1B7",
"~. c #82AAFD",
"^. c #8BAEFA",
"/. c #86A8F3",
"(. c #87BAF9",
"). c #93B5FD",
"_. c #9BB9FE",
"`. c #98B9FA",
"'. c #A0BBFB",
"]. c #A3C5C2",
"[. c #A5C9C2",
"{. c #AACDC3",
"}. c #ADD1C6",
"|. c #ADD2C9",
" X c #B1D6CB",
".X c #B4D9CE",
"XX c #B7DDD1",
"oX c #B8DED2",
"OX c #BCE2D6",
"+X c #BFE6DA",
"@X c #89D4EA",
"#X c #98D6ED",
"$X c #9AC8F7",
"%X c #88C9F0",
"&X c #A6DAEF",
"*X c #AAC3FD",
"=X c #ABCFF8",
"-X c #B3CAFE",
";X c #B7CBFE",
":X c #A8D7F2",
">X c #B5D8F7",
",X c #BAE1F2",
"<X c #C0E7DA",
"1X c #C3EBDE",
"2X c #C2EADD",
"3X c #C5D5FF",
"4X c #C4DAFC",
"5X c #C9DAFD",
"6X c #D0DEFE",
"7X c #C6EFE1",
"8X c #C7F0E2",
"9X c #C9F3E5",
"0X c #CAF3E5",
"qX c #C6E2F6",
"wX c #D3E4FC",
/* pixels */
"                                                0X9X9X9X9X9X9X9X9X9X9X9X9X9X9X9X                                                ",
"                                                8X1X1X1X1X+X1X1X1X1X1X+X1X1X1X1X                                                ",
"                                              OXOXoXoXoXXXXXXXXXXXXXXXXXOX+XXXOXOX                                              ",
"                                            OXXX}.}.Q.Q.W.Q.Q.Q.Q.Q.Q.Q.Q.Q.Q.Q..XOX                                            ",
"                                          OXXX{.E.G.F.F.B.F.B.B.B.B.B.F.F.!.F.!.|..XOX                                          ",
"                                        +XXX|.E.I.B.V n n n n n n n n n n V V !.E.|.OXOX                                        ",
"                                        .X|.Q.E.C./ c c l l l l l l l l c c V ^ Y.[.|..X                                        ",
"                                       X|.E.E.L.^ Q ! A A A A A A A A A S ! Q ^ K.E.E.}..X                                      ",
"                                  OXXX}.E.I.L.^ ( ) E E E E E E E E E E W ) ) ~ ^ !.!.!.}..XOX                                  ",
"                                OXXX|.E.I.K.^ ) ) E &.*.*.*.*.*.k.*.*.*.*.&.&.) ) ^ ^ K.E.|.OXOX                                ",
"                                XX|.[.Y.K.^ ( ) -.k.k.k.h.h.l.j.j.k.k.k.k.k.&.&.) Q Q K.Y.[.|.XX                                ",
"                               X}.E.Y.L.` ( W ) ) k.h.j.j.l.l.l.j.j.j.j.j.h.k.*.&.) ) ^ K.Y.].{..X                              ",
"                          OXXX{.E.I.K.` _ ) ) =.k.h.j.l.l.l.l.l.j.l.l.l.l.l.h.k.*.&.) ` ^ L.P.E.{..XOX                          ",
"                        OXXX|.].P.J.` ( ) ) k.k.j.j.j.l.l.l.l.l.l.l.l.l.l.l.j.j.k.-.,.) _ ` J.R.].|.XXOX                        ",
"                        XX|.].R.J.Y T _ -.:.k.h.j.l.l.l.x.l.l.x.l.l.l.l.l.l.l.j.j.k.-.) ) ( Y J.R.].|.XX                        ",
"                      .X{.].R.H.` T @.%.;.:.j.j.l.l.l.l.l.l.l.x.l.l.l.l.l.l.l.l.j.h.k.-.%.@.T ` H.R.].{..X                      ",
"                    OX}.W.P.J.T O.$.@.;.t.>.l.l.l.l.l.x.l.l.l.l.l.l.l.l.l.l.l.l.l.z.t.>.;.@.@.T T J.P.E.}.XX                    ",
"                  <XoXQ.G.V.V.P +.$.X.r.t.t.z.z.l.l.l.x.l.l.l.l.l.l.l.l.l.l.l.l.l.l.t.t.r.X.#.+.U Y V.G.{.XX<X                  ",
"                7X<X.XQ.F.A.i I +.#.r.r.d.t.v.z.l.v.l.l.l.l.l.l.l.l.l.l.l.x.x.v.z.z.t.t.r.r.X.[ I J N.H.Q..X<X8X                ",
"                7X<X.XW.S.M i r ] <.3.i.d.d.y.v.z.x.x.l.l.x.l.l.l.l.l.x.x.x.x.v.t.y.d.i.i.3.3.' r J R Z.W..X<X8X                ",
"                8X<X.XW.Z.M i e { <.4.i.i.d.d.y.v.b.b.x.x.x.x.x.x.x.x.x.x.b.b.v.v.d.i.i.i.2.<.' r 2 m Z.W..X<X8X                ",
"                8X<X.XW.Z.m i e ' <.4.i.i.i.d.f.n.n.n.n.c.c.x.x.x.x.c.c.n.n.n.b.f.f.i.i.i.2.<.' e i m Z.W..X<X7X                ",
"                7X<X.XW.Z.m i u ' <.4.i.u.i.a.g.%X@X@X@Xm.m.c.x.x.c.c.m.@X@X%X%Xg.g.p.i.0.9.<.' e i m Z.W. X<X7X                ",
"                7X+X.X!.Z.m i u { <.4.4.u.p.~.%X$X#X&X#X@Xm.c.x.c.c.m.#X#X#X:X$X%Xg.u.u.0.9.<.s e i m Z.W..X<X7X                ",
"                9X7X XW.Z.m i u ' <.4.4.q.p.^._.=X>X,X&X#X@Xm.b.c.m.@X#X&X,X>X:X*X^.p.q.0.4.<.{ u i m B.W..X<X0X                ",
"                7X+X XW.Z.m i u ' <.4.0.q.a.).*X>X5XqX,X&X@Xm.b.c.m.#X&X,XqXqX>X'._.a.q.0.4.<.{ u i m B.W..X<X1X                ",
"                7X<X.XW.Z.m i u { <.4.0.q.~._.-X4XwXwXqX&X#XM.b.b.M.#X:XqXwXwX>X'.'.~.q.0.9.<.s u i M B.W..X<X0X                ",
"                7X<X.XW.Z.M i r ' 1.4.0.q.a._.-X5XwXwXqX>X$XM.M.b.M.$X>XqXwXwX5X-X_.~.q.0.9.<.s u i x B.W..X<X0X                ",
"                8X<X.XW.Z.L i r ' <.4.0.q.~._.-X4XwXwX5X>X$Xg.f.f.g.$X>XwXwXwX5X3X_.~.e.w.4.5.s e i x V.W..X<X1X                ",
"                8X<X.XQ.S.L J I +. .5.9.q.a._.-X3X6X6X5X-X`.g.g.g.g.`.-X3X5X6X3X'._.~.w.9.4.s a 8 2 m S.W..X<X1X                ",
"                  <XXX{.G.V.L P +.#.5.9.w.s.).'.;X3X3X;X*X).g.u.u.a.).*X;X3X3X;X'.).~.w.2.s s t 8 , x S.W..X<X8X                ",
"                  2XoX{.W.P.J.Y U $...5.7.e./.'.*X;X;X*X_.^.p.u.u.p.^._.-X-X-X-X_.~.e.w.2.s t 5 > - x Z.W..X<X0X                ",
"                    oX X{.].R.J.J.s r 6.7.e./.^._.'.'._.^.~.q.0.q.q.~.^.`.'.'.`.^./.7.5.s a 9 & = - k S.!..X<X8X                ",
"                      oX|.].T.R.J.J.r s s s 7.~././././.e.e.w.9.9.w.e.e././././.e.e.5.s a q 3 & * = N.N.W..X<X8X                ",
"                      oX X].T.H.J.r r s s s s 8.8.8.8.8.6.5.5.<.<.5.5.6.8.8.8.6.8.5.s s a 9 : & o + 1 N.!..X<X7X                ",
"                    OX.X[.].R.H.J.r s s s s s s s s +.s s s s s ' ' ' ] s s +.s s s s p d 0 4 & = 1 k S.W..X<X1X                ",
"                  +XoX|.T.P.J.T s J.s a d d 0 0 u 9 u 9 9 0 0 q 0 0 0 0 u t t 0 0 q q p t q 0 4 > 2 x V.!. XOXqX                ",
"                  7XXX[.P.V.L P +.s s s d 9 4 3 : ; ; ; 3 3 3 3 4 4 4 4 4 4 4 4 5 5 9 q p p p 0 8 , i V.T.}.oX<X                ",
"                8X<X.X].F.N.J I s 6.s s s d 3 & % % % % & 3 3 3 4 4 4 4 4 4 4 4 4 5 0 0 p a d t 0 i P V.R.]. XoX<X              ",
"                8X<X.XW.Z.m J r s s w.s s d 9 & % % % $ & 3 9 0 0 0 0 0 0 0 0 0 0 0 q p p d p t u r P J.H.R.].}..XOX            ",
"                8X<X.XW.B.m i e s 6.<.<. .' q 6 & $ $ & 5 0 s s s s s s s s s s s s s s t 0 0 q y a I U Y J.P.W.{..XOX          ",
"                8X<X.XW.B.m 2 e s 5.3.3.<...a 9 & & & 4 0 s s <.s 4.1.1.1.s 1.s s s s p 0 5 5 0 t [ [ I U L J.Y.Q.|.XXOX        ",
"                8X<X.XW.B.m z r s X.3.3.X.{ a 9 3 & & 5 a s 1.2.4.9.9.9.4.4.1.<.s s s p 5 : & 4 0 y [ D F U / H.Y.Q.|..XOX      ",
"                8X<X.XW.B.n C C [ X.X.X.X.' w 5 & & : 9 s 5.4.9.9.9.9.9.9.9.4.1.s s p 6 & $ $ & 4 7 H F F K K ^ L.Y.W.}..X+X    ",
"                8X2X XW.Z.m g Z o.o.;.o.o.w 7 : & * > 0 s <.4.9.9.9.9.0.9.9.4.<.1.s 9 : # # o % > 7 C C G K _ ( ^ D.U.W.|.oX1X0X",
"                8X+X.XW.Z.n z Z E %.;.o.H Z < * * = , r s  .5.4.4.9.9.9.9.9.4.1.s p 6 & # . X o = , C C S W _ ( ^ C.F.E.|.OX1X0X",
"                8X+X.XQ.B.n h Z E o.o.E Z f = O 1 1 i I O.+.#.5.1.1.1.9.4.4.1.s s q 3 # # . X + @ z c K ! ) ) ( ~ ^ F.E.}.OX1X0X",
"                8X+X.XW.B.n h Z E E %.E Z f f f k x A.V.O.+.s s s s s 1.1.1.1.<.s s 9 : # o + O k n / / Q ( Q ^ ^ D.U.W.}.OX1X0X",
"                0X<X.XW.B.n l h E E E E A f j n N.B.D.K.J.P r u e y a s s 2.2.1.s s t 5 > = 1 1 B A.Z.K.^ / / ^ L.E.E.|..XOX    ",
"                7X<X.XW.B.v g h S E E E S c n V G.E.E.R.H.L J 2 , 4 0 d s 1.s 7.5.s a 0 5 , 2 R A.F.I.L.Z.^ ^ D.Y.Q.|..XOX      ",
"                8X<X.XW.B.v g g A S W ! Q V B.!.Q.|.|.[.T.V.R 1 = = > 9 s s s s s s s y e 8 i V.V.G.Y.G.P.Z.F.G.W.|..X+X        ",
"                8X<X.XW.B.v f f h A ! Q ^ D.E.Q. XXXXX X{.G.B.b 1 = * 3 9 a a a s s a d u r r V.J.H.P.G.G.G.U.W.}..XOX          ",
"                8X<X.XQ.N.b j f f l Q ^ L.E.{..XoX<X<XoX.X[.G.N.N.1 O = > 8 9 e s r y y s O.I T Y V.Z.F.U.W.Q.}..XOX            ",
"                8X<X.XQ.F.B j @ f k V C.Y.{..XOX2X7X7X<XoX.XQ.G.N.1 1 1 - 2 2 i i r r r r s r O.P R A.F.!.{. X.XOX              ",
"                  2X.XQ.!.N.B v v V A.I.].|.OX1X7X0X0X8X1XoX X!.S.N.N.k x x x R N.i R P I r r e i z R S.!.}.oX<X                ",
"                    XXQ.!.!.S.S.B.F.G.E.}.OX<X8X0X0X0X0X8X<XXX{.!.G.S.S.S.S.V.V.V.V.J.J.T r r 8 , 1 b S.W. X<X2X                ",
"                      oX}.Q.Q.W.W.W.Q.}..XOX                OX.X{.Q.Q.Q.!.W.W.!.E.T.R.H.Y P i , - 1 b S.W..X+X8X                ",
"                        oXoX.X.X.XoXoXoX<X                    <XoX.X.X.X.X.X.X.X X|.].T.V.L z 2 1 j B F.Q..X+X8X                ",
"                          +X+X+X<X<X1X                            1X2X<X<X<X<X<XOXoX X].P.V.N.x b N.N.G.Q..X2X                  ",
"                            8X8X8X0X                                8X8X8X8X8X7X1X<XXX{.E.P.Z.S.S.Z.G.W.}.OX                    ",
"                                                                                    <X X}.{.Q.Q.W.[.{.}..XOX                    ",
"                                                                                      <XOXoXoXoXXXXXoXoX+X                      ",
"                                                                                        1X1X1X1X1X1X1X1X                        ",
"                                                                                        0X0X0X0X0X0X0X0X                        "
};
