/* XPM */
static char *result[] = {
/* columns rows colors chars-per-pixel */
"64 64 127 2 ",
"   c gray7",
".  c #393939",
"X  c #3C3C3C",
"o  c gray25",
"O  c #444444",
"+  c gray28",
"@  c #494949",
"#  c #4C4C4C",
"$  c gray31",
"%  c #505050",
"&  c #515151",
"*  c gray32",
"=  c #535353",
"-  c gray33",
";  c #555555",
":  c #585858",
">  c gray35",
",  c #5A5A5A",
"<  c #5F5F5F",
"1  c #626262",
"2  c gray39",
"3  c #676767",
"4  c #6A6A6A",
"5  c #6D6D6D",
"6  c gray44",
"7  c gray45",
"8  c gray46",
"9  c #777777",
"0  c #797979",
"q  c gray48",
"w  c #7B7B7B",
"e  c #7E7E7E",
"r  c #818181",
"t  c #838383",
"y  c gray52",
"u  c #868686",
"i  c #888888",
"p  c gray54",
"a  c #8B8B8B",
"s  c #8D8D8D",
"d  c #909090",
"f  c gray57",
"g  c #929292",
"h  c #939393",
"j  c gray58",
"k  c #959595",
"l  c gray59",
"z  c #979797",
"x  c #989898",
"c  c #9A9A9A",
"v  c #9B9B9B",
"b  c gray61",
"n  c #9D9D9D",
"m  c gray62",
"M  c #A2A2A2",
"N  c #A4A4A4",
"B  c gray65",
"V  c #AAAAAA",
"C  c gray67",
"Z  c #ACACAC",
"A  c gray68",
"S  c gray69",
"D  c #B1B1B1",
"F  c #B2B2B2",
"G  c gray70",
"H  c #B4B4B4",
"J  c gray71",
"K  c #B6B6B6",
"L  c #B7B7B7",
"P  c gray72",
"I  c #B9B9B9",
"U  c #BBBBBB",
"Y  c gray75",
"T  c #C0C0C0",
"R  c #C1C1C1",
"E  c gray76",
"W  c #C5C5C5",
"Q  c #C6C6C6",
"!  c gray78",
"~  c #C8C8C8",
"^  c gray79",
"/  c #CACACA",
"(  c #CBCBCB",
")  c gray80",
"_  c #CECECE",
"`  c gray81",
"'  c #D0D0D0",
"]  c gray82",
"[  c #D2D2D2",
"{  c LightGray",
"}  c gray83",
"|  c #D5D5D5",
" . c gray84",
".. c #D7D7D7",
"X. c #D8D8D8",
"o. c gray85",
"O. c #DADADA",
"+. c gainsboro",
"@. c #DDDDDD",
"#. c gray87",
"$. c gray88",
"%. c #E2E2E2",
"&. c gray89",
"*. c #E4E4E4",
"=. c gray90",
"-. c #E6E6E6",
";. c #E7E7E7",
":. c gray91",
">. c #E9E9E9",
",. c #EAEAEA",
"<. c gray92",
"1. c #ECECEC",
"2. c gray93",
"3. c #EEEEEE",
"4. c #EFEFEF",
"5. c gray94",
"6. c #F1F1F1",
"7. c gray95",
"8. c #F3F3F3",
"9. c #F4F4F4",
"0. c gray96",
"q. c #F6F6F6",
"w. c gray97",
"e. c #F8F8F8",
"r. c gray98",
"t. c #FBFBFB",
"y. c None",
/* pixels */
"y.y.y.y.y.y.y.y.y.y.y.y.y.y.y.y.y.y.y.y.y.y.y.y.y.y.y.y.y.y.y.y.y.y.y.y.y.y.y.y.y.y.y.y.y.y.y.y.y.y.y.y.y.y.y.y.y.y.y.y.y.y.y.y.",
"y.y.y.y.y.y.y.y.y.y.y.y.y.y.y.y.y.y.y.y.y.y.y.y.y.y.y.y.y.y.y.y.y.y.y.y.y.y.y.y.y.y.y.y.y.y.y.y.y.y.y.y.y.y.y.y.y.y.y.y.y.y.y.y.",
"y.y.y.y.y.y.y.y.y.y.y.y.y.y.y.y.y.y.y.y.y.y.y.y.y.y.y.y.y.y.y.y.y.y.y.y.y.y.y.y.y.y.y.y.y.y.y.y.y.y.y.y.y.y.y.y.y.y.y.y.y.y.y.y.",
"y.y.y.y.y.y.y.y.y.y.y.y.y.y.y.y.y.y.y.y.y.y.y.y.y.y.y.y.y.y.y.y.y.y.y.y.y.y.y.y.y.y.y.y.y.y.y.y.y.y.y.y.y.y.y.y.y.y.y.y.y.y.y.y.",
"y.y.y.y.y.y.y.y.y.y.y.y.y.y.y.y.y.y.y.y.y.y.y.y.y.y.y.y.y.y.y.y.y.y.y.y.y.y.y.y.y.y.y.y.y.y.y.y.y.y.y.y.y.y.y.y.y.y.y.y.y.y.y.y.",
"y.y.y.y.y.y.y.y.y.y.y.y.y.y.y.y.y.y.y.y.y.y.y.y.y.y.y.y.y.y.y.y.y.y.y.y.y.y.y.y.y.y.y.y.y.y.y.y.y.y.y.y.y.y.y.y.y.y.y.y.y.y.y.y.",
"y.y.y.y.y.y.y.y.y.y.y.y.y.y.y.y.y.y.y.y.y.y.y.y.y.y.y.y.y.y.y.y.y.y.y.y.y.y.y.y.y.y.y.y.y.y.y.y.y.y.y.y.y.y.y.y.y.y.y.y.y.y.y.y.",
"y.y.y.y.y.y.y.y.y.y.y.y.y.y.y.y.y.y.y.y.y.y.y.y.y.y.y.y.y.y.y.y.y.y.y.y.y.y.y.y.y.y.y.y.y.y.y.y.y.y.y.y.y.y.y.y.y.y.y.y.y.y.y.y.",
"y.y.y.y.y.y.y.y.y.y.y.y.y.y.y.y.y.y.y.y.y.y.y.y.y.y.y.y.y.y.y.y.y.y.y.y.y.y.y.y.y.y.y.y.y.y.y.y.y.y.y.y.y.y.y.y.y.y.y.y.y.y.y.y.",
"y.y.y.y.y.y.y.y.y.y.y.y.y.y.y.y.y.y.y.y.y.y.y.y.y.y.y.y.y.y.y.y.y.y.y.y.y.y.y.y.y.y.y.y.y.y.y.y.y.y.y.y.y.y.y.y.y.y.y.y.y.y.y.y.",
"y.y.y.y.y.y.y.y.y.y.y.y.y.y.y.y.y.y.y.y.y.y.y.y.y.y.y.y.: > > > > > > > > : y.y.y.y.y.y.y.y.y.y.y.y.y.y.y.y.y.y.y.y.y.y.y.y.y.y.",
"y.y.y.y.y.y.y.y.y.y.y.y.y.y.y.y.y.y.y.y.y.y.y.y.y.y.y.g c v v v v v v v v c g y.y.y.y.y.y.y.y.y.y.y.y.y.y.y.y.y.y.y.y.y.y.y.y.y.",
"y.y.y.y.y.y.y.y.y.y.y.y.y.y.y.y.y.y.y.y.y.y.y.y.y.7 n T ' } } } } } } } } ' Y b 6 y.y.y.y.y.y.y.y.y.y.y.y.y.y.y.y.y.y.y.y.y.y.y.",
"y.y.y.y.y.y.y.y.y.y.y.y.y.y.y.y.y.y.y.y.y.y.y.y.y.m Y @.4.8.8.8.8.8.8.8.8.3.+.U z y.y.y.y.y.y.y.y.y.y.y.y.y.y.y.y.y.y.y.y.y.y.y.",
"y.y.y.y.y.y.y.y.y.y.y.y.y.y.y.y.y.y.y.y.y.y.y.6 b E @.4.e.t.t.t.t.t.r.r.r.w.1...U k 5 y.y.y.y.y.y.y.y.y.y.y.y.y.y.y.y.y.y.y.y.y.",
"y.y.y.y.y.y.y.y.y.y.y.y.y.y.y.y.y.y.y.y.y.y.y.l I O.3.w.r.t.t.t.t.t.r.e.w.q.7.:.{ J k y.y.y.y.y.y.y.y.y.y.y.y.y.y.y.y.y.y.y.y.y.",
"y.y.y.y.y.y.y.y.y.y.y.y.y.y.y.y.y.y.y.y.y.y.p K { ;.7.w.r.r.r.r.r.r.e.0.8.7.6.2.&.[ K p y.y.y.y.y.y.y.y.y.y.y.y.y.y.y.y.y.y.y.y.",
"y.y.y.y.y.y.y.y.y.y.y.y.y.y.y.y.y.y.y.y.y.= f W &.2.6.9.q.w.w.w.w.q.9.7.5.4.4.3.<.%.W f = y.y.y.y.y.y.y.y.y.y.y.y.y.y.y.y.y.y.y.",
"y.y.y.y.y.y.y.y.y.y.y.y.y.y.y.y.y.y.y.y.y.- h ^ -.3.4.6.7.7.7.7.7.7.6.4.3.3.3.3.3.-.^ h - y.y.y.y.y.y.y.y.y.y.y.y.y.y.y.y.y.y.y.",
"y.y.y.y.y.y.y.y.y.y.y.y.y.y.y.y.y.y.y.y.y.- h ^ -.3.3.4.4.4.4.4.4.4.4.3.3.3.3.3.3.-.^ h - y.y.y.y.y.y.y.y.y.y.y.y.y.y.y.y.y.y.y.",
"y.y.y.y.y.y.y.y.y.y.y.y.y.y.y.y.y.y.y.y.y.- h ^ -.3.3.3.3.3.3.3.3.3.3.3.3.3.3.3.3.-.^ h - y.y.y.y.y.y.y.y.y.y.y.y.y.y.y.y.y.y.y.",
"y.y.y.y.y.y.y.y.y.y.y.y.y.y.y.y.y.y.y.y.y.- h ^ -.3.3.3.3.3.3.3.3.3.3.3.3.3.3.3.3.-.^ h - y.y.y.y.y.y.y.y.y.y.y.y.y.y.y.y.y.y.y.",
"y.y.y.y.y.y.y.y.y.y.y.y.y.y.y.y.y.y.y.y.y.- h ^ -.2.1.>.>.1.2.3.3.3.3.2.1.>.>.1.2.-.^ h - y.y.y.y.y.y.y.y.y.y.y.y.y.y.y.y.y.y.y.",
"y.y.y.y.y.y.y.y.y.y.y.y.y.y.y.y.y.y.y.y.y.- h ^ -.<.&.X.X.&.1.3.3.3.3.1.&.X.X.&.<.-.^ h - y.y.y.y.y.y.y.y.y.y.y.y.y.y.y.y.y.y.y.",
"y.y.y.y.y.y.y.y.y.y.y.y.y.y.y.y.y.y.y.y.y.- h ^ -.>. .U U  .>.3.3.3.3.>. .U U  .>.-.^ h - y.y.y.y.y.y.y.y.y.y.y.y.y.y.y.y.y.y.y.",
"y.y.y.y.y.y.y.y.y.y.y.y.y.y.y.y.y.y.y.y.y.- h ^ -.;.) N N ) ;.3.3.3.3.;.) N N ) ;.-.^ h - y.y.y.y.y.y.y.y.y.y.y.y.y.y.y.y.y.y.y.",
"y.y.y.y.y.y.y.y.y.y.y.y.y.y.y.y.y.y.y.y.y.= g ~ =.-.) N N ) ;.3.3.3.3.;.) N N ) -.=.~ g = y.y.y.y.y.y.y.y.y.y.y.y.y.y.y.y.y.y.y.",
"y.y.y.y.y.y.y.y.y.y.y.y.y.y.y.y.y.y.y.y.y.% s E $.-.| U U  .>.3.3.3.3.>. .U U | -.$.E s % y.y.y.y.y.y.y.y.y.y.y.y.y.y.y.y.y.y.y.",
"y.y.y.y.y.y.y.y.y.y.y.y.y.y.y.y.y.y.y.y.y.# y K  .%.$.X.X.&.1.3.3.3.3.1.&.X.X.$.%. .K y # y.y.y.y.y.y.y.y.y.y.y.y.y.y.y.y.y.y.y.",
"y.y.y.y.y.y.y.y.y.y.y.y.y.y.y.y.y.y.y.y.y.y.0 M R  .%.-.>.1.2.3.3.3.3.2.1.>.-.%. .R M 0 y.y.y.y.y.y.y.y.y.y.y.y.y.y.y.y.y.y.y.y.",
"y.y.y.y.y.y.y.y.y.y.y.y.y.y.y.y.y.y.y.y.y.y.y.t M R ..*.<.2.3.3.3.3.3.3.2.<.*...R M t y.y.y.y.y.y.y.y.y.y.y.y.y.y.y.y.y.y.y.y.y.",
"y.y.y.y.y.y.y.y.y.y.y.y.y.y.y.y.y.y.y.y.y.y.y.< t B R ..=.<.2.3.3.3.3.2.<.=...R B t < y.y.y.y.y.y.y.y.y.y.y.y.y.y.y.y.y.y.y.y.y.",
"y.y.y.y.y.y.y.y.y.y.y.y.y.y.y.y.y.y.y.y.y.y.y.y.5 a V ~ @.:.2.3.3.3.3.2.:.@.~ V a 5 y.y.y.y.y.y.y.y.y.y.y.y.y.y.y.y.y.y.y.y.y.y.",
"y.y.y.y.y.y.y.y.y.y.y.y.y.y.y.y.y.y.y.y.y.y.y.y.9 l D ( #.:.2.3.3.3.3.2.:.#.( D l 9 y.y.y.y.y.y.y.y.y.y.y.y.y.y.y.y.y.y.y.y.y.y.",
"y.y.y.y.y.y.y.y.y.y.y.y.y.y.y.y.y.y.y.y.y.y.y.5 k P ` @.-.<.2.3.3.3.3.2.<.-.@.` P k 5 y.y.y.y.y.y.y.y.y.y.y.y.y.y.y.y.y.y.y.y.y.",
"y.y.y.y.y.y.y.y.y.y.y.y.y.y.y.y.y.y.y.y.y.y.y.k J [ *.,.1.2.3.3.3.3.3.3.2.1.,.*.[ J k y.y.y.y.y.y.y.y.y.y.y.y.y.y.y.y.y.y.y.y.y.",
"y.y.y.y.y.y.y.y.y.y.y.y.y.y.y.y.y.y.y.y.y.y.p K [ &.<.3.3.3.3.3.3.3.3.3.3.3.3.<.&.[ K p y.y.y.y.y.y.y.y.y.y.y.y.y.y.y.y.y.y.y.y.",
"y.y.y.y.y.y.y.y.y.y.y.y.y.y.y.y.y.y.y.y.y.= f W %.<.2.3.3.3.3.3.3.3.3.3.3.3.3.2.<.%.W f = y.y.y.y.y.y.y.y.y.y.y.y.y.y.y.y.y.y.y.",
"y.y.y.y.y.y.y.y.y.y.y.y.y.y.y.y.y.y.y.y.y.- h ^ -.1.2.2.3.3.3.3.3.3.3.3.3.3.2.2.1.-.^ h - y.y.y.y.y.y.y.y.y.y.y.y.y.y.y.y.y.y.y.",
"y.y.y.y.y.y.y.y.y.y.y.y.y.y.y.y.y.y.y.y.y.; h ~ &.:.:.<.2.3.3.3.3.3.3.3.3.2.<.:.:.&.~ h ; y.y.y.y.y.y.y.y.y.y.y.y.y.y.y.y.y.y.y.",
"y.y.y.y.y.y.y.y.y.y.y.y.y.y.y.y.y.y.y.y.y.3 c ~ @.@.#.-.1.3.3.3.3.3.3.3.3.1.-.#.@.@.~ c 3 y.y.y.y.y.y.y.y.y.y.y.y.y.y.y.y.y.y.y.",
"y.y.y.y.y.y.y.y.y.y.y.y.y.y.y.y.y.y.y.y.7 f S ( ] ~ ( @.,.3.3.3.3.3.3.3.3.,.@.( ~ ] ( S f 7 y.y.y.y.y.y.y.y.y.y.y.y.y.y.y.y.y.y.",
"y.y.y.y.y.y.y.y.y.y.y.y.y.y.y.y.y.y.y.y.i D ~ _ R V D [ :.3.3.3.3.3.3.3.3.:.[ D V R _ ~ D i y.y.y.y.y.y.y.y.y.y.y.y.y.y.y.y.y.y.",
"y.y.y.y.y.y.y.y.y.y.y.y.y.y.y.y.y.y.y.% a U [ ` H h m ( ;.3.3.3.3.3.3.3.3.;.( m h H ` [ U a % y.y.y.y.y.y.y.y.y.y.y.y.y.y.y.y.y.",
"y.y.y.y.y.y.y.y.y.y.y.y.y.y.y.y.y.y.y.# y G ^ W V i x ^ -.3.3.3.3.3.3.3.3.-.^ x i V W ^ G y # y.y.y.y.y.y.y.y.y.y.y.y.y.y.y.y.y.",
"y.y.y.y.y.y.y.y.y.y.y.y.y.y.y.y.y.y.y.y.0 n Z V j q k ^ -.3.3.3.3.3.3.3.3.-.^ k q j V Z n 0 y.y.y.y.y.y.y.y.y.y.y.y.y.y.y.y.y.y.",
"y.y.y.y.y.y.y.y.y.y.y.y.y.y.y.y.y.y.y.y.y.9 e w 4 2 g ^ -.3.2.2.1.1.2.2.3.-.^ g 2 4 w e 9 y.y.y.y.y.y.y.y.y.y.y.y.y.y.y.y.y.y.y.",
"y.y.y.y.y.y.y.y.y.y.y.y.y.y.y.y.y.y.y.y.y.y.+ O . & d ^ -.2.<.:.=.=.:.<.2.-.^ d & . O + y.y.y.y.y.y.y.y.y.y.y.y.y.y.y.y.y.y.y.y.",
"y.y.y.y.y.y.y.y.y.y.y.y.y.y.y.y.y.y.y.y.y.y.y.y.  $ g ^ -.1.-.+.| | +.-.1.-.^ g $   y.y.y.y.y.y.y.y.y.y.y.y.y.y.y.y.y.y.y.y.y.y.",
"y.y.y.y.y.y.y.y.y.y.y.y.y.y.y.y.y.y.y.y.y.y.y.y.y.* h ^ -.,.@.! L L ! @.,.-.^ h * y.y.y.y.y.y.y.y.y.y.y.y.y.y.y.y.y.y.y.y.y.y.y.",
"y.y.y.y.y.y.y.y.y.y.y.y.y.y.y.y.y.y.y.y.y.y.y.y.y.= g ~ =.;.[ C i i C [ ;.=.~ g = y.y.y.y.y.y.y.y.y.y.y.y.y.y.y.y.y.y.y.y.y.y.y.",
"y.y.y.y.y.y.y.y.y.y.y.y.y.y.y.y.y.y.y.y.y.y.y.y.y.% s E $.*./ k , , k / *.$.E s % y.y.y.y.y.y.y.y.y.y.y.y.y.y.y.y.y.y.y.y.y.y.y.",
"y.y.y.y.y.y.y.y.y.y.y.y.y.y.y.y.y.y.y.y.y.y.y.y.y.# u I o.#.Q s + + s Q #.o.I u # y.y.y.y.y.y.y.y.y.y.y.y.y.y.y.y.y.y.y.y.y.y.y.",
"y.y.y.y.y.y.y.y.y.y.y.y.y.y.y.y.y.y.y.y.y.y.y.y.y.@ r F ] ..Y i O O i Y ..] F r @ y.y.y.y.y.y.y.y.y.y.y.y.y.y.y.y.y.y.y.y.y.y.y.",
"y.y.y.y.y.y.y.y.y.y.y.y.y.y.y.y.y.y.y.y.y.y.y.y.y.+ e Z Q ^ G r o o r G ^ Q Z e + y.y.y.y.y.y.y.y.y.y.y.y.y.y.y.y.y.y.y.y.y.y.y.",
"y.y.y.y.y.y.y.y.y.y.y.y.y.y.y.y.y.y.y.y.y.y.y.y.y.y.9 v Z A b 8 X X 8 b A Z v 9 y.y.y.y.y.y.y.y.y.y.y.y.y.y.y.y.y.y.y.y.y.y.y.y.",
"y.y.y.y.y.y.y.y.y.y.y.y.y.y.y.y.y.y.y.y.y.y.y.y.y.y.y.9 e e 9 1 y.y.1 9 e e 9 y.y.y.y.y.y.y.y.y.y.y.y.y.y.y.y.y.y.y.y.y.y.y.y.y.",
"y.y.y.y.y.y.y.y.y.y.y.y.y.y.y.y.y.y.y.y.y.y.y.y.y.y.y.y.+ + y.y.y.y.y.y.+ + y.y.y.y.y.y.y.y.y.y.y.y.y.y.y.y.y.y.y.y.y.y.y.y.y.y.",
"y.y.y.y.y.y.y.y.y.y.y.y.y.y.y.y.y.y.y.y.y.y.y.y.y.y.y.y.y.y.y.y.y.y.y.y.y.y.y.y.y.y.y.y.y.y.y.y.y.y.y.y.y.y.y.y.y.y.y.y.y.y.y.y.",
"y.y.y.y.y.y.y.y.y.y.y.y.y.y.y.y.y.y.y.y.y.y.y.y.y.y.y.y.y.y.y.y.y.y.y.y.y.y.y.y.y.y.y.y.y.y.y.y.y.y.y.y.y.y.y.y.y.y.y.y.y.y.y.y.",
"y.y.y.y.y.y.y.y.y.y.y.y.y.y.y.y.y.y.y.y.y.y.y.y.y.y.y.y.y.y.y.y.y.y.y.y.y.y.y.y.y.y.y.y.y.y.y.y.y.y.y.y.y.y.y.y.y.y.y.y.y.y.y.y.",
"y.y.y.y.y.y.y.y.y.y.y.y.y.y.y.y.y.y.y.y.y.y.y.y.y.y.y.y.y.y.y.y.y.y.y.y.y.y.y.y.y.y.y.y.y.y.y.y.y.y.y.y.y.y.y.y.y.y.y.y.y.y.y.y.",
"y.y.y.y.y.y.y.y.y.y.y.y.y.y.y.y.y.y.y.y.y.y.y.y.y.y.y.y.y.y.y.y.y.y.y.y.y.y.y.y.y.y.y.y.y.y.y.y.y.y.y.y.y.y.y.y.y.y.y.y.y.y.y.y.",
"y.y.y.y.y.y.y.y.y.y.y.y.y.y.y.y.y.y.y.y.y.y.y.y.y.y.y.y.y.y.y.y.y.y.y.y.y.y.y.y.y.y.y.y.y.y.y.y.y.y.y.y.y.y.y.y.y.y.y.y.y.y.y.y."
};
