/* XPM */
static char *result[] = {
/* columns rows colors chars-per-pixel */
"64 64 163 2 ",
"   c gray6",
".  c #111111",
"X  c #323232",
"o  c gray20",
"O  c #373737",
"+  c gray22",
"@  c #393939",
"#  c #414141",
"$  c #434343",
"%  c #444444",
"&  c gray27",
"*  c #464646",
"=  c gray28",
"-  c #484848",
";  c #494949",
":  c #4C4C4C",
">  c gray30",
",  c gray31",
"<  c #505050",
"1  c #535353",
"2  c gray33",
"3  c #555555",
"4  c #565656",
"5  c gray34",
"6  c #585858",
"7  c gray35",
"8  c #5D5D5D",
"9  c gray37",
"0  c #5F5F5F",
"q  c #606060",
"w  c gray38",
"e  c #626262",
"r  c #656565",
"t  c gray40",
"y  c #686868",
"u  c DimGray",
"i  c #6A6A6A",
"p  c #6D6D6D",
"a  c gray43",
"s  c gray44",
"d  c gray45",
"f  c #747474",
"g  c gray46",
"h  c #777777",
"j  c #797979",
"k  c gray48",
"l  c #7B7B7B",
"z  c #7C7C7C",
"x  c gray49",
"c  c #7E7E7E",
"v  c gray50",
"b  c #818181",
"n  c #838383",
"m  c #848484",
"M  c gray52",
"N  c #868686",
"B  c gray53",
"V  c #888888",
"C  c #898989",
"Z  c gray54",
"A  c #8B8B8B",
"S  c gray55",
"D  c #8D8D8D",
"F  c #909090",
"G  c gray57",
"H  c #929292",
"J  c #939393",
"K  c gray58",
"L  c #959595",
"P  c gray59",
"I  c #979797",
"U  c #989898",
"Y  c gray60",
"T  c #9A9A9A",
"R  c #9B9B9B",
"E  c gray61",
"W  c #9D9D9D",
"Q  c gray62",
"!  c #9F9F9F",
"~  c #A0A0A0",
"^  c #A2A2A2",
"/  c #A4A4A4",
"(  c #A5A5A5",
")  c gray65",
"_  c #A7A7A7",
"`  c gray66",
"'  c #A9A9A9",
"]  c gray67",
"[  c #ACACAC",
"{  c gray68",
"}  c #AEAEAE",
"|  c #AFAFAF",
" . c gray69",
".. c #B1B1B1",
"X. c gray70",
"o. c #B4B4B4",
"O. c gray71",
"+. c #B6B6B6",
"@. c #B7B7B7",
"#. c gray72",
"$. c #B9B9B9",
"%. c gray73",
"&. c #BBBBBB",
"*. c gray74",
"=. c gray",
"-. c gray75",
";. c #C0C0C0",
":. c #C1C1C1",
">. c gray76",
",. c #C3C3C3",
"<. c #C5C5C5",
"1. c #C6C6C6",
"2. c #C8C8C8",
"3. c gray79",
"4. c #CACACA",
"5. c #CBCBCB",
"6. c gray80",
"7. c #CECECE",
"8. c gray81",
"9. c #D0D0D0",
"0. c gray82",
"q. c #D2D2D2",
"w. c LightGray",
"e. c gray83",
"r. c #D5D5D5",
"t. c gray84",
"y. c #D7D7D7",
"u. c #D8D8D8",
"i. c gray85",
"p. c #DADADA",
"a. c gray86",
"s. c gainsboro",
"d. c #DDDDDD",
"f. c gray87",
"g. c #DFDFDF",
"h. c #E1E1E1",
"j. c #E2E2E2",
"k. c gray89",
"l. c #E4E4E4",
"z. c gray90",
"x. c #E6E6E6",
"c. c #E7E7E7",
"v. c gray91",
"b. c #E9E9E9",
"n. c #EAEAEA",
"m. c gray92",
"M. c #ECECEC",
"N. c gray93",
"B. c #EEEEEE",
"V. c #EFEFEF",
"C. c gray94",
"Z. c #F1F1F1",
"A. c gray95",
"S. c #F3F3F3",
"D. c #F4F4F4",
"F. c gray96",
"G. c #F6F6F6",
"H. c gray97",
"J. c #F8F8F8",
"K. c #F9F9F9",
"L. c gray98",
"P. c #FBFBFB",
"I. c None",
/* pixels */
"I.I.I.I.I.I.I.I.I.I.I.I.I.I.I.I.I.I.I.I.I.I.I.I.I.I.I.I.I.I.I.I.I.I.I.I.I.I.I.I.I.I.I.I.I.I.I.I.I.I.I.I.I.I.I.I.I.I.I.I.I.I.I.I.",
"I.I.I.I.I.I.I.I.I.I.I.I.I.I.I.I.I.I.I.I.I.I.I.I.I.I.I.I.I.I.I.I.I.I.I.I.I.I.I.I.I.I.I.I.I.I.I.I.I.I.I.I.I.I.I.I.I.I.I.I.I.I.I.I.",
"I.I.I.I.I.I.I.I.I.I.I.I.I.I.I.I.I.I.I.I.I.I.I.I.I.I.I.I.I.I.I.I.I.I.I.I.I.I.I.I.I.I.I.I.I.I.I.I.I.I.I.I.I.I.I.I.I.I.I.I.I.I.I.I.",
"I.I.I.I.I.I.I.I.I.I.I.I.I.I.I.I.I.I.I.I.I.I.I.I.I.I.I.I.I.I.I.I.I.I.I.I.I.I.I.I.I.I.I.I.I.I.I.I.I.I.I.I.I.I.I.I.I.I.I.I.I.I.I.I.",
"I.I.I.I.I.I.I.I.I.I.I.I.I.I.I.I.I.I.I.I.I.I.I.I.I.I.I.I.I.I.I.I.I.I.I.I.I.I.I.I.I.I.I.I.I.I.I.I.I.I.I.I.I.I.I.I.I.I.I.I.I.I.I.I.",
"I.I.I.I.I.I.I.I.I.I.I.I.I.I.I.I.I.I.I.I.I.I.I.I.I.I.I.I.I.I.I.I.I.I.I.I.I.I.I.I.I.I.I.I.I.I.I.I.I.I.I.I.I.I.I.I.I.I.I.I.I.I.I.I.",
"I.I.I.I.I.I.I.I.I.I.I.I.I.I.I.I.I.I.I.I.I.I.I.I.I.I.I.I.I.3 5 6 7 7 7 7 7 7 6 I.I.I.I.I.I.I.I.I.I.I.I.I.I.I.I.I.I.I.I.I.I.I.I.I.",
"I.I.I.I.I.I.I.I.I.I.I.I.I.I.I.I.I.I.I.I.I.I.I.I.I.I.I.I.A K Y R R R R R R R T H I.I.I.I.I.I.I.I.I.I.I.I.I.I.I.I.I.I.I.I.I.I.I.I.",
"I.I.I.I.I.I.I.I.I.I.I.I.I.I.I.I.I.I.I.I.I.I.I.I.I.I.p L @.3.0.w.e.e.e.e.e.e.9.;.W d I.I.I.I.I.I.I.I.I.I.I.I.I.I.I.I.I.I.I.I.I.I.",
"I.I.I.I.I.I.I.I.I.I.I.I.I.I.I.I.I.I.I.I.I.I.I.I.I.I.L O.w.x.V.A.S.S.S.S.S.S.V.d.-.Q I.I.I.I.I.I.I.I.I.I.I.I.I.I.I.I.I.I.I.I.I.I.",
"I.I.I.I.I.I.I.I.I.I.I.I.I.I.I.I.I.I.I.I.I.I.I.I.p L $.q.l.V.G.K.L.P.P.P.P.P.J.V.f.,.E s I.I.I.I.I.I.I.I.I.I.I.I.I.I.I.I.I.I.I.I.",
"I.I.I.I.I.I.I.I.I.I.I.I.I.I.I.I.I.I.I.I.I.I.I.I.L O.q.z.M.C.D.J.L.P.P.P.P.P.L.J.Z.s.&.I I.I.I.I.I.I.I.I.I.I.I.I.I.I.I.I.I.I.I.I.",
"I.I.I.I.I.I.I.I.I.I.I.I.I.I.I.I.I.I.I.I.I.I.I.Z +.q.k.m.B.V.Z.D.J.L.L.L.L.L.P.L.H.M.y.@.Z I.I.I.I.I.I.I.I.I.I.I.I.I.I.I.I.I.I.I.",
"I.I.I.I.I.I.I.I.I.I.I.I.I.I.I.I.I.I.I.I.I.I.1 G <.j.m.N.B.B.V.Z.D.G.H.H.H.J.K.K.H.A.z.1.G 1 I.I.I.I.I.I.I.I.I.I.I.I.I.I.I.I.I.I.",
"I.I.I.I.I.I.I.I.I.I.I.I.I.I.I.I.I.I.I.I.I.I.2 J 3.x.B.B.B.B.B.V.Z.A.A.A.S.F.H.H.D.Z.v.3.J 2 I.I.I.I.I.I.I.I.I.I.I.I.I.I.I.I.I.I.",
"I.I.I.I.I.I.I.I.I.I.I.I.I.I.I.I.I.I.I.I.I.I.2 J 3.x.B.B.B.B.B.B.V.V.V.V.C.A.D.D.Z.V.c.3.J 2 I.I.I.I.I.I.I.I.I.I.I.I.I.I.I.I.I.I.",
"I.I.I.I.I.I.I.I.I.I.I.I.I.I.I.I.I.I.I.I.I.I.2 J 3.x.B.B.B.B.B.B.B.B.B.B.B.V.Z.Z.V.B.x.3.J 2 I.I.I.I.I.I.I.I.I.I.I.I.I.I.I.I.I.I.",
"I.I.I.I.I.I.I.I.I.I.I.I.I.I.I.I.I.I.I.I.I.I.2 J 3.x.B.B.B.B.B.B.B.B.B.B.B.B.V.V.B.B.x.3.J 2 I.I.I.I.I.I.I.I.I.I.I.I.I.I.I.I.I.I.",
"I.I.I.I.I.I.I.I.I.I.I.I.I.I.I.I.I.I.I.I.I.I.2 J 3.x.N.M.b.b.M.N.B.B.B.B.B.B.B.B.B.N.z.2.H 1 I.I.I.I.I.I.I.I.I.I.I.I.I.I.I.I.I.I.",
"I.I.I.I.I.I.I.I.I.I.I.I.I.I.I.I.I.I.I.I.I.I.2 J 3.x.m.k.u.u.k.M.B.B.B.B.B.B.B.B.N.m.h.>.D < I.I.I.I.I.I.I.I.I.I.I.I.I.I.I.I.I.I.",
"I.I.I.I.I.I.I.I.I.I.I.I.I.I.I.I.I.I.I.I.I.I.2 J 3.x.b.t.&.&.t.b.B.B.B.B.B.B.B.B.N.v.p.%.N : I.I.I.I.I.I.I.I.I.I.I.I.I.I.I.I.I.I.",
"I.I.I.I.I.I.I.I.I.I.I.I.I.I.I.I.I.I.I.I.I.I.2 J 3.x.c.6./ / 6.c.B.B.B.B.B.B.B.B.M.z.r.X.b ; I.I.I.I.I.I.I.I.I.I.I.I.I.I.I.I.I.I.",
"I.I.I.I.I.I.I.I.I.I.I.I.I.I.I.I.I.I.I.I.I.I.2 J 3.x.c.6./ / 6.c.B.B.B.B.B.B.B.N.n.h.8.} c = I.I.I.I.I.I.I.I.I.I.I.I.I.I.I.I.I.I.",
"I.I.I.I.I.I.I.I.I.I.I.I.I.I.I.I.I.I.I.I.I.I.2 J 3.x.b.t.&.&.t.b.B.B.B.B.B.B.N.m.z.t.-.~ h I.I.I.I.I.I.I.I.I.I.I.I.I.I.I.I.I.I.I.",
"I.I.I.I.I.I.I.I.I.I.I.I.I.I.I.I.I.I.I.I.I.I.2 J 3.x.m.k.u.u.k.M.B.B.B.B.B.B.N.v.s.1.( m I.I.I.I.I.I.I.I.I.I.I.I.I.I.I.I.I.I.I.I.",
"I.I.I.I.I.I.I.I.I.I.I.I.I.I.I.I.I.I.I.I.I.I.2 J 3.x.N.M.b.b.M.N.B.B.B.B.B.B.M.z.y.=.I u I.I.I.I.I.I.I.I.I.I.I.I.I.I.I.I.I.I.I.I.",
"I.I.I.I.I.I.I.I.I.I.I.I.I.I.I.I.I.I.I.I.I.I.1 G <.h.n.M.N.B.B.B.B.B.B.B.B.N.n.j.w.:.^ I.I.I.I.I.I.I.I.I.I.I.I.I.I.I.I.I.I.I.I.I.",
"I.I.I.I.I.I.I.I.I.I.I.I.I.I.I.I.I.I.I.I.I.I.I.Z O.7.d.x.m.N.B.B.B.B.B.B.N.m.l.t.,.X.I.I.I.I.I.I.I.I.I.I.I.I.I.I.I.I.I.I.I.I.I.I.",
"I.I.I.I.I.I.I.I.I.I.I.I.I.I.I.I.I.I.I.I.I.I.I.I.H [ <.i.x.M.B.B.B.B.B.N.m.z.u.:./ S I.I.I.I.I.I.I.I.I.I.I.I.I.I.I.I.I.I.I.I.I.I.",
"I.I.I.I.I.I.I.I.I.I.I.I.I.I.I.I.I.I.I.I.I.I.I.I.t B ` <.d.n.B.B.B.B.N.m.z.y.:.) n I.I.I.I.I.I.I.I.I.I.I.I.I.I.I.I.I.I.I.I.I.I.I.",
"I.I.I.I.I.I.I.I.I.I.I.I.I.I.I.I.I.I.I.I.I.I.I.I.I.w n [ q.v.B.B.B.B.N.b.f.2.` V u I.I.I.I.I.I.I.I.I.I.I.I.I.I.I.I.I.I.I.I.I.I.I.",
"I.I.I.I.I.I.I.I.I.I.I.I.I.I.I.I.I.I.I.I.I.I.I.I.I.X 8 U 5.c.B.B.B.V.V.m.g.2.` V y I.I.I.I.I.I.I.I.I.I.I.I.I.I.I.I.I.I.I.I.I.I.I.",
"I.I.I.I.I.I.I.I.I.I.I.I.I.I.I.I.I.I.I.I.I.I.I.I.& % 8 J <.j.m.B.V.Z.A.C.c.u.>._ m q > I.I.I.I.I.I.I.I.I.I.I.I.I.I.I.I.I.I.I.I.I.",
"I.I.I.I.I.I.I.I.I.I.I.I.I.I.I.I.I.I.I.I.I.I.I.I.h x m T #.q.k.M.B.Z.S.A.N.z.u.<.] J M j I.I.I.I.I.I.I.I.I.I.I.I.I.I.I.I.I.I.I.I.",
"I.I.I.I.I.I.I.I.I.I.I.I.I.I.I.I.I.I.I.I.I.I.I.h T ] [ ( ^ +.t.b.B.V.V.N.b.l.f.y.6.:.X.W h I.I.I.I.I.I.I.I.I.I.I.I.I.I.I.I.I.I.I.",
"I.I.I.I.I.I.I.I.I.I.I.I.I.I.I.I.I.I.I.I.I.I.= c ] >.>.{ F ! 6.c.N.m.c.f.w.5.3.7.e.r.3.{ c = I.I.I.I.I.I.I.I.I.I.I.I.I.I.I.I.I.I.",
"I.I.I.I.I.I.I.I.I.I.I.I.I.I.I.I.I.I.I.I.I.I.= c ] >.>.' B I 2.z.M.v.f.5...E U ' ;.5.1.[ c = I.I.I.I.I.I.I.I.I.I.I.I.I.I.I.I.I.I.",
"I.I.I.I.I.I.I.I.I.I.I.I.I.I.I.I.I.I.I.I.I.I.I.h T ] ' J j F >.h.n.v.d.2.` m p k Y ] ] R h I.I.I.I.I.I.I.I.I.I.I.I.I.I.I.I.I.I.I.",
"I.I.I.I.I.I.I.I.I.I.I.I.I.I.I.I.I.I.I.I.I.I.I.I.h c l i q B &.a.v.n.z.t.=.E g e p j z h I.I.I.I.I.I.I.I.I.I.I.I.I.I.I.I.I.I.I.I.",
"I.I.I.I.I.I.I.I.I.I.I.I.I.I.I.I.I.I.I.I.I.I.I.I.I.= % @ : N &.a.v.M.n.j.0.#.I f 5 * $ % I.I.I.I.I.I.I.I.I.I.I.I.I.I.I.I.I.I.I.I.",
"I.I.I.I.I.I.I.I.I.I.I.I.I.I.I.I.I.I.I.I.I.I.I.I.I.I.I.O 0 L <.h.m.N.M.z.i.3.O.P i +   I.I.I.I.I.I.I.I.I.I.I.I.I.I.I.I.I.I.I.I.I.",
"I.I.I.I.I.I.I.I.I.I.I.I.I.I.I.I.I.I.I.I.I.I.I.I.I.I.I.a F X.e.v.N.B.M.c.g.t.2.] k # . I.I.I.I.I.I.I.I.I.I.I.I.I.I.I.I.I.I.I.I.I.",
"I.I.I.I.I.I.I.I.I.I.I.I.I.I.I.I.I.I.I.I.I.I.I.I.I.I.I.Z O.q.j.b.b.c.x.z.k.d.8.X.M 4 % % I.I.I.I.I.I.I.I.I.I.I.I.I.I.I.I.I.I.I.I.",
"I.I.I.I.I.I.I.I.I.I.I.I.I.I.I.I.I.I.I.I.I.I.I.I.I.I.2 H <.j.b.k.t.6.5.q.i.a.0.&.W M x h I.I.I.I.I.I.I.I.I.I.I.I.I.I.I.I.I.I.I.I.",
"I.I.I.I.I.I.I.I.I.I.I.I.I.I.I.I.I.I.I.I.I.I.I.I.I.I.y R 6.c.b.t.O.Y U [ >.7.7.1.%...] T h I.I.I.I.I.I.I.I.I.I.I.I.I.I.I.I.I.I.I.",
"I.I.I.I.I.I.I.I.I.I.I.I.I.I.I.I.I.I.I.I.I.I.I.I.I.d H O.t.b.c.6.Y r 8 n / $.1.5.4.2.>.] c = I.I.I.I.I.I.I.I.I.I.I.I.I.I.I.I.I.I.",
"I.I.I.I.I.I.I.I.I.I.I.I.I.I.I.I.I.I.I.I.I.I.I.I.I.Z O.q.j.b.j.<.F , o w b W +.<.2.2.>.] c = I.I.I.I.I.I.I.I.I.I.I.I.I.I.I.I.I.I.",
"I.I.I.I.I.I.I.I.I.I.I.I.I.I.I.I.I.I.I.I.I.I.I.I.1 G <.j.b.j.q.O.C < I.I.9 b Q ] | | ] T h I.I.I.I.I.I.I.I.I.I.I.I.I.I.I.I.I.I.I.",
"I.I.I.I.I.I.I.I.I.I.I.I.I.I.I.I.I.I.I.I.I.I.I.I.2 J 3.z.c.e.o.H d I.I.I.I.I.h c v v c h I.I.I.I.I.I.I.I.I.I.I.I.I.I.I.I.I.I.I.I.",
"I.I.I.I.I.I.I.I.I.I.I.I.I.I.I.I.I.I.I.I.I.I.I.I.2 J 2.k.h.<.P r I.I.I.I.I.I.I.= - - = I.I.I.I.I.I.I.I.I.I.I.I.I.I.I.I.I.I.I.I.I.",
"I.I.I.I.I.I.I.I.I.I.I.I.I.I.I.I.I.I.I.I.I.I.I.I.1 G ,.i.w.+.M > I.I.I.I.I.I.I.I.I.I.I.I.I.I.I.I.I.I.I.I.I.I.I.I.I.I.I.I.I.I.I.I.",
"I.I.I.I.I.I.I.I.I.I.I.I.I.I.I.I.I.I.I.I.I.I.I.I.I.C  .*.+.! j I.I.I.I.I.I.I.I.I.I.I.I.I.I.I.I.I.I.I.I.I.I.I.I.I.I.I.I.I.I.I.I.I.",
"I.I.I.I.I.I.I.I.I.I.I.I.I.I.I.I.I.I.I.I.I.I.I.I.I.I.V A M j I.I.I.I.I.I.I.I.I.I.I.I.I.I.I.I.I.I.I.I.I.I.I.I.I.I.I.I.I.I.I.I.I.I.",
"I.I.I.I.I.I.I.I.I.I.I.I.I.I.I.I.I.I.I.I.I.I.I.I.I.I.I.< : I.I.I.I.I.I.I.I.I.I.I.I.I.I.I.I.I.I.I.I.I.I.I.I.I.I.I.I.I.I.I.I.I.I.I.",
"I.I.I.I.I.I.I.I.I.I.I.I.I.I.I.I.I.I.I.I.I.I.I.I.I.I.I.I.I.I.I.I.I.I.I.I.I.I.I.I.I.I.I.I.I.I.I.I.I.I.I.I.I.I.I.I.I.I.I.I.I.I.I.I.",
"I.I.I.I.I.I.I.I.I.I.I.I.I.I.I.I.I.I.I.I.I.I.I.I.I.I.I.I.I.I.I.I.I.I.I.I.I.I.I.I.I.I.I.I.I.I.I.I.I.I.I.I.I.I.I.I.I.I.I.I.I.I.I.I.",
"I.I.I.I.I.I.I.I.I.I.I.I.I.I.I.I.I.I.I.I.I.I.I.I.I.I.I.I.I.I.I.I.I.I.I.I.I.I.I.I.I.I.I.I.I.I.I.I.I.I.I.I.I.I.I.I.I.I.I.I.I.I.I.I.",
"I.I.I.I.I.I.I.I.I.I.I.I.I.I.I.I.I.I.I.I.I.I.I.I.I.I.I.I.I.I.I.I.I.I.I.I.I.I.I.I.I.I.I.I.I.I.I.I.I.I.I.I.I.I.I.I.I.I.I.I.I.I.I.I.",
"I.I.I.I.I.I.I.I.I.I.I.I.I.I.I.I.I.I.I.I.I.I.I.I.I.I.I.I.I.I.I.I.I.I.I.I.I.I.I.I.I.I.I.I.I.I.I.I.I.I.I.I.I.I.I.I.I.I.I.I.I.I.I.I.",
"I.I.I.I.I.I.I.I.I.I.I.I.I.I.I.I.I.I.I.I.I.I.I.I.I.I.I.I.I.I.I.I.I.I.I.I.I.I.I.I.I.I.I.I.I.I.I.I.I.I.I.I.I.I.I.I.I.I.I.I.I.I.I.I.",
"I.I.I.I.I.I.I.I.I.I.I.I.I.I.I.I.I.I.I.I.I.I.I.I.I.I.I.I.I.I.I.I.I.I.I.I.I.I.I.I.I.I.I.I.I.I.I.I.I.I.I.I.I.I.I.I.I.I.I.I.I.I.I.I.",
"I.I.I.I.I.I.I.I.I.I.I.I.I.I.I.I.I.I.I.I.I.I.I.I.I.I.I.I.I.I.I.I.I.I.I.I.I.I.I.I.I.I.I.I.I.I.I.I.I.I.I.I.I.I.I.I.I.I.I.I.I.I.I.I.",
"I.I.I.I.I.I.I.I.I.I.I.I.I.I.I.I.I.I.I.I.I.I.I.I.I.I.I.I.I.I.I.I.I.I.I.I.I.I.I.I.I.I.I.I.I.I.I.I.I.I.I.I.I.I.I.I.I.I.I.I.I.I.I.I.",
"I.I.I.I.I.I.I.I.I.I.I.I.I.I.I.I.I.I.I.I.I.I.I.I.I.I.I.I.I.I.I.I.I.I.I.I.I.I.I.I.I.I.I.I.I.I.I.I.I.I.I.I.I.I.I.I.I.I.I.I.I.I.I.I."
};
