/* XPM */
static char *result[] = {
/* columns rows colors chars-per-pixel */
"64 64 157 2 ",
"   c gray7",
".  c #131313",
"X  c gray18",
"o  c gray22",
"O  c gray24",
"+  c gray25",
"@  c #414141",
"#  c #434343",
"$  c #444444",
"%  c gray27",
"&  c gray28",
"*  c #484848",
"=  c #494949",
"-  c #4B4B4B",
";  c #4C4C4C",
":  c #4E4E4E",
">  c gray31",
",  c #505050",
"<  c #515151",
"1  c gray32",
"2  c #535353",
"3  c gray33",
"4  c #555555",
"5  c gray34",
"6  c #585858",
"7  c gray35",
"8  c #5A5A5A",
"9  c gray36",
"0  c gray37",
"q  c #5F5F5F",
"w  c gray39",
"e  c gray40",
"r  c #676767",
"t  c #6D6D6D",
"y  c gray44",
"u  c #717171",
"i  c #727272",
"p  c #747474",
"a  c #767676",
"s  c #777777",
"d  c #797979",
"f  c gray48",
"g  c gray49",
"h  c #7E7E7E",
"j  c gray50",
"k  c #808080",
"l  c #818181",
"z  c gray51",
"x  c #838383",
"c  c #848484",
"v  c gray52",
"b  c #868686",
"n  c gray53",
"m  c #888888",
"M  c #898989",
"N  c gray54",
"B  c #8B8B8B",
"V  c gray55",
"C  c #8D8D8D",
"Z  c #8E8E8E",
"A  c gray56",
"S  c #909090",
"D  c gray57",
"F  c #929292",
"G  c #939393",
"H  c gray58",
"J  c #959595",
"K  c gray59",
"L  c #979797",
"P  c #989898",
"I  c gray60",
"U  c #9A9A9A",
"Y  c #9B9B9B",
"T  c gray61",
"R  c #9D9D9D",
"E  c gray62",
"W  c #A0A0A0",
"Q  c #A2A2A2",
"!  c gray64",
"~  c gray65",
"^  c #A7A7A7",
"/  c #A9A9A9",
"(  c #AAAAAA",
")  c gray67",
"_  c #ACACAC",
"`  c #AEAEAE",
"'  c #AFAFAF",
"]  c gray69",
"[  c #B1B1B1",
"{  c #B2B2B2",
"}  c gray70",
"|  c #B4B4B4",
" . c gray71",
".. c #B6B6B6",
"X. c gray72",
"o. c #B9B9B9",
"O. c gray73",
"+. c #BBBBBB",
"@. c #BCBCBC",
"#. c gray74",
"$. c gray",
"%. c gray75",
"&. c #C0C0C0",
"*. c #C1C1C1",
"=. c gray76",
"-. c #C3C3C3",
";. c gray77",
":. c #C5C5C5",
">. c #C8C8C8",
",. c gray79",
"<. c #CACACA",
"1. c #CBCBCB",
"2. c gray80",
"3. c #CDCDCD",
"4. c #CECECE",
"5. c gray81",
"6. c #D0D0D0",
"7. c #D2D2D2",
"8. c LightGray",
"9. c gray83",
"0. c #D5D5D5",
"q. c gray84",
"w. c #D7D7D7",
"e. c #D8D8D8",
"r. c gray85",
"t. c #DADADA",
"y. c gray86",
"u. c gainsboro",
"i. c #DDDDDD",
"p. c gray87",
"a. c #DFDFDF",
"s. c gray88",
"d. c #E1E1E1",
"f. c #E2E2E2",
"g. c gray89",
"h. c #E4E4E4",
"j. c gray90",
"k. c #E6E6E6",
"l. c #E7E7E7",
"z. c gray91",
"x. c #E9E9E9",
"c. c #EAEAEA",
"v. c gray92",
"b. c #ECECEC",
"n. c gray93",
"m. c #EEEEEE",
"M. c #EFEFEF",
"N. c gray94",
"B. c #F1F1F1",
"V. c gray95",
"C. c #F3F3F3",
"Z. c #F4F4F4",
"A. c #F6F6F6",
"S. c gray97",
"D. c #F9F9F9",
"F. c gray98",
"G. c None",
/* pixels */
"G.G.G.G.G.G.G.G.G.G.G.G.G.G.G.G.G.G.G.G.G.G.G.G.G.G.G.G.G.G.G.G.G.G.G.G.G.G.G.G.G.G.G.G.G.G.G.G.G.G.G.G.G.G.G.G.G.G.G.G.G.G.G.G.",
"G.G.G.G.G.G.G.G.G.G.G.G.G.G.G.G.G.G.G.G.G.G.G.G.G.G.G.G.G.G.G.G.G.G.G.G.G.G.G.G.G.G.G.G.G.G.G.G.G.G.G.G.G.G.G.G.G.G.G.G.G.G.G.G.",
"G.G.G.G.G.G.G.G.G.G.G.G.G.G.G.G.G.G.G.G.G.G.G.G.G.G.G.G.G.G.G.G.G.G.G.G.G.G.G.G.G.G.G.G.G.G.G.G.G.G.G.G.G.G.G.G.G.G.G.G.G.G.G.G.",
"G.G.G.G.G.G.G.G.G.G.G.G.G.G.G.G.G.G.G.G.G.G.G.G.G.G.G.G.G.G.G.G.G.G.G.G.G.G.G.G.G.G.G.G.G.G.G.G.G.G.G.G.G.G.G.G.G.G.G.G.G.G.G.G.",
"G.G.G.G.G.G.G.G.G.G.G.G.G.G.G.G.G.G.G.G.G.G.G.G.G.G.G.6 7 7 7 7 7 7 7 7 6 G.G.G.G.G.G.G.G.G.G.G.G.G.G.G.G.G.G.G.G.G.G.G.G.G.G.G.",
"G.G.G.G.G.G.G.G.G.G.G.G.G.G.G.G.G.G.G.G.G.G.G.G.G.G.F U Y Y Y Y Y Y Y Y U F G.G.G.G.G.G.G.G.G.G.G.G.G.G.G.G.G.G.G.G.G.G.G.G.G.G.",
"G.G.G.G.G.G.G.G.G.G.G.G.G.G.G.G.G.G.G.G.G.G.G.G.y T %.6.9.9.9.9.9.9.8.8.5.$.Y y G.G.G.G.G.G.G.G.G.G.G.G.G.G.G.G.G.G.G.G.G.G.G.G.",
"G.G.G.G.G.G.G.G.G.G.G.G.G.G.G.G.G.G.G.G.G.G.G.G.L +.u.m.C.C.C.C.C.V.N.M.c.e.o.L G.G.G.G.G.G.G.G.G.G.G.G.G.G.G.G.G.G.G.G.G.G.G.G.",
"G.G.G.G.G.G.G.G.G.G.G.G.G.G.G.G.G.G.G.G.G.G.t J +.w.b.S.F.F.F.F.D.S.Z.V.M.k.9.O.J t G.G.G.G.G.G.G.G.G.G.G.G.G.G.G.G.G.G.G.G.G.G.",
"G.G.G.G.G.G.G.G.G.G.G.G.G.G.G.G.G.G.G.G.G.G.J  .8.z.V.A.S.S.S.S.A.Z.V.M.m.b.j.8. .J G.G.G.G.G.G.G.G.G.G.G.G.G.G.G.G.G.G.G.G.G.G.",
"G.G.G.G.G.G.G.G.G.G.G.G.G.G.G.G.G.G.G.G.G.N ..7.g.n.B.V.V.V.V.V.V.B.M.m.m.m.v.g.7...N G.G.G.G.G.G.G.G.G.G.G.G.G.G.G.G.G.G.G.G.G.",
"G.G.G.G.G.G.G.G.G.G.G.G.G.G.G.G.G.G.G.G.2 D :.f.v.m.M.M.M.M.M.M.M.M.m.m.m.m.n.v.f.:.D 2 G.G.G.G.G.G.G.G.G.G.G.G.G.G.G.G.G.G.G.G.",
"G.G.G.G.G.G.G.G.G.G.G.G.G.G.G.G.G.G.G.G.3 G ,.k.m.m.m.m.m.m.m.m.m.m.m.m.m.m.m.m.k.,.G 3 G.G.G.G.G.G.G.G.G.G.G.G.G.G.G.G.G.G.G.G.",
"G.G.G.G.G.G.G.G.G.G.G.G.G.G.G.G.G.G.G.G.3 G ,.k.m.m.m.m.m.m.m.m.m.m.m.m.m.m.m.m.k.,.G 3 G.G.G.G.G.G.G.G.G.G.G.G.G.G.G.G.G.G.G.G.",
"G.G.G.G.G.G.G.G.G.G.G.G.G.G.G.G.G.G.G.G.3 G ,.k.m.m.m.m.m.m.m.m.m.m.m.m.m.m.m.m.k.,.G 3 G.G.G.G.G.G.G.G.G.G.G.G.G.G.G.G.G.G.G.G.",
"G.G.G.G.G.G.G.G.G.G.G.G.G.G.G.G.G.G.G.G.3 G ,.k.m.m.m.m.m.m.m.m.m.m.m.m.m.m.m.m.k.,.G 3 G.G.G.G.G.G.G.G.G.G.G.G.G.G.G.G.G.G.G.G.",
"G.G.G.G.G.G.G.G.G.G.G.G.G.G.G.G.G.G.G.G.3 G ,.k.m.m.m.m.m.m.m.m.m.m.m.m.m.m.m.m.k.,.G 3 G.G.G.G.G.G.G.G.G.G.G.G.G.G.G.G.G.G.G.G.",
"G.G.G.G.G.G.G.G.G.G.G.G.G.G.G.G.G.G.G.G.3 G ,.k.m.m.m.m.m.m.m.m.m.m.m.m.m.m.m.m.k.,.G 3 G.G.G.G.G.G.G.G.G.G.G.G.G.G.G.G.G.G.G.G.",
"G.G.G.G.G.G.G.G.G.G.G.G.G.G.G.G.G.G.G.G.2 F >.j.n.m.m.m.m.m.m.m.m.m.m.m.m.m.m.m.k.,.G 3 G.G.G.G.G.G.G.G.G.G.G.G.G.G.G.G.G.G.G.G.",
"G.G.G.G.G.G.G.G.G.G.G.G.G.G.G.G.G.G.G.G., C =.d.v.n.m.m.m.m.m.m.m.m.m.m.m.m.m.m.k.,.G 3 G.G.G.G.G.G.G.G.G.G.G.G.G.G.G.G.G.G.G.G.",
"G.G.G.G.G.G.G.G.G.G.G.G.G.G.G.G.G.G.G.G.; b O.t.z.n.m.m.m.m.m.m.m.m.m.m.m.m.m.n.j.>.F 2 G.G.G.G.G.G.G.G.G.G.G.G.G.G.G.G.G.G.G.G.",
"G.G.G.G.G.G.G.G.G.G.G.G.G.G.G.G.G.G.G.G.= l } 0.j.b.m.m.m.m.m.m.m.m.m.m.m.m.n.v.s.=.C , G.G.G.G.G.G.G.G.G.G.G.G.G.G.G.G.G.G.G.G.",
"G.G.G.G.G.G.G.G.G.G.G.G.G.G.G.G.G.G.G.G.& h ` 5.d.c.n.m.m.m.m.m.m.m.m.m.m.n.v.h.q...v ; G.G.G.G.G.G.G.G.G.G.G.G.G.G.G.G.G.G.G.G.",
"G.G.G.G.G.G.G.G.G.G.G.G.G.G.G.G.G.G.G.G.G.s W %.q.j.v.n.m.m.m.m.m.m.m.m.n.v.j.w.*.Q d G.G.G.G.G.G.G.G.G.G.G.G.G.G.G.G.G.G.G.G.G.",
"G.G.G.G.G.G.G.G.G.G.G.G.G.G.G.G.G.G.G.G.G.w l Q ;.y.k.v.b.n.n.m.m.m.m.n.v.j.e.*.Q x G.G.G.G.G.G.G.G.G.G.G.G.G.G.G.G.G.G.G.G.G.G.",
"G.G.G.G.G.G.G.G.G.G.G.G.G.G.G.G.G.G.G.G.G.G.8 m  .7.a.h.j.z.v.n.m.m.n.v.j.w.*.~ x q G.G.G.G.G.G.G.G.G.G.G.G.G.G.G.G.G.G.G.G.G.G.",
"G.G.G.G.G.G.G.G.G.G.G.G.G.G.G.G.G.G.G.G.G.G.8 n { 3.e.y.i.f.z.n.m.m.n.z.i.>.( B t G.G.G.G.G.G.G.G.G.G.G.G.G.G.G.G.G.G.G.G.G.G.G.",
"G.G.G.G.G.G.G.G.G.G.G.G.G.G.G.G.G.G.G.G.G.w j R +.5.e.y.i.f.z.n.m.m.n.z.p.1.[ K s G.G.G.G.G.G.G.G.G.G.G.G.G.G.G.G.G.G.G.G.G.G.G.",
"G.G.G.G.G.G.G.G.G.G.G.G.G.G.G.G.G.G.G.G.G.d W o.,.q.a.h.j.z.v.n.m.m.n.v.k.i.5.X.J t G.G.G.G.G.G.G.G.G.G.G.G.G.G.G.G.G.G.G.G.G.G.",
"G.G.G.G.G.G.G.G.G.G.G.G.G.G.G.G.G.G.G.G.; v  .5.e.a.k.v.b.n.n.m.m.m.m.n.b.c.h.7. .J G.G.G.G.G.G.G.G.G.G.G.G.G.G.G.G.G.G.G.G.G.G.",
"G.G.G.G.G.G.G.G.G.G.G.G.G.G.G.G.G.G.G.G.> V %.r.s.g.x.n.m.m.m.m.m.m.m.m.n.v.l.p.5. .N G.G.G.G.G.G.G.G.G.G.G.G.G.G.G.G.G.G.G.G.G.",
"G.G.G.G.G.G.G.G.G.G.G.G.G.G.G.G.G.G.G.G.> V #.8.8.q.f.v.m.m.m.m.m.m.m.m.b.g.e.0.q.=.D 2 G.G.G.G.G.G.G.G.G.G.G.G.G.G.G.G.G.G.G.G.",
"G.G.G.G.G.G.G.G.G.G.G.G.G.G.G.G.G.G.G.G.; b { $.{ o.q.x.m.m.m.m.m.m.m.m.x.q.+.+.3.-.G 3 G.G.G.G.G.G.G.G.G.G.G.G.G.G.G.G.G.G.G.G.",
"G.G.G.G.G.G.G.G.G.G.G.G.G.G.G.G.G.G.G.G.= k / _ J W 2.l.m.m.m.m.m.m.m.m.l.2.! ! -.&.G 3 G.G.G.G.G.G.G.G.G.G.G.G.G.G.G.G.G.G.G.G.",
"G.G.G.G.G.G.G.G.G.G.G.G.G.G.G.G.G.G.G.G.* j ~ ^ B I ,.k.m.m.m.m.m.m.m.n.j.>.Y Y &.&.G 3 G.G.G.G.G.G.G.G.G.G.G.G.G.G.G.G.G.G.G.G.",
"G.G.G.G.G.G.G.G.G.G.G.G.G.G.G.G.G.G.G.G.* j ~ ~ B P ,.k.m.m.m.m.m.m.n.v.d.=.L U %.%.F 3 G.G.G.G.G.G.G.G.G.G.G.G.G.G.G.G.G.G.G.G.",
"G.G.G.G.G.G.G.G.G.G.G.G.G.G.G.G.G.G.G.G.& g ! Q n P ,.k.m.m.m.m.m.m.n.z.t.O.S J O.+.D 2 G.G.G.G.G.G.G.G.G.G.G.G.G.G.G.G.G.G.G.G.",
"G.G.G.G.G.G.G.G.G.G.G.G.G.G.G.G.G.G.G.G.G.a G Z f J ,.k.m.m.m.m.m.m.b.j.0.} m c ! / M G.G.G.G.G.G.G.G.G.G.G.G.G.G.G.G.G.G.G.G.G.",
"G.G.G.G.G.G.G.G.G.G.G.G.G.G.G.G.G.G.G.G.G.G.u r w F ,.k.m.m.m.n.n.b.c.g.8.[ l e s z G.G.G.G.G.G.G.G.G.G.G.G.G.G.G.G.G.G.G.G.G.G.",
"G.G.G.G.G.G.G.G.G.G.G.G.G.G.G.G.G.G.G.G.G.G.@ o < S ,.k.m.m.n.v.z.j.g.p.6.[ h - + ; G.G.G.G.G.G.G.G.G.G.G.G.G.G.G.G.G.G.G.G.G.G.",
"G.G.G.G.G.G.G.G.G.G.G.G.G.G.G.G.G.G.G.G.G.G.G.. > F ,.k.n.b.z.d.t.w.w.q.2.] h $   G.G.G.G.G.G.G.G.G.G.G.G.G.G.G.G.G.G.G.G.G.G.G.",
"G.G.G.G.G.G.G.G.G.G.G.G.G.G.G.G.G.G.G.G.G.G.G.G.1 G ,.k.v.g.9.:.@.$.>.4.,.' j & G.G.G.G.G.G.G.G.G.G.G.G.G.G.G.G.G.G.G.G.G.G.G.G.",
"G.G.G.G.G.G.G.G.G.G.G.G.G.G.G.G.G.G.G.G.G.G.G.G.3 G ,.k.l.9.{ F N R o.>.;.) h & G.G.G.G.G.G.G.G.G.G.G.G.G.G.G.G.G.G.G.G.G.G.G.G.",
"G.G.G.G.G.G.G.G.G.G.G.G.G.G.G.G.G.G.G.G.G.G.G.G.3 G >.g.d.:.F 9 4 x ` %...E s G.G.G.G.G.G.G.G.G.G.G.G.G.G.G.G.G.G.G.G.G.G.G.G.G.",
"G.G.G.G.G.G.G.G.G.G.G.G.G.G.G.G.G.G.G.G.G.G.G.G.3 H >.s.t.O.z @ O d ~ ' T l G.G.G.G.G.G.G.G.G.G.G.G.G.G.G.G.G.G.G.G.G.G.G.G.G.G.",
"G.G.G.G.G.G.G.G.G.G.G.G.G.G.G.G.G.G.G.G.G.G.G.G.4 K <.s.q.| h + o i J P l 0 G.G.G.G.G.G.G.G.G.G.G.G.G.G.G.G.G.G.G.G.G.G.G.G.G.G.",
"G.G.G.G.G.G.G.G.G.G.G.G.G.G.G.G.G.G.G.G.G.G.G.G.5 L ,.u.6.' g # X 0 p p G.G.G.G.G.G.G.G.G.G.G.G.G.G.G.G.G.G.G.G.G.G.G.G.G.G.G.G.",
"G.G.G.G.G.G.G.G.G.G.G.G.G.G.G.G.G.G.G.G.G.G.G.G.G.S X.-.X.E s % G.G.G.G.G.G.G.G.G.G.G.G.G.G.G.G.G.G.G.G.G.G.G.G.G.G.G.G.G.G.G.G.",
"G.G.G.G.G.G.G.G.G.G.G.G.G.G.G.G.G.G.G.G.G.G.G.G.G.G.A D m f G.G.G.G.G.G.G.G.G.G.G.G.G.G.G.G.G.G.G.G.G.G.G.G.G.G.G.G.G.G.G.G.G.G.",
"G.G.G.G.G.G.G.G.G.G.G.G.G.G.G.G.G.G.G.G.G.G.G.G.G.G.G.2 : G.G.G.G.G.G.G.G.G.G.G.G.G.G.G.G.G.G.G.G.G.G.G.G.G.G.G.G.G.G.G.G.G.G.G.",
"G.G.G.G.G.G.G.G.G.G.G.G.G.G.G.G.G.G.G.G.G.G.G.G.G.G.G.G.G.G.G.G.G.G.G.G.G.G.G.G.G.G.G.G.G.G.G.G.G.G.G.G.G.G.G.G.G.G.G.G.G.G.G.G.",
"G.G.G.G.G.G.G.G.G.G.G.G.G.G.G.G.G.G.G.G.G.G.G.G.G.G.G.G.G.G.G.G.G.G.G.G.G.G.G.G.G.G.G.G.G.G.G.G.G.G.G.G.G.G.G.G.G.G.G.G.G.G.G.G.",
"G.G.G.G.G.G.G.G.G.G.G.G.G.G.G.G.G.G.G.G.G.G.G.G.G.G.G.G.G.G.G.G.G.G.G.G.G.G.G.G.G.G.G.G.G.G.G.G.G.G.G.G.G.G.G.G.G.G.G.G.G.G.G.G.",
"G.G.G.G.G.G.G.G.G.G.G.G.G.G.G.G.G.G.G.G.G.G.G.G.G.G.G.G.G.G.G.G.G.G.G.G.G.G.G.G.G.G.G.G.G.G.G.G.G.G.G.G.G.G.G.G.G.G.G.G.G.G.G.G.",
"G.G.G.G.G.G.G.G.G.G.G.G.G.G.G.G.G.G.G.G.G.G.G.G.G.G.G.G.G.G.G.G.G.G.G.G.G.G.G.G.G.G.G.G.G.G.G.G.G.G.G.G.G.G.G.G.G.G.G.G.G.G.G.G.",
"G.G.G.G.G.G.G.G.G.G.G.G.G.G.G.G.G.G.G.G.G.G.G.G.G.G.G.G.G.G.G.G.G.G.G.G.G.G.G.G.G.G.G.G.G.G.G.G.G.G.G.G.G.G.G.G.G.G.G.G.G.G.G.G.",
"G.G.G.G.G.G.G.G.G.G.G.G.G.G.G.G.G.G.G.G.G.G.G.G.G.G.G.G.G.G.G.G.G.G.G.G.G.G.G.G.G.G.G.G.G.G.G.G.G.G.G.G.G.G.G.G.G.G.G.G.G.G.G.G.",
"G.G.G.G.G.G.G.G.G.G.G.G.G.G.G.G.G.G.G.G.G.G.G.G.G.G.G.G.G.G.G.G.G.G.G.G.G.G.G.G.G.G.G.G.G.G.G.G.G.G.G.G.G.G.G.G.G.G.G.G.G.G.G.G.",
"G.G.G.G.G.G.G.G.G.G.G.G.G.G.G.G.G.G.G.G.G.G.G.G.G.G.G.G.G.G.G.G.G.G.G.G.G.G.G.G.G.G.G.G.G.G.G.G.G.G.G.G.G.G.G.G.G.G.G.G.G.G.G.G.",
"G.G.G.G.G.G.G.G.G.G.G.G.G.G.G.G.G.G.G.G.G.G.G.G.G.G.G.G.G.G.G.G.G.G.G.G.G.G.G.G.G.G.G.G.G.G.G.G.G.G.G.G.G.G.G.G.G.G.G.G.G.G.G.G.",
"G.G.G.G.G.G.G.G.G.G.G.G.G.G.G.G.G.G.G.G.G.G.G.G.G.G.G.G.G.G.G.G.G.G.G.G.G.G.G.G.G.G.G.G.G.G.G.G.G.G.G.G.G.G.G.G.G.G.G.G.G.G.G.G.",
"G.G.G.G.G.G.G.G.G.G.G.G.G.G.G.G.G.G.G.G.G.G.G.G.G.G.G.G.G.G.G.G.G.G.G.G.G.G.G.G.G.G.G.G.G.G.G.G.G.G.G.G.G.G.G.G.G.G.G.G.G.G.G.G.",
"G.G.G.G.G.G.G.G.G.G.G.G.G.G.G.G.G.G.G.G.G.G.G.G.G.G.G.G.G.G.G.G.G.G.G.G.G.G.G.G.G.G.G.G.G.G.G.G.G.G.G.G.G.G.G.G.G.G.G.G.G.G.G.G.",
"G.G.G.G.G.G.G.G.G.G.G.G.G.G.G.G.G.G.G.G.G.G.G.G.G.G.G.G.G.G.G.G.G.G.G.G.G.G.G.G.G.G.G.G.G.G.G.G.G.G.G.G.G.G.G.G.G.G.G.G.G.G.G.G."
};
