/* XPM */
static char *result[] = {
/* columns rows colors chars-per-pixel */
"64 64 171 2 ",
"   c #222222",
".  c gray19",
"X  c gray20",
"o  c gray21",
"O  c #3F3F3F",
"+  c #434343",
"@  c gray27",
"#  c gray28",
"$  c #484848",
"%  c #4E4E4E",
"&  c gray31",
"*  c gray32",
"=  c gray33",
"-  c #555555",
";  c #565656",
":  c #585858",
">  c gray35",
",  c #5A5A5A",
"<  c #5B5B5B",
"1  c gray36",
"2  c #5D5D5D",
"3  c gray37",
"4  c #5F5F5F",
"5  c #606060",
"6  c gray38",
"7  c #626262",
"8  c gray39",
"9  c #646464",
"0  c #656565",
"q  c gray40",
"w  c #676767",
"e  c #686868",
"r  c DimGray",
"t  c #6A6A6A",
"y  c gray42",
"u  c #6C6C6C",
"i  c #6D6D6D",
"p  c gray43",
"a  c gray44",
"s  c #717171",
"d  c #727272",
"f  c gray45",
"g  c #767676",
"h  c #777777",
"j  c gray47",
"k  c #797979",
"l  c gray48",
"z  c #7B7B7B",
"x  c #7C7C7C",
"c  c gray49",
"v  c #7E7E7E",
"b  c gray50",
"n  c #808080",
"m  c #818181",
"M  c gray51",
"N  c #838383",
"B  c #848484",
"V  c gray52",
"C  c #868686",
"Z  c gray53",
"A  c #888888",
"S  c #898989",
"D  c gray54",
"F  c gray55",
"G  c #8E8E8E",
"H  c gray56",
"J  c #909090",
"K  c gray57",
"L  c #929292",
"P  c #939393",
"I  c gray58",
"U  c #959595",
"Y  c #979797",
"T  c #989898",
"R  c gray60",
"E  c #9A9A9A",
"W  c #9B9B9B",
"Q  c gray61",
"!  c #9D9D9D",
"~  c gray62",
"^  c #9F9F9F",
"/  c #A0A0A0",
"(  c gray63",
")  c #A2A2A2",
"_  c gray64",
"`  c #A4A4A4",
"'  c #A5A5A5",
"]  c gray65",
"[  c #A7A7A7",
"{  c gray66",
"}  c #A9A9A9",
"|  c #AAAAAA",
" . c #ACACAC",
".. c gray68",
"X. c #AEAEAE",
"o. c #AFAFAF",
"O. c gray69",
"+. c #B1B1B1",
"@. c #B2B2B2",
"#. c gray70",
"$. c #B4B4B4",
"%. c gray71",
"&. c #B7B7B7",
"*. c gray72",
"=. c #B9B9B9",
"-. c gray73",
";. c #BBBBBB",
":. c #BCBCBC",
">. c gray74",
",. c gray",
"<. c gray75",
"1. c #C1C1C1",
"2. c gray76",
"3. c #C3C3C3",
"4. c gray77",
"5. c #C5C5C5",
"6. c #C6C6C6",
"7. c gray78",
"8. c #C8C8C8",
"9. c gray79",
"0. c #CACACA",
"q. c #CBCBCB",
"w. c gray80",
"e. c #CDCDCD",
"r. c #CECECE",
"t. c gray81",
"y. c #D0D0D0",
"u. c gray82",
"i. c #D2D2D2",
"p. c LightGray",
"a. c gray83",
"s. c #D5D5D5",
"d. c gray84",
"f. c #D7D7D7",
"g. c #D8D8D8",
"h. c gray85",
"j. c #DADADA",
"k. c gray86",
"l. c gainsboro",
"z. c #DDDDDD",
"x. c gray87",
"c. c #DFDFDF",
"v. c gray88",
"b. c #E1E1E1",
"n. c #E2E2E2",
"m. c gray89",
"M. c #E4E4E4",
"N. c gray90",
"B. c #E6E6E6",
"V. c #E7E7E7",
"C. c gray91",
"Z. c #E9E9E9",
"A. c #EAEAEA",
"S. c gray92",
"D. c #ECECEC",
"F. c gray93",
"G. c #EEEEEE",
"H. c #EFEFEF",
"J. c gray94",
"K. c #F1F1F1",
"L. c gray95",
"P. c #F3F3F3",
"I. c #F4F4F4",
"U. c gray96",
"Y. c #F6F6F6",
"T. c gray97",
"R. c #F8F8F8",
"E. c #F9F9F9",
"W. c gray98",
"Q. c #FBFBFB",
"!. c None",
/* pixels */
"!.!.!.!.!.!.!.!.!.!.!.!.!.!.!.!.!.!.!.!.!.!.!.!.!.!.!.!.!.!.!.!.!.!.!.!.!.!.!.!.!.!.!.!.!.!.!.!.!.!.!.!.!.!.!.!.!.!.!.!.!.!.!.!.",
"!.!.!.!.!.!.!.!.!.!.!.!.!.!.!.!.!.!.!.!.!.!.!.!.!.!.!.!.!.!.!.!.!.!.!.!.!.!.!.!.!.!.!.!.!.!.!.!.!.!.!.!.!.!.!.!.!.!.!.!.!.!.!.!.",
"!.!.!.!.!.!.!.!.!.!.!.!.!.!.!.!.!.!.!.!.!.!.!.!.!.!.!.!.!.!.!.!.!.!.!.!.!.!.!.!.!.!.!.!.!.!.!.!.!.!.!.!.!.!.!.!.!.!.!.!.!.!.!.!.",
"!.!.!.!.!.!.!.!.!.!.!.!.!.!.!.!.!.!.!.!.!.!.!.!.!.!.!.!.!.!.!.!.!.!.!.!.!.!.!.!.!.!.!.!.!.!.!.!.!.!.!.!.!.!.!.!.!.!.!.!.!.!.!.!.",
"!.!.!.!.!.!.!.!.!.!.!.!.!.!.!.!.!.!.!.!.!.!.!.!.!.!.!.!.!.!.!.!.!.!.!.!.!.!.!.!.!.!.!.!.!.!.!.!.!.!.!.!.!.!.!.!.!.!.!.!.!.!.!.!.",
"!.!.!.!.!.!.!.!.!.!.!.!.!.!.!.!.!.!.!.!.!.!.!.!.!.!.!.!.!.!.!.!.!.!.!.!.!.!.!.!.!.!.!.!.!.!.!.!.!.!.!.!.!.!.!.!.!.!.!.!.!.!.!.!.",
"!.!.!.!.!.!.!.!.!.!.!.!.!.!.!.!.!.!.!.!.!.!.!.!.!.!.!.!.!.!.!.!.!.!.!.!.!.!.!.!.!.!.!.!.!.!.!.!.!.!.!.!.!.!.!.!.!.!.!.!.!.!.!.!.",
"!.!.!.!.!.!.!.!.!.!.!.!.!.!.!.!.!.!.!.!.!.!.!.!.!.!.!.!.!.!.!.!.!.!.!.!.!.!.!.!.!.!.!.!.!.!.!.!.!.!.!.!.!.!.!.!.!.!.!.!.!.!.!.!.",
"!.!.!.!.!.!.!.!.!.!.!.!.!.!.!.!.!.!.!.!.!.!.!.!.!.!.@ # $ $ $ $ $ $ $ $ !.!.!.!.!.!.!.!.!.!.!.!.!.!.!.!.!.!.!.!.!.!.!.!.!.!.!.!.",
"!.!.!.!.!.!.!.!.!.!.!.!.!.!.!.!.!.!.!.!.!.!.!.!.!.x M V Z Z Z Z Z Z Z C M !.!.!.!.!.!.!.!.!.!.!.!.!.!.!.!.!.!.!.!.!.!.!.!.!.!.!.",
"!.!.!.!.!.!.!.!.!.!.!.!.!.!.!.!.!.!.!.!.!.!.!.!.I X.:.1.3.4.4.4.4.4.4.1.%.E !.!.!.!.!.!.!.!.!.!.!.!.!.!.!.!.!.!.!.!.!.!.!.!.!.!.",
"!.!.!.!.!.!.!.!.!.!.!.!.!.!.!.!.!.!.!.!.!.!.!.H @.y.b.C.S.D.D.D.D.D.S.C.g.=.U !.!.!.!.!.!.!.!.!.!.!.!.!.!.!.!.!.!.!.!.!.!.!.!.!.",
"!.!.!.!.!.!.!.!.!.!.!.!.!.!.!.!.!.!.!.!.!.!.U $.r.n.H.Y.R.E.E.E.E.E.E.T.D.f.:.E !.!.!.!.!.!.!.!.!.!.!.!.!.!.!.!.!.!.!.!.!.!.!.!.",
"!.!.!.!.!.!.!.!.!.!.!.!.!.!.!.!.!.!.!.!.!.G @.y.n.S.K.Y.E.W.Q.Q.Q.Q.Q.W.Y.F.h.&.J !.!.!.!.!.!.!.!.!.!.!.!.!.!.!.!.!.!.!.!.!.!.!.",
"!.!.!.!.!.!.!.!.!.!.!.!.!.!.!.!.!.!.!.!.L #.e.b.S.G.J.P.Y.E.W.Q.Q.Q.Q.Q.W.T.A.i.$.J !.!.!.!.!.!.!.!.!.!.!.!.!.!.!.!.!.!.!.!.!.!.",
"!.!.!.!.!.!.!.!.!.!.!.!.!.!.!.!.!.!.!.t _ w.b.A.F.G.H.J.P.Y.R.E.E.E.E.W.W.R.L.N.q./ q !.!.!.!.!.!.!.!.!.!.!.!.!.!.!.!.!.!.!.!.!.",
"!.!.!.!.!.!.!.!.!.!.!.!.!.!.!.!.!.!.!.u { s.Z.F.G.G.G.H.K.P.I.U.U.U.Y.R.E.T.P.S.p.` e !.!.!.!.!.!.!.!.!.!.!.!.!.!.!.!.!.!.!.!.!.",
"!.!.!.!.!.!.!.!.!.!.!.!.!.!.!.!.!.!.!.u } d.A.G.G.G.G.G.H.J.J.J.J.K.P.Y.Y.I.K.S.a.' e !.!.!.!.!.!.!.!.!.!.!.!.!.!.!.!.!.!.!.!.!.",
"!.!.!.!.!.!.!.!.!.!.!.!.!.!.!.!.!.!.!.u } d.A.G.G.G.G.G.G.G.G.G.G.H.J.L.P.K.H.A.a.' e !.!.!.!.!.!.!.!.!.!.!.!.!.!.!.!.!.!.!.!.!.",
"!.!.!.!.!.!.!.!.!.!.!.!.!.!.!.!.!.!.!.u } d.A.G.G.G.G.G.G.G.G.G.G.G.H.J.J.H.G.A.a.' e !.!.!.!.!.!.!.!.!.!.!.!.!.!.!.!.!.!.!.!.!.",
"!.!.!.!.!.!.!.!.!.!.!.!.!.!.!.!.!.!.!.u } d.A.G.F.F.F.G.G.G.G.G.G.G.G.G.G.G.G.Z.a.' e !.!.!.!.!.!.!.!.!.!.!.!.!.!.!.!.!.!.!.!.!.",
"!.!.!.!.!.!.!.!.!.!.!.!.!.!.!.!.!.!.!.u } d.A.D.Z.N.B.A.F.G.G.G.G.G.G.G.G.G.F.V.u.) q !.!.!.!.!.!.!.!.!.!.!.!.!.!.!.!.!.!.!.!.!.",
"!.!.!.!.!.!.!.!.!.!.!.!.!.!.!.!.!.!.!.u } d.A.Z.l.t.i.n.S.G.G.G.G.G.G.G.G.F.S.n.0.Q 7 !.!.!.!.!.!.!.!.!.!.!.!.!.!.!.!.!.!.!.!.!.",
"!.!.!.!.!.!.!.!.!.!.!.!.!.!.!.!.!.!.!.u } d.Z.M.q.o.*.f.Z.G.G.G.G.G.G.G.F.S.B.k.2.U 2 !.!.!.!.!.!.!.!.!.!.!.!.!.!.!.!.!.!.!.!.!.",
"!.!.!.!.!.!.!.!.!.!.!.!.!.!.!.!.!.!.!.u } d.Z.n.1.Q { u.C.G.G.G.G.G.G.F.S.B.c.a.;.J , !.!.!.!.!.!.!.!.!.!.!.!.!.!.!.!.!.!.!.!.!.",
"!.!.!.!.!.!.!.!.!.!.!.!.!.!.!.!.!.!.!.u } d.Z.m.4.) ..p.Z.G.G.G.G.G.G.F.C.c.s.0.$.F > !.!.!.!.!.!.!.!.!.!.!.!.!.!.!.!.!.!.!.!.!.",
"!.!.!.!.!.!.!.!.!.!.!.!.!.!.!.!.!.!.!.u } d.Z.B.i.>.4.k.A.G.G.G.G.G.G.D.B.j.q.*.) m ; !.!.!.!.!.!.!.!.!.!.!.!.!.!.!.!.!.!.!.!.!.",
"!.!.!.!.!.!.!.!.!.!.!.!.!.!.!.!.!.!.!.u } d.A.S.n.k.z.B.D.G.G.G.G.G.F.A.n.p.>./ N r !.!.!.!.!.!.!.!.!.!.!.!.!.!.!.!.!.!.!.!.!.!.",
"!.!.!.!.!.!.!.!.!.!.!.!.!.!.!.!.!.!.!.u { d.A.F.D.A.S.D.G.G.G.G.G.F.S.M.f.1.] Z 8 !.!.!.!.!.!.!.!.!.!.!.!.!.!.!.!.!.!.!.!.!.!.!.",
"!.!.!.!.!.!.!.!.!.!.!.!.!.!.!.!.!.!.!.y ] u.N.A.D.F.G.G.G.G.G.G.F.S.N.g.3.' C t !.!.!.!.!.!.!.!.!.!.!.!.!.!.!.!.!.!.!.!.!.!.!.!.",
"!.!.!.!.!.!.!.!.!.!.!.!.!.!.!.!.!.!.!.e E ,.i.c.V.D.G.G.G.G.G.F.S.N.g.3.{ A 9 !.!.!.!.!.!.!.!.!.!.!.!.!.!.!.!.!.!.!.!.!.!.!.!.!.",
"!.!.!.!.!.!.!.!.!.!.!.!.!.!.!.!.!.!.!.!.n E #.q.l.C.F.G.G.G.G.F.Z.x.8.[ V r !.!.!.!.!.!.!.!.!.!.!.!.!.!.!.!.!.!.!.!.!.!.!.!.!.!.",
"!.!.!.!.!.!.!.!.!.!.!.!.!.!.!.!.!.!.!.!.!.s K O.w.b.D.G.G.G.H.H.S.x.1.I 9 !.!.!.!.!.!.!.!.!.!.!.!.!.!.!.!.!.!.!.!.!.!.!.!.!.!.!.",
"!.!.!.!.!.!.!.!.!.!.!.!.!.!.!.!.!.!.!.!.!.!.a J &.h.A.G.G.G.G.G.D.n.8.W t !.!.!.!.!.!.!.!.!.!.!.!.!.!.!.!.!.!.!.!.!.!.!.!.!.!.!.",
"!.!.!.!.!.!.!.!.!.!.!.!.!.!.!.!.!.!.!.!.!.!.!.d [ p.Z.G.G.D.V.v.c.v.p.%.P g !.!.!.!.!.!.!.!.!.!.!.!.!.!.!.!.!.!.!.!.!.!.!.!.!.!.",
"!.!.!.!.!.!.!.!.!.!.!.!.!.!.!.!.!.!.!.!.!.!.!.9 ) i.Z.G.G.Z.g.2.2.s.z.u.&.K 2 !.!.!.!.!.!.!.!.!.!.!.!.!.!.!.!.!.!.!.!.!.!.!.!.!.",
"!.!.!.!.!.!.!.!.!.!.!.!.!.!.!.!.!.!.!.!.!.!.  5 / u.Z.G.G.B.w.] ] q.m.n.0.W 5 !.!.!.!.!.!.!.!.!.!.!.!.!.!.!.!.!.!.!.!.!.!.!.!.!.",
"!.!.!.!.!.!.!.!.!.!.!.!.!.!.!.!.!.!.!.!.!.o X 4 / u.Z.G.G.N.8.Q W 6.M.V.t.! 5 !.!.!.!.!.!.!.!.!.!.!.!.!.!.!.!.!.!.!.!.!.!.!.!.!.",
"!.!.!.!.!.!.!.!.!.!.!.!.!.!.!.!.!.!.!.!.9 q , e / u.Z.G.G.N.7.E Y 2.v.N.r.~ 5 !.!.!.!.!.!.!.!.!.!.!.!.!.!.!.!.!.!.!.!.!.!.!.!.!.",
"!.!.!.!.!.!.!.!.!.!.!.!.!.!.!.!.!.!.!.: n G n h ) u.Z.G.G.N.8.Q I *.f.v.e.! 5 !.!.!.!.!.!.!.!.!.!.!.!.!.!.!.!.!.!.!.!.!.!.!.!.!.",
"!.!.!.!.!.!.!.!.!.!.!.!.!.!.!.!.!.!.!.1 F ` Y N _ u.Z.G.G.V.r.{ Y  .8.f.0.! 5 !.!.!.!.!.!.!.!.!.!.!.!.!.!.!.!.!.!.!.!.!.!.!.!.!.",
"!.!.!.!.!.!.!.!.!.!.!.!.!.!.!.!.!.!.!.2 H } Q V _ u.C.G.G.Z.h.,.` ! @.0.6.Q 5 !.!.!.!.!.!.!.!.!.!.!.!.!.!.!.!.!.!.!.!.!.!.!.!.!.",
"!.!.!.!.!.!.!.!.!.!.!.!.!.!.!.!.!.!.!.< S ! H c ^ e.N.D.G.S.m.u.$.U Q :.<.T 2 !.!.!.!.!.!.!.!.!.!.!.!.!.!.!.!.!.!.!.!.!.!.!.!.!.",
"!.!.!.!.!.!.!.!.!.!.!.!.!.!.!.!.!.!.!.!.g b s u Y 6.v.A.F.F.Z.z.<.I G X.$.K > !.!.!.!.!.!.!.!.!.!.!.!.!.!.!.!.!.!.!.!.!.!.!.!.!.",
"!.!.!.!.!.!.!.!.!.!.!.!.!.!.!.!.!.!.!.!.!.* # < L 2.z.Z.F.F.A.v.2.I m E ) C = !.!.!.!.!.!.!.!.!.!.!.!.!.!.!.!.!.!.!.!.!.!.!.!.!.",
"!.!.!.!.!.!.!.!.!.!.!.!.!.!.!.!.!.!.!.!.!.!.. 3 R 8.b.A.F.D.C.l.,.H p k M f !.!.!.!.!.!.!.!.!.!.!.!.!.!.!.!.!.!.!.!.!.!.!.!.!.!.",
"!.!.!.!.!.!.!.!.!.!.!.!.!.!.!.!.!.!.!.!.!.!.- z | i.V.D.D.Z.n.s.;.I i < ; !.!.!.!.!.!.!.!.!.!.!.!.!.!.!.!.!.!.!.!.!.!.!.!.!.!.!.",
"!.!.!.!.!.!.!.!.!.!.!.!.!.!.!.!.!.!.!.!.!.!.x ^ 1.l.A.D.Z.n.k.u.2.| D 9 O !.!.!.!.!.!.!.!.!.!.!.!.!.!.!.!.!.!.!.!.!.!.!.!.!.!.!.",
"!.!.!.!.!.!.!.!.!.!.!.!.!.!.!.!.!.!.!.!.!.< H *.a.M.D.D.N.l.s.y.0.<.' l $ !.!.!.!.!.!.!.!.!.!.!.!.!.!.!.!.!.!.!.!.!.!.!.!.!.!.!.",
"!.!.!.!.!.!.!.!.!.!.!.!.!.!.!.!.!.!.!.!.!.6 E 7.v.A.D.A.n.g.u.t.r.8.O.B % !.!.!.!.!.!.!.!.!.!.!.!.!.!.!.!.!.!.!.!.!.!.!.!.!.!.!.",
"!.!.!.!.!.!.!.!.!.!.!.!.!.!.!.!.!.!.!.!.!.0 ( y.B.S.C.v.s.q.8.q.r.9.@.V & !.!.!.!.!.!.!.!.!.!.!.!.!.!.!.!.!.!.!.!.!.!.!.!.!.!.!.",
"!.!.!.!.!.!.!.!.!.!.!.!.!.!.!.!.!.!.!.!.!.w ` i.V.V.j.5.@.| @.1.q.8.+.V & !.!.!.!.!.!.!.!.!.!.!.!.!.!.!.!.!.!.!.!.!.!.!.!.!.!.!.",
"!.!.!.!.!.!.!.!.!.!.!.!.!.!.!.!.!.!.!.!.!.w / 9.k.h.4.( m x I O.2.4.O.V & !.!.!.!.!.!.!.!.!.!.!.!.!.!.!.!.!.!.!.!.!.!.!.!.!.!.!.",
"!.!.!.!.!.!.!.!.!.!.!.!.!.!.!.!.!.!.!.!.!.!.K ..&.%.' M = * j T X.-...V & !.!.!.!.!.!.!.!.!.!.!.!.!.!.!.!.!.!.!.!.!.!.!.!.!.!.!.",
"!.!.!.!.!.!.!.!.!.!.!.!.!.!.!.!.!.!.!.!.!.!.!.x b v j !.!.!.!.h P } ` M & !.!.!.!.!.!.!.!.!.!.!.!.!.!.!.!.!.!.!.!.!.!.!.!.!.!.!.",
"!.!.!.!.!.!.!.!.!.!.!.!.!.!.!.!.!.!.!.!.!.!.!.!.+ + !.!.!.!.!.!.k H H h !.!.!.!.!.!.!.!.!.!.!.!.!.!.!.!.!.!.!.!.!.!.!.!.!.!.!.!.",
"!.!.!.!.!.!.!.!.!.!.!.!.!.!.!.!.!.!.!.!.!.!.!.!.!.!.!.!.!.!.!.!.!.t t !.!.!.!.!.!.!.!.!.!.!.!.!.!.!.!.!.!.!.!.!.!.!.!.!.!.!.!.!.",
"!.!.!.!.!.!.!.!.!.!.!.!.!.!.!.!.!.!.!.!.!.!.!.!.!.!.!.!.!.!.!.!.!.!.!.!.!.!.!.!.!.!.!.!.!.!.!.!.!.!.!.!.!.!.!.!.!.!.!.!.!.!.!.!.",
"!.!.!.!.!.!.!.!.!.!.!.!.!.!.!.!.!.!.!.!.!.!.!.!.!.!.!.!.!.!.!.!.!.!.!.!.!.!.!.!.!.!.!.!.!.!.!.!.!.!.!.!.!.!.!.!.!.!.!.!.!.!.!.!.",
"!.!.!.!.!.!.!.!.!.!.!.!.!.!.!.!.!.!.!.!.!.!.!.!.!.!.!.!.!.!.!.!.!.!.!.!.!.!.!.!.!.!.!.!.!.!.!.!.!.!.!.!.!.!.!.!.!.!.!.!.!.!.!.!.",
"!.!.!.!.!.!.!.!.!.!.!.!.!.!.!.!.!.!.!.!.!.!.!.!.!.!.!.!.!.!.!.!.!.!.!.!.!.!.!.!.!.!.!.!.!.!.!.!.!.!.!.!.!.!.!.!.!.!.!.!.!.!.!.!.",
"!.!.!.!.!.!.!.!.!.!.!.!.!.!.!.!.!.!.!.!.!.!.!.!.!.!.!.!.!.!.!.!.!.!.!.!.!.!.!.!.!.!.!.!.!.!.!.!.!.!.!.!.!.!.!.!.!.!.!.!.!.!.!.!.",
"!.!.!.!.!.!.!.!.!.!.!.!.!.!.!.!.!.!.!.!.!.!.!.!.!.!.!.!.!.!.!.!.!.!.!.!.!.!.!.!.!.!.!.!.!.!.!.!.!.!.!.!.!.!.!.!.!.!.!.!.!.!.!.!.",
"!.!.!.!.!.!.!.!.!.!.!.!.!.!.!.!.!.!.!.!.!.!.!.!.!.!.!.!.!.!.!.!.!.!.!.!.!.!.!.!.!.!.!.!.!.!.!.!.!.!.!.!.!.!.!.!.!.!.!.!.!.!.!.!."
};
