/* XPM */
static char *result[] = {
/* columns rows colors chars-per-pixel */
"64 64 149 2 ",
"   c #131313",
".  c gray19",
"X  c #313131",
"o  c #444444",
"O  c gray27",
"+  c gray28",
"@  c #484848",
"#  c #4B4B4B",
"$  c #4C4C4C",
"%  c gray31",
"&  c #505050",
"*  c #515151",
"=  c gray32",
"-  c #535353",
";  c gray33",
":  c #555555",
">  c gray34",
",  c #585858",
"<  c gray35",
"1  c gray36",
"2  c gray37",
"3  c #5F5F5F",
"4  c gray39",
"5  c #646464",
"6  c gray40",
"7  c #6D6D6D",
"8  c gray43",
"9  c gray44",
"0  c gray45",
"q  c #747474",
"w  c #777777",
"e  c #797979",
"r  c gray48",
"t  c #7C7C7C",
"y  c gray49",
"u  c #7E7E7E",
"i  c gray50",
"p  c #808080",
"a  c #818181",
"s  c gray51",
"d  c #838383",
"f  c #848484",
"g  c gray52",
"h  c #868686",
"j  c gray53",
"k  c gray54",
"l  c #8B8B8B",
"z  c #8D8D8D",
"x  c #8E8E8E",
"c  c gray56",
"v  c gray57",
"b  c #929292",
"n  c #939393",
"m  c gray58",
"M  c #959595",
"N  c gray59",
"B  c #979797",
"V  c #989898",
"C  c gray60",
"Z  c #9A9A9A",
"A  c #9B9B9B",
"S  c gray61",
"D  c #9D9D9D",
"F  c gray62",
"G  c #A0A0A0",
"H  c gray63",
"J  c #A2A2A2",
"K  c gray64",
"L  c #A4A4A4",
"P  c gray65",
"I  c gray66",
"U  c #AAAAAA",
"Y  c gray67",
"T  c #ACACAC",
"R  c gray68",
"E  c #AFAFAF",
"W  c gray69",
"Q  c #B1B1B1",
"!  c #B2B2B2",
"~  c #B4B4B4",
"^  c gray71",
"/  c #B6B6B6",
"(  c #B7B7B7",
")  c gray72",
"_  c #B9B9B9",
"`  c gray73",
"'  c #BBBBBB",
"]  c #BCBCBC",
"[  c gray74",
"{  c gray",
"}  c gray75",
"|  c #C0C0C0",
" . c #C1C1C1",
".. c gray76",
"X. c #C3C3C3",
"o. c #C5C5C5",
"O. c #C6C6C6",
"+. c gray78",
"@. c #C8C8C8",
"#. c gray79",
"$. c #CACACA",
"%. c #CBCBCB",
"&. c gray80",
"*. c #CDCDCD",
"=. c #CECECE",
"-. c gray81",
";. c #D0D0D0",
":. c gray82",
">. c #D2D2D2",
",. c LightGray",
"<. c gray83",
"1. c #D5D5D5",
"2. c gray84",
"3. c #D7D7D7",
"4. c #D8D8D8",
"5. c gray85",
"6. c #DADADA",
"7. c gray86",
"8. c gainsboro",
"9. c #DDDDDD",
"0. c gray87",
"q. c gray88",
"w. c #E1E1E1",
"e. c #E2E2E2",
"r. c gray89",
"t. c #E4E4E4",
"y. c gray90",
"u. c #E6E6E6",
"i. c #E7E7E7",
"p. c gray91",
"a. c #E9E9E9",
"s. c #EAEAEA",
"d. c gray92",
"f. c #ECECEC",
"g. c gray93",
"h. c #EEEEEE",
"j. c #EFEFEF",
"k. c gray94",
"l. c #F1F1F1",
"z. c gray95",
"x. c #F3F3F3",
"c. c #F4F4F4",
"v. c gray96",
"b. c #F6F6F6",
"n. c gray97",
"m. c #F8F8F8",
"M. c gray98",
"N. c #FBFBFB",
"B. c None",
/* pixels */
"B.B.B.B.B.B.B.B.B.B.B.B.B.B.B.B.B.B.B.B.B.B.B.B.B.B.B.B.B.B.B.B.B.B.B.B.B.B.B.B.B.B.B.B.B.B.B.B.B.B.B.B.B.B.B.B.B.B.B.B.B.B.B.B.",
"B.B.B.B.B.B.B.B.B.B.B.B.B.B.B.B.B.B.B.B.B.B.B.B.B.B.B.B.B.B.B.B.B.B.B.B.B.B.B.B.B.B.B.B.B.B.B.B.B.B.B.B.B.B.B.B.B.B.B.B.B.B.B.B.",
"B.B.B.B.B.B.B.B.B.B.B.B.B.B.B.B.B.B.B.B.B.B.B.B.B.B.B.B.B.B.B.B.B.B.B.B.B.B.B.B.B.B.B.B.B.B.B.B.B.B.B.B.B.B.B.B.B.B.B.B.B.B.B.B.",
"B.B.B.B.B.B.B.B.B.B.B.B.B.B.B.B.B.B.B.B.B.B.B.B.B.B.B.B.B.B.B.B.B.B.B.B.B.B.B.B.B.B.B.B.B.B.B.B.B.B.B.B.B.B.B.B.B.B.B.B.B.B.B.B.",
"B.B.B.B.B.B.B.B.B.B.B.B.B.B.B.B.B.B.B.B.B.B.B.B.B.B.B.B.B.B.B.B.B.B.B.B.B.B.B.B.B.B.B.B.B.B.B.B.B.B.B.B.B.B.B.B.B.B.B.B.B.B.B.B.",
"B.B.B.B.B.B.B.B.B.B.B.B.B.B.B.B.B.B.B.B.B.B.B.B.B.B.B.B.B.B.B.B.B.B.B.B.B.B.B.B.B.B.B.B.B.B.B.B.B.B.B.B.B.B.B.B.B.B.B.B.B.B.B.B.",
"B.B.B.B.B.B.B.B.B.B.B.B.B.B.B.B.B.B.B.B.B.B.B.B.B.B.B.B.B.B.B.B.B.B.B.B.B.B.B.B.B.B.B.B.B.B.B.B.B.B.B.B.B.B.B.B.B.B.B.B.B.B.B.B.",
"B.B.B.B.B.B.B.B.B.B.B.B.B.B.B.B.B.B.B.B.B.B.B.B.B.B.B.B.B.B.B.B.B.B.B.B.B.B.B.B.B.B.B.B.B.B.B.B.B.B.B.B.B.B.B.B.B.B.B.B.B.B.B.B.",
"B.B.B.B.B.B.B.B.B.B.B.B.B.B.B.B.B.B.B.B.B.B.B.B.B.B.B., < < < < < < < < , B.B.B.B.B.B.B.B.B.B.B.B.B.B.B.B.B.B.B.B.B.B.B.B.B.B.B.",
"B.B.B.B.B.B.B.B.B.B.B.B.B.B.B.B.B.B.B.B.B.B.B.B.B.B.b Z A A A A A A A A Z b B.B.B.B.B.B.B.B.B.B.B.B.B.B.B.B.B.B.B.B.B.B.B.B.B.B.",
"B.B.B.B.B.B.B.B.B.B.B.B.B.B.B.B.B.B.B.B.B.B.B.B.0 D | ;.<.<.<.<.<.<.<.<.;.} S 9 B.B.B.B.B.B.B.B.B.B.B.B.B.B.B.B.B.B.B.B.B.B.B.B.",
"B.B.B.B.B.B.B.B.B.B.B.B.B.B.B.B.B.B.B.B.B.B.B.B.F } 9.j.x.x.x.x.x.x.x.x.h.8.' B B.B.B.B.B.B.B.B.B.B.B.B.B.B.B.B.B.B.B.B.B.B.B.B.",
"B.B.B.B.B.B.B.B.B.B.B.B.B.B.B.B.B.B.B.B.B.B.9 S ..9.j.m.N.N.N.N.N.M.M.M.n.f.3.' M 7 B.B.B.B.B.B.B.B.B.B.B.B.B.B.B.B.B.B.B.B.B.B.",
"B.B.B.B.B.B.B.B.B.B.B.B.B.B.B.B.B.B.B.B.B.B.N _ 6.h.n.M.N.N.N.N.N.M.m.n.b.z.p.,.^ M B.B.B.B.B.B.B.B.B.B.B.B.B.B.B.B.B.B.B.B.B.B.",
"B.B.B.B.B.B.B.B.B.B.B.B.B.B.B.B.B.B.B.B.B.k / ,.i.z.n.M.M.M.M.M.M.m.v.x.z.l.g.r.>./ k B.B.B.B.B.B.B.B.B.B.B.B.B.B.B.B.B.B.B.B.B.",
"B.B.B.B.B.B.B.B.B.B.B.B.B.B.B.B.B.B.B.B.- v o.r.g.l.c.b.n.n.n.n.b.c.z.k.j.j.h.d.e.o.v - B.B.B.B.B.B.B.B.B.B.B.B.B.B.B.B.B.B.B.B.",
"B.B.B.B.B.B.B.B.B.B.B.B.B.B.B.B.B.B.B.B.; n #.u.h.j.l.z.z.z.z.z.z.l.j.h.h.h.h.h.u.#.n ; B.B.B.B.B.B.B.B.B.B.B.B.B.B.B.B.B.B.B.B.",
"B.B.B.B.B.B.B.B.B.B.B.B.B.B.B.B.B.B.B.B.; n #.u.h.h.j.j.j.j.j.j.j.j.h.h.h.h.h.h.u.#.n ; B.B.B.B.B.B.B.B.B.B.B.B.B.B.B.B.B.B.B.B.",
"B.B.B.B.B.B.B.B.B.B.B.B.B.B.B.B.B.B.B.B.; n #.u.h.h.h.h.h.h.h.h.h.h.h.h.h.h.h.h.u.#.n ; B.B.B.B.B.B.B.B.B.B.B.B.B.B.B.B.B.B.B.B.",
"B.B.B.B.B.B.B.B.B.B.B.B.B.B.B.B.B.B.B.B.; n #.u.h.h.h.h.h.h.h.h.h.h.h.h.h.h.h.h.u.#.n ; B.B.B.B.B.B.B.B.B.B.B.B.B.B.B.B.B.B.B.B.",
"B.B.B.B.B.B.B.B.B.B.B.B.B.B.B.B.B.B.B.B.; n #.u.g.f.a.a.f.g.h.h.h.h.g.f.a.a.f.g.u.#.n ; B.B.B.B.B.B.B.B.B.B.B.B.B.B.B.B.B.B.B.B.",
"B.B.B.B.B.B.B.B.B.B.B.B.B.B.B.B.B.B.B.B.; n #.u.d.r.4.4.r.f.h.h.h.h.f.r.4.4.r.d.u.#.n ; B.B.B.B.B.B.B.B.B.B.B.B.B.B.B.B.B.B.B.B.",
"B.B.B.B.B.B.B.B.B.B.B.B.B.B.B.B.B.B.B.B.; n #.u.a.2.' ' 2.a.h.h.h.h.a.2.' ' 2.a.u.#.n ; B.B.B.B.B.B.B.B.B.B.B.B.B.B.B.B.B.B.B.B.",
"B.B.B.B.B.B.B.B.B.B.B.B.B.B.B.B.B.B.B.B.; n #.u.i.&.L L &.i.h.h.h.h.i.&.L L &.i.u.#.n ; B.B.B.B.B.B.B.B.B.B.B.B.B.B.B.B.B.B.B.B.",
"B.B.B.B.B.B.B.B.B.B.B.B.B.B.B.B.B.B.B.B.- b @.y.u.&.L L &.i.h.h.h.h.i.&.L L &.u.y.@.b - B.B.B.B.B.B.B.B.B.B.B.B.B.B.B.B.B.B.B.B.",
"B.B.B.B.B.B.B.B.B.B.B.B.B.B.B.B.B.B.B.B.& z ..q.u.1.' ' 2.a.h.h.h.h.a.2.' ' 1.u.q...z & B.B.B.B.B.B.B.B.B.B.B.B.B.B.B.B.B.B.B.B.",
"B.B.B.B.B.B.B.B.B.B.B.B.B.B.B.B.B.B.B.B.$ g / 2.e.q.4.4.r.f.h.h.h.h.f.r.4.4.q.e.2./ g $ B.B.B.B.B.B.B.B.B.B.B.B.B.B.B.B.B.B.B.B.",
"B.B.B.B.B.B.B.B.B.B.B.B.B.B.B.B.B.B.B.B.B.e J  .2.e.u.a.f.g.h.h.h.h.g.f.a.u.e.2. .J e B.B.B.B.B.B.B.B.B.B.B.B.B.B.B.B.B.B.B.B.B.",
"B.B.B.B.B.B.B.B.B.B.B.B.B.B.B.B.B.B.B.B.B.B.d J  .3.t.d.g.h.h.h.h.h.h.h.g.p.9.o.K a 4 B.B.B.B.B.B.B.B.B.B.B.B.B.B.B.B.B.B.B.B.B.",
"B.B.B.B.B.B.B.B.B.B.B.B.B.B.B.B.B.B.B.B.B.B.3 d P  .3.y.d.g.h.h.h.h.h.h.g.p.7.{ c 2 B.B.B.B.B.B.B.B.B.B.B.B.B.B.B.B.B.B.B.B.B.B.",
"B.B.B.B.B.B.B.B.B.B.B.B.B.B.B.B.B.B.B.B.B.B.B.7 l U @.9.p.g.h.h.h.h.h.h.g.d.w.o.N 6 B.B.B.B.B.B.B.B.B.B.B.B.B.B.B.B.B.B.B.B.B.B.",
"B.B.B.B.B.B.B.B.B.B.B.B.B.B.B.B.B.B.B.B.B.B.B.w N Q %.0.p.g.h.h.h.h.h.h.h.g.p.<.~ b 0 B.B.B.B.B.B.B.B.B.B.B.B.B.B.B.B.B.B.B.B.B.",
"B.B.B.B.B.B.B.B.B.B.B.B.B.B.B.B.B.B.B.B.B.B.7 M ) -.9.u.d.g.h.h.h.h.h.h.h.h.f.r.>.^ k B.B.B.B.B.B.B.B.B.B.B.B.B.B.B.B.B.B.B.B.B.",
"B.B.B.B.B.B.B.B.B.B.B.B.B.B.B.B.B.B.B.B.B.B.M ^ >.t.s.f.g.h.h.h.h.h.h.h.h.h.g.d.e.o.b ; B.B.B.B.B.B.B.B.B.B.B.B.B.B.B.B.B.B.B.B.",
"B.B.B.B.B.B.B.B.B.B.B.B.B.B.B.B.B.B.B.B.B.k / >.e.a.a.a.f.g.h.h.h.h.h.h.g.f.a.a.t.$.C 4 B.B.B.B.B.B.B.B.B.B.B.B.B.B.B.B.B.B.B.B.",
"B.B.B.B.B.B.B.B.B.B.B.B.B.B.B.B.B.B.B.B.- v o.e.a.r.4.4.r.f.h.h.h.h.h.h.f.r.4.4.9.;.T f 5 B.B.B.B.B.B.B.B.B.B.B.B.B.B.B.B.B.B.B.",
"B.B.B.B.B.B.B.B.B.B.B.B.B.B.B.B.B.B.B.B.; m $.i.a.3.] ' 2.a.h.h.h.h.h.h.a.2.' ` ;.1...H w B.B.B.B.B.B.B.B.B.B.B.B.B.B.B.B.B.B.B.",
"B.B.B.B.B.B.B.B.B.B.B.B.B.B.B.B.B.B.B.B.: N *.s.d.-.P L &.i.h.h.h.h.h.h.i.&.J F ..1.&.R u + B.B.B.B.B.B.B.B.B.B.B.B.B.B.B.B.B.B.",
"B.B.B.B.B.B.B.B.B.B.B.B.B.B.B.B.B.B.B.B.> C ;.f.s.*.J J %.i.h.h.h.h.h.h.u.#.C x ! %.#.E i @ B.B.B.B.B.B.B.B.B.B.B.B.B.B.B.B.B.B.",
"B.B.B.B.B.B.B.B.B.B.B.B.B.B.B.B.B.B.B.B., A ;.u.8.| I Q >.p.h.h.h.h.h.h.u.#.M t C / } T i @ B.B.B.B.B.B.B.B.B.B.B.B.B.B.B.B.B.B.",
"B.B.B.B.B.B.B.B.B.B.B.B.B.B.B.B.B.B.B.B., C #.,.] I E O.9.s.h.h.h.h.h.g.y.+.v 4 0 C E P y + B.B.B.B.B.B.B.B.B.B.B.B.B.B.B.B.B.B.",
"B.B.B.B.B.B.B.B.B.B.B.B.B.B.B.B.B.B.B.B.B.v ~ W m m _ 2.u.f.h.h.h.h.g.d.w...l % $ t V M w B.B.B.B.B.B.B.B.B.B.B.B.B.B.B.B.B.B.B.",
"B.B.B.B.B.B.B.B.B.B.B.B.B.B.B.B.B.B.B.B.B.B.k u 8 z | 0.a.f.g.h.h.h.g.p.7.' h @ . 3 q q B.B.B.B.B.B.B.B.B.B.B.B.B.B.B.B.B.B.B.B.",
"B.B.B.B.B.B.B.B.B.B.B.B.B.B.B.B.B.B.B.B.B.B.* O = k } 8.t.p.d.g.h.h.g.p.7.' j # B.B.B.B.B.B.B.B.B.B.B.B.B.B.B.B.B.B.B.B.B.B.B.B.",
"B.B.B.B.B.B.B.B.B.B.B.B.B.B.B.B.B.B.B.B.B.B.B.  + g ( ,.6.0.r.i.s.f.g.d.w...z & B.B.B.B.B.B.B.B.B.B.B.B.B.B.B.B.B.B.B.B.B.B.B.B.",
"B.B.B.B.B.B.B.B.B.B.B.B.B.B.B.B.B.B.B.B.B.B.B.B.+ p Q %.;.-.=.,.9.u.d.f.y.@.b - B.B.B.B.B.B.B.B.B.B.B.B.B.B.B.B.B.B.B.B.B.B.B.B.",
"B.B.B.B.B.B.B.B.B.B.B.B.B.B.B.B.B.B.B.B.B.B.B.B.+ u Y o.#.[ T R X.5.i.g.i.$.m ; B.B.B.B.B.B.B.B.B.B.B.B.B.B.B.B.B.B.B.B.B.B.B.B.",
"B.B.B.B.B.B.B.B.B.B.B.B.B.B.B.B.B.B.B.B.B.B.B.B.B.w F / } E z s G o.q.h.s.*.N : B.B.B.B.B.B.B.B.B.B.B.B.B.B.B.B.B.B.B.B.B.B.B.B.",
"B.B.B.B.B.B.B.B.B.B.B.B.B.B.B.B.B.B.B.B.B.B.B.B.B.B.a S E P u 2 r R 5.l.j.:.C > B.B.B.B.B.B.B.B.B.B.B.B.B.B.B.B.B.B.B.B.B.B.B.B.",
"B.B.B.B.B.B.B.B.B.B.B.B.B.B.B.B.B.B.B.B.B.B.B.B.B.B.2 a V M 0 o 1 D 1.z.z.,.A , B.B.B.B.B.B.B.B.B.B.B.B.B.B.B.B.B.B.B.B.B.B.B.B.",
"B.B.B.B.B.B.B.B.B.B.B.B.B.B.B.B.B.B.B.B.B.B.B.B.B.B.B.B.q q 2 X - V -.f.f.-.Z , B.B.B.B.B.B.B.B.B.B.B.B.B.B.B.B.B.B.B.B.B.B.B.B.",
"B.B.B.B.B.B.B.B.B.B.B.B.B.B.B.B.B.B.B.B.B.B.B.B.B.B.B.B.B.B.B.B.: v ] -.-.] v B.B.B.B.B.B.B.B.B.B.B.B.B.B.B.B.B.B.B.B.B.B.B.B.B.",
"B.B.B.B.B.B.B.B.B.B.B.B.B.B.B.B.B.B.B.B.B.B.B.B.B.B.B.B.B.B.B.B.B.B.v Z Z v B.B.B.B.B.B.B.B.B.B.B.B.B.B.B.B.B.B.B.B.B.B.B.B.B.B.",
"B.B.B.B.B.B.B.B.B.B.B.B.B.B.B.B.B.B.B.B.B.B.B.B.B.B.B.B.B.B.B.B.B.B.B., , B.B.B.B.B.B.B.B.B.B.B.B.B.B.B.B.B.B.B.B.B.B.B.B.B.B.B.",
"B.B.B.B.B.B.B.B.B.B.B.B.B.B.B.B.B.B.B.B.B.B.B.B.B.B.B.B.B.B.B.B.B.B.B.B.B.B.B.B.B.B.B.B.B.B.B.B.B.B.B.B.B.B.B.B.B.B.B.B.B.B.B.B.",
"B.B.B.B.B.B.B.B.B.B.B.B.B.B.B.B.B.B.B.B.B.B.B.B.B.B.B.B.B.B.B.B.B.B.B.B.B.B.B.B.B.B.B.B.B.B.B.B.B.B.B.B.B.B.B.B.B.B.B.B.B.B.B.B.",
"B.B.B.B.B.B.B.B.B.B.B.B.B.B.B.B.B.B.B.B.B.B.B.B.B.B.B.B.B.B.B.B.B.B.B.B.B.B.B.B.B.B.B.B.B.B.B.B.B.B.B.B.B.B.B.B.B.B.B.B.B.B.B.B.",
"B.B.B.B.B.B.B.B.B.B.B.B.B.B.B.B.B.B.B.B.B.B.B.B.B.B.B.B.B.B.B.B.B.B.B.B.B.B.B.B.B.B.B.B.B.B.B.B.B.B.B.B.B.B.B.B.B.B.B.B.B.B.B.B.",
"B.B.B.B.B.B.B.B.B.B.B.B.B.B.B.B.B.B.B.B.B.B.B.B.B.B.B.B.B.B.B.B.B.B.B.B.B.B.B.B.B.B.B.B.B.B.B.B.B.B.B.B.B.B.B.B.B.B.B.B.B.B.B.B.",
"B.B.B.B.B.B.B.B.B.B.B.B.B.B.B.B.B.B.B.B.B.B.B.B.B.B.B.B.B.B.B.B.B.B.B.B.B.B.B.B.B.B.B.B.B.B.B.B.B.B.B.B.B.B.B.B.B.B.B.B.B.B.B.B.",
"B.B.B.B.B.B.B.B.B.B.B.B.B.B.B.B.B.B.B.B.B.B.B.B.B.B.B.B.B.B.B.B.B.B.B.B.B.B.B.B.B.B.B.B.B.B.B.B.B.B.B.B.B.B.B.B.B.B.B.B.B.B.B.B.",
"B.B.B.B.B.B.B.B.B.B.B.B.B.B.B.B.B.B.B.B.B.B.B.B.B.B.B.B.B.B.B.B.B.B.B.B.B.B.B.B.B.B.B.B.B.B.B.B.B.B.B.B.B.B.B.B.B.B.B.B.B.B.B.B.",
"B.B.B.B.B.B.B.B.B.B.B.B.B.B.B.B.B.B.B.B.B.B.B.B.B.B.B.B.B.B.B.B.B.B.B.B.B.B.B.B.B.B.B.B.B.B.B.B.B.B.B.B.B.B.B.B.B.B.B.B.B.B.B.B.",
"B.B.B.B.B.B.B.B.B.B.B.B.B.B.B.B.B.B.B.B.B.B.B.B.B.B.B.B.B.B.B.B.B.B.B.B.B.B.B.B.B.B.B.B.B.B.B.B.B.B.B.B.B.B.B.B.B.B.B.B.B.B.B.B."
};
