/* XPM */
static char *_466ae86a9884241cd6d07f9558634fejEdVeYs6y8SesyVx[] = {
/* columns rows colors chars-per-pixel */
"64 64 69 1 ",
"  c #A05B53",
". c #A25D53",
"X c #A86354",
"o c #AA6554",
"O c #AB6655",
"+ c #AE6956",
"@ c #AD6A58",
"# c #B26C56",
"$ c #B46E56",
"% c #B46F57",
"& c #B77257",
"* c #B87357",
"= c #BA7557",
"- c #BB775A",
"; c #BC7758",
": c #BE7858",
"> c #BF7958",
", c #B87960",
"< c #BF7E60",
"1 c #C07A58",
"2 c #C17B58",
"3 c #C17C5B",
"4 c #C47D59",
"5 c #C57E59",
"6 c #C17D5C",
"7 c #CA835A",
"8 c #CB835A",
"9 c #CB845A",
"0 c #CC845A",
"q c #D38A5B",
"w c #D48B5B",
"e c #D58C5B",
"r c #D48B5C",
"t c #D68D5C",
"y c #DC925D",
"u c #E0955D",
"i c #E4995E",
"p c #E99D5F",
"a c #C48361",
"s c #C68564",
"d c #C88966",
"f c #C98E6C",
"g c #CC916E",
"h c #CD916E",
"j c #CD926F",
"k c #D49164",
"l c #CE9775",
"z c #D69D76",
"x c #E99E60",
"c c #EC9F60",
"v c #D7A17C",
"b c #ECA060",
"n c #EEA160",
"m c #EEA161",
"M c #EBA871",
"N c #EFAC74",
"B c #D9A580",
"V c #DFAA80",
"C c #E0B089",
"Z c #E4B68F",
"A c #E7BA92",
"S c #EEBC90",
"D c #E9BD94",
"F c #EFC59B",
"G c #F1C193",
"H c #F3C395",
"J c #F2C99E",
"K c #F4CBA1",
"L c #F4CCA1",
/* pixels */
"5ybbnnnnnnnnnnnnnnnnnnnnnnnnpw2>5ycnnnnnnnnnnnnnnnnnnnnnnnnnpw51",
"5ybbnnnnnnnnnnnnnnnnnnnnnnnnpw222ycnnnnnnnnnnnnnnnnnnnnnnnnnpw11",
"5ybbnnnnnnnnnnnnnnnnnnnnnnnnpw1=5ycnnnnnnnnnnnnnnnnnnnnnnnnnpw11",
"5ybbnnnnnnnnnnnnnnnnnnnnnnnnpt125ycbnnnnnnnnnnnnnnnnnnnnnnnnpw11",
"5ybnnnnnnnnnnnnnnnnnnnnnnnnnpw2>5ybnnnnnnnnnnnnnnnnnnnnnnnnnpw11",
"5ybnnnnnnnnnnnnnnnnnnnnnnnnnpw>25ybnnnnnnnnnnnnnnnnnnnnnnnnnpw11",
"5ybnnnnnnnnnnnnnnnnnnnnnnnnnpw2>5ybnnnnnnnnnnnnnnnnnnnnnnnnnpw11",
"5ybnnnnnnnnnnnnnnnnnnnnnnnnnpw225ycnnnnnnnnnnnnnnnnnnnnnnnbppw11",
"5ybnnnnnnnnnnnnnnnnnnnnnnnnnpw1:5ybnnnnnnnnnnnnnnnnnnnnnnnnnpw52",
"5ybnnnnnnnnnnnnnnnnnnnnnnnnnpt215ybnnnnnnnnnnnnnnnnnnnnnnnnnpt22",
"5ybnnnnnnnnnnnnnnnnnnnnnnnnnpw115ybnnnnnnnnnnnnnnnnnnnnnnnnnpw;2",
"5ybnnnnnnnnnnnnnnnnnnnnnnnnnpw115ybnnnnnnnnnnnnnnnnnnnnnnnnnpw22",
"5ybnnnnnnnnnnnnnnnnnnnnnnnnnpw2=5ybnnnnnnnnnnnnnnnnnnnnnnnnnpw11",
"5ybnnnnnnnnnnnnnnnnnnnnnnnnnpw225ybnnnnnnnnnnnnnnnnnnnnnnnnnpw11",
"5ybnnnnnnnnnnnnnnnnnnnnnnnnnpw2>5ybnnnnnnnnnnnnnnnnnnnnnnnnnpw11",
"5ybnnnnnnnnnnnnnnnnnnnnnnnnnpw225ybnnnnnnnnnnnnnnnnnnnnnnnpppw11",
"5ybnnnnnnnnnnnnnnnnnnnnnnnnnpw2;1xbnnnnnnnnnnnnnnnnnnnnnnnnncr11",
"5ybnnnnnnnnnnnnnnnnnnnnnnnnnpw2>4kbnnnnnnnnnnnnnnnnnnnnnnnnncr11",
"5ybnnnnnnnnnnnnnnnnnnnnnnnnnpw225ucnmmnnnnbnnnnnnnnnnnnnnnmmxt21",
"5ybnnnnnnnnnnnnnnnnnnnnnnnnnpw22<xNNNNNNNNNNNNNNNNNNNNNNNNNNMk1:",
"5ybnnnnnnnnnnnnnnnnnnnnnnnnnpw2=aVSHHHHHHHHHHHHHHHHHHHHHHHHHSz<1",
"5ybnnnnnnnnnnnnnnnnnnnnnnnnnpw22sCKKLLLLLLLLKKKKLKLLLLLLKKKKFz61",
"5ybnnnnnnnnnnnnnnnnnnnnnnnnnpw22sCKKKKKKKKKKKKKKLKKKKKKKKKKKFz62",
"5ybnnnnnnnnnnnnnnnnnnnnnnnnnpw2;sBAADDDDDDDDDDAADDDDDDDDDDDDAl-*",
"5ybnnnnnnnnnnnnnnnnnnnnnnnnnpw221dlfhhlfflflfhhllhflhhlhlllff,oo",
"5ybnnnnnnnnnnnnnnnnnnnnnnnnnpw221;61121122222522251;11;12;1;;#  ",
"5ybnnnnnnnnnnnnnnnnnnnnnnnnnpw2;111:1;11;222>;2;>2111111;122;O  ",
"5ybnnnnnnnnnnnnnnnnnnnnnnnnnpw2215880000888888888588888888888&oo",
"5ybnnnnnnnnnnnnnnnnnnnnnnnnnpt2;5tiiiiiiiiiiiiiiiiiiiiiiiiiiu8**",
"5ybnnnnnnnnnnnnnnnnnnnnnnnnnpt225ycncbnnnnnnnnnnnnnnnnnnnnnnxr11",
"5ybnnnnnnnnnnnnnnnnnnnnnnnnnpw2>5ycnnnnnnnnnnnnnnnnnnnnnnnnnpw11",
"5ybnnnnnnnnnnnnnnnnnnnnnnnnnpw225ybnnnnnnnnnnnnnnnnnnnnnnnnnpr11",
"1xbnnnnnnnnnnnnnnnnnnnnnnnnnpw225ybnnnnnnnnnnnnnnnnnnnnnnnnnpw22",
"4kbnnnnnnnnnnnnnnnnnnnnnnnnnpw2;5ybnnnnnnnnnnnnnnnnnnnnnnnnnpt22",
"5ucnnnnnnnnnnnnnnnnnnnnnnnbnpw225ycnnnnnnnnnnnnnnnnnnnnnnnnnpw2;",
"5ynnnnnnnnnnnnnnnnnnnnnnnnbbpw1:5ycbnnnnnnnnnnnnnnnnnnnnnnnnpw22",
"5yxcnnnnnnnnnnnnnnnnnnnnnnnnxr:25ybnnnnnnnnnnnnnnnnnnnnnnnnnpw2;",
"5ymmnnnnnnnnnnnnnnnnnnnnnnnnxr2:5ybnnnnnnnnnnnnnnnnnnnnnnnnnpw22",
"5kpmmmmmmmnnnnnnmmnnnnnnnnnnxt225ybnnnnnnnnnnnnnnnnnnnnnnnnnpw22",
"5pNNNNNNNNNNNNNNNNNNNNNNNNNNMk2:5ybnnnnnnnnnnnnnnnnnnnnnnnnnpw2;",
"sVGHHHHHHHHHHHHHHHHHHHHHHHHHSz625ybnnnnnnnnnnnnnnnnnnnnnnnnnpw22",
"sCJKKKLKKKKKKKLLLLLLLLLLKKKLFv6:5ybnnnnnnnnnnnnnnnnnnnnnnnnnpw22",
"sCJKKKKKKKKJKKKKLKKKKKKKKKKKFv615ybnnnnnnnnnnnnnnnnnnnnnnnnnpw2>",
"<BADDDDDDDDADDDDDDDDDDDDDAAAZl;&1ycnnnnnnnnnnnnnnnnnnnnnnnnnpw2;",
"@7fllfhlhlflhhlffflhlllflfhzf,oX$rcbnnnnnnnnnnnnnnnnnnnnnnnnpw22",
" $11112213111112422211111111;#  Orcbnnnnnnnnnnnnnnnnnnnnnnnnpw2>",
" %;22;211;111;2;21;22;11;11;;O..Owccnnnnnnnnnnnnnnnnnnnnnnnnpw22",
"@;888888888008888888888888888&XX#wccnnnnnnnnnnnnnnnnnnnnnnnbpw1=",
";riiiiiiiiiiiiiiiiiiiiiiiiiiu8**1ycnnnnnnnnnnnnnnnnnnnnnnnnnpw11",
"5yccnnnnnnnnnnnnnnnnnnnnnnnnpw225ycnnnnnnnnnnnnnnnnnnnnnnnnnpw11",
"5ycbnnnnnnnnnnnnnnnnnnnnnnnnpw225ycnnnnnnnnnnnnnnnnnnnnnnnnnpw52",
"5ybbnnnnnnnnnnnnnnnnnnnnnnnnpq225ycnnnnnnnnnnnnnnnnnnnnnnnnnpq>2",
"5ybnnnnnnnnnnnnnnnnnnnnnnnnnpw2;5ypnnnnnnnnnnnnnnnnnnnnnnnnnpw22",
"5ybnnnnnnnnnnnnnnnnnnnnnnnnnpw515ycnnnnnnnnnnnnnnnnnnnnnnnnnpw2>",
"5ybnnnnnnnnnnnnnnnnnnnnnnnnnpw115ycnnnnnnnnnnnnnnnnnnnnnnnnnpq>2",
"5ybnnnnnnnnnnnnnnnnnnnnnnnnnpw115ybnnnnnnnnnnnnnnnnnnnnnnnnppq2>",
"5ybnnnnnnnnnnnnnnnnnnnnnnnnnpw225ybnnnnnnnnnnnnnnnnnnnnnnnnnpw11",
"5ybnnnnnnnnnnnnnnnnnnnnnnnnnpq225ybnnnnnnnnnnnnnnnnnnnnnnnnnpw11",
"5ybnnnnnnnnnnnnnnnnnnnnnnnnnpw2;5ybnnnnnnnnnnnnnnnnnnnnnnnnnpw52",
"5ybnnnnnnnnnnnnnnnnnnnnnnnnppw225ybnnnnnnnnnnnnnnnnnnnnnnnnnpq>2",
"5ybnnnnnnnnnnnnnnnnnnnnnnnnnpw225ybnnnnnnnnnnnnnnnnnnnnnnnnnpw22",
"5ybnnnnnnnnnnnnnnnnnnnnnnnnnpw2;5ybnnnnnnnnnnnnnnnnnnnnnnnnnpw2>",
"5ybnnnnnnnnnnnnnnnnnnnnnnnnnpw225ybnnnnnnnnnnnnnnnnnnnnnnnnnpq>2",
"5ybnnnnnnnnnnnnnnnnnnnnnnnnnpt215ybnnnnnnnnnnnnnnnnnnnnnnnnppq2>"
};
